<svg width="25" height="30" viewBox="0 0 25 30" fill="none" xmlns="http://www.w3.org/2000/svg">
<path d="M11.4855 0.0425882C16.7722 -0.401476 21.8321 2.65983 23.7846 7.69581C25.7509 12.7677 24.6381 18.5162 20.4736 22.1738C18.8146 23.6312 16.7812 24.3831 14.6112 24.8184C16.3243 26.2976 17.0438 27.4994 19.7271 27.2727C21.6018 27.1145 22.0589 26.4841 23.5227 25.6319C24.8316 26.8179 25.2784 27.0387 23.7256 28.1631C23.6648 28.2177 23.6023 28.2704 23.5373 28.321C22.112 29.4655 20.031 29.6481 18.2818 29.459C14.6641 29.0679 13.9891 27.4416 12.0401 25.0197C11.2727 24.8343 10.3049 24.7971 9.49651 24.6455C0.0427284 22.8719 -3.11752 10.1341 3.53066 3.59022C5.8473 1.30992 8.14288 0.237069 11.4855 0.0425882ZM13.4204 22.5714C18.9945 21.9797 23.0271 16.9747 22.4176 11.4052C21.8081 5.83553 16.7886 1.82021 11.2184 2.44678C5.67267 3.07061 1.67704 8.06116 2.28378 13.6061C2.89053 19.1512 7.87093 23.1605 13.4204 22.5714Z" fill="#1B84E7"/>
<path d="M12.0181 9.98827C13.7096 9.81424 15.2281 11.0285 15.4294 12.7161C15.6308 14.4038 14.4406 15.941 12.7556 16.1693C11.6411 16.3204 10.5318 15.8592 9.85333 14.9627C9.17485 14.0663 9.03258 12.8739 9.48113 11.8431C9.92977 10.8123 10.8995 10.1034 12.0181 9.98827Z" fill="#132F6B"/>
</svg>
