<svg width="24" height="24" viewBox="0 0 24 24" fill="none" xmlns="http://www.w3.org/2000/svg">
<path d="M1.46973 1.46963C1.76264 1.17671 2.23725 1.17687 2.53027 1.46963L8.52148 7.46084C8.52846 7.46755 8.53528 7.47436 8.54199 7.48134L22.5303 21.4696C22.8233 21.7626 22.8233 22.2372 22.5303 22.5302C22.3843 22.6761 22.1929 22.7508 22.001 22.7509H22C21.808 22.7509 21.6157 22.6772 21.4697 22.5302L13.8145 14.8749L13.665 16.1981C13.5811 16.941 13.5471 17.2792 13.6211 17.4862C13.7922 17.963 14.3777 18.4729 14.8945 18.9228C15.1105 19.1107 15.315 19.2887 15.501 19.4706C16.036 19.9946 16.6568 21.4903 15.8818 22.3593C15.619 22.6539 15.3102 22.7459 15.0215 22.746L15.0195 22.747C14.6697 22.7468 14.3495 22.6119 14.1826 22.5409C14.1487 22.527 14.1168 22.5128 14.0859 22.5009L11.3135 21.413C11.1455 21.347 10.9709 21.2803 10.9209 21.2743C10.8806 21.2805 10.7068 21.3481 10.5381 21.413L10.5283 21.4169L7.76367 22.5009C7.73375 22.5129 7.70186 22.527 7.66797 22.5409C7.36196 22.6699 6.55073 23.0131 5.96875 22.3593C5.19479 21.4903 5.81558 19.9947 6.35156 19.4696C6.53656 19.2876 6.74103 19.1108 6.95703 18.9228C7.47397 18.4728 8.06043 17.9631 8.23047 17.4872C8.30446 17.2792 8.26954 16.942 8.18555 16.1991L8.02246 14.745L3.06445 15.8886C2.52045 16.0146 2.07705 15.9455 1.74805 15.6835C1.41725 15.4206 1.2501 15.002 1.25 14.4384C1.25 12.9625 1.76097 12.0472 3.0127 11.2782L6.30664 9.25673C6.76564 8.97473 7.02177 8.81847 7.13477 8.68447C7.17192 8.62083 7.20573 8.46193 7.22754 8.28798L1.46973 2.53017C1.17697 2.23715 1.17681 1.76254 1.46973 1.46963ZM8.41016 9.4706C8.37603 9.5269 8.34011 9.58156 8.29883 9.63173C8.02983 9.96073 7.6968 10.165 7.0918 10.536L3.79883 12.5565C2.99087 13.0525 2.754 13.4729 2.75098 14.4218L8.50391 13.0936C8.71191 13.0456 8.93145 13.0888 9.10645 13.2128C9.2813 13.3358 9.39398 13.5292 9.41797 13.7411L9.67676 16.0302C9.78074 16.944 9.83756 17.4481 9.64258 17.9921C9.34056 18.8368 8.59821 19.4838 7.94238 20.0536C7.74346 20.2265 7.55631 20.39 7.40234 20.5409C7.28742 20.6538 7.16818 20.9265 7.12012 21.1425C7.15292 21.1286 7.18501 21.1163 7.21484 21.1044L9.99316 20.0136C10.3659 19.8687 10.612 19.7734 10.9258 19.7733C11.2398 19.7733 11.4854 19.8686 11.8584 20.0136L14.6348 21.1024C14.6658 21.1144 14.6984 21.1285 14.7314 21.1415C14.6834 20.9256 14.5651 20.6529 14.4502 20.5409C14.2952 20.3889 14.1082 20.2256 13.9092 20.0526C13.2542 19.4827 12.511 18.836 12.208 17.9911C12.013 17.4472 12.0699 16.943 12.1738 16.0292L12.4326 13.7401C12.4405 13.6712 12.4597 13.6061 12.4844 13.5448L8.41016 9.4706ZM10.1328 1.43154C10.6847 1.18966 11.3144 1.18963 11.8643 1.43154C13.2433 2.04154 14.5939 3.90387 14.7559 5.41787C14.8088 5.92071 14.7389 6.42704 14.6709 6.91689C14.5529 7.76565 14.5036 8.30769 14.8105 8.67763C14.9226 8.8126 15.1816 8.97085 15.6514 9.25673L18.9736 11.2772C20.2356 12.0462 20.75 12.9624 20.75 14.4394C20.75 15.1924 20.1746 15.8729 20.0586 16.0019C19.9106 16.1667 19.7049 16.2509 19.5 16.2509V16.2499C19.3222 16.2498 19.1419 16.1864 18.999 16.0575C18.6913 15.7806 18.6658 15.3069 18.9424 14.9989C19.0964 14.8239 19.25 14.5444 19.25 14.4384C19.25 13.4794 19.0133 13.0575 18.1934 12.5575L14.8711 10.536C14.2634 10.1662 13.9292 9.96256 13.6553 9.63466C12.9044 8.7278 13.0596 7.60879 13.1846 6.70986C13.2426 6.29086 13.2977 5.89509 13.2637 5.57509C13.1585 4.59421 12.1476 3.19574 11.2607 2.80361C11.0957 2.73161 10.9043 2.73161 10.7373 2.80361C10.1944 3.04369 9.55438 3.67597 9.14844 4.37588C8.94033 4.73358 8.48092 4.85529 8.12305 4.64736C7.76532 4.43926 7.64363 3.97985 7.85156 3.62197C8.42157 2.64113 9.29592 1.80149 10.1328 1.43154Z" fill="#1B84E7"/>
</svg>
