<svg width="24" height="24" viewBox="0 0 24 24" fill="none" xmlns="http://www.w3.org/2000/svg">
<path d="M17 1.25C17.41 1.25 17.75 1.59 17.75 2V2.94043C18.8677 3.11898 19.6851 3.46442 20.3604 4.13965C21.7504 5.52965 21.75 7.52 21.75 11.5V14C21.75 17.98 21.7504 19.9704 20.3604 21.3604C18.9704 22.7504 16.98 22.75 13 22.75H11C7.02 22.75 5.02965 22.7504 3.63965 21.3604C2.24965 19.9704 2.25 17.98 2.25 14V11.5C2.25 7.52 2.24965 5.52965 3.63965 4.13965C4.31487 3.46442 5.13227 3.11898 6.25 2.94043V2C6.25 1.59 6.59 1.25 7 1.25C7.41 1.25 7.75 1.59 7.75 2V2.79492C8.6605 2.74962 9.72874 2.75 11 2.75H13C14.2713 2.75 15.3395 2.74962 16.25 2.79492V2C16.25 1.59 16.59 1.25 17 1.25ZM3.76367 9.25C3.75094 9.90842 3.75 10.6542 3.75 11.5V14C3.75 17.56 3.7502 19.3498 4.7002 20.2998C5.6502 21.2498 7.44 21.25 11 21.25H13C16.56 21.25 18.3498 21.2498 19.2998 20.2998C20.2498 19.3498 20.25 17.56 20.25 14V11.5C20.25 10.6542 20.2491 9.90842 20.2363 9.25H3.76367ZM15.75 11.79C16.1399 11.6503 16.57 11.8601 16.71 12.25C16.8498 12.6398 16.6397 13.0698 16.25 13.21C13.74 14.1 11.6792 17.8304 11.6592 17.8604C11.5292 18.1 11.2697 18.2498 11 18.25C11 18.25 10.9597 18.25 10.9297 18.25C10.6297 18.22 10.3793 18.0202 10.2793 17.7402C9.91126 16.6361 8.77195 16.2241 8.75 16.21C8.36 16.07 8.15004 15.6498 8.29004 15.2598C8.42018 14.87 8.83962 14.6601 9.22949 14.79C9.28949 14.81 10.2595 15.1401 11.0195 16.04C11.9195 14.7 13.65 12.54 15.75 11.79ZM11 4.25C9.69365 4.25 8.62563 4.24992 7.75 4.29688V5C7.75 5.41 7.41 5.75 7 5.75C6.59 5.75 6.25 5.41 6.25 5V4.4668C5.56891 4.60467 5.07066 4.82976 4.7002 5.2002C4.16814 5.73225 3.93402 6.52765 3.83105 7.75H20.1689C20.066 6.52765 19.8319 5.73225 19.2998 5.2002C18.9293 4.82976 18.4311 4.60467 17.75 4.4668V5C17.75 5.41 17.41 5.75 17 5.75C16.59 5.75 16.25 5.41 16.25 5V4.29688C15.3744 4.24992 14.3063 4.25 13 4.25H11Z" fill="#70809F"/>
</svg>
