<svg width="24" height="24" viewBox="0 0 24 24" fill="none" xmlns="http://www.w3.org/2000/svg">
<path opacity="0.4" d="M17 14C19.2091 14 21 15.7909 21 18C21 20.2091 19.2091 22 17 22C14.7909 22 13 20.2091 13 18C13 15.7909 14.7909 14 17 14ZM13 3.5C16.7694 3.5 18.6491 3.50019 19.8291 4.66992C20.6991 5.54992 20.9195 6.83 20.9795 9H3.01953C3.06953 6.83 3.28992 5.54992 4.16992 4.66992C5.33994 3.50014 7.23024 3.5 11 3.5H13Z" fill="#6C5CE7"/>
<path d="M17 13.25C19.62 13.25 21.75 15.38 21.75 18C21.75 20.62 19.62 22.75 17 22.75C14.38 22.75 12.25 20.62 12.25 18C12.25 15.38 14.38 13.25 17 13.25ZM16.5 1.25C16.91 1.25 17.25 1.59 17.25 2V2.87207C18.6306 3.02464 19.5882 3.36753 20.3604 4.13965C21.7503 5.52965 21.75 7.52001 21.75 11.5V12.5C21.75 12.91 21.41 13.25 21 13.25C20.59 13.25 20.25 12.91 20.25 12.5V11.5C20.25 10.8615 20.2477 10.28 20.2422 9.75H3.75781C3.75233 10.28 3.75 10.8615 3.75 11.5V13.5C3.75 17.06 3.7502 18.8498 4.7002 19.7998C5.6502 20.7498 7.44003 20.75 11 20.75C11.41 20.75 11.75 21.09 11.75 21.5C11.75 21.91 11.41 22.25 11 22.25C7.02 22.25 5.02965 22.2504 3.63965 20.8604C2.24966 19.4704 2.25 17.48 2.25 13.5V11.5C2.25 7.53001 2.24966 5.52965 3.63965 4.13965C4.41177 3.36753 5.36938 3.02464 6.75 2.87207V2C6.75 1.59 7.09 1.25 7.5 1.25C7.91 1.25 8.25 1.59 8.25 2V2.77539C9.04612 2.75019 9.95438 2.75 11 2.75H13C14.0456 2.75 14.9539 2.75019 15.75 2.77539V2C15.75 1.59 16.09 1.25 16.5 1.25ZM17 14.75C15.21 14.75 13.75 16.21 13.75 18C13.75 19.79 15.21 21.25 17 21.25C18.79 21.25 20.25 19.79 20.25 18C20.25 16.21 18.79 14.75 17 14.75ZM17 15.25C17.41 15.25 17.75 15.59 17.75 16V17.6904L18.5303 18.4697C18.8203 18.7597 18.8203 19.2403 18.5303 19.5303C18.3803 19.6803 18.19 19.75 18 19.75C17.81 19.75 17.6197 19.6803 17.4697 19.5303L16.4697 18.5303C16.3297 18.3903 16.25 18.2 16.25 18V16C16.25 15.59 16.59 15.25 17 15.25ZM11 4.25C9.93255 4.25 9.02426 4.25076 8.25 4.27637V5.5C8.25 5.91 7.91 6.25 7.5 6.25C7.09 6.25 6.75 5.91 6.75 5.5V4.38477C5.80493 4.50812 5.15594 4.74446 4.7002 5.2002C4.0988 5.80159 3.87784 6.73941 3.79688 8.25H20.2031C20.1222 6.73941 19.9012 5.80159 19.2998 5.2002C18.8441 4.74446 18.1951 4.50812 17.25 4.38477V5.5C17.25 5.91 16.91 6.25 16.5 6.25C16.09 6.25 15.75 5.91 15.75 5.5V4.27637C14.9757 4.25076 14.0675 4.25 13 4.25H11Z" fill="#6C5CE7"/>
</svg>
