<svg width="24" height="24" viewBox="0 0 24 24" fill="none" xmlns="http://www.w3.org/2000/svg">
<path d="M12.0039 1.25C12.3319 1.25 12.6813 1.26673 13.0723 1.30273C13.4841 1.3409 13.788 1.70628 13.751 2.11816C13.7139 2.53007 13.3475 2.83687 12.9355 2.79688C12.5907 2.7659 12.2858 2.75 12.0039 2.75C6.90391 2.75 2.75391 6.70731 2.75391 11.5703C2.75398 13.8171 3.64299 15.9559 5.25684 17.5928C5.85178 18.2017 6.11342 18.9618 5.97852 19.6787C5.87452 20.2267 5.6981 20.7551 5.4541 21.2471C6.34189 21.227 7.22462 21.0009 8.02246 20.5801C8.55643 20.2861 8.82793 20.1435 9.12891 20.1064C9.39991 20.0734 9.66724 20.1189 10.1982 20.2109C12.957 20.7288 15.8289 20.0233 18.0088 18.3545C19.6968 17.0625 20.8545 15.2818 21.2705 13.3418C21.3576 12.9369 21.7561 12.6786 22.1621 12.7656C22.567 12.8527 22.8253 13.2523 22.7383 13.6572C22.2473 15.9452 20.8918 18.0359 18.9209 19.5449C16.9549 21.0499 14.4989 21.8799 12.0039 21.8799C11.3089 21.8799 10.6117 21.8155 9.92969 21.6875C9.67201 21.6426 9.41944 21.5978 9.32422 21.5947C9.21823 21.6337 8.93323 21.7915 8.74023 21.8975L8.72852 21.9033C7.67471 22.4601 6.50092 22.748 5.32617 22.748C4.88817 22.748 4.44862 22.708 4.01562 22.627C3.75594 22.5779 3.54028 22.3961 3.4502 22.1475C3.3592 21.8985 3.40622 21.62 3.57422 21.415C4.04107 20.8432 4.36286 20.1462 4.50488 19.4004C4.56587 19.0755 4.30258 18.7636 4.18555 18.6445C2.29562 16.7276 1.25398 14.2142 1.25391 11.5703C1.25391 5.88031 6.07591 1.25 12.0039 1.25ZM8.0127 11C8.5647 11 9.0127 11.448 9.0127 12C9.0127 12.552 8.5647 13 8.0127 13C7.46075 12.9999 7.00781 12.552 7.00781 12C7.00781 11.448 7.45091 11 8.00391 11H8.0127ZM12.0088 11C12.5608 11 13.0088 11.448 13.0088 12C13.0088 12.552 12.5608 13 12.0088 13H11.999C11.447 13 10.999 12.552 10.999 12C10.999 11.448 11.447 11 11.999 11H12.0088ZM18.4355 6.64062C19.6924 6.64062 21.3833 7.25849 22.4883 8.99316C22.7033 9.32315 22.7212 9.74232 22.5332 10.0703C22.3472 10.4043 21.5199 11.5804 20.5811 11.6777C19.9661 11.7437 18.4515 11.752 18.4365 11.752V11.751C18.4167 11.751 16.8602 11.7427 16.2432 11.6768C15.3073 11.5804 14.4799 10.4043 14.2939 10.0703C14.106 9.74232 14.1239 9.32314 14.3389 8.99316C15.4439 7.25949 17.1786 6.64064 18.4355 6.64062ZM18.4365 8.1416C17.6526 8.14163 16.5417 8.5215 15.7607 9.57422C15.9677 9.84522 16.2699 10.1345 16.4199 10.1875L16.4189 10.1865C16.9171 10.2365 18.2501 10.251 18.4375 10.251C18.6184 10.251 19.9179 10.2365 20.4092 10.1865C20.5602 10.1335 20.8623 9.84424 21.0693 9.57324C20.2964 8.52253 19.2204 8.1416 18.4365 8.1416ZM18.4346 1.25C19.8146 1.25 20.9375 2.38904 20.9375 3.79004C20.9375 5.19104 19.8146 6.33008 18.4346 6.33008C17.0546 6.33004 15.9316 5.19102 15.9316 3.79004C15.9316 2.38906 17.0546 1.25003 18.4346 1.25ZM18.4346 2.75C17.8816 2.75003 17.4316 3.21706 17.4316 3.79004C17.4316 4.36302 17.8816 4.83004 18.4346 4.83008C18.9876 4.83008 19.4375 4.36304 19.4375 3.79004C19.4375 3.21704 18.9876 2.75 18.4346 2.75Z" fill="#1B84E7"/>
</svg>
