<svg width="32" height="32" viewBox="0 0 32 32" fill="none" xmlns="http://www.w3.org/2000/svg">
<path d="M26 26.75C26.4142 26.75 26.75 26.4142 26.75 26C26.75 25.5858 26.4142 25.25 26 25.25H25.75L25.75 16C25.75 15.3633 25.7182 14.801 25.6133 14.3232C25.5065 13.837 25.3137 13.3919 24.9609 13.0391C24.6081 12.6863 24.163 12.4935 23.6768 12.3867C23.199 12.2818 22.6367 12.25 22 12.25H19.75V9C19.75 8.36332 19.7182 7.80097 19.6133 7.32324C19.5065 6.837 19.3137 6.39187 18.9609 6.03906C18.6081 5.68626 18.163 5.49354 17.6768 5.38672C17.199 5.28178 16.6367 5.25 16 5.25L10 5.25C9.36332 5.25 8.80097 5.28178 8.32324 5.38672C7.837 5.49354 7.39187 5.68626 7.03906 6.03906C6.68626 6.39187 6.49354 6.837 6.38672 7.32324C6.28178 7.80097 6.25 8.36332 6.25 9L6.25 25.25H6C5.58579 25.25 5.25 25.5858 5.25 26C5.25 26.4142 5.58579 26.75 6 26.75L26 26.75ZM7.75 18.75H10C10.4142 18.75 10.75 18.4142 10.75 18C10.75 17.5858 10.4142 17.25 10 17.25H7.75L7.75 14.75H10C10.4142 14.75 10.75 14.4142 10.75 14C10.75 13.5858 10.4142 13.25 10 13.25H7.75V10.75H10C10.4142 10.75 10.75 10.4142 10.75 10C10.75 9.58579 10.4142 9.25 10 9.25H7.75L7.75 9C7.75 8.39595 7.78286 7.96291 7.85254 7.64551C7.92041 7.33657 8.01266 7.18656 8.09961 7.09961C8.18656 7.01266 8.33657 6.92041 8.64551 6.85254C8.96291 6.78286 9.39595 6.75 10 6.75L16 6.75C16.604 6.75 17.0371 6.78286 17.3545 6.85254C17.6634 6.92041 17.8134 7.01266 17.9004 7.09961C17.9873 7.18656 18.0796 7.33657 18.1475 7.64551C18.2171 7.96291 18.25 8.39595 18.25 9V12.25H18C17.3633 12.25 16.801 12.2818 16.3232 12.3867C15.837 12.4935 15.3919 12.6863 15.0391 13.0391C14.6863 13.3919 14.4935 13.837 14.3867 14.3232C14.2818 14.801 14.25 15.3633 14.25 16L14.25 25.25L7.75 25.25L7.75 18.75ZM15.75 16C15.75 15.396 15.7829 14.9629 15.8525 14.6455C15.9204 14.3366 16.0127 14.1866 16.0996 14.0996C16.1866 14.0127 16.3366 13.9204 16.6455 13.8525C16.9629 13.7829 17.396 13.75 18 13.75H22C22.604 13.75 23.0371 13.7829 23.3545 13.8525C23.6634 13.9204 23.8134 14.0127 23.9004 14.0996C23.9873 14.1866 24.0796 14.3366 24.1475 14.6455C24.2171 14.9629 24.25 15.396 24.25 16L24.25 25.25H20.75V23C20.75 22.5858 20.4142 22.25 20 22.25C19.5858 22.25 19.25 22.5858 19.25 23V25.25H15.75L15.75 16ZM21 17.75C21.4142 17.75 21.75 17.4142 21.75 17C21.75 16.5858 21.4142 16.25 21 16.25H19C18.5858 16.25 18.25 16.5858 18.25 17C18.25 17.4142 18.5858 17.75 19 17.75H21ZM21 20.75C21.4142 20.75 21.75 20.4142 21.75 20C21.75 19.5858 21.4142 19.25 21 19.25H19C18.5858 19.25 18.25 19.5858 18.25 20C18.25 20.4142 18.5858 20.75 19 20.75H21Z" fill="#6B7280"/>
</svg>
