<svg width="24" height="24" viewBox="0 0 24 24" fill="none" xmlns="http://www.w3.org/2000/svg">
<path d="M22 22.75C22.4142 22.75 22.75 22.4142 22.75 22C22.75 21.5858 22.4142 21.25 22 21.25H21.75L21.75 12C21.75 11.3633 21.7182 10.801 21.6133 10.3232C21.5065 9.837 21.3137 9.39187 20.9609 9.03906C20.6081 8.68626 20.163 8.49354 19.6768 8.38672C19.199 8.28179 18.6367 8.25 18 8.25H15.75L15.75 5C15.75 4.36332 15.7182 3.80097 15.6133 3.32324C15.5065 2.837 15.3137 2.39187 14.9609 2.03906C14.6081 1.68626 14.163 1.49354 13.6768 1.38672C13.199 1.28178 12.6367 1.25 12 1.25L6 1.25C5.36332 1.25 4.80097 1.28178 4.32324 1.38672C3.837 1.49354 3.39187 1.68626 3.03906 2.03906C2.68626 2.39187 2.49354 2.837 2.38672 3.32324C2.28178 3.80097 2.25 4.36332 2.25 5L2.25 21.25H2C1.58579 21.25 1.25 21.5858 1.25 22C1.25 22.4142 1.58579 22.75 2 22.75L22 22.75ZM3.75 14.75L6 14.75C6.41421 14.75 6.75 14.4142 6.75 14C6.75 13.5858 6.41421 13.25 6 13.25H3.75L3.75 10.75H6C6.41421 10.75 6.75 10.4142 6.75 10C6.75 9.58579 6.41421 9.25 6 9.25H3.75L3.75 6.75H6C6.41421 6.75 6.75 6.41421 6.75 6C6.75 5.58579 6.41421 5.25 6 5.25H3.75L3.75 5C3.75 4.39595 3.78286 3.96291 3.85254 3.64551C3.92041 3.33657 4.01266 3.18656 4.09961 3.09961C4.18656 3.01266 4.33657 2.92041 4.64551 2.85254C4.96291 2.78286 5.39595 2.75 6 2.75L12 2.75C12.604 2.75 13.0371 2.78286 13.3545 2.85254C13.6634 2.92041 13.8134 3.01266 13.9004 3.09961C13.9873 3.18656 14.0796 3.33657 14.1475 3.64551C14.2171 3.96291 14.25 4.39595 14.25 5L14.25 8.25H14C13.3633 8.25 12.801 8.28178 12.3232 8.38672C11.837 8.49354 11.3919 8.68626 11.0391 9.03906C10.6863 9.39187 10.4935 9.837 10.3867 10.3232C10.2818 10.801 10.25 11.3633 10.25 12L10.25 21.25L3.75 21.25L3.75 14.75ZM11.75 12C11.75 11.396 11.7829 10.9629 11.8525 10.6455C11.9204 10.3366 12.0127 10.1866 12.0996 10.0996C12.1866 10.0127 12.3366 9.92041 12.6455 9.85254C12.9629 9.78286 13.396 9.75 14 9.75H18C18.604 9.75 19.0371 9.78286 19.3545 9.85254C19.6634 9.92041 19.8134 10.0127 19.9004 10.0996C19.9873 10.1866 20.0796 10.3366 20.1475 10.6455C20.2171 10.9629 20.25 11.396 20.25 12L20.25 21.25H16.75V19C16.75 18.5858 16.4142 18.25 16 18.25C15.5858 18.25 15.25 18.5858 15.25 19L15.25 21.25H11.75L11.75 12ZM17 13.75C17.4142 13.75 17.75 13.4142 17.75 13C17.75 12.5858 17.4142 12.25 17 12.25H15C14.5858 12.25 14.25 12.5858 14.25 13C14.25 13.4142 14.5858 13.75 15 13.75H17ZM17 16.75C17.4142 16.75 17.75 16.4142 17.75 16C17.75 15.5858 17.4142 15.25 17 15.25L15 15.25C14.5858 15.25 14.25 15.5858 14.25 16C14.25 16.4142 14.5858 16.75 15 16.75H17Z" fill="white"/>
</svg>
