<svg width="24" height="24" viewBox="0 0 24 24" fill="none" xmlns="http://www.w3.org/2000/svg">
<path d="M15.8281 15.25C16.1891 15.25 16.4076 15.2498 16.6436 15.3428C17.1344 15.5319 17.472 15.9993 17.499 16.5332C17.51 16.7891 17.4421 16.9951 17.3281 17.335C17.1452 17.8858 17.0441 18.1878 16.8672 18.4707C16.5714 18.9381 16.1504 19.2965 15.6562 19.5146L15.5977 19.8105C15.4467 20.5605 15.3645 20.9725 15.1465 21.3555C14.8096 21.9503 14.266 22.3953 13.6162 22.6094C13.1975 22.7483 12.7702 22.748 11.9961 22.748C11.2212 22.748 10.7946 22.7482 10.375 22.6094C9.727 22.3964 9.18273 21.9505 8.84473 21.3555C8.62776 20.9735 8.54452 20.5605 8.39453 19.8115L8.33398 19.5107C7.84391 19.2923 7.42701 18.9355 7.13477 18.4736C6.95592 18.1888 6.85477 17.8866 6.67285 17.3398L7.38281 17.0986L6.67188 17.3359C6.56191 17.007 6.49 16.79 6.50098 16.5381C6.52798 16.0001 6.86728 15.5318 7.36328 15.3408C7.59415 15.2499 7.81112 15.25 8.17188 15.25H15.8281ZM13.9883 19.75H10.0117C9.97798 19.75 9.94512 19.749 9.91309 19.749C10.0049 20.201 10.0641 20.4661 10.1484 20.6152C10.3014 20.8862 10.5487 21.0885 10.8438 21.1855C11.0348 21.2485 11.3771 21.249 11.9971 21.249C12.6166 21.249 12.9575 21.2485 13.1475 21.1855C13.4435 21.0875 13.6908 20.8852 13.8438 20.6152C13.9281 20.4662 13.9863 20.2012 14.0781 19.749C14.0489 19.749 14.0189 19.75 13.9883 19.75ZM8.09375 16.8613L8.0957 16.8662C8.24068 17.3031 8.32133 17.5438 8.40332 17.6738C8.57432 17.9438 8.84037 18.1369 9.15137 18.2139C9.29836 18.2508 9.55219 18.251 10.0117 18.251H13.9883C14.4482 18.251 14.7026 18.2509 14.8506 18.2139C15.1603 18.1368 15.4257 17.9437 15.5986 17.6709C15.6786 17.5439 15.7593 17.3031 15.9043 16.8662C15.9173 16.8282 15.9304 16.788 15.9424 16.751H8.05859L8.05664 16.75C8.06864 16.786 8.08175 16.8243 8.09375 16.8613ZM12 1.25C16.825 1.25 20.75 5.13897 20.75 9.91895C20.75 11.4988 20.3169 13.0447 19.498 14.3896C19.3571 14.6215 19.1103 14.7499 18.8574 14.75L18.8555 14.751C18.7225 14.751 18.5868 14.7156 18.4658 14.6406C18.1122 14.4256 18.0002 13.9642 18.2158 13.6104C18.8918 12.5004 19.25 11.2239 19.25 9.91895C19.25 5.96597 15.998 2.75 12 2.75C8.00202 2.75 4.75003 5.96597 4.75 9.91895C4.75 11.2229 5.10718 12.4994 5.78418 13.6104C5.99885 13.9642 5.88685 14.4246 5.5332 14.6406C5.1792 14.8556 4.71795 14.7436 4.50195 14.3896C3.68306 13.0437 3.25 11.4978 3.25 9.91895C3.25003 5.13897 7.17502 1.25 12 1.25ZM11.9912 5.99902C12.2682 5.69105 12.7418 5.66539 13.0498 5.94238C13.3577 6.21934 13.3843 6.69298 13.1074 7.00098L12.0039 8.22852L12.876 8.3877C13.313 8.46769 13.6593 8.78295 13.7783 9.21094C13.8973 9.63782 13.7664 10.0849 13.4346 10.3789L11.5469 12.0596C11.4039 12.1866 11.2259 12.25 11.0479 12.25L11.0498 12.251C10.8429 12.2509 10.6382 12.1659 10.4902 12C10.2144 11.6911 10.2422 11.2175 10.5508 10.9414L11.9033 9.73633L11.1201 9.59277C10.7102 9.51876 10.3723 9.22697 10.2373 8.83203C10.1034 8.4382 10.192 8.00234 10.4697 7.69336L11.9912 5.99902Z" fill="#D97706"/>
</svg>
