<svg width="28" height="28" viewBox="0 0 28 28" fill="none" xmlns="http://www.w3.org/2000/svg">
<path d="M20.9995 1.45801C21.4828 1.45801 21.8745 1.84976 21.8745 2.33301V3.07422C22.8135 3.34032 23.606 3.77178 24.2651 4.48438C25.1726 5.46546 25.5758 6.70541 25.769 8.25879C25.9584 9.78106 25.9585 11.7325 25.9585 14.2217V14.9443C25.9585 17.4335 25.9584 19.385 25.769 20.9072C25.5758 22.4606 25.1726 23.7006 24.2651 24.6816C23.3486 25.6725 22.1748 26.1215 20.7065 26.335C19.2856 26.5415 17.47 26.541 15.1792 26.541H12.8208C10.5301 26.541 8.71443 26.5414 7.29346 26.335C5.82526 26.1216 4.65138 25.6724 3.73486 24.6816C2.82736 23.7006 2.42417 22.4606 2.23096 20.9072C2.04164 19.385 2.04149 17.4335 2.0415 14.9443V14.2217C2.04149 11.7325 2.04164 9.78105 2.23096 8.25879C2.42417 6.70542 2.82736 5.46545 3.73486 4.48438C4.39384 3.77203 5.1859 3.34032 6.12451 3.07422V2.33301C6.12451 1.84987 6.51641 1.45818 6.99951 1.45801C7.48276 1.45801 7.87451 1.84976 7.87451 2.33301V2.75977C9.19997 2.62449 10.8312 2.62498 12.8208 2.625H15.1792C17.1684 2.62498 18.7992 2.62456 20.1245 2.75977V2.33301C20.1245 1.84987 20.5164 1.45818 20.9995 1.45801ZM24.1606 10.1729C24.0831 10.1954 24.0013 10.208 23.9165 10.208H4.0835C3.99848 10.208 3.9161 10.1955 3.83838 10.1729C3.7922 11.2963 3.7915 12.6417 3.7915 14.2832V14.8828C3.7915 17.4474 3.79297 19.2898 3.96729 20.6914C4.1393 22.0742 4.46684 22.8951 5.02002 23.4932C5.56423 24.0813 6.29673 24.4221 7.54443 24.6035C8.82503 24.7896 10.5135 24.791 12.8911 24.791H15.1079C17.4855 24.791 19.174 24.7896 20.4546 24.6035C21.7025 24.4221 22.4357 24.0815 22.98 23.4932C23.5332 22.8951 23.8607 22.0742 24.0327 20.6914C24.207 19.2898 24.2085 17.4474 24.2085 14.8828V14.2832C24.2085 12.6417 24.2068 11.2963 24.1606 10.1729ZM9.34326 18.666C9.98759 18.666 10.5103 19.1887 10.5103 19.833C10.5103 20.4773 9.98759 21 9.34326 21H9.3335C8.68916 21 8.1665 20.4773 8.1665 19.833C8.1665 19.1887 8.68916 18.666 9.3335 18.666H9.34326ZM14.0054 18.666C14.6496 18.6662 15.1714 19.1888 15.1714 19.833C15.1714 20.4772 14.6496 20.9998 14.0054 21H13.9946C13.3503 21 12.8276 20.4773 12.8276 19.833C12.8276 19.1887 13.3503 18.666 13.9946 18.666H14.0054ZM9.34326 14C9.98748 14 10.5101 14.5218 10.5103 15.166C10.5103 15.8103 9.98759 16.333 9.34326 16.333H9.3335C8.68916 16.333 8.1665 15.8103 8.1665 15.166C8.16668 14.5218 8.68927 14 9.3335 14H9.34326ZM14.0054 14C14.6495 14.0002 15.1712 14.5219 15.1714 15.166C15.1714 15.8102 14.6496 16.3328 14.0054 16.333H13.9946C13.3503 16.333 12.8276 15.8103 12.8276 15.166C12.8278 14.5218 13.3504 14 13.9946 14H14.0054ZM18.6665 14C19.3107 14 19.8333 14.5218 19.8335 15.166C19.8335 15.8103 19.3108 16.333 18.6665 16.333H18.6558C18.0116 16.3329 17.4897 15.8103 17.4897 15.166C17.4899 14.5219 18.0117 14.0001 18.6558 14H18.6665ZM12.8911 4.375C10.7121 4.375 9.11235 4.37791 7.87451 4.52148V4.66602C7.87451 5.14926 7.48276 5.54102 6.99951 5.54102C6.59932 5.54087 6.26271 5.27217 6.15869 4.90527C5.68324 5.09433 5.3227 5.34572 5.02002 5.67285C4.46801 6.26962 4.14057 7.08833 3.96826 8.46582C4.00588 8.46088 4.04453 8.45801 4.0835 8.45801H23.9165C23.9552 8.45801 23.9933 8.46094 24.0308 8.46582C23.8585 7.08838 23.532 6.26961 22.98 5.67285C22.6772 5.34551 22.3161 5.09439 21.8403 4.90527C21.7362 5.27218 21.3998 5.54102 20.9995 5.54102C20.5164 5.54084 20.1245 5.14916 20.1245 4.66602V4.52148C18.8867 4.37797 17.2867 4.375 15.1079 4.375H12.8911Z" fill="#1B84E7"/>
</svg>
