<svg width="24" height="24" viewBox="0 0 24 24" fill="none" xmlns="http://www.w3.org/2000/svg">
<path d="M18 1.25C18.4142 1.25 18.75 1.58579 18.75 2V2.63574C19.5546 2.86384 20.2339 3.23403 20.7988 3.84473C21.5308 4.6362 21.88 5.62399 22.0566 6.84766C22.2308 8.05464 22.248 9.5791 22.25 11.499C22.2504 11.9131 21.915 12.2493 21.501 12.25C21.0868 12.2504 20.7505 11.9151 20.75 11.501C20.7489 10.4347 20.7412 9.52882 20.71 8.75H3.28906C3.25069 9.70687 3.25 10.8508 3.25 12.2432V12.7568C3.25 14.9551 3.25099 16.5339 3.40039 17.7354C3.5478 18.9207 3.82862 19.6241 4.30273 20.1367C4.75252 20.623 5.33909 20.9091 6.31152 21.0684C7.31432 21.2325 8.63499 21.2488 10.5 21.25C10.9141 21.2503 11.2501 21.586 11.25 22C11.2497 22.4141 10.914 22.75 10.5 22.75C8.67013 22.7489 7.21575 22.7367 6.06836 22.5488C4.89068 22.3559 3.95051 21.9654 3.20117 21.1553C2.42359 20.3144 2.0777 19.2521 1.91211 17.9209C1.74984 16.6161 1.74999 14.9431 1.75 12.8096V12.1904C1.74999 10.0569 1.74984 8.3839 1.91211 7.0791C2.0777 5.7479 2.42359 4.68557 3.20117 3.84473C3.76607 3.23403 4.44535 2.86384 5.25 2.63574V2C5.25 1.58579 5.58579 1.25 6 1.25C6.41421 1.25 6.75 1.58579 6.75 2V2.36523C7.88605 2.24932 9.28407 2.24998 10.9893 2.25H13.0107C14.7159 2.24998 16.114 2.24932 17.25 2.36523V2C17.25 1.58579 17.5858 1.25 18 1.25ZM17.5 12.25C17.9142 12.25 18.25 12.5858 18.25 13V13.6025C19.0913 13.7543 19.8449 14.157 20.4219 14.7305L21.0947 14.2979C21.4431 14.074 21.9069 14.1751 22.1309 14.5234C22.3546 14.8718 22.2536 15.3356 21.9053 15.5596L21.2676 15.9697C21.4705 16.4403 21.583 16.9575 21.583 17.5C21.583 18.0425 21.4705 18.5597 21.2676 19.0303L21.9053 19.4404C22.2535 19.6643 22.3544 20.1282 22.1309 20.4766C21.9069 20.825 21.4422 20.9261 21.0938 20.7021L20.4209 20.2695C19.844 20.8429 19.0912 21.2457 18.25 21.3975V22C18.25 22.4142 17.9142 22.75 17.5 22.75C17.0858 22.75 16.75 22.4142 16.75 22V21.3975C15.9088 21.2457 15.155 20.8429 14.5781 20.2695L13.9063 20.7021C13.5578 20.9261 13.0931 20.825 12.8691 20.4766C12.6456 20.1282 12.7465 19.6643 13.0947 19.4404L13.7324 19.0303C13.5295 18.5597 13.417 18.0425 13.417 17.5C13.417 16.9575 13.5295 16.4403 13.7324 15.9697L13.0947 15.5596C12.7464 15.3356 12.6454 14.8718 12.8691 14.5234C13.0931 14.1751 13.5569 14.074 13.9053 14.2979L14.5781 14.7305C15.1551 14.157 15.9087 13.7543 16.75 13.6025V13C16.75 12.5858 17.0858 12.25 17.5 12.25ZM17.5 15.0361C16.5923 15.0361 15.8021 15.4807 15.3428 16.1436C15.0724 16.5338 14.917 16.9995 14.917 17.5C14.917 18.0005 15.0724 18.4661 15.3428 18.8564C15.8021 19.5193 16.5923 19.9639 17.5 19.9639C18.4077 19.9639 19.1979 19.5194 19.6572 18.8564C19.9276 18.4661 20.083 18.0005 20.083 17.5C20.083 16.9995 19.9276 16.5338 19.6572 16.1436C19.1979 15.4806 18.4077 15.0361 17.5 15.0361ZM11.0498 3.75C9.18218 3.75 7.81099 3.75294 6.75 3.87598V4C6.75 4.41421 6.41421 4.75 6 4.75C5.65792 4.75 5.37237 4.52011 5.28223 4.20703C4.87357 4.36922 4.56265 4.58229 4.30273 4.86328C3.83057 5.37382 3.55024 6.07347 3.40234 7.25H20.5957C20.5877 7.1863 20.5811 7.12305 20.5723 7.06152C20.4187 5.99778 20.1437 5.34605 19.6973 4.86328C19.4372 4.5821 19.1259 4.36926 18.7168 4.20703C18.6266 4.51997 18.342 4.75 18 4.75C17.5858 4.75 17.25 4.41421 17.25 4V3.87598C16.189 3.75294 14.8178 3.75 12.9502 3.75H11.0498Z" fill="#2FBF71"/>
</svg>
