<svg width="16" height="16" viewBox="0 0 16 16" fill="none" xmlns="http://www.w3.org/2000/svg">
<path opacity="0.4" d="M14.3332 8.50455V8.1622C14.3332 7.00927 14.3332 6.08513 14.281 5.33337H1.71869C1.6665 6.08513 1.6665 7.00927 1.6665 8.1622V8.50455C1.6665 11.4094 1.6665 12.8619 2.50125 13.7643C3.336 14.6667 4.6795 14.6667 7.3665 14.6667H8.63317C11.3202 14.6667 12.6637 14.6667 13.4984 13.7643C14.3332 12.8619 14.3332 11.4094 14.3332 8.50455Z" fill="#9DA4AE"/>
<path d="M11.9995 0.833374C12.2757 0.833374 12.4995 1.05723 12.4995 1.33337V1.75818C13.036 1.91024 13.4891 2.15572 13.8657 2.56287C14.3843 3.12351 14.6147 3.83241 14.7251 4.72009C14.8332 5.58982 14.8335 6.70436 14.8335 8.12634V8.54041C14.8335 9.96239 14.8332 11.0769 14.7251 11.9467C14.6147 12.8343 14.3843 13.5432 13.8657 14.1039C13.342 14.67 12.6714 14.9263 11.8325 15.0482C11.0205 15.1662 9.98247 15.1664 8.67334 15.1664H7.32568C6.01673 15.1664 4.97943 15.1662 4.16748 15.0482C3.32851 14.9263 2.658 14.67 2.13428 14.1039C1.61567 13.5432 1.3853 12.8344 1.2749 11.9467C1.16678 11.0769 1.1665 9.96241 1.1665 8.54041V8.12634C1.1665 6.70434 1.16678 5.58983 1.2749 4.72009C1.3853 3.83237 1.61567 3.12352 2.13428 2.56287C2.51073 2.15592 2.96336 1.91025 3.49951 1.75818V1.33337C3.49951 1.05734 3.72352 0.83355 3.99951 0.833374C4.27565 0.833374 4.49951 1.05723 4.49951 1.33337V1.57751C5.25688 1.5002 6.18884 1.50036 7.32568 1.50037H8.67334C9.81 1.50036 10.7422 1.50026 11.4995 1.57751V1.33337C11.4995 1.05734 11.7235 0.83355 11.9995 0.833374ZM2.19482 5.83337C2.16924 6.47132 2.1665 7.23414 2.1665 8.16248V8.50427C2.1665 9.9698 2.16748 11.0226 2.26709 11.8236C2.36538 12.6139 2.55251 13.0834 2.86865 13.4252C3.1796 13.7611 3.59825 13.9553 4.31104 14.059C5.04285 14.1653 6.00795 14.1664 7.3667 14.1664H8.6333C9.99198 14.1664 10.9572 14.1653 11.689 14.059C12.4017 13.9553 12.8204 13.7612 13.1313 13.4252C13.4475 13.0834 13.6346 12.6139 13.7329 11.8236C13.8325 11.0227 13.8335 9.96978 13.8335 8.50427V8.16248C13.8335 7.2341 13.8288 6.47133 13.8032 5.83337H2.19482ZM5.33936 10.6664C5.70745 10.6665 6.00537 10.9653 6.00537 11.3334C6.00537 11.7015 5.70745 12.0003 5.33936 12.0004H5.3335C4.96531 12.0004 4.6665 11.7016 4.6665 11.3334C4.6665 10.9652 4.96531 10.6664 5.3335 10.6664H5.33936ZM8.00244 10.6664C8.37063 10.6664 8.66943 10.9652 8.66943 11.3334C8.66943 11.7016 8.37063 12.0004 8.00244 12.0004H7.99658C7.62851 12.0002 7.33057 11.7015 7.33057 11.3334C7.33057 10.9653 7.62851 10.6665 7.99658 10.6664H8.00244ZM5.33936 8.00037C5.70734 8.00048 6.0052 8.29841 6.00537 8.66638C6.00537 9.0345 5.70745 9.33326 5.33936 9.33337H5.3335C4.96531 9.33337 4.6665 9.03457 4.6665 8.66638C4.66668 8.29834 4.96541 8.00037 5.3335 8.00037H5.33936ZM8.00244 8.00037C8.37052 8.00037 8.66926 8.29834 8.66943 8.66638C8.66943 9.03457 8.37063 9.33337 8.00244 9.33337H7.99658C7.62851 9.33323 7.33057 9.03448 7.33057 8.66638C7.33074 8.29843 7.62862 8.00051 7.99658 8.00037H8.00244ZM10.6665 8.00037C11.0346 8.00037 11.3333 8.29834 11.3335 8.66638C11.3335 9.03457 11.0347 9.33337 10.6665 9.33337H10.6606C10.2925 9.33337 9.99365 9.03457 9.99365 8.66638C9.99383 8.29834 10.2926 8.00037 10.6606 8.00037H10.6665ZM7.3667 2.50037C6.12134 2.50037 5.20691 2.50228 4.49951 2.58435V2.66638C4.49951 2.94252 4.27565 3.16638 3.99951 3.16638C3.77135 3.16624 3.58083 3.01305 3.521 2.80408C3.24878 2.91213 3.04184 3.05446 2.86865 3.24158C2.55381 3.58194 2.36667 4.04893 2.26807 4.83337H13.731C13.6323 4.04898 13.4462 3.58193 13.1313 3.24158C12.958 3.05425 12.7506 2.91218 12.478 2.80408C12.4181 3.01306 12.2278 3.16638 11.9995 3.16638C11.7235 3.16621 11.4995 2.94242 11.4995 2.66638V2.58435C10.7922 2.50236 9.87822 2.50037 8.6333 2.50037H7.3667Z" fill="#9DA4AE"/>
</svg>
