<svg width="24" height="24" viewBox="0 0 24 24" fill="none" xmlns="http://www.w3.org/2000/svg">
<path opacity="0.4" d="M21.5 12.7568V12.2432C21.5 10.5138 21.5 9.12764 21.4217 8H2.57828C2.5 9.12764 2.5 10.5138 2.5 12.2432V12.7568C2.5 17.1141 2.5 19.2927 3.75212 20.6464C5.00424 22 7.01949 22 11.05 22H12.95C16.9805 22 18.9958 22 20.2479 20.6464C21.5 19.2927 21.5 17.1141 21.5 12.7568Z" fill="#1B84E7"/>
<path d="M18 1.25C18.4142 1.25 18.75 1.58579 18.75 2V2.63574C19.5546 2.86384 20.2339 3.23403 20.7988 3.84473C21.5764 4.68557 21.9223 5.7479 22.0879 7.0791C22.2502 8.3839 22.25 10.0568 22.25 12.1904V12.8096C22.25 14.9432 22.2502 16.6161 22.0879 17.9209C21.9223 19.2521 21.5764 20.3144 20.7988 21.1553C20.0133 22.0045 19.0074 22.3903 17.749 22.5732C16.531 22.7503 14.9744 22.75 13.0107 22.75H10.9893C9.02556 22.75 7.46901 22.7503 6.25098 22.5732C4.99258 22.3903 3.98672 22.0045 3.20117 21.1553C2.42359 20.3144 2.0777 19.2521 1.91211 17.9209C1.74984 16.6161 1.74999 14.9431 1.75 12.8096V12.1904C1.74999 10.0569 1.74984 8.3839 1.91211 7.0791C2.0777 5.7479 2.42359 4.68557 3.20117 3.84473C3.76607 3.23403 4.44535 2.86384 5.25 2.63574V2C5.25 1.58579 5.58579 1.25 6 1.25C6.41421 1.25 6.75 1.58579 6.75 2V2.36523C7.88605 2.24932 9.28407 2.24998 10.9893 2.25H13.0107C14.7159 2.24998 16.114 2.24932 17.25 2.36523V2C17.25 1.58579 17.5858 1.25 18 1.25ZM3.28906 8.75C3.25069 9.70687 3.25 10.8508 3.25 12.2432V12.7568C3.25 14.9551 3.25099 16.5339 3.40039 17.7354C3.5478 18.9207 3.82862 19.6241 4.30273 20.1367C4.76922 20.641 5.39716 20.9334 6.4668 21.0889C7.56448 21.2484 9.01178 21.25 11.0498 21.25H12.9502C14.9882 21.25 16.4355 21.2484 17.5332 21.0889C18.6028 20.9334 19.2308 20.641 19.6973 20.1367C20.1714 19.6241 20.4522 18.9207 20.5996 17.7354C20.749 16.5339 20.75 14.9551 20.75 12.7568V12.2432C20.75 10.8508 20.7493 9.70687 20.7109 8.75H3.28906ZM8.00879 16C8.56107 16 9.00879 16.4477 9.00879 17C9.00879 17.5523 8.56107 18 8.00879 18H8C7.44772 18 7 17.5523 7 17C7 16.4477 7.44772 16 8 16H8.00879ZM12.0049 16C12.557 16.0002 13.0049 16.4478 13.0049 17C13.0049 17.5522 12.557 17.9998 12.0049 18H11.9951C11.443 17.9998 10.9951 17.5522 10.9951 17C10.9951 16.4478 11.443 16.0002 11.9951 16H12.0049ZM8.00879 12C8.56107 12 9.00879 12.4477 9.00879 13C9.00879 13.5523 8.56107 14 8.00879 14H8C7.44772 14 7 13.5523 7 13C7 12.4477 7.44772 12 8 12H8.00879ZM12.0049 12C12.557 12.0002 13.0049 12.4478 13.0049 13C13.0049 13.5522 12.557 13.9998 12.0049 14H11.9951C11.443 13.9998 10.9951 13.5522 10.9951 13C10.9951 12.4478 11.443 12.0002 11.9951 12H12.0049ZM16 12C16.5523 12 17 12.4477 17 13C17 13.5523 16.5523 14 16 14H15.9912C15.4389 14 14.9912 13.5523 14.9912 13C14.9912 12.4477 15.4389 12 15.9912 12H16ZM11.0498 3.75C9.18218 3.75 7.81099 3.75294 6.75 3.87598V4C6.75 4.41421 6.41421 4.75 6 4.75C5.65792 4.75 5.37237 4.52011 5.28223 4.20703C4.87357 4.36922 4.56265 4.58229 4.30273 4.86328C3.83057 5.37382 3.55024 6.07347 3.40234 7.25H20.5967C20.4488 6.07354 20.1694 5.3738 19.6973 4.86328C19.4372 4.5821 19.1259 4.36926 18.7168 4.20703C18.6266 4.51997 18.342 4.75 18 4.75C17.5858 4.75 17.25 4.41421 17.25 4V3.87598C16.189 3.75294 14.8178 3.75 12.9502 3.75H11.0498Z" fill="#1B84E7"/>
</svg>
