<svg width="24" height="24" viewBox="0 0 24 24" fill="none" xmlns="http://www.w3.org/2000/svg">
<path d="M5.10938 21.75C5.54575 21.75 5.91063 21.5847 6.12793 21.4863C6.14733 21.4775 6.16563 21.4695 6.18262 21.4619C6.7997 21.1877 7.25 20.5934 7.25 19.8818V18.75H16.75V19.8818C16.75 20.5934 17.2003 21.1877 17.8174 21.4619C17.8344 21.4695 17.8527 21.4775 17.8721 21.4863C18.0894 21.5847 18.4543 21.75 18.8906 21.75H20.6094C21.0457 21.75 21.4106 21.5847 21.6279 21.4863C21.6473 21.4775 21.6656 21.4695 21.6826 21.4619C22.2997 21.1877 22.75 20.5934 22.75 19.8818V17C22.75 16.9324 22.7375 16.8679 22.7207 16.8057C22.7398 16.6951 22.75 16.5824 22.75 16.4697V13C22.75 11.9716 22.2503 11.064 21.71 10.3408C21.3594 9.87166 20.95 9.42933 20.584 9.04688L21.3359 8.6709C21.7061 8.48559 21.8559 8.03538 21.6709 7.66504C21.4857 7.29466 21.0355 7.14411 20.665 7.3291L19.8662 7.72852L19.1104 5.45801C18.9017 4.83201 18.7258 4.3028 18.5322 3.88672C18.3264 3.44436 18.0708 3.06061 17.667 2.76953C17.2631 2.47844 16.8178 2.35711 16.333 2.30176C15.877 2.24974 15.3192 2.24998 14.6592 2.25H9.3418C8.68178 2.24998 8.12397 2.24972 7.66797 2.30176C7.18315 2.35711 6.73786 2.47844 6.33398 2.76953C5.93029 3.0606 5.6755 3.4444 5.46973 3.88672C5.27614 4.30285 5.09933 4.83183 4.89063 5.45801L4.13379 7.72852L3.33496 7.3291C2.96454 7.14411 2.51429 7.29466 2.3291 7.66504C2.14406 8.03538 2.29388 8.48559 2.66406 8.6709L3.41504 9.04688C3.04916 9.42922 2.64041 9.87186 2.29004 10.3408C1.74974 11.064 1.25 11.9716 1.25 13L1.25 16.4697C1.25 16.5823 1.25929 16.6952 1.27832 16.8057C1.26161 16.8679 1.25 16.9325 1.25 17L1.25 19.8818C1.25 20.5934 1.7003 21.1877 2.31738 21.4619C2.33437 21.4695 2.35267 21.4775 2.37207 21.4863C2.58937 21.5847 2.95425 21.75 3.39062 21.75H5.10938ZM6.30078 5.97266C6.52616 5.29651 6.6759 4.84894 6.8291 4.51953C6.97408 4.20788 7.09116 4.07276 7.21094 3.98633C7.33084 3.89991 7.49604 3.83102 7.83789 3.79199C8.19889 3.75079 8.67085 3.75 9.38379 3.75H14.6172C15.33 3.75 15.8021 3.75081 16.1631 3.79199C16.5049 3.83102 16.6701 3.89991 16.79 3.98633C16.9099 4.07276 17.0268 4.20778 17.1719 4.51953C17.3251 4.84895 17.4758 5.29646 17.7012 5.97266L18.46 8.25L5.54102 8.25L6.30078 5.97266ZM16.7061 17.25C16.7027 17.2406 16.7 17.231 16.6963 17.2217L16.4365 16.5723C16.2659 16.1457 16.1164 15.7707 15.958 15.4736C15.7865 15.152 15.5738 14.8586 15.2461 14.6367C14.9184 14.4149 14.5674 14.3269 14.2051 14.2871C13.8704 14.2504 13.4665 14.25 13.0068 14.25L10.9941 14.25C10.5343 14.25 10.1298 14.2503 9.79492 14.2871C9.43271 14.3269 9.08156 14.4149 8.75391 14.6367C8.42631 14.8586 8.21443 15.1521 8.04297 15.4736C7.88455 15.7708 7.73414 16.1455 7.56348 16.5723C7.55886 16.5838 7.55445 16.5958 7.5498 16.6074L7.30371 17.2217C7.29999 17.231 7.29727 17.2406 7.29395 17.25H6.0498L2.98145 16.8438C2.94377 16.8387 2.89134 16.8168 2.84082 16.7529C2.78965 16.6882 2.75 16.5894 2.75 16.4697V13C2.75 12.9884 2.75171 12.9765 2.75195 12.9648L4.16504 13.6709C4.53538 13.8559 4.98559 13.7061 5.1709 13.3359C5.35611 12.9655 5.20628 12.5144 4.83594 12.3291L3.27539 11.5498C3.3423 11.4475 3.41394 11.343 3.49219 11.2383C3.85918 10.7471 4.2877 10.3025 4.7002 9.875C4.74056 9.83316 4.7813 9.79154 4.82129 9.75L19.1787 9.75C19.2187 9.79154 19.2594 9.83316 19.2998 9.875C19.7123 10.3025 20.1408 10.7471 20.5078 11.2383C20.6695 11.4547 20.8062 11.6668 20.918 11.873L19.3184 12.2725C18.9166 12.3729 18.6722 12.7799 18.7725 13.1816C18.8729 13.5835 19.2798 13.828 19.6816 13.7275L21.25 13.3359V16.4697C21.25 16.5894 21.2104 16.6882 21.1592 16.7529C21.1087 16.8168 21.0562 16.8387 21.0186 16.8438L17.9502 17.25H16.7061ZM8.9082 17.25L8.94238 17.1641C9.13111 16.6922 9.25112 16.3945 9.36621 16.1787C9.47256 15.9793 9.54252 15.9149 9.5957 15.8789C9.64892 15.8429 9.73464 15.802 9.95898 15.7773C10.2022 15.7507 10.523 15.75 11.0312 15.75L12.9688 15.75C13.4771 15.75 13.7988 15.7506 14.042 15.7773C14.2665 15.802 14.3521 15.8429 14.4053 15.8789C14.4584 15.9149 14.5275 15.9795 14.6338 16.1787C14.7489 16.3946 14.8698 16.6921 15.0586 17.1641L15.0928 17.25H8.9082ZM3.39062 20.25C3.29575 20.25 3.21393 20.2184 2.92676 20.0908C2.78158 20.0263 2.75 19.9278 2.75 19.8818L2.75 18.3252C2.76157 18.327 2.77348 18.3295 2.78516 18.3311L5.75 18.7236V19.8818C5.75 19.9278 5.71842 20.0263 5.57324 20.0908C5.28607 20.2184 5.20425 20.25 5.10938 20.25H3.39062ZM18.8906 20.25C18.7957 20.25 18.7139 20.2184 18.4268 20.0908C18.2816 20.0263 18.25 19.9278 18.25 19.8818V18.7236L21.2148 18.3311C21.2265 18.3295 21.2384 18.327 21.25 18.3252V19.8818C21.25 19.9278 21.2184 20.0263 21.0732 20.0908C20.7861 20.2184 20.7043 20.25 20.6094 20.25H18.8906Z" fill="#1B84E7"/>
</svg>
