<svg width="28" height="28" viewBox="0 0 28 28" fill="none" xmlns="http://www.w3.org/2000/svg">
<path d="M13.999 1.45801C16.2038 1.45806 18.3713 2.03901 20.2705 3.13672C20.6893 3.37822 20.8323 3.91417 20.5908 4.33301C20.3493 4.75181 19.8134 4.89383 19.3945 4.65234C17.7624 3.70854 15.8969 3.20901 14 3.20898C8.05 3.20898 3.20801 8.05098 3.20801 14.001C3.2081 19.9509 8.05005 24.793 14 24.793C19.9499 24.7929 24.7919 19.9508 24.792 14.001C24.792 13.2743 24.7196 12.5475 24.5762 11.8418C24.4805 11.3681 24.7861 10.9052 25.2598 10.8096C25.7333 10.7142 26.1954 11.0206 26.291 11.4941C26.4578 12.3141 26.542 13.1577 26.542 14.001C26.5419 20.9168 20.9159 26.5429 14 26.543L13.999 26.541C7.08313 26.541 1.45721 20.9159 1.45703 14C1.45703 7.084 7.08302 1.45801 13.999 1.45801ZM25.376 5.0127C25.8226 4.84471 26.3205 5.07574 26.4863 5.52832C26.6521 5.98096 26.4242 6.48529 25.9775 6.65332C23.812 7.46765 20.9639 9.93279 18.0488 13.6377C15.9387 16.4983 14.3751 19.062 14.3613 19.0889C14.2105 19.3652 13.9241 19.5376 13.6123 19.54H13.6064L13.6055 19.541C13.2958 19.541 12.8464 19.5401 12.5918 19.0889C10.66 15.6624 9.57617 15.4452 9.57617 15.4717C9.57617 15.4717 8.60369 15.4503 8.72559 14.4697C8.82039 13.7084 9.57617 13.708 9.57617 13.708C9.90864 13.7082 11.5176 13.883 13.582 16.9707C15.3551 14.0038 20.6066 6.80602 25.376 5.0127Z" fill="#1B84E7"/>
</svg>
