<svg width="24" height="24" viewBox="0 0 24 24" fill="none" xmlns="http://www.w3.org/2000/svg">
<path d="M12 2.74951C12.4141 2.74951 12.7498 3.08547 12.75 3.49951C12.75 3.91372 12.4142 4.24951 12 4.24951C9.62385 4.24951 7.9095 4.25164 6.60352 4.40966C5.31187 4.56598 4.53363 4.86446 3.96582 5.37548C3.40945 5.87634 3.09311 6.54668 2.92481 7.67333C2.752 8.83043 2.75 10.3551 2.75 12.4995C2.75 14.6442 2.75196 16.1695 2.92481 17.3267C3.09312 18.4534 3.40938 19.1236 3.96582 19.6245C4.53363 20.1355 5.31185 20.434 6.60352 20.5903C7.9095 20.7484 9.62385 20.7495 12 20.7495C14.3762 20.7495 16.0905 20.7484 17.3965 20.5903C18.6881 20.434 19.4664 20.1355 20.0342 19.6245C20.5906 19.1236 20.9069 18.4534 21.0752 17.3267C21.248 16.1695 21.25 14.6442 21.25 12.4995V8.50048C21.2501 8.08637 21.5859 7.74951 22 7.74951C22.4141 7.74951 22.7498 8.08548 22.75 8.49951V12.562C22.75 14.6302 22.7499 16.2676 22.5586 17.5483C22.3608 18.8723 21.945 19.9226 21.0371 20.7397C20.1405 21.5465 19.0074 21.9064 17.5762 22.0796C16.1696 22.2498 14.3644 22.2495 12.0518 22.2495H11.9482C9.63555 22.2495 7.83038 22.2498 6.42383 22.0796C4.99265 21.9064 3.85946 21.5465 2.96289 20.7397C2.05496 19.9226 1.63919 18.8723 1.44141 17.5483C1.25009 16.2676 1.24998 14.6303 1.25 12.562V12.437C1.24998 10.3691 1.25014 8.73228 1.44141 7.45165C1.63919 6.12766 2.05496 5.07739 2.96289 4.26025C3.85948 3.4534 4.99259 3.09359 6.42383 2.9204C7.83039 2.75023 9.63553 2.7495 11.9482 2.74951H12ZM8.45898 14.2505C10.1033 14.2262 11.877 14.9674 12.6797 16.6821C12.8551 17.0572 12.6933 17.5036 12.3184 17.6792C11.9433 17.8548 11.497 17.6929 11.3213 17.3179C10.8362 16.2817 9.71311 15.7323 8.48145 15.7505C7.2407 15.7688 6.12822 16.3599 5.67969 17.3179C5.50413 17.6929 5.05768 17.8545 4.68262 17.6792C4.30749 17.5036 4.14571 17.0573 4.32129 16.6821C5.08105 15.0592 6.8239 14.2747 8.45898 14.2505ZM8.5 7.24951C10.0187 7.24951 11.2498 8.4809 11.25 9.99951C11.25 11.5183 10.0188 12.7495 8.5 12.7495C6.9813 12.7494 5.75 11.5182 5.75 9.99951C5.7502 8.48095 6.98142 7.2496 8.5 7.24951ZM8.5 8.74951C7.80985 8.7496 7.2502 9.30938 7.25 9.99951C7.25 10.6898 7.80973 11.2494 8.5 11.2495C9.19036 11.2495 9.75 10.6899 9.75 9.99951C9.7498 9.30932 9.19023 8.74951 8.5 8.74951ZM21.7754 1.78466C22.1704 1.66063 22.5916 1.87995 22.7158 2.2749C22.8399 2.67008 22.6198 3.09122 22.2246 3.21533C20.8313 3.65286 19.451 4.99311 18.3691 6.35009C17.8424 7.01077 17.4121 7.64275 17.1133 8.10986C16.9642 8.34293 16.8482 8.53409 16.7705 8.66552C16.7317 8.73121 16.7018 8.78227 16.6826 8.81591L16.6621 8.85302L16.6572 8.86181L16.6563 8.86279L16.5957 8.95556C16.4401 9.15915 16.1889 9.27142 15.9287 9.24658C15.632 9.21815 15.3799 9.01694 15.2871 8.73388V8.7329L15.2842 8.72412C15.2808 8.71451 15.2747 8.69796 15.2666 8.67626C15.2504 8.63276 15.2252 8.56725 15.1904 8.48779C15.12 8.3267 15.0157 8.11809 14.8809 7.91455C14.5825 7.46416 14.2785 7.25048 14 7.25048C13.5859 7.25048 13.2502 6.91451 13.25 6.50048C13.25 6.08627 13.5858 5.75048 14 5.75048C15.0046 5.75048 15.6792 6.44081 16.0596 6.97998C16.3587 6.52922 16.7433 5.98274 17.1963 5.41455C18.303 4.02639 19.9228 2.36644 21.7754 1.78466Z" fill="#1B84E7"/>
</svg>
