<svg width="16" height="16" viewBox="0 0 16 16" fill="none" xmlns="http://www.w3.org/2000/svg">
<path d="M4.02539 8.83337C4.51777 8.83337 4.9225 8.83352 5.25 8.86462C5.59049 8.897 5.89932 8.96625 6.17969 9.13806C6.45788 9.30854 6.69176 9.54253 6.8623 9.82068C7.03412 10.101 7.10337 10.4099 7.13574 10.7504C7.16689 11.078 7.167 11.4832 7.16699 11.976V12.0248C7.167 12.5172 7.16685 12.9219 7.13574 13.2494C7.10337 13.5899 7.03412 13.8987 6.8623 14.1791C6.69178 14.4573 6.45789 14.6912 6.17969 14.8617C5.89932 15.0335 5.59049 15.1028 5.25 15.1351C4.92249 15.1662 4.51778 15.1664 4.02539 15.1664H3.97656C3.48385 15.1664 3.07862 15.1663 2.75098 15.1351C2.41049 15.1028 2.10166 15.0335 1.82129 14.8617C1.54314 14.6912 1.30915 14.4573 1.13867 14.1791C0.966862 13.8987 0.897609 13.5899 0.865235 13.2494C0.83413 12.9219 0.833976 12.5172 0.833985 12.0248V11.976C0.833976 11.4832 0.834091 11.078 0.865235 10.7504C0.897609 10.4099 0.966862 10.101 1.13867 9.82068C1.30917 9.54255 1.54316 9.30856 1.82129 9.13806C2.10166 8.96625 2.41049 8.897 2.75098 8.86462C3.07862 8.83348 3.48386 8.83337 3.97656 8.83337H4.02539ZM12.0254 8.83337C12.5178 8.83337 12.9225 8.83352 13.25 8.86462C13.5905 8.897 13.8993 8.96625 14.1797 9.13806C14.4579 9.30854 14.6918 9.54253 14.8623 9.82068C15.0341 10.101 15.1034 10.4099 15.1357 10.7504C15.1669 11.078 15.167 11.4832 15.167 11.976V12.0248C15.167 12.5172 15.1668 12.9219 15.1357 13.2494C15.1034 13.5899 15.0341 13.8987 14.8623 14.1791C14.6918 14.4573 14.4579 14.6912 14.1797 14.8617C13.8993 15.0335 13.5905 15.1028 13.25 15.1351C12.9225 15.1662 12.5178 15.1664 12.0254 15.1664H11.9766C11.4838 15.1664 11.0786 15.1663 10.751 15.1351C10.4105 15.1028 10.1017 15.0335 9.82129 14.8617C9.54314 14.6912 9.30915 14.4573 9.13867 14.1791C8.96686 13.8987 8.89761 13.5899 8.86523 13.2494C8.83413 12.9219 8.83398 12.5172 8.83398 12.0248V11.976C8.83398 11.4832 8.83409 11.078 8.86523 10.7504C8.89761 10.4099 8.96686 10.101 9.13867 9.82068C9.30917 9.54255 9.54316 9.30856 9.82129 9.13806C10.1017 8.96625 10.4105 8.897 10.751 8.86462C11.0786 8.83348 11.4839 8.83337 11.9766 8.83337H12.0254ZM4.00098 9.83337C3.47796 9.83337 3.12041 9.83364 2.8457 9.85974C2.57883 9.88512 2.44154 9.93139 2.34473 9.9906C2.20094 10.0787 2.07933 10.2003 1.99121 10.3441C1.932 10.4409 1.88573 10.5782 1.86035 10.8451C1.83425 11.1198 1.83398 11.4774 1.83398 12.0004C1.83398 12.5234 1.83424 12.881 1.86035 13.1556C1.88577 13.4227 1.9319 13.5598 1.99121 13.6566C2.07932 13.8004 2.20094 13.921 2.34473 14.0092C2.44155 14.0684 2.57869 14.1146 2.8457 14.14C3.12041 14.1661 3.47794 14.1664 4.00098 14.1664C4.52396 14.1664 4.88158 14.1661 5.15625 14.14C5.42325 14.1146 5.56044 14.0685 5.65723 14.0092C5.80089 13.9211 5.92169 13.8003 6.00977 13.6566C6.06908 13.5598 6.1152 13.4226 6.14063 13.1556C6.16674 12.881 6.16699 12.5234 6.16699 12.0004C6.16699 11.4773 6.16673 11.1198 6.14063 10.8451C6.11524 10.5781 6.06902 10.4409 6.00977 10.3441C5.92166 10.2003 5.80101 10.0787 5.65723 9.9906C5.56044 9.93129 5.42327 9.88516 5.15625 9.85974C4.88158 9.83363 4.52396 9.83337 4.00098 9.83337ZM12.001 9.83337C11.478 9.83337 11.1204 9.83364 10.8457 9.85974C10.5788 9.88512 10.4415 9.93139 10.3447 9.9906C10.2009 10.0787 10.0793 10.2003 9.99121 10.3441C9.932 10.4409 9.88573 10.5782 9.86035 10.8451C9.83425 11.1198 9.83398 11.4774 9.83398 12.0004C9.83398 12.5234 9.83424 12.881 9.86035 13.1556C9.88577 13.4227 9.9319 13.5598 9.99121 13.6566C10.0793 13.8004 10.2009 13.921 10.3447 14.0092C10.4415 14.0684 10.5787 14.1146 10.8457 14.14C11.1204 14.1661 11.4779 14.1664 12.001 14.1664C12.524 14.1664 12.8816 14.1661 13.1563 14.14C13.4232 14.1146 13.5604 14.0685 13.6572 14.0092C13.8009 13.9211 13.9217 13.8003 14.0098 13.6566C14.0691 13.5598 14.1152 13.4226 14.1406 13.1556C14.1667 12.881 14.167 12.5234 14.167 12.0004C14.167 11.4773 14.1667 11.1198 14.1406 10.8451C14.1152 10.5781 14.069 10.4409 14.0098 10.3441C13.9217 10.2003 13.801 10.0787 13.6572 9.9906C13.5604 9.93129 13.4233 9.88516 13.1563 9.85974C12.8816 9.83363 12.524 9.83337 12.001 9.83337ZM4.02539 0.833374C4.51777 0.833366 4.9225 0.83352 5.25 0.864624C5.59049 0.896998 5.89932 0.966252 6.17969 1.13806C6.45788 1.30854 6.69176 1.54253 6.8623 1.82068C7.03412 2.10105 7.10337 2.40988 7.13574 2.75037C7.16689 3.07801 7.167 3.48324 7.16699 3.97595V4.02478C7.167 4.51717 7.16685 4.92188 7.13574 5.24939C7.10337 5.58988 7.03412 5.89871 6.8623 6.17908C6.69178 6.45728 6.45789 6.69117 6.17969 6.86169C5.89932 7.0335 5.59049 7.10276 5.25 7.13513C4.92249 7.16624 4.51778 7.16639 4.02539 7.16638H3.97656C3.48385 7.16639 3.07862 7.16628 2.75098 7.13513C2.41049 7.10276 2.10166 7.0335 1.82129 6.86169C1.54314 6.69115 1.30915 6.45727 1.13867 6.17908C0.966862 5.89871 0.897609 5.58988 0.865235 5.24939C0.83413 4.92189 0.833976 4.51715 0.833985 4.02478V3.97595C0.833976 3.48325 0.834091 3.07801 0.865235 2.75037C0.897609 2.40988 0.966862 2.10105 1.13867 1.82068C1.30917 1.54255 1.54316 1.30856 1.82129 1.13806C2.10166 0.966252 2.41049 0.896998 2.75098 0.864624C3.07862 0.833481 3.48386 0.833366 3.97656 0.833374H4.02539ZM12.0254 0.833374C12.5178 0.833366 12.9225 0.83352 13.25 0.864624C13.5905 0.896998 13.8993 0.966252 14.1797 1.13806C14.4579 1.30854 14.6918 1.54253 14.8623 1.82068C15.0341 2.10105 15.1034 2.40988 15.1357 2.75037C15.1669 3.07801 15.167 3.48324 15.167 3.97595V4.02478C15.167 4.51717 15.1668 4.92188 15.1357 5.24939C15.1034 5.58988 15.0341 5.89871 14.8623 6.17908C14.6918 6.45728 14.4579 6.69117 14.1797 6.86169C13.8993 7.0335 13.5905 7.10276 13.25 7.13513C12.9225 7.16624 12.5178 7.16639 12.0254 7.16638H11.9766C11.4838 7.16639 11.0786 7.16628 10.751 7.13513C10.4105 7.10276 10.1017 7.0335 9.82129 6.86169C9.54314 6.69115 9.30915 6.45727 9.13867 6.17908C8.96686 5.89871 8.89761 5.58988 8.86523 5.24939C8.83413 4.92189 8.83398 4.51715 8.83398 4.02478V3.97595C8.83398 3.48325 8.83409 3.07801 8.86523 2.75037C8.89761 2.40988 8.96686 2.10105 9.13867 1.82068C9.30917 1.54255 9.54316 1.30856 9.82129 1.13806C10.1017 0.966252 10.4105 0.896998 10.751 0.864624C11.0786 0.833481 11.4839 0.833366 11.9766 0.833374H12.0254ZM4.00098 1.83337C3.47796 1.83337 3.12041 1.83364 2.8457 1.85974C2.57883 1.88512 2.44154 1.93139 2.34473 1.9906C2.20094 2.07872 2.07933 2.20033 1.99121 2.34412C1.932 2.44093 1.88573 2.57822 1.86035 2.84509C1.83425 3.11979 1.83398 3.47735 1.83398 4.00037C1.83398 4.52335 1.83424 4.88096 1.86035 5.15564C1.88577 5.42266 1.9319 5.55983 1.99121 5.65662C2.07932 5.8004 2.20094 5.92105 2.34473 6.00916C2.44155 6.06841 2.57869 6.11463 2.8457 6.14001C3.12041 6.16612 3.47794 6.16638 4.00098 6.16638C4.52396 6.16638 4.88158 6.16613 5.15625 6.14001C5.42325 6.11459 5.56044 6.06846 5.65723 6.00916C5.80089 5.92108 5.92169 5.80028 6.00977 5.65662C6.06908 5.55983 6.1152 5.42264 6.14063 5.15564C6.16674 4.88096 6.16699 4.52335 6.16699 4.00037C6.16699 3.47733 6.16673 3.1198 6.14063 2.84509C6.11524 2.57808 6.06902 2.44094 6.00977 2.34412C5.92166 2.20033 5.80101 2.07871 5.65723 1.9906C5.56044 1.93129 5.42327 1.88516 5.15625 1.85974C4.88158 1.83363 4.52396 1.83337 4.00098 1.83337ZM12.001 1.83337C11.478 1.83337 11.1204 1.83364 10.8457 1.85974C10.5788 1.88512 10.4415 1.93139 10.3447 1.9906C10.2009 2.07872 10.0793 2.20033 9.99121 2.34412C9.932 2.44093 9.88573 2.57822 9.86035 2.84509C9.83425 3.11979 9.83398 3.47735 9.83398 4.00037C9.83398 4.52335 9.83424 4.88096 9.86035 5.15564C9.88577 5.42266 9.9319 5.55983 9.99121 5.65662C10.0793 5.8004 10.2009 5.92105 10.3447 6.00916C10.4415 6.06841 10.5787 6.11463 10.8457 6.14001C11.1204 6.16612 11.4779 6.16638 12.001 6.16638C12.524 6.16638 12.8816 6.16613 13.1563 6.14001C13.4232 6.11459 13.5604 6.06846 13.6572 6.00916C13.8009 5.92108 13.9217 5.80028 14.0098 5.65662C14.0691 5.55983 14.1152 5.42264 14.1406 5.15564C14.1667 4.88096 14.167 4.52335 14.167 4.00037C14.167 3.47733 14.1667 3.1198 14.1406 2.84509C14.1152 2.57808 14.069 2.44094 14.0098 2.34412C13.9217 2.20033 13.801 2.07871 13.6572 1.9906C13.5604 1.93129 13.4233 1.88516 13.1563 1.85974C12.8816 1.83363 12.524 1.83337 12.001 1.83337Z" fill="#70809F"/>
</svg>
