<svg width="32" height="32" viewBox="0 0 32 32" fill="none" xmlns="http://www.w3.org/2000/svg">
<g opacity="0.4">
<path d="M6.58579 6.58579C6 7.17157 6 8.11438 6 10V12C6 13.8856 6 14.8284 6.58579 15.4142C7.17157 16 8.11438 16 10 16C11.8856 16 12.8284 16 13.4142 15.4142C14 14.8284 14 13.8856 14 12V10C14 8.11438 14 7.17157 13.4142 6.58579C12.8284 6 11.8856 6 10 6C8.11438 6 7.17157 6 6.58579 6.58579Z" fill="#1B84E7"/>
<path d="M18.5858 16.5858C18 17.1716 18 18.1144 18 20V22C18 23.8856 18 24.8284 18.5858 25.4142C19.1716 26 20.1144 26 22 26C23.8856 26 24.8284 26 25.4142 25.4142C26 24.8284 26 23.8856 26 22V20C26 18.1144 26 17.1716 25.4142 16.5858C24.8284 16 23.8856 16 22 16C20.1144 16 19.1716 16 18.5858 16.5858Z" fill="#1B84E7"/>
</g>
<path fill-rule="evenodd" clip-rule="evenodd" d="M10.052 5.25H9.948C9.04954 5.24997 8.3003 5.24995 7.70552 5.32991C7.07773 5.41432 6.51093 5.59999 6.05546 6.05546C5.59999 6.51093 5.41432 7.07773 5.32991 7.70552C5.24995 8.3003 5.24997 9.04951 5.25 9.94797V12.052C5.24997 12.9505 5.24995 13.6997 5.32991 14.2945C5.41432 14.9223 5.59999 15.4891 6.05546 15.9445C6.51093 16.4 7.07773 16.5857 7.70552 16.6701C8.3003 16.7501 9.04951 16.75 9.94798 16.75H10.052C10.9505 16.75 11.6997 16.7501 12.2945 16.6701C12.9223 16.5857 13.4891 16.4 13.9445 15.9445C14.4 15.4891 14.5857 14.9223 14.6701 14.2945C14.7501 13.6997 14.75 12.9505 14.75 12.052V9.94801C14.75 9.04954 14.7501 8.3003 14.6701 7.70552C14.5857 7.07773 14.4 6.51093 13.9445 6.05546C13.4891 5.59999 12.9223 5.41432 12.2945 5.32991C11.6997 5.24995 10.9505 5.24997 10.052 5.25ZM7.11612 7.11612C7.24644 6.9858 7.44393 6.87858 7.9054 6.81654C8.38843 6.7516 9.03599 6.75 10 6.75C10.964 6.75 11.6116 6.7516 12.0946 6.81654C12.5561 6.87858 12.7536 6.9858 12.8839 7.11612C13.0142 7.24644 13.1214 7.44393 13.1835 7.9054C13.2484 8.38843 13.25 9.03599 13.25 10V12C13.25 12.964 13.2484 13.6116 13.1835 14.0946C13.1214 14.5561 13.0142 14.7536 12.8839 14.8839C12.7536 15.0142 12.5561 15.1214 12.0946 15.1835C11.6116 15.2484 10.964 15.25 10 15.25C9.03599 15.25 8.38843 15.2484 7.9054 15.1835C7.44393 15.1214 7.24644 15.0142 7.11612 14.8839C6.9858 14.7536 6.87858 14.5561 6.81654 14.0946C6.7516 13.6116 6.75 12.964 6.75 12V10C6.75 9.03599 6.7516 8.38843 6.81654 7.9054C6.87858 7.44393 6.9858 7.24644 7.11612 7.11612Z" fill="#1B84E7"/>
<path fill-rule="evenodd" clip-rule="evenodd" d="M11.0253 19.25H8.97475C8.53033 19.25 8.15923 19.25 7.85464 19.2708C7.53754 19.2924 7.23801 19.339 6.94762 19.4593C6.27379 19.7384 5.73844 20.2738 5.45933 20.9476C5.33905 21.238 5.29241 21.5375 5.27077 21.8546C5.24999 22.1593 5.24999 22.5303 5.25 22.9748V23.0253C5.24999 23.4697 5.24999 23.8408 5.27077 24.1454C5.29241 24.4625 5.33905 24.762 5.45933 25.0524C5.73844 25.7262 6.27379 26.2616 6.94762 26.5407C7.23801 26.661 7.53754 26.7076 7.85464 26.7292C8.15923 26.75 8.53024 26.75 8.97466 26.75H11.0253C11.4697 26.75 11.8408 26.75 12.1454 26.7292C12.4625 26.7076 12.762 26.661 13.0524 26.5407C13.7262 26.2616 14.2616 25.7262 14.5407 25.0524C14.661 24.762 14.7076 24.4625 14.7292 24.1454C14.75 23.8408 14.75 23.4697 14.75 23.0253V22.9747C14.75 22.5303 14.75 22.1593 14.7292 21.8546C14.7076 21.5375 14.661 21.238 14.5407 20.9476C14.2616 20.2738 13.7262 19.7384 13.0524 19.4593C12.762 19.339 12.4625 19.2924 12.1454 19.2708C11.8408 19.25 11.4697 19.25 11.0253 19.25ZM7.52165 20.8452C7.5988 20.8132 7.71602 20.7837 7.95674 20.7673C8.20421 20.7504 8.5238 20.75 9 20.75H11C11.4762 20.75 11.7958 20.7504 12.0433 20.7673C12.284 20.7837 12.4012 20.8132 12.4784 20.8452C12.7846 20.972 13.028 21.2154 13.1549 21.5216C13.1868 21.5988 13.2163 21.716 13.2327 21.9567C13.2496 22.2042 13.25 22.5238 13.25 23C13.25 23.4762 13.2496 23.7958 13.2327 24.0433C13.2163 24.284 13.1868 24.4012 13.1549 24.4784C13.028 24.7846 12.7846 25.028 12.4784 25.1549C12.4012 25.1868 12.284 25.2163 12.0433 25.2327C11.7958 25.2496 11.4762 25.25 11 25.25H9C8.5238 25.25 8.20421 25.2496 7.95674 25.2327C7.71602 25.2163 7.5988 25.1868 7.52165 25.1549C7.21536 25.028 6.97202 24.7846 6.84515 24.4784C6.81319 24.4012 6.78372 24.284 6.76729 24.0433C6.75041 23.7958 6.75 23.4762 6.75 23C6.75 22.5238 6.75041 22.2042 6.76729 21.9567C6.78372 21.716 6.81319 21.5988 6.84515 21.5216C6.97202 21.2154 7.21536 20.972 7.52165 20.8452Z" fill="#1B84E7"/>
<path fill-rule="evenodd" clip-rule="evenodd" d="M21.948 15.25H22.052C22.9505 15.25 23.6997 15.2499 24.2945 15.3299C24.9223 15.4143 25.4891 15.6 25.9445 16.0555C26.4 16.5109 26.5857 17.0777 26.6701 17.7055C26.7501 18.3003 26.75 19.0495 26.75 19.9479V22.052C26.75 22.9504 26.7501 23.6997 26.6701 24.2945C26.5857 24.9223 26.4 25.4891 25.9445 25.9445C25.4891 26.4 24.9223 26.5857 24.2945 26.6701C23.6997 26.7501 22.9505 26.75 22.0521 26.75H21.948C21.0496 26.75 20.3003 26.7501 19.7055 26.6701C19.0777 26.5857 18.5109 26.4 18.0555 25.9445C17.6 25.4891 17.4143 24.9223 17.3299 24.2945C17.2499 23.6997 17.25 22.9505 17.25 22.052V19.948C17.25 19.0495 17.2499 18.3003 17.3299 17.7055C17.4143 17.0777 17.6 16.5109 18.0555 16.0555C18.5109 15.6 19.0777 15.4143 19.7055 15.3299C20.3003 15.2499 21.0495 15.25 21.948 15.25ZM19.9054 16.8165C19.4439 16.8786 19.2464 16.9858 19.1161 17.1161C18.9858 17.2464 18.8786 17.4439 18.8165 17.9054C18.7516 18.3884 18.75 19.036 18.75 20V22C18.75 22.964 18.7516 23.6116 18.8165 24.0946C18.8786 24.5561 18.9858 24.7536 19.1161 24.8839C19.2464 25.0142 19.4439 25.1214 19.9054 25.1835C20.3884 25.2484 21.036 25.25 22 25.25C22.964 25.25 23.6116 25.2484 24.0946 25.1835C24.5561 25.1214 24.7536 25.0142 24.8839 24.8839C25.0142 24.7536 25.1214 24.5561 25.1835 24.0946C25.2484 23.6116 25.25 22.964 25.25 22V20C25.25 19.036 25.2484 18.3884 25.1835 17.9054C25.1214 17.4439 25.0142 17.2464 24.8839 17.1161C24.7536 16.9858 24.5561 16.8786 24.0946 16.8165C23.6116 16.7516 22.964 16.75 22 16.75C21.036 16.75 20.3884 16.7516 19.9054 16.8165Z" fill="#1B84E7"/>
<path fill-rule="evenodd" clip-rule="evenodd" d="M23.0253 5.25H20.9748C20.5303 5.24999 20.1592 5.24999 19.8546 5.27077C19.5375 5.29241 19.238 5.33905 18.9476 5.45933C18.2738 5.73844 17.7384 6.27379 17.4593 6.94762C17.339 7.23801 17.2924 7.53754 17.2708 7.85464C17.25 8.15923 17.25 8.53025 17.25 8.97468V9.02525C17.25 9.46968 17.25 9.84077 17.2708 10.1454C17.2924 10.4625 17.339 10.762 17.4593 11.0524C17.7384 11.7262 18.2738 12.2616 18.9476 12.5407C19.238 12.661 19.5375 12.7076 19.8546 12.7292C20.1592 12.75 20.5303 12.75 20.9747 12.75H23.0253C23.4697 12.75 23.8408 12.75 24.1454 12.7292C24.4625 12.7076 24.762 12.661 25.0524 12.5407C25.7262 12.2616 26.2616 11.7262 26.5407 11.0524C26.661 10.762 26.7076 10.4625 26.7292 10.1454C26.75 9.84077 26.75 9.46976 26.75 9.02534V8.97474C26.75 8.53032 26.75 8.15923 26.7292 7.85464C26.7076 7.53754 26.661 7.23801 26.5407 6.94762C26.2616 6.27379 25.7262 5.73844 25.0524 5.45933C24.762 5.33905 24.4625 5.29241 24.1454 5.27077C23.8408 5.24999 23.4697 5.24999 23.0253 5.25ZM19.5216 6.84515C19.5988 6.81319 19.716 6.78372 19.9567 6.76729C20.2042 6.75041 20.5238 6.75 21 6.75H23C23.4762 6.75 23.7958 6.75041 24.0433 6.76729C24.284 6.78372 24.4012 6.81319 24.4784 6.84515C24.7846 6.97202 25.028 7.21536 25.1549 7.52165C25.1868 7.5988 25.2163 7.71602 25.2327 7.95674C25.2496 8.20421 25.25 8.5238 25.25 9C25.25 9.4762 25.2496 9.7958 25.2327 10.0433C25.2163 10.284 25.1868 10.4012 25.1549 10.4784C25.028 10.7846 24.7846 11.028 24.4784 11.1549C24.4012 11.1868 24.284 11.2163 24.0433 11.2327C23.7958 11.2496 23.4762 11.25 23 11.25H21C20.5238 11.25 20.2042 11.2496 19.9567 11.2327C19.716 11.2163 19.5988 11.1868 19.5216 11.1549C19.2154 11.028 18.972 10.7846 18.8452 10.4784C18.8132 10.4012 18.7837 10.284 18.7673 10.0433C18.7504 9.7958 18.75 9.4762 18.75 9C18.75 8.5238 18.7504 8.20421 18.7673 7.95674C18.7837 7.71602 18.8132 7.5988 18.8452 7.52165C18.972 7.21536 19.2154 6.97202 19.5216 6.84515Z" fill="#1B84E7"/>
</svg>
