<svg width="16" height="16" viewBox="0 0 16 16" fill="none" xmlns="http://www.w3.org/2000/svg">
<path d="M8.04395 0.833009C8.37248 0.832999 8.65201 0.832786 8.88379 0.853516C9.12968 0.87554 9.35932 0.923517 9.58203 1.03906C9.66979 1.08462 9.75373 1.1372 9.83301 1.19629C10.0342 1.34636 10.1776 1.53238 10.3047 1.74414C10.4244 1.94365 10.5462 2.19464 10.6895 2.49024L11.0166 3.16602H14C14.276 3.16602 14.4998 3.39002 14.5 3.66602C14.5 3.94216 14.2761 4.16602 14 4.16602H13.4697L13.2314 8.03418C13.2144 8.3098 12.9768 8.51995 12.7012 8.50293C12.4256 8.48584 12.2164 8.24823 12.2334 7.97266L12.4678 4.16602H3.53125L3.90234 10.3193C3.95454 11.1848 3.9917 11.7987 4.06641 12.2744C4.13986 12.7421 4.24313 13.0265 4.39648 13.2471C4.56838 13.4943 4.79005 13.7026 5.04688 13.8594C5.37206 14.0579 5.80627 14.1425 6.68066 14.167C6.95669 14.1747 7.17374 14.4046 7.16602 14.6807C7.15811 14.9565 6.92826 15.1737 6.65234 15.166C5.7684 15.1412 5.09518 15.0608 4.52539 14.7129C4.15003 14.4837 3.82631 14.1786 3.5752 13.8174C3.30084 13.4226 3.16421 12.9715 3.0791 12.4297C2.99608 11.9011 2.95556 11.2392 2.90527 10.4053L2.5293 4.16602H2C1.72386 4.16602 1.5 3.94216 1.5 3.66602C1.50018 3.39002 1.72397 3.16602 2 3.16602H5.04688L5.32617 2.55371C5.46582 2.24732 5.5842 1.98705 5.70215 1.78027C5.82734 1.56084 5.97021 1.36815 6.17383 1.21191C6.2541 1.15033 6.33939 1.09537 6.42871 1.04785C6.65533 0.927352 6.89001 0.877405 7.1416 0.854493C7.37862 0.832916 7.66432 0.832999 8.00098 0.833009H8.04395ZM12.9795 9.64649C13.1748 9.45123 13.4913 9.45123 13.6865 9.64649C13.8818 9.84175 13.8818 10.1583 13.6865 10.3535L11.707 12.333L13.6865 14.3125C13.8818 14.5078 13.8818 14.8243 13.6865 15.0195C13.4913 15.2148 13.1748 15.2148 12.9795 15.0195L11 13.04L9.02051 15.0195C8.82529 15.2147 8.50875 15.2146 8.31348 15.0195C8.11822 14.8243 8.11821 14.5078 8.31348 14.3125L10.293 12.333L8.31348 10.3535C8.11821 10.1583 8.11822 9.84175 8.31348 9.64649C8.50875 9.45138 8.82529 9.45128 9.02051 9.64649L11 11.626L12.9795 9.64649ZM8.02344 1.83301C7.65924 1.83301 7.41886 1.83362 7.23242 1.85059C7.05544 1.8667 6.96532 1.8951 6.89844 1.93066C6.85782 1.95227 6.81873 1.97688 6.78223 2.00488C6.72219 2.05096 6.65924 2.12129 6.57129 2.27539C6.47851 2.438 6.37861 2.65687 6.22754 2.98828L6.14648 3.16602H9.90625L9.79883 2.94531C9.64388 2.62569 9.54127 2.41541 9.44727 2.25879C9.35808 2.11022 9.29485 2.04242 9.23535 1.99805C9.19929 1.97118 9.161 1.94747 9.12109 1.92676C9.05519 1.89257 8.96661 1.86505 8.79395 1.84961C8.61208 1.83337 8.37833 1.83301 8.02344 1.83301Z" fill="#CC0C39"/>
</svg>
