<svg width="24" height="24" viewBox="0 0 24 24" fill="none" xmlns="http://www.w3.org/2000/svg">
<path d="M12.0449 1.25C13.8815 1.24999 15.3217 1.25028 16.4639 1.37402C17.6292 1.50032 18.5736 1.76287 19.3799 2.34863C19.8678 2.70317 20.2968 3.1322 20.6514 3.62012C21.2371 4.42636 21.4997 5.37077 21.626 6.53613C21.7497 7.67826 21.75 9.11855 21.75 10.9551V13.0449C21.75 14.8814 21.7497 16.3217 21.626 17.4639C21.4997 18.6292 21.2371 19.5736 20.6514 20.3799C20.2968 20.8678 19.8678 21.2968 19.3799 21.6514C18.5736 22.2371 17.6292 22.4997 16.4639 22.626C15.3217 22.7497 13.8814 22.75 12.0449 22.75H11.9551C10.1186 22.75 8.67826 22.7497 7.53613 22.626C6.37077 22.4997 5.42636 22.2371 4.62012 21.6514C4.1322 21.2968 3.70317 20.8678 3.34863 20.3799C2.76287 19.5736 2.50032 18.6292 2.37402 17.4639C2.25028 16.3217 2.24999 14.8815 2.25 13.0449V10.9551C2.24999 9.11854 2.25028 7.67827 2.37402 6.53613C2.50032 5.37077 2.76287 4.42636 3.34863 3.62012C3.70317 3.1322 4.1322 2.70317 4.62012 2.34863C5.42636 1.76287 6.37077 1.50032 7.53613 1.37402C8.67827 1.25028 10.1185 1.24999 11.9551 1.25H12.0449ZM12 2.75C10.1085 2.75 8.75017 2.75128 7.69824 2.86523C6.6604 2.97768 6.00994 3.19248 5.50195 3.56152C5.14115 3.82366 4.82366 4.14115 4.56152 4.50195C4.19248 5.00994 3.97768 5.6604 3.86523 6.69824C3.75128 7.75017 3.75 9.10853 3.75 11V13C3.75 14.8915 3.75128 16.2498 3.86523 17.3018C3.97768 18.3396 4.19248 18.9901 4.56152 19.498C4.82366 19.8589 5.14115 20.1763 5.50195 20.4385C6.00994 20.8075 6.6604 21.0223 7.69824 21.1348C8.75017 21.2487 10.1085 21.25 12 21.25C13.8915 21.25 15.2498 21.2487 16.3018 21.1348C17.3396 21.0223 17.9901 20.8075 18.498 20.4385C18.8588 20.1763 19.1763 19.8589 19.4385 19.498C19.8075 18.9901 20.0223 18.3396 20.1348 17.3018C20.2487 16.2498 20.25 14.8915 20.25 13V11C20.25 9.10853 20.2487 7.75017 20.1348 6.69824C20.0223 5.6604 19.8075 5.00994 19.4385 4.50195C19.1763 4.14115 18.8589 3.82366 18.498 3.56152C17.9901 3.19248 17.3396 2.97768 16.3018 2.86523C15.2498 2.75128 13.8915 2.75 12 2.75ZM10 13.75C10.4142 13.75 10.75 14.0858 10.75 14.5C10.75 14.9142 10.4142 15.25 10 15.25H7C6.58579 15.25 6.25 14.9142 6.25 14.5C6.25 14.0858 6.58579 13.75 7 13.75H10ZM15 8.75C15.4142 8.75 15.75 9.08579 15.75 9.5C15.75 9.91421 15.4142 10.25 15 10.25H7C6.58579 10.25 6.25 9.91421 6.25 9.5C6.25 9.08579 6.58579 8.75 7 8.75H15Z" fill="#1B84E7"/>
</svg>
