<svg width="24" height="24" viewBox="0 0 24 24" fill="none" xmlns="http://www.w3.org/2000/svg">
<path d="M12.25 2.25C12.6642 2.25 13 2.58579 13 3V4.30273C15.2718 4.6221 17.125 6.3684 17.125 8.62988C17.1249 9.04398 16.7891 9.37988 16.375 9.37988C15.9609 9.37988 15.6251 9.04398 15.625 8.62988C15.625 7.32666 14.559 6.11856 13 5.82031V11.0137C14.2359 11.091 15.2947 11.3758 16.0859 11.9912C17.0748 12.7605 17.5 13.925 17.5 15.3701C17.5 16.8894 16.8949 18.0328 15.8691 18.7676C15.0679 19.3415 14.0609 19.6259 13 19.7148V21C13 21.4142 12.6642 21.75 12.25 21.75C11.8358 21.75 11.5 21.4142 11.5 21V19.7041C9.06801 19.4082 7 17.6954 7 15.3701C7.00014 14.956 7.33587 14.6201 7.75 14.6201C8.16413 14.6201 8.49986 14.956 8.5 15.3701C8.5 16.649 9.68647 17.9143 11.5 18.1924V12.4658C10.2846 12.3847 9.30449 12.0933 8.59277 11.5215C7.70281 10.8065 7.37505 9.77514 7.375 8.62988C7.375 6.3684 9.22815 4.6221 11.5 4.30273V3C11.5 2.58579 11.8358 2.25 12.25 2.25ZM13 18.2109C13.8182 18.1269 14.4994 17.9029 14.9951 17.5479C15.598 17.116 16 16.4434 16 15.3701C16 14.223 15.6749 13.5731 15.1641 13.1758C14.7138 12.8256 14.0202 12.5943 13 12.5195V18.2109ZM11.5 5.82031C9.941 6.11856 8.875 7.32666 8.875 8.62988C8.87505 9.48894 9.10984 10.0132 9.53223 10.3525C9.90494 10.6519 10.5178 10.8813 11.5 10.959V5.82031Z" fill="#1B84E7"/>
</svg>
