<svg width="24" height="24" viewBox="0 0 24 24" fill="none" xmlns="http://www.w3.org/2000/svg">
<path d="M11.5605 1.25005C12.1637 1.24955 12.6401 1.24959 13.0869 1.40728C13.1792 1.43986 13.2701 1.47735 13.3584 1.51958C13.7858 1.72407 14.1227 2.06153 14.5488 2.48833L19.4443 7.38384C19.9387 7.8773 20.3304 8.26801 20.541 8.77642C20.7515 9.28479 20.7507 9.83772 20.75 10.5362V14.0567C20.75 15.8944 20.7498 17.3501 20.5967 18.4893C20.439 19.6616 20.1067 20.6101 19.3584 21.3585C18.6101 22.1068 17.6616 22.4391 16.4893 22.5967C15.3501 22.7499 13.8943 22.7501 12.0566 22.7501H11.9434C10.1057 22.7501 8.64991 22.7499 7.51074 22.5967C6.33844 22.4391 5.38991 22.1068 4.6416 21.3585C3.89331 20.6101 3.56095 19.6616 3.40332 18.4893C3.25016 17.3501 3.24998 15.8944 3.25 14.0567V9.40728C3.24999 7.82594 3.25039 6.57315 3.36621 5.58111C3.48511 4.56279 3.7339 3.72298 4.30176 3.01861C4.51427 2.75503 4.755 2.51531 5.01855 2.30279C5.72296 1.73485 6.56267 1.48517 7.58105 1.36626C8.57311 1.25045 9.8259 1.25004 11.4072 1.25005H11.5605ZM11.4561 2.75005C9.81549 2.75005 8.6499 2.75103 7.75488 2.85552C6.87608 2.95813 6.35453 3.15168 5.95996 3.46978C5.77959 3.61521 5.61516 3.77964 5.46973 3.96001C5.15159 4.35459 4.95808 4.87607 4.85547 5.75493C4.75097 6.64997 4.75 7.81547 4.75 9.45611V14.0001C4.75 15.9067 4.75151 17.2615 4.88965 18.2891C5.02491 19.2952 5.27897 19.8747 5.70215 20.2979C6.12536 20.7211 6.70485 20.9751 7.71094 21.1104C8.73859 21.2486 10.0932 21.2501 12 21.2501C13.9068 21.2501 15.2614 21.2486 16.2891 21.1104C17.2952 20.9751 17.8746 20.7211 18.2979 20.2979C18.721 19.8747 18.9751 19.2952 19.1104 18.2891C19.2485 17.2615 19.25 15.9067 19.25 14.0001V10.6573C19.25 10.2194 19.2468 9.94213 19.2334 9.75005H18.9453C17.5778 9.75007 16.4753 9.75038 15.6084 9.63384C14.7083 9.51282 13.9505 9.25334 13.3486 8.65142C12.7468 8.04951 12.4872 7.29173 12.3662 6.39165C12.2497 5.52473 12.25 4.42217 12.25 3.05474V2.76372C12.0832 2.75309 11.8419 2.75005 11.4561 2.75005ZM16 16.2501C16.4142 16.2501 16.75 16.5858 16.75 17.0001C16.75 17.4143 16.4142 17.7501 16 17.7501H8C7.58579 17.7501 7.25 17.4143 7.25 17.0001C7.25 16.5858 7.58579 16.2501 8 16.2501H16ZM12 12.2501C12.4142 12.2501 12.75 12.5858 12.75 13.0001C12.75 13.4143 12.4142 13.7501 12 13.7501H8C7.58579 13.7501 7.25 13.4143 7.25 13.0001C7.25 12.5858 7.58579 12.2501 8 12.2501H12ZM13.751 3.81158C13.7546 4.82646 13.7723 5.58835 13.8535 6.19243C13.9522 6.92588 14.1325 7.31417 14.4092 7.59087C14.6859 7.86764 15.0748 8.04788 15.8086 8.14654C16.4126 8.22771 17.1738 8.24541 18.1885 8.24908L13.751 3.81158Z" fill="#1B84E7"/>
</svg>
