<svg width="24" height="24" viewBox="0 0 24 24" fill="none" xmlns="http://www.w3.org/2000/svg">
<path d="M13.9639 1.25007C14.6624 1.2494 15.2152 1.24947 15.7236 1.46003C16.232 1.6706 16.6228 2.06139 17.1162 2.55573L19.9443 5.38386C20.4387 5.87732 20.8304 6.26802 21.041 6.77644C21.2515 7.28481 21.2507 7.83773 21.25 8.5362V13.0548C21.25 14.4222 21.2503 15.5248 21.1338 16.3917C21.0128 17.2917 20.7532 18.0495 20.1514 18.6514C19.6205 19.1823 18.9682 19.4451 18.2041 19.5831C17.9239 21.3772 16.3727 22.7501 14.5 22.7501L9.44531 22.7501C8.07782 22.7501 6.97534 22.7504 6.1084 22.6339C5.20829 22.5128 4.45055 22.2534 3.84863 21.6514C3.24673 21.0495 2.98723 20.2918 2.86621 19.3917C2.74968 18.5247 2.74998 17.4222 2.75 16.0548L2.75 8.00007C2.75 6.12763 4.12229 4.57545 5.91602 4.29499C6.05402 3.53125 6.31795 2.87939 6.84863 2.3487C7.45054 1.74684 8.20833 1.48729 9.1084 1.36628C9.97533 1.24975 11.0778 1.25005 12.4453 1.25007L13.9639 1.25007ZM5.77149 5.87214C4.88663 6.175 4.25 7.01257 4.25 8.00007L4.25 16.0001C4.25 17.4355 4.25196 18.4371 4.35352 19.1925C4.45218 19.9259 4.63249 20.3142 4.90918 20.5909C5.18594 20.8677 5.57482 21.0479 6.30859 21.1466C7.0639 21.2481 8.06485 21.2501 9.5 21.2501L14.5 21.2501C15.4877 21.2501 16.3242 20.6127 16.627 19.7276C16.0176 19.7487 15.3285 19.7501 14.5547 19.7501H12.4453C11.0778 19.7501 9.97534 19.7504 9.1084 19.6339C8.20829 19.5128 7.45055 19.2534 6.84863 18.6514C6.24677 18.0495 5.98722 17.2917 5.86621 16.3917C5.7497 15.5248 5.74998 14.4222 5.75 13.0548L5.75 7.94538C5.74999 7.1711 5.75034 6.48179 5.77149 5.87214ZM12.5 2.75007C11.0648 2.75007 10.0639 2.75209 9.30859 2.85358C8.57482 2.95224 8.18594 3.13249 7.90918 3.40925C7.63242 3.68601 7.45217 4.07489 7.35352 4.80866C7.25202 5.56396 7.25 6.56492 7.25 8.00007L7.25 13.0001C7.25 14.4352 7.25202 15.4362 7.35352 16.1915C7.45217 16.9252 7.63242 17.3141 7.90918 17.5909C8.18594 17.8677 8.57482 18.0479 9.30859 18.1466C10.0639 18.2481 11.0648 18.2501 12.5 18.2501H14.5C15.9352 18.2501 16.9361 18.2481 17.6914 18.1466C18.4252 18.0479 18.8141 17.8677 19.0908 17.5909C19.3676 17.3141 19.5478 16.9253 19.6465 16.1915C19.748 15.4362 19.75 14.4352 19.75 13.0001V8.6573C19.75 8.50273 19.7492 8.36786 19.748 8.25007H18.9482C18.0498 8.2501 17.2999 8.24996 16.7051 8.16999C16.0775 8.08556 15.511 7.89976 15.0557 7.4444C14.6003 6.98905 14.4145 6.4226 14.3301 5.79499C14.2501 5.20021 14.25 4.45031 14.25 3.55183V2.75202C14.1322 2.7509 13.9973 2.75007 13.8428 2.75007H12.5ZM17 14.2501C17.4142 14.2501 17.75 14.5859 17.75 15.0001C17.75 15.4143 17.4142 15.7501 17 15.7501L10 15.7501C9.58579 15.7501 9.25 15.4143 9.25 15.0001C9.25 14.5859 9.58579 14.2501 10 14.2501L17 14.2501ZM14 10.2501C14.4142 10.2501 14.75 10.5859 14.75 11.0001C14.75 11.4143 14.4142 11.7501 14 11.7501L10 11.7501C9.58579 11.7501 9.25 11.4143 9.25 11.0001C9.25 10.5859 9.58579 10.2501 10 10.2501L14 10.2501ZM15.75 3.50007C15.75 4.46408 15.7515 5.11176 15.8164 5.5948C15.8785 6.05618 15.9859 6.25355 16.1162 6.38386C16.2465 6.51416 16.4439 6.62162 16.9053 6.68366C17.3883 6.74861 18.036 6.75007 19 6.75007L19.1846 6.75007C19.0812 6.64303 18.9542 6.51479 18.7979 6.35847L16.1416 3.70222C15.9853 3.54589 15.857 3.41891 15.75 3.3155V3.50007Z" fill="#D97706"/>
</svg>
