<svg width="24" height="24" viewBox="0 0 24 24" fill="none" xmlns="http://www.w3.org/2000/svg">
<path d="M11.5605 1.25005C12.1636 1.24955 12.6401 1.2495 13.0869 1.40728C13.1793 1.43989 13.2701 1.47731 13.3584 1.51958C13.7858 1.72416 14.1227 2.0613 14.5488 2.48833C14.5731 2.51264 14.5972 2.53767 14.6221 2.56255L19.3584 7.30083C19.3872 7.32966 19.4162 7.35865 19.4443 7.38677C19.9387 7.88043 20.3305 8.27083 20.541 8.77935C20.7515 9.28789 20.7507 9.84117 20.75 10.5401V14.0049C20.75 14.4191 20.4142 14.7549 20 14.7549C19.5858 14.7549 19.25 14.4191 19.25 14.0049V10.6612C19.25 10.2229 19.2469 9.9452 19.2334 9.75298H18.9453C17.5779 9.753 16.4754 9.75336 15.6084 9.63677C14.7083 9.51571 13.9505 9.25638 13.3486 8.65435C12.7468 8.05223 12.4872 7.29401 12.3662 6.39361C12.2497 5.52639 12.25 4.42373 12.25 3.05572V2.76372C12.0832 2.75309 11.8419 2.75005 11.4561 2.75005C9.81547 2.75005 8.64988 2.75099 7.75488 2.85552C6.87606 2.95817 6.35453 3.15249 5.95996 3.47076C5.7797 3.6162 5.61509 3.78062 5.46973 3.96099C5.15167 4.35578 4.95807 4.87777 4.85547 5.75689C4.75101 6.65227 4.75 7.81805 4.75 9.45904V14.0049C4.75 15.9126 4.75148 17.2688 4.88965 18.2969C5.02494 19.3033 5.27894 19.8833 5.70215 20.3067C6.39808 21.0028 7.47934 21.2134 10.0107 21.2501C10.4248 21.256 10.7559 21.5967 10.75 22.0108C10.744 22.4249 10.4034 22.756 9.98926 22.7501C7.56201 22.7149 5.83183 22.5577 4.6416 21.3672C3.8933 20.6186 3.56094 19.669 3.40332 18.4961C3.25018 17.3565 3.24998 15.9001 3.25 14.0616V9.41119C3.24999 7.82907 3.25042 6.57555 3.36621 5.58306C3.48509 4.56441 3.734 3.72417 4.30176 3.01958C4.51431 2.75584 4.75491 2.51545 5.01855 2.30279C5.72294 1.73465 6.56267 1.48522 7.58105 1.36626C8.57312 1.2504 9.82593 1.25004 11.4072 1.25005H11.5605ZM18.8799 18.2598C19.2037 18.2073 19.5242 18.3717 19.6709 18.6651L20.6709 20.6651C20.8558 21.0354 20.7061 21.4857 20.3359 21.671C19.9655 21.8562 19.5143 21.7055 19.3291 21.335L19.0791 20.835C18.3069 21.9912 16.9802 22.7501 15.5 22.7501C14.0552 22.75 12.7794 22.0279 12.0127 20.9288C11.7758 20.5891 11.8586 20.1218 12.1982 19.8848C12.538 19.6478 13.0052 19.7316 13.2422 20.0713C13.7404 20.7856 14.5662 21.25 15.5 21.2501C16.8941 21.2501 18.0686 20.2163 18.2578 18.8936C18.3043 18.5691 18.5563 18.3124 18.8799 18.2598ZM15.5 14.2501C16.9449 14.2501 18.2216 14.9721 18.9883 16.0713C19.2249 16.411 19.1414 16.8784 18.8018 17.1153C18.462 17.3521 17.9948 17.2685 17.7578 16.9288C17.2596 16.2146 16.4338 15.7501 15.5 15.7501C14.106 15.7501 12.9314 16.7838 12.7422 18.1065C12.6956 18.4311 12.4438 18.6878 12.1201 18.7403C11.7963 18.7928 11.4758 18.6284 11.3291 18.335L10.3291 16.335C10.1442 15.9646 10.2947 15.5143 10.665 15.3292C11.0355 15.1441 11.4857 15.2947 11.6709 15.6651L11.9209 16.1651C12.693 15.0089 14.0199 14.2501 15.5 14.2501ZM13.751 3.81255C13.7546 4.82791 13.7723 5.58999 13.8535 6.19439C13.9522 6.92824 14.1324 7.31692 14.4092 7.5938C14.686 7.8707 15.0749 8.05175 15.8086 8.15044C16.4126 8.23164 17.1738 8.24834 18.1885 8.25201L13.751 3.81255Z" fill="#1B84E7"/>
</svg>
