<svg width="32" height="32" viewBox="0 0 32 32" fill="none" xmlns="http://www.w3.org/2000/svg">
<path fill-rule="evenodd" clip-rule="evenodd" d="M8.00024 17.25C7.58625 17.2503 7.25024 17.586 7.25024 18C7.25051 18.4139 7.58642 18.7498 8.00024 18.75H10.3958C10.5774 18.7501 10.7557 18.7906 10.9163 18.8682L12.9583 19.8565C13.3238 20.0333 13.7256 20.125 14.1321 20.125H15.175C15.6014 20.1251 15.9521 20.3526 16.1282 20.6709L14.1936 21.2061C13.9127 21.2837 13.6121 21.2563 13.3528 21.1309L11.1692 20.0743C10.7964 19.8942 10.3476 20.0502 10.1672 20.4229C9.98687 20.7957 10.1432 21.2444 10.5159 21.4249L12.6995 22.4815C13.2879 22.7661 13.9627 22.8256 14.593 22.6514L17.134 21.9493C17.4841 21.8525 17.7502 21.5327 17.7502 21.1417C17.7502 21.1125 17.7473 21.0836 17.7463 21.0547L21.8137 19.8057L21.8166 19.8047C22.314 19.6499 22.8629 19.8288 23.1897 20.2813C23.3055 20.4419 23.245 20.6627 23.1038 20.7442L15.5881 25.0811C15.2872 25.2546 14.9356 25.2953 14.6086 25.1983L8.21411 23.3008C7.81701 23.183 7.39932 23.4096 7.28149 23.8067C7.16385 24.2037 7.39034 24.6205 7.78735 24.7383L14.1819 26.6368C14.9063 26.8517 15.6832 26.7578 16.3381 26.3799L23.8538 22.044C24.7869 21.5056 25.0268 20.264 24.4055 19.4034C23.7126 18.4439 22.5018 18.0206 21.3713 18.3721L21.3704 18.3731L17.2415 19.6417C16.768 19.0214 16.0123 18.6251 15.175 18.625H14.1321C13.9504 18.625 13.7721 18.5836 13.6116 18.5059L11.5696 17.5176C11.2041 17.3408 10.8022 17.2501 10.3958 17.25H8.00024ZM16.385 5.99517C15.4017 5.2493 13.7775 4.81368 12.0012 5.91411C10.7323 6.70034 10.061 8.31022 10.2981 10.0958C10.5374 11.8974 11.6851 13.8871 14.0383 15.6465C14.0676 15.6684 14.0964 15.6904 14.1252 15.712C14.8967 16.2898 15.5107 16.749 16.5002 16.7491C17.4898 16.7491 18.1038 16.2898 18.8752 15.712C18.9042 15.6903 18.9337 15.6685 18.9631 15.6465C21.3162 13.8872 22.4631 11.8973 22.7024 10.0958C22.9394 8.31037 22.269 6.70041 21.0002 5.91411C19.2239 4.81349 17.5988 5.24926 16.6155 5.99517C16.5732 6.02721 16.5352 6.05671 16.5002 6.08306C16.4653 6.05669 16.4273 6.02725 16.385 5.99517ZM12.7913 7.1895C13.9646 6.46259 14.9145 6.76323 15.4778 7.19048L15.4963 7.20415C15.6393 7.31259 15.7745 7.41561 15.886 7.48931C15.9453 7.52854 16.0215 7.5749 16.1057 7.61333C16.1842 7.64914 16.3243 7.70316 16.5002 7.70317C16.6765 7.70317 16.8173 7.64915 16.8958 7.61333C16.9798 7.57495 17.0553 7.52848 17.1145 7.48931C17.2261 7.41554 17.3621 7.3127 17.5051 7.20415L17.5227 7.19048C18.086 6.76317 19.0368 6.46245 20.2102 7.1895C20.8766 7.60271 21.392 8.57094 21.2161 9.89751C21.042 11.2084 20.1761 12.8668 18.0647 14.4454C17.1775 15.1087 16.9488 15.2491 16.5002 15.2491C16.0518 15.2491 15.823 15.1087 14.9358 14.4454C12.8245 12.8668 11.9585 11.2084 11.7844 9.89751C11.6084 8.57064 12.1246 7.60255 12.7913 7.1895Z" fill="#6B7280"/>
</svg>
