<svg width="24" height="24" viewBox="0 0 24 24" fill="none" xmlns="http://www.w3.org/2000/svg">
<path fill-rule="evenodd" clip-rule="evenodd" d="M19.07 4.63341C16.6877 3.17209 14.6809 3.76911 13.4843 4.66768C13.2892 4.81421 13.1065 4.9716 12.9539 5.1117L15.1356 8.60245C15.3343 8.92034 15.2677 9.33612 14.9797 9.57611L12.6107 11.5503L14.0299 12.9696C14.2733 13.213 14.3198 13.5907 14.1427 13.8858L12.6427 16.3858C12.4296 16.741 11.9689 16.8562 11.6137 16.6431C11.2586 16.43 11.1434 15.9693 11.3565 15.6141L12.5552 13.6162L10.9693 12.0303C10.8203 11.8813 10.7408 11.6765 10.7504 11.466C10.7599 11.2555 10.8576 11.0587 11.0195 10.9238L13.5169 8.84263L11.3636 5.39744C11.1849 5.11148 11.219 4.7414 11.447 4.49291L11.9996 4.99994C11.447 4.49291 11.4469 4.49297 11.447 4.49291L11.4499 4.48976L11.4554 4.48374L11.4744 4.4635C11.4904 4.44651 11.5131 4.42266 11.5418 4.39307C11.5991 4.33398 11.6808 4.25158 11.7815 4.155C11.9813 3.9634 12.2634 3.70867 12.5836 3.46824C14.1991 2.255 16.8734 1.52626 19.8543 3.35479C21.9156 4.61915 23.0754 7.26023 22.6684 10.2947C22.2595 13.3439 20.2859 16.7925 16.1063 19.8861C16.0713 19.912 16.0366 19.9377 16.0022 19.9632C14.5509 21.0381 13.5897 21.7499 11.9996 21.7499C10.4095 21.7499 9.44836 21.0381 7.99698 19.9632C7.96258 19.9377 7.92791 19.912 7.89294 19.8861C3.71334 16.7925 1.73976 13.3439 1.33081 10.2947C0.923824 7.26023 2.08365 4.61915 4.1449 3.35479C6.23182 2.07467 8.18991 2.04008 9.74523 2.57918C10.1366 2.71484 10.3439 3.14207 10.2082 3.53344C10.0726 3.92481 9.64536 4.13211 9.25399 3.99646C8.12005 3.60342 6.63037 3.58991 4.9292 4.63341C3.47107 5.52782 2.47304 7.52709 2.8175 10.0954C3.15998 12.649 4.84713 15.7655 8.78534 18.6805C10.3675 19.8515 10.945 20.2499 11.9996 20.2499C13.0542 20.2499 13.6317 19.8515 15.2139 18.6805C19.1521 15.7655 20.8392 12.649 21.1817 10.0954C21.5262 7.52709 20.5281 5.52782 19.07 4.63341Z" fill="#1B84E7"/>
</svg>
