<svg width="24" height="24" viewBox="0 0 24 24" fill="none" xmlns="http://www.w3.org/2000/svg">
<path fill-rule="evenodd" clip-rule="evenodd" d="M16.8115 1.93006C18.1881 2.11515 19.2804 2.50219 20.1386 3.36038C20.9968 4.21858 21.3838 5.31084 21.5689 6.68749C21.7366 7.93495 21.7486 9.50769 21.7494 11.48L21.7495 12.0567C21.7495 14.2474 21.7495 15.9681 21.5689 17.3115C21.3838 18.6881 20.9968 19.7804 20.1386 20.6386C19.2804 21.4968 18.1881 21.8838 16.8115 22.0689C15.564 22.2366 13.9913 22.2486 12.0189 22.2494L11.4423 22.2495C9.25157 22.2495 7.5309 22.2495 6.18749 22.0689C4.81084 21.8838 3.71858 21.4968 2.86038 20.6386C2.00219 19.7804 1.61515 18.6881 1.43006 17.3115C1.27527 16.16 1.25316 14.7313 1.25 12.967V11.0319C1.25316 9.26767 1.27527 7.839 1.43006 6.68749C1.61515 5.31084 2.00219 4.21858 2.86038 3.36038C3.71858 2.50219 4.81084 2.11515 6.18749 1.93006C7.339 1.77527 8.76767 1.75316 10.5319 1.75H12.467C14.2313 1.75316 15.66 1.77527 16.8115 1.93006ZM11.504 15.4995C10.9452 15.4995 10.4995 15.9472 10.4995 16.4995C10.4995 17.0518 10.9452 17.4995 11.495 17.4995C12.0538 17.4995 12.4995 17.0518 12.4995 16.4995C12.4995 15.9472 12.0538 15.4995 11.504 15.4995ZM11.4995 6.49947C9.84257 6.49947 8.49947 7.84262 8.49947 9.49947C8.49947 10.0518 8.94719 10.4995 9.49947 10.4995C10.0518 10.4995 10.4995 10.0518 10.4995 9.49947L10.5062 9.38285C10.564 8.88552 10.9866 8.49947 11.4995 8.49947C12.0518 8.49947 12.4995 8.94719 12.4995 9.49947C12.4995 9.70004 12.4415 9.88401 12.3417 10.0392C12.2236 10.2227 12.0734 10.4162 11.8884 10.6461L11.7988 10.7571C11.6436 10.9489 11.4682 11.166 11.3083 11.3857C10.9323 11.9025 10.4995 12.6179 10.4995 13.4995C10.4995 14.0518 10.9472 14.4995 11.4995 14.4995C12.0518 14.4995 12.4995 14.0518 12.4995 13.4995C12.4995 13.2765 12.6094 12.9968 12.9255 12.5624C13.0527 12.3876 13.1899 12.2177 13.3444 12.0265L13.4466 11.8999C13.6332 11.6679 13.8428 11.4023 14.0236 11.1214C14.3248 10.6532 14.4995 10.0952 14.4995 9.49947C14.4995 7.84262 13.1564 6.49947 11.4995 6.49947Z" fill="#1B84E7"/>
</svg>
