<svg width="24" height="24" viewBox="0 0 24 24" fill="none" xmlns="http://www.w3.org/2000/svg">
<path d="M12 1.25C16.5676 1.25 20.25 5.00942 20.25 9.62109C20.2499 12.6867 18.6186 14.9921 16.2666 16.4004C16.1692 16.4587 16.12 16.5414 16.1084 16.6113L15.8291 18.2881C15.7419 18.8103 15.4287 19.2456 15 19.502V21C15 22.1046 14.1046 23 13 23H11C9.89543 23 9 22.1046 9 21V19.5557C8.5208 19.3097 8.16503 18.8498 8.07129 18.2881L7.79199 16.6113C7.7804 16.5418 7.73139 16.4587 7.63281 16.3994C5.2765 14.9813 3.75013 12.669 3.75 9.62109C3.75 5.00942 7.43241 1.25 12 1.25ZM11 19.75V21H13V19.75H11Z" fill="#1B84E7"/>
</svg>
