<svg width="24" height="24" viewBox="0 0 24 24" fill="none" xmlns="http://www.w3.org/2000/svg">
<path d="M14.0566 2.75C15.8943 2.74998 17.3501 2.75016 18.4893 2.90332C19.6616 3.06096 20.6101 3.39329 21.3584 4.1416C22.1067 4.88991 22.439 5.83844 22.5967 7.01074C22.7498 8.14991 22.75 9.60571 22.75 11.4434V12.5566C22.75 14.3943 22.7498 15.8501 22.5967 16.9893C22.439 18.1616 22.1067 19.1101 21.3584 19.8584C20.6101 20.6067 19.6616 20.939 18.4893 21.0967C17.3501 21.2498 15.8943 21.25 14.0566 21.25H9.94336C8.10571 21.25 6.64991 21.2498 5.51074 21.0967C4.33844 20.939 3.38991 20.6067 2.6416 19.8584C1.89329 19.1101 1.56096 18.1616 1.40332 16.9893C1.25016 15.8501 1.24998 14.3943 1.25 12.5566V11.4434C1.24998 9.60571 1.25016 8.14991 1.40332 7.01074C1.56096 5.83844 1.89329 4.88991 2.6416 4.1416C3.38991 3.39329 4.33844 3.06096 5.51074 2.90332C6.64991 2.75016 8.10571 2.74998 9.94336 2.75H14.0566ZM11.6963 15.7207C10.3234 12.2997 5.57404 12.5553 4.30371 15.7207C4.21098 15.9518 4.23942 16.2146 4.37891 16.4209C4.51843 16.6269 4.75115 16.75 5 16.75H11C11.2489 16.75 11.4816 16.6269 11.6211 16.4209C11.7606 16.2146 11.789 15.9518 11.6963 15.7207ZM14 14.75C13.5858 14.75 13.25 15.0858 13.25 15.5C13.25 15.9142 13.5858 16.25 14 16.25H16.5C16.9142 16.25 17.25 15.9142 17.25 15.5C17.25 15.0858 16.9142 14.75 16.5 14.75H14ZM14 11.25C13.5858 11.25 13.25 11.5858 13.25 12C13.25 12.4142 13.5858 12.75 14 12.75H19C19.4142 12.75 19.75 12.4142 19.75 12C19.75 11.5858 19.4142 11.25 19 11.25H14ZM8 7.75C6.89543 7.75 6 8.64543 6 9.75C6 10.8546 6.89543 11.75 8 11.75C9.10457 11.75 10 10.8546 10 9.75C10 8.64543 9.10457 7.75 8 7.75ZM14 7.75C13.5858 7.75 13.25 8.08579 13.25 8.5C13.25 8.91421 13.5858 9.25 14 9.25H19C19.4142 9.25 19.75 8.91421 19.75 8.5C19.75 8.08579 19.4142 7.75 19 7.75H14Z" fill="#1B84E7"/>
</svg>
