<svg width="28" height="28" viewBox="0 0 28 28" fill="none" xmlns="http://www.w3.org/2000/svg">
<path d="M16.3989 3.20801C18.543 3.20799 20.2417 3.20803 21.5708 3.38672C22.9385 3.57061 24.0454 3.9581 24.9185 4.83105C25.7914 5.70404 26.1789 6.81111 26.3628 8.17871C26.5415 9.5078 26.5415 11.2065 26.5415 13.3506V14.6484C26.5415 16.7925 26.5415 18.4912 26.3628 19.8203C26.1789 21.1881 25.7915 22.2949 24.9185 23.168C24.0454 24.041 22.9386 24.4284 21.5708 24.6123C20.2417 24.791 18.543 24.791 16.3989 24.791H11.6011C9.45702 24.791 7.75828 24.791 6.4292 24.6123C5.06159 24.4284 3.95453 24.041 3.08154 23.168C2.20859 22.2949 1.8211 21.188 1.63721 19.8203C1.45852 18.4912 1.45848 16.7925 1.4585 14.6484V13.3506C1.45848 11.2065 1.45852 9.50779 1.63721 8.17871C1.82113 6.81109 2.20855 5.70405 3.08154 4.83105C3.95454 3.95806 5.06157 3.57064 6.4292 3.38672C7.75828 3.20803 9.45702 3.20799 11.6011 3.20801H16.3989ZM11.6665 4.95801C9.44205 4.95801 7.86148 4.95991 6.6626 5.12109C5.48896 5.27891 4.81256 5.57465 4.31885 6.06836C3.82513 6.56207 3.5294 7.23848 3.37158 8.41211C3.2104 9.61099 3.2085 11.1916 3.2085 13.416V14.583C3.2085 16.8076 3.2104 18.388 3.37158 19.5869C3.52937 20.7606 3.8252 21.4369 4.31885 21.9307C4.81256 22.4244 5.48899 22.7201 6.6626 22.8779C7.86148 23.0391 9.44205 23.041 11.6665 23.041H16.3335C18.5581 23.041 20.1385 23.0391 21.3374 22.8779C22.5112 22.7201 23.1874 22.4244 23.6812 21.9307C24.1749 21.4369 24.4706 20.7607 24.6284 19.5869C24.7896 18.388 24.7915 16.8076 24.7915 14.583V13.416C24.7915 11.1916 24.7896 9.61099 24.6284 8.41211C24.4706 7.2385 24.1749 6.56207 23.6812 6.06836C23.1874 5.57471 22.511 5.27889 21.3374 5.12109C20.1385 4.95991 18.5581 4.95801 16.3335 4.95801H11.6665ZM5.02197 18.3408C6.50401 14.6477 12.0444 14.3494 13.646 18.3408C13.8259 18.7892 13.608 19.2985 13.1597 19.4785C12.7112 19.6585 12.2019 19.4407 12.022 18.9922C11.0479 16.5652 7.58086 16.6633 6.646 18.9922C6.46607 19.4406 5.95672 19.6583 5.5083 19.4785C5.05981 19.2986 4.84201 18.7893 5.02197 18.3408ZM19.2505 17.208C19.7336 17.2082 20.1255 17.5999 20.1255 18.083C20.1255 18.5661 19.7336 18.9578 19.2505 18.958H16.3335C15.8502 18.958 15.4585 18.5663 15.4585 18.083C15.4585 17.5998 15.8502 17.208 16.3335 17.208H19.2505ZM22.1665 13.125C22.6498 13.125 23.0415 13.5168 23.0415 14C23.0413 14.4831 22.6496 14.875 22.1665 14.875H16.3335C15.8504 14.875 15.4587 14.4831 15.4585 14C15.4585 13.5168 15.8502 13.125 16.3335 13.125H22.1665ZM9.3335 8.45801C10.9443 8.45801 12.2505 9.76417 12.2505 11.375C12.2503 12.9857 10.9442 14.291 9.3335 14.291C7.72277 14.291 6.41668 12.9857 6.4165 11.375C6.4165 9.76417 7.72267 8.45801 9.3335 8.45801ZM9.3335 10.208C8.68916 10.208 8.1665 10.7307 8.1665 11.375C8.16668 12.0192 8.68927 12.541 9.3335 12.541C9.97772 12.541 10.5003 12.0192 10.5005 11.375C10.5005 10.7307 9.97783 10.208 9.3335 10.208ZM22.1665 9.04102C22.6496 9.04102 23.0413 9.43292 23.0415 9.91602C23.0415 10.3993 22.6498 10.791 22.1665 10.791H16.3335C15.8502 10.791 15.4585 10.3993 15.4585 9.91602C15.4587 9.43292 15.8504 9.04102 16.3335 9.04102H22.1665Z" fill="#1B84E7"/>
</svg>
