<svg width="24" height="24" viewBox="0 0 24 24" fill="none" xmlns="http://www.w3.org/2000/svg">
<path d="M12.5566 1.25C14.3943 1.24998 15.8501 1.25017 16.9893 1.40332C18.1615 1.56097 19.1101 1.89331 19.8584 2.6416C20.6067 3.38991 20.939 4.33845 21.0967 5.51074C21.2498 6.64991 21.25 8.10571 21.25 9.94336V14.0566C21.25 15.8943 21.2498 17.3501 21.0967 18.4893C20.939 19.6615 20.6067 20.6101 19.8584 21.3584C19.1101 22.1067 18.1615 22.439 16.9893 22.5967C15.8501 22.7498 14.3943 22.75 12.5566 22.75H11.4434C9.60569 22.75 8.14992 22.7498 7.01074 22.5967C5.83843 22.439 4.88991 22.1067 4.1416 21.3584C3.3933 20.6101 3.06096 19.6616 2.90332 18.4893C2.75017 17.3501 2.74997 15.8943 2.75 14.0566V9.94336C2.75 8.10569 2.75015 6.64992 2.90332 5.51074C3.06097 4.33845 3.39332 3.38991 4.1416 2.6416C4.88989 1.89332 5.83848 1.56096 7.01074 1.40332C8.1499 1.25017 9.60574 1.24998 11.4434 1.25H12.5566ZM11.5 2.75C9.59323 2.75 8.23858 2.75149 7.21094 2.88965C6.20486 3.02491 5.62536 3.27894 5.20215 3.70215C4.77897 4.12535 4.52492 4.70489 4.38965 5.71094C4.25149 6.73858 4.25002 8.09328 4.25 10V14C4.24998 15.9068 4.2515 17.2614 4.38965 18.2891C4.52491 19.2952 4.77894 19.8746 5.20215 20.2979C5.62536 20.7211 6.20486 20.9751 7.21094 21.1104C8.23859 21.2485 9.59325 21.25 11.5 21.25H12.5C14.4068 21.25 15.7614 21.2485 16.7891 21.1104C17.7952 20.9751 18.3746 20.7211 18.7979 20.2979C19.221 19.8746 19.4751 19.2951 19.6104 18.2891C19.7485 17.2614 19.75 15.9068 19.75 14V10C19.75 8.09325 19.7485 6.73859 19.6104 5.71094C19.4751 4.70488 19.221 4.12536 18.7979 3.70215C18.3746 3.27894 17.7952 3.02491 16.7891 2.88965C15.7614 2.75149 14.4068 2.75 12.5 2.75H11.5ZM12 16.25C12.4142 16.25 12.75 16.5858 12.75 17C12.75 17.4142 12.4142 17.75 12 17.75H8C7.58579 17.75 7.25 17.4142 7.25 17C7.25 16.5858 7.58579 16.25 8 16.25H12ZM16 11.25C16.4142 11.25 16.75 11.5858 16.75 12C16.75 12.4142 16.4142 12.75 16 12.75H8C7.58579 12.75 7.25 12.4142 7.25 12C7.25 11.5858 7.58579 11.25 8 11.25H16ZM16 6.25C16.4142 6.25 16.75 6.58579 16.75 7C16.75 7.41421 16.4142 7.75 16 7.75H8C7.58579 7.75 7.25 7.41421 7.25 7C7.25 6.58579 7.58579 6.25 8 6.25H16Z" fill="#1B84E7"/>
</svg>
