<svg width="24" height="24" viewBox="0 0 24 24" fill="none" xmlns="http://www.w3.org/2000/svg">
<path d="M18.0002 19.25C18.4112 19.25 18.7502 19.586 18.7502 20C18.7502 21.889 15.2512 22.75 12.0002 22.75C8.74924 22.75 5.25024 21.889 5.25024 20C5.25026 19.586 5.58625 19.25 6.00024 19.25C6.41424 19.25 6.74524 19.5812 6.75024 19.9912C6.86869 20.3433 8.64072 21.25 12.0002 21.25C15.3598 21.25 17.1318 20.3423 17.2502 19.9912C17.2552 19.5812 17.5892 19.25 18.0002 19.25ZM12.0002 1.25C15.0961 1.25002 17.9744 3.16479 19.1594 6.01562C21.2204 10.9705 17.4903 14.5086 14.4944 17.3506C14.2514 17.5805 14.0116 17.8092 13.7776 18.0342C13.2976 18.4962 12.6662 18.75 12.0002 18.75C11.3342 18.75 10.7029 18.4962 10.2229 18.0352C9.97193 17.7922 9.7172 17.5487 9.45923 17.3027C6.48725 14.4738 2.78807 10.9526 4.84204 6.01562C6.02712 3.16479 8.90435 1.25 12.0002 1.25ZM12.0002 2.75C9.50226 2.75 7.18182 4.29383 6.22681 6.5918C4.56881 10.5768 7.58141 13.4438 10.4934 16.2158C10.7554 16.4648 11.0129 16.7111 11.2649 16.9551C11.4619 17.1441 11.7242 17.25 12.0002 17.25C12.2762 17.25 12.5386 17.1451 12.7375 16.9541C12.9745 16.7261 13.2172 16.4956 13.4622 16.2627C16.4011 13.4757 19.4396 10.5937 17.7756 6.5918C16.8196 4.29383 14.4982 2.75002 12.0002 2.75ZM12.0002 5.75C13.7922 5.75 15.2502 7.20801 15.2502 9C15.2502 10.792 13.7922 12.25 12.0002 12.25C10.2082 12.25 8.75024 10.792 8.75024 9C8.75026 7.20801 10.2083 5.75 12.0002 5.75ZM12.0002 7.25C11.0353 7.25 10.2503 8.03501 10.2502 9C10.2502 9.965 11.0352 10.75 12.0002 10.75C12.9652 10.75 13.7502 9.965 13.7502 9C13.7502 8.03501 12.9652 7.25 12.0002 7.25Z" fill="#98A2B3"/>
</svg>
