<svg width="24" height="24" viewBox="0 0 24 24" fill="none" xmlns="http://www.w3.org/2000/svg">
<path d="M9.75 2.29292C10.1406 2.15506 10.5692 2.36033 10.707 2.75093C10.8446 3.14129 10.6402 3.56898 10.25 3.70698L9.58691 3.94136C8.28156 4.40207 7.36152 4.72786 6.67188 5.06245C5.99935 5.38873 5.61452 5.69267 5.34668 6.07124C5.07902 6.44973 4.92073 6.91371 4.83691 7.6562C4.75098 8.41785 4.75 9.39417 4.75 10.7783V13.2226C4.75 14.6069 4.75093 15.583 4.83691 16.3447C4.92076 17.0874 5.07887 17.5511 5.34668 17.9296C5.6145 18.3082 5.99944 18.6112 6.67188 18.9374C7.36155 19.2721 8.28146 19.5988 9.58691 20.0595L10.25 20.2929C10.6404 20.4309 10.8448 20.8595 10.707 21.2499C10.5691 21.6404 10.1405 21.8448 9.75 21.707L9.0459 21.4589C7.79254 21.0166 6.79222 20.6629 6.01758 20.2871C5.21705 19.8987 4.58887 19.4556 4.12207 18.7958C3.65537 18.1361 3.44648 17.3967 3.34668 16.5126C3.25012 15.6571 3.24999 14.5966 3.25 13.2675V10.7333C3.24999 9.4041 3.25009 8.34284 3.34668 7.48725C3.4465 6.60321 3.65531 5.86377 4.12207 5.20405C4.58887 4.54432 5.21709 4.10121 6.01758 3.71284C6.79219 3.33708 7.79265 2.98425 9.0459 2.54194L9.75 2.29292ZM11.9775 8.96186C12.2746 8.67344 12.7495 8.68056 13.0381 8.97749C13.3265 9.27453 13.3194 9.74942 13.0225 10.038C12.8609 10.195 12.6039 10.3968 12.3594 10.5888C12.3406 10.6035 12.3217 10.6188 12.3027 10.6337C12.057 10.8267 11.7936 11.0334 11.5449 11.2441C11.5426 11.246 11.5404 11.248 11.5381 11.2499H20C20.4142 11.2499 20.75 11.5857 20.75 11.9999C20.75 12.4142 20.4142 12.7499 20 12.7499H11.5381C11.5404 12.7519 11.5426 12.7539 11.5449 12.7558C11.7936 12.9665 12.057 13.1732 12.3027 13.3662C12.3217 13.3811 12.3406 13.3964 12.3594 13.4111C12.6039 13.6031 12.8609 13.8049 13.0225 13.9619C13.3194 14.2505 13.3265 14.7254 13.0381 15.0224C12.7495 15.3193 12.2746 15.3265 11.9775 15.038C11.8863 14.9493 11.704 14.803 11.4326 14.5898C11.4131 14.5744 11.3932 14.5588 11.373 14.5429C11.1309 14.3529 10.8463 14.1301 10.5752 13.9003C10.2849 13.6543 9.98354 13.3787 9.74902 13.1035C9.63156 12.9655 9.51533 12.8097 9.42578 12.6425C9.33939 12.4811 9.25 12.2582 9.25 11.9999C9.25 11.7417 9.33939 11.5188 9.42578 11.3574C9.51533 11.1902 9.63156 11.0344 9.74902 10.8964C9.98354 10.6212 10.2849 10.3456 10.5752 10.0996C10.8463 9.86982 11.1309 9.64705 11.373 9.45698C11.3932 9.44114 11.4131 9.42547 11.4326 9.41011C11.704 9.19691 11.8863 9.05056 11.9775 8.96186Z" fill="#CC0C39" fill-opacity="0.7"/>
</svg>
