<svg width="150" height="40" viewBox="0 0 150 40" fill="none" xmlns="http://www.w3.org/2000/svg">
<g clip-path="url(#clip0_182_7617)">
<path d="M-10 0H149.531V40H-10V0Z" fill="white"/>
<path d="M63.0443 9.68231C63.0624 9.67835 63.0804 9.6743 63.0985 9.67033C67.1576 9.26784 71.3999 11.3874 73.1969 15.1021C73.7235 16.1917 74.0522 17.2173 74.247 18.3068C74.7362 21.1132 74.0826 23.9987 72.432 26.3216C70.8281 28.6103 68.6618 29.8513 65.9425 30.3282C67.4247 31.7258 68.834 32.855 71.0314 32.239C71.9934 31.9695 72.5862 31.5575 73.2998 30.8745C73.7656 31.3274 74.1839 31.7662 74.6287 32.2401C74.4207 32.4426 74.1223 32.6717 73.891 32.8587C70.4386 35.5421 65.8047 34.2537 63.8793 30.4075C61.2944 30.3071 59.2464 29.7167 57.2526 27.9435C52.9826 24.1458 52.4847 16.8243 56.5882 12.7055C58.395 10.8921 60.4425 9.85321 63.0443 9.68231Z" fill="#1B84E7"/>
<path d="M63.239 11.6326C67.8881 11.1731 72.0286 14.5684 72.4843 19.2135C72.9392 23.8587 69.5359 27.9917 64.886 28.4416C60.2427 28.8907 56.1131 25.4971 55.6586 20.8589C55.2042 16.2206 58.5968 12.0914 63.239 11.6326Z" fill="white"/>
<path d="M63.7981 17.9251C65.2262 17.7894 66.4977 18.827 66.6495 20.2522C66.8013 21.6773 65.7769 22.9591 64.3521 23.1266C63.4162 23.2366 62.4934 22.8357 61.9357 22.0769C61.3781 21.3181 61.2716 20.3184 61.6569 19.4593C62.0423 18.6002 62.86 18.0143 63.7981 17.9251Z" fill="#112B5F"/>
<path d="M53.888 19.9873C54.161 19.9884 54.3622 20.006 54.5731 20.1787C54.608 20.4064 54.6179 20.3202 54.5184 20.532C54.3365 20.6475 54.1908 20.7675 53.9756 20.7546C53.8477 20.5324 53.8904 20.27 53.888 19.9873Z" fill="#1B84E7"/>
<path d="M9.60205 9.60445C9.95539 9.53371 11.2218 9.56577 11.6192 9.60897C14.2804 9.89823 16.7671 11.145 18.4616 13.2308C17.6384 14.1538 16.8433 14.9817 15.9779 15.8667C15.951 15.832 15.9236 15.7975 15.8957 15.7634C14.7665 14.3792 13.1293 13.5047 11.3499 13.3354C9.57159 13.1553 7.96966 13.5219 6.57462 14.6606C5.23184 15.7397 4.38059 17.3135 4.21296 19.0269C3.55186 25.7824 10.3515 29.0358 15.4882 24.7919L16.1045 24.219C16.9011 24.9349 17.8137 25.8866 18.5866 26.6528C16.5454 28.8179 14.5671 30.1313 11.5079 30.3931C8.56112 30.6554 5.83414 29.897 3.57671 27.9351C-0.650405 24.2616 -1.24748 17.4469 2.40079 13.2046C4.22309 11.0913 6.81648 9.79472 9.60205 9.60445Z" fill="#112B5F"/>
<path d="M134.535 15.0482C136.681 14.6929 139.329 15.635 140.672 17.3587C142.156 19.2643 142.412 21.1066 142.455 23.4289L130.268 23.4433C130.286 24.3511 130.517 25.2421 130.941 26.0453C131.575 27.2134 132.645 28.0842 133.919 28.4681C135.626 28.9808 137.192 28.6572 138.723 27.8364C139.391 27.4155 139.742 27.0654 140.26 26.4785C140.738 26.8571 141.167 27.2064 141.623 27.6091C140.3 29.2384 138.967 30.1105 136.851 30.374C132.237 30.9485 128.673 28.2529 128.175 23.5422C127.935 21.3608 128.574 19.1738 129.95 17.4633C131.124 16.0223 132.697 15.2366 134.535 15.0482Z" fill="#1B84E7"/>
<path d="M134.951 16.7586C138.435 16.6585 139.975 18.6445 140.46 21.8789C138.926 21.8371 137.322 21.8556 135.783 21.8518L130.216 21.8465C130.596 19.0066 131.954 17.1297 134.951 16.7586Z" fill="white"/>
<path d="M100.736 15.049C102.683 14.7809 104.93 15.4218 106.32 16.8364C108.127 18.6752 108.594 20.9353 108.601 23.4176C104.555 23.4456 100.508 23.4486 96.4622 23.4265C96.5712 26.612 98.7671 28.7101 101.961 28.6437C103.268 28.6164 103.971 28.3165 105.101 27.6932C105.567 27.3751 106.086 26.796 106.471 26.3819C106.8 26.6833 107.572 27.2276 107.956 27.5156C106.294 29.0991 105.216 30.1398 102.838 30.3745C101.273 30.5289 99.5539 30.385 98.1681 29.6422C92.0439 26.3604 93.453 15.7961 100.736 15.049Z" fill="#1B84E7"/>
<path d="M101.354 16.7612C104.616 16.7675 106.243 18.7629 106.565 21.861L101.586 21.8541L96.3617 21.8218C96.9319 18.8673 98.1167 17.0757 101.354 16.7612Z" fill="white"/>
<path d="M39.5789 15.0138C41.0008 15.0312 42.4465 15.0188 43.8706 15.02C43.449 16.2123 43.0935 17.1989 42.6181 18.3849C41.0059 22.3506 39.5714 26.3024 37.988 30.2252C36.9394 30.2075 34.8471 30.1424 33.8757 30.2609C32.5315 27.2796 31.3206 23.6683 30.1086 20.6031C29.3638 18.7194 28.5564 16.9543 27.9064 15.0136C29.2569 15.0416 30.6667 15.0269 32.0222 15.0328C33.4021 18.2611 34.4351 22.36 35.8907 25.6183C36.4767 24.3976 37.333 21.5036 37.8083 20.1478C38.3547 18.5894 39.1425 16.5566 39.5789 15.0138Z" fill="#112B5F"/>
<path d="M88.6921 15.1685L90.6636 15.1533L90.7119 19.379L90.7283 30.2843L88.6929 30.2752C88.6898 29.4089 88.6968 28.5424 88.7139 27.6762C88.4607 28.0524 88.1749 28.4053 87.8586 28.7305C86.6637 29.9428 85.2779 30.356 83.6164 30.4114C79.9732 30.533 78.0125 28.038 78.0663 24.5712C78.0788 23.7827 78.0523 22.8342 78.0499 22.0173L78.0538 15.1699L80.0612 15.1696L80.0916 21.5071C80.0916 22.7822 79.9903 24.414 80.2092 25.6372C80.8168 29.0348 85.2382 29.4129 87.3499 27.2857C87.9466 26.6773 88.3665 25.918 88.5636 25.0894C88.7715 24.2023 88.6944 22.2593 88.6937 21.2632L88.6921 15.1685Z" fill="#1B84E7"/>
<path d="M111.992 15.189L113.853 15.2416C113.889 17.3619 113.906 19.4826 113.903 21.6033C113.908 22.9508 113.856 24.204 114.056 25.5439C114.579 29.0553 119.164 29.478 121.325 27.293C121.874 26.731 122.254 26.027 122.423 25.2605C122.624 24.3687 122.534 22.3128 122.533 21.2822L122.548 15.2004C123.071 15.2401 123.992 15.2058 124.542 15.2023C124.599 16.4942 124.579 17.8988 124.582 19.2L124.586 30.2534C123.911 30.2061 123.187 30.2302 122.507 30.2398L122.48 27.8539C120.545 30.63 116.302 31.4346 113.535 29.1346C112.592 28.3508 112.055 26.3316 112.051 25.1014C112.041 21.8108 111.977 18.4949 111.992 15.189Z" fill="#1B84E7"/>
<path d="M21.5273 15.0217L25.4381 15.015C25.4622 20.111 25.5462 25.1131 25.501 30.2338C24.19 30.2236 22.879 30.2206 21.568 30.2248C21.5047 25.1574 21.4911 20.0894 21.5273 15.0217Z" fill="#112B5F"/>
<path d="M46.1776 15.044C47.462 15.0289 48.7465 15.029 50.0309 15.0442C50.1664 19.8386 50.0998 25.4201 50.0512 30.2341C48.769 30.2031 47.4865 30.1892 46.204 30.1924C46.0423 25.4655 46.1312 19.8101 46.1776 15.044Z" fill="#112B5F"/>
<path d="M22.9982 8.27378C23.8113 8.0811 24.6654 8.34063 25.2334 8.95301C25.8014 9.56538 25.9956 10.4358 25.7416 11.2312C25.4876 12.0265 24.8247 12.6238 24.0066 12.7943C22.7653 13.0532 21.5462 12.2675 21.2703 11.031C20.9945 9.79448 21.7644 8.56608 22.9982 8.27378Z" fill="#112B5F"/>
<path d="M47.7586 8.33205C48.9857 8.17244 50.1164 9.01952 50.3068 10.2411C50.4971 11.4627 49.6776 12.6131 48.46 12.8336C47.6448 12.9812 46.8137 12.6757 46.2887 12.0355C45.7638 11.3953 45.6276 10.5211 45.9329 9.75174C46.2383 8.9824 46.9372 8.43898 47.7586 8.33205Z" fill="#112B5F"/>
</g>
<defs>
<clipPath id="clip0_182_7617">
<rect width="150" height="40" fill="white"/>
</clipPath>
</defs>
</svg>
