<svg width="24" height="24" viewBox="0 0 24 24" fill="none" xmlns="http://www.w3.org/2000/svg">
<path d="M8.0332 2.25098C8.52146 2.24254 8.97194 2.35476 9.45215 2.54004C9.92533 2.72261 10.4737 2.99453 11.1426 3.32715L14.5059 5C14.9475 5.21959 15.0676 5.27347 15.1836 5.30078C15.2992 5.328 15.4296 5.333 15.9209 5.33301H18.0527C18.9504 5.33298 19.701 5.33316 20.2969 5.41504C20.9275 5.50173 21.4955 5.69257 21.9502 6.15723C22.4027 6.61975 22.5861 7.19418 22.6699 7.83105C22.7496 8.43672 22.75 9.20038 22.75 10.1201V16.9629C22.75 17.8828 22.7496 18.6472 22.6699 19.2529C22.5861 19.8896 22.4026 20.4634 21.9502 20.9258C21.4955 21.3905 20.9276 21.5813 20.2969 21.668C19.701 21.7498 18.9504 21.75 18.0527 21.75H15.8594C15.4631 21.7502 15.1477 21.7502 14.8398 21.6777C14.5325 21.6054 14.2497 21.4644 13.8936 21.2871C13.8753 21.278 13.8565 21.269 13.8379 21.2598L10.0234 19.3633C9.06167 18.8851 8.73213 18.7314 8.40332 18.6865C7.658 18.5848 7.0497 18.9381 6.11817 19.4785L6.09668 19.4912L6.06055 19.5117C5.44182 19.8707 4.92773 20.1691 4.50195 20.3613C4.07117 20.5558 3.60345 20.7032 3.11035 20.6152C2.5771 20.5201 2.09847 20.2338 1.75879 19.8125C1.44726 19.426 1.34376 18.9477 1.29688 18.4717C1.25046 18.0002 1.24999 17.3971 1.25 16.668V8.42871C1.24999 7.87782 1.24966 7.41164 1.28711 7.02539C1.32691 6.6152 1.41365 6.23655 1.62012 5.87402C1.82711 5.51069 2.10825 5.2448 2.44043 5.00488C2.75206 4.77985 3.15106 4.54886 3.61914 4.27734C3.6292 4.27151 3.63929 4.26564 3.64942 4.25977L4.90723 3.5293C5.55421 3.15397 6.08414 2.84661 6.54492 2.63379C6.99883 2.42415 7.4294 2.28605 7.90039 2.25684C7.93299 2.25251 7.96622 2.25 8 2.25C8.01113 2.25 8.02219 2.2505 8.0332 2.25098ZM15.75 20.2471C15.8016 20.2473 15.8583 20.25 15.9209 20.25H18C18.9645 20.25 19.6111 20.2488 20.0928 20.1826C20.5508 20.1196 20.7469 20.0108 20.8779 19.877C21.0112 19.7408 21.1209 19.5331 21.1836 19.0566C21.2488 18.5604 21.25 17.8961 21.25 16.9121V10.1719C21.25 9.18758 21.2489 8.52271 21.1836 8.02637C21.1209 7.54994 21.0112 7.34225 20.8779 7.20605C20.7469 7.0723 20.5506 6.96433 20.0928 6.90137C19.6111 6.83517 18.9645 6.83301 18 6.83301H15.8594C15.8222 6.83303 15.7858 6.8311 15.75 6.83105V20.2471ZM8.75 17.2256C9.30133 17.3301 9.83741 17.5952 10.582 17.9658C10.6179 17.9837 10.6545 18.0022 10.6914 18.0205L14.25 19.7881V6.54004C14.138 6.48784 14.0196 6.43287 13.8936 6.37012C13.8753 6.36103 13.8565 6.35204 13.8379 6.34277L10.5059 4.68652C9.79802 4.33457 9.31231 4.09386 8.91211 3.93945C8.85554 3.91763 8.80129 3.89944 8.75 3.88184V17.2256ZM7.17383 3.99609C6.78396 4.17618 6.31425 4.44773 5.62988 4.84473L4.40235 5.55664C3.89562 5.85059 3.56294 6.04483 3.31934 6.2207C3.08968 6.38654 2.98742 6.50287 2.92285 6.61621C2.85787 6.73038 2.80835 6.88063 2.78027 7.16992C2.75064 7.47535 2.75 7.86882 2.75 8.46387V16.6279C2.75 17.4066 2.75079 17.9352 2.78906 18.3242C2.82767 18.7164 2.895 18.8328 2.92578 18.8711C3.04158 19.0148 3.2017 19.1079 3.37402 19.1387C3.41142 19.1453 3.53443 19.1523 3.88477 18.9941C4.23247 18.8371 4.68046 18.5781 5.34375 18.1934C5.39645 18.1628 5.44998 18.1308 5.50488 18.0986C5.99741 17.8101 6.57877 17.4699 7.25 17.292V3.96289C7.22542 3.97375 7.19954 3.98422 7.17383 3.99609Z" fill="#6B7280"/>
</svg>
