<svg width="24" height="24" viewBox="0 0 24 24" fill="none" xmlns="http://www.w3.org/2000/svg">
<path fill-rule="evenodd" clip-rule="evenodd" d="M10.5163 2.04299C10.6958 2.27652 10.722 2.59348 10.5832 2.85329C9.99927 3.94693 9.66792 5.1961 9.66792 6.52489C9.66792 10.8367 13.1633 14.3321 17.4751 14.3321C18.8039 14.3321 20.0531 14.0008 21.1467 13.4168C21.4065 13.2781 21.7235 13.3043 21.957 13.4837C22.1906 13.6632 22.2974 13.9628 22.2302 14.2495C21.1556 18.835 17.0409 22.25 12.1269 22.25C6.39589 22.25 1.75 17.6041 1.75 11.8732C1.75 6.95909 5.16505 2.84448 9.7505 1.76982C10.0373 1.70261 10.3368 1.80947 10.5163 2.04299ZM8.59638 3.72584C5.45025 5.09103 3.25 8.22583 3.25 11.8732C3.25 16.7757 7.22431 20.75 12.1269 20.75C15.7742 20.75 18.909 18.5498 20.2742 15.4036C19.3903 15.6821 18.4498 15.8321 17.4751 15.8321C12.3349 15.8321 8.16792 11.6651 8.16792 6.52489C8.16792 5.55022 8.31797 4.60975 8.59638 3.72584Z" fill="#98A2B3"/>
</svg>
