<svg width="123" height="120" viewBox="0 0 123 120" fill="none" xmlns="http://www.w3.org/2000/svg">
<path d="M101.345 65.1258C101.345 87.3469 83.4515 105.361 61.3798 105.361C39.3075 105.361 21.4146 87.3469 21.4146 65.1258C21.4146 42.9041 39.3075 24.8897 61.3798 24.8897C83.4515 24.8897 101.345 42.9041 101.345 65.1258Z" fill="#F1F5FB"/>
<path d="M50.8103 28.1287C50.6457 28.3713 51.1337 29.1874 52.1045 29.1874C53.0754 29.1874 53.5605 29.0246 53.9653 30.0833C54.3696 31.1426 53.803 34.7259 54.3696 36.0289C54.9356 37.3325 55.9064 38.1469 56.6347 37.4139C57.3629 36.681 57.2821 34.7259 58.172 34.2372C59.0614 33.7486 62.2979 31.7941 62.4596 30.1647C62.6213 28.5359 61.4888 27.3143 58.6572 26.9886C55.8255 26.6628 52.0237 26.3371 50.8103 28.1287Z" fill="#E8F3FD"/>
<path d="M40.355 64.6213C39.9768 64.8334 39.7504 65.2412 39.7687 65.6771C39.826 67.0428 39.3118 70.4468 38.2319 71.5343C36.8567 72.9187 37.3635 75.414 37.3421 76.4212C37.2985 78.4665 37.4948 79.3764 39.679 80.3537C41.8633 81.331 42.7186 81.3866 42.8806 83.3417C43.0423 85.2963 43.2942 92.8472 43.941 94.8018C44.5884 96.7569 45.9635 99.933 46.6918 100.666C47.4195 101.399 49.1186 101.807 48.0669 99.0372C47.0152 96.2683 46.3678 94.9647 47.5818 93.4173C48.7951 91.87 50.8177 88.2861 50.9794 86.9016C51.1411 85.5171 51.8693 84.7028 52.5161 84.5399C53.1636 84.377 54.5386 83.8884 54.9435 83.3997C55.3478 82.9105 54.5386 81.5261 54.2961 80.3045C54.0535 79.0829 54.0535 78.3499 56.076 77.3727C58.0985 76.3948 57.1277 73.6259 54.3769 72.8929C51.6268 72.16 49.9277 70.6121 50.2511 69.0647C50.5751 67.5174 48.3903 67.6803 47.0961 66.9473C45.8018 66.2144 45.8405 65.0631 44.4004 64.5141C42.453 63.7724 41.0862 64.2106 40.355 64.6213Z" fill="#D1E6FA"/>
<path d="M90.476 62.9131C89.7946 61.8836 89.8795 60.2537 91.5839 58.0232C92.9227 56.2714 91.0015 54.519 90.1157 53.8481C89.9534 53.7251 90.0266 53.4691 90.2287 53.4456C91.3267 53.3208 93.8724 53.6917 94.9926 59.3959C96.441 66.7741 97.0374 64.2003 97.8043 63.3419C98.5713 62.4842 97.1364 60.8824 98.5712 59.2243C99.4759 58.1796 99.9352 56.6551 100.168 55.4119C97.2864 43.7099 89.3188 34.0286 78.7611 28.8862C78.7769 30.1711 78.4687 34.6461 73.2625 32.8006C73.2625 32.8006 70.0248 31.2561 70.7918 37.5193C71.5587 43.7819 74.1999 37.0905 74.7114 36.8327C75.2229 36.5755 76.5863 36.2321 75.9898 40.4359C75.9898 40.4359 75.9043 41.8942 73.2625 41.637C70.6213 41.3798 70.1098 42.6664 70.1098 43.3531C70.1098 44.0391 70.3653 45.8408 68.9169 47.128C67.468 48.4146 67.8945 51.7606 69.8544 50.6451C71.8142 49.5301 73.1775 46.0124 74.9668 45.6697C76.7567 45.3263 78.3756 47.6424 80.0799 47.0418C81.7843 46.4413 81.0173 43.5247 81.8692 43.5247C82.7217 43.5247 84.511 45.2402 84.2556 46.5274C83.9995 47.814 81.3583 48.4146 82.0397 49.959C82.7217 51.5028 84.17 50.9884 84.5966 52.0178C85.0225 53.0472 82.4657 54.2483 80.4209 52.9617C78.3756 51.6751 78.0346 53.5622 77.0122 52.7039C75.9898 51.8461 75.9043 50.0445 74.4559 50.6451C73.007 51.2456 72.1552 52.4467 70.2803 53.3044C68.4054 54.1628 66.8716 55.2777 66.8716 56.4788C66.8716 57.6805 67.5536 58.9671 67.2126 60.8542C66.8716 62.742 66.2751 67.889 72.4106 66.8596C78.5461 65.8302 77.7791 69.0046 77.7791 69.3479C77.7791 69.6907 77.6942 74.1522 78.2906 74.9238C78.887 75.696 80.2504 77.9265 78.2906 80.8437C76.3308 83.7603 77.0977 90.2806 78.887 89.4229C80.6764 88.5646 82.4657 85.2191 84.6815 83.503C86.8968 81.7876 89.9651 74.3239 88.6867 72.0073C87.4083 69.6907 90.476 67.8035 90.9019 66.2591C91.3285 64.7147 91.158 63.9431 90.476 62.9131Z" fill="#D1E6FA"/>
<path d="M32.5252 37.2884C32.5577 38.7174 32.3059 40.273 31.4749 41.7301C28.9669 46.1284 29.0478 48.3272 28.8051 52.7255C28.5624 57.1238 34.0826 64.8769 35.4578 65.6913C36.8331 66.5057 37.0453 64.5681 37.0453 63.0208C37.0453 61.4735 36.4578 59.6174 35.6488 57.8257C34.8398 56.034 34.8398 54.8933 35.0825 54.1604C35.3253 53.4274 36.296 53.1831 36.9432 53.916C37.5904 54.649 39.1461 55.2993 39.8935 54.8412C40.8122 54.2781 40.4546 52.074 40.7782 51.341C41.1018 50.6081 42.8817 50.1195 43.6094 48.5721C44.3376 47.0242 45.551 46.3727 47.0076 45.6397C48.4635 44.9068 49.7577 44.581 50.0009 44.0924C50.2434 43.6038 49.92 42.463 50.3243 41.16C50.7285 39.857 51.6994 38.3096 51.2951 37.6581C50.8908 37.0066 49.6769 35.9479 47.4118 37.5767C45.1468 39.2055 44.5802 39.2055 43.9334 37.9839C43.286 36.7623 44.6616 33.5856 47.4927 33.5856C50.3243 33.5856 50.8908 32.6083 50.9717 31.8754C51.0525 31.1424 50.1626 30.328 49.1918 30.1646C48.2209 30.0017 48.0592 30.5718 44.0142 32.2011C41.3146 33.288 38.9409 33.0331 37.6595 32.7431C35.8214 34.11 34.1033 35.6309 32.5252 37.2884Z" fill="#D1E6FA"/>
<path d="M99.4608 72.3747C98.8568 72.2394 98.991 73.7252 98.1859 73.9959C97.3809 74.266 97.0458 74.6714 97.2468 76.1573C97.4483 77.6431 97.1126 79.6017 96.3076 80.3446C95.5025 81.0875 94.3618 81.6283 94.295 83.4516C94.2276 85.2755 92.5508 87.0314 91.5443 87.6396C90.5377 88.2471 88.9951 89.1928 88.9951 90.7465C88.9951 91.7467 88.9687 93.0257 89.1995 94.0088C94.5253 88.8084 98.4162 82.1292 100.22 74.6287C100.063 73.6315 99.8059 72.4521 99.4608 72.3747Z" fill="#D1E6FA"/>
<path d="M61.3794 106.245C72.2909 106.245 82.5522 101.966 90.2661 94.1992C97.9797 86.4336 102.228 76.1058 102.228 65.126C102.228 54.1455 97.9799 43.8173 90.2661 36.0518C82.5522 28.2855 72.2908 24.0068 61.3794 24.0068C50.4681 24.0069 40.2067 28.2855 32.4927 36.0518C24.7791 43.8173 20.5308 54.1455 20.5308 65.126C20.5308 76.1058 24.7793 86.4336 32.4927 94.1992C40.2067 101.966 50.468 106.245 61.3794 106.245ZM61.3794 104.478C39.8349 104.477 22.2983 86.8282 22.2983 65.126C22.2985 43.4233 39.8349 25.7745 61.3794 25.7744C82.9234 25.7744 100.46 43.4232 100.46 65.126C100.46 86.8282 82.9235 104.478 61.3794 104.478Z" fill="#76B5F1" stroke="#D1E6FA" stroke-width="1.37931"/>
<path d="M78.9193 91.7787C78.9193 91.7787 78.5625 93.066 78.5766 93.5622C78.5912 94.0585 78.6205 95.5185 78.8379 95.737C79.0552 95.9562 79.5046 95.679 79.5046 94.7152C79.5046 94.1768 79.5322 93.8393 79.5562 93.646C79.5638 93.581 79.6517 93.5675 79.6769 93.6278C79.8105 93.953 80.056 94.6098 80.056 95.0656C80.056 95.6937 79.896 97.4015 80.6067 97.5328C81.25 97.6517 81.8183 96.47 81.9794 94.6982C82.0105 94.3549 81.9742 94.0092 81.8839 93.6765C81.7421 93.1556 81.5347 92.3154 81.5347 91.8543L78.9193 91.7787Z" fill="#F1F5FB"/>
<path d="M41.5056 89.186L41.7247 90.8973C41.768 91.4293 41.8082 91.983 41.7665 92.5168C41.7044 93.313 41.2748 94.0336 40.6227 94.4883L39.9946 90.0759L41.5056 89.186Z" fill="#F1F5FB"/>
<path d="M46.2456 69.2951C46.2456 69.0333 46.4559 68.8212 46.7161 68.8212C46.9762 68.8212 47.1866 69.0333 47.1866 69.2951C47.1866 69.5565 46.9762 69.7686 46.7161 69.7686C46.4559 69.7686 46.2456 69.5565 46.2456 69.2951Z" fill="#D1E6FA"/>
<path d="M52.3506 72.3655L40.4497 16.0425L43.5262 15.1582L53.0339 72.3655H52.3506Z" fill="#A4CEF5"/>
<path d="M41.9077 20.3015L52.3506 72.3657H52.7852L43.0876 20.1172L41.9077 20.3015Z" fill="#76B5F1"/>
<path d="M41.9077 17.4672C58.9327 32.4875 72.9503 -0.560493 89.9752 14.4598C89.1259 24.2615 88.2773 34.0631 87.4279 43.8648C73.4985 31.5754 62.0299 58.6141 48.0997 46.3255C46.0362 36.7066 43.972 27.0869 41.9077 17.4672Z" fill="#499DEC"/>
<path opacity="0.25" d="M68.8503 17.5951C68.3037 23.277 68.1718 31.1709 66.1298 36.4754C64.0878 41.7806 60.5584 46.1086 55.6567 48.7235C61.6302 47.6023 65.1676 44.6839 69.7156 41.8585C74.2637 39.033 79.7541 38.0105 84.8456 39.5328C81.3233 31.6635 81.6562 20.8377 85.2961 13.0184C84.0899 11.8655 74.1755 9.88551 68.8503 17.5951Z" fill="#76B5F1"/>
<path opacity="0.25" d="M48.8642 22.659C48.4677 30.564 48.3994 38.6876 49.333 46.5426C47.5738 37.804 45.8155 29.0655 44.0571 20.3262C45.3753 21.3297 47.2941 22.1815 48.8642 22.659Z" fill="#76B5F1"/>
</svg>
