<svg width="16" height="16" viewBox="0 0 16 16" fill="none" xmlns="http://www.w3.org/2000/svg">
<path fill-rule="evenodd" clip-rule="evenodd" d="M8 0.833008C8.322 0.833008 8.6842 0.888314 8.98093 1.08257C9.31013 1.29807 9.5 1.64689 9.5 2.08301C9.5 2.39246 9.40587 2.71259 9.2526 2.98921C11.3543 3.52401 12.9415 5.37391 13.0604 7.63407C13.0665 7.74907 13.0709 7.85921 13.0753 7.96534C13.0901 8.32634 13.1029 8.64067 13.1683 8.94187C13.2465 9.30174 13.3911 9.58467 13.6853 9.80527C14.1981 10.1899 14.5 10.7937 14.5 11.4348C14.5 12.3557 13.7752 13.1663 12.8 13.1663H10.45C10.2183 14.3075 9.20947 15.1663 8 15.1663C6.79053 15.1663 5.78165 14.3075 5.55001 13.1663H3.2C2.22479 13.1663 1.5 12.3557 1.5 11.4348C1.5 10.8395 1.76027 10.2764 2.20811 9.89099L2.31475 9.80527C2.60886 9.58467 2.7535 9.30174 2.83166 8.94187C2.88399 8.70091 2.90269 8.45155 2.91563 8.17661L2.9247 7.96534C2.92904 7.85921 2.93355 7.74907 2.9396 7.63407C3.05856 5.37391 4.64571 3.52401 6.7474 2.98921C6.59417 2.71259 6.5 2.39246 6.5 2.08301C6.5 1.64689 6.68987 1.29807 7.01907 1.08257C7.3158 0.888314 7.678 0.833008 8 0.833008ZM9.41467 13.1663H6.58535C6.79127 13.7489 7.34687 14.1663 8 14.1663C8.65313 14.1663 9.20873 13.7489 9.41467 13.1663ZM8 3.83301C5.83671 3.83301 4.05192 5.52633 3.93822 7.68661C3.93374 7.77181 3.93017 7.86201 3.92645 7.95581C3.91168 8.32914 3.89466 8.75907 3.80888 9.15407C3.69509 9.67807 3.45213 10.2023 2.91475 10.6053C2.65366 10.8011 2.5 11.1084 2.5 11.4348C2.5 11.8448 2.81761 12.1663 3.2 12.1663H12.8C13.1824 12.1663 13.5 11.8448 13.5 11.4348C13.5 11.1084 13.3463 10.8011 13.0853 10.6053C12.5479 10.2023 12.3049 9.67807 12.1911 9.15407C12.1225 8.83807 12.0979 8.49972 12.0832 8.18587L12.0735 7.95574C12.0698 7.86187 12.0663 7.77174 12.0618 7.68661C11.9481 5.52633 10.1633 3.83301 8 3.83301ZM8 1.83301C7.76973 1.83301 7.63193 1.87656 7.56673 1.91923C7.53987 1.93683 7.5282 1.9521 7.52107 1.96559C7.5136 1.97985 7.5 2.01371 7.5 2.08301C7.5 2.23785 7.56853 2.44779 7.6942 2.61684C7.82353 2.79089 7.94207 2.83301 8 2.83301C8.05793 2.83301 8.17647 2.79089 8.3058 2.61684C8.43147 2.44779 8.5 2.23785 8.5 2.08301C8.5 2.01371 8.4864 1.97985 8.47893 1.96559C8.4718 1.9521 8.46013 1.93683 8.43327 1.91923C8.36807 1.87656 8.23027 1.83301 8 1.83301Z" fill="#6C5CE7"/>
</svg>
