<svg width="24" height="24" viewBox="0 0 24 24" fill="none" xmlns="http://www.w3.org/2000/svg">
<path fill-rule="evenodd" clip-rule="evenodd" d="M3.32725 1.74256C3.95216 1.25059 4.68445 1.19371 5.45678 1.29711C6.19426 1.39584 7.11272 1.66246 8.22713 1.98597L13.329 3.46686C13.9959 3.66042 14.56 3.82414 15.0044 4.01362C15.4783 4.21567 15.8878 4.47519 16.1988 4.90062C16.508 5.32356 16.6356 5.79536 16.6944 6.31363C16.75 6.8044 16.75 7.40835 16.75 8.12995V9.44551L18.3651 9.93003L18.4059 9.94228C19.0577 10.1378 19.6079 10.3028 20.0409 10.4896C20.501 10.6881 20.9014 10.94 21.2065 11.3501C21.5116 11.7601 21.6378 12.2161 21.6957 12.7137C21.7502 13.1821 21.7502 13.7566 21.7502 14.437V21.2536H22C22.4142 21.2536 22.75 21.5894 22.75 22.0036C22.75 22.4178 22.4142 22.7536 22 22.7536H2C1.58579 22.7536 1.25 22.4178 1.25 22.0036C1.25 21.5894 1.58579 21.2536 2 21.2536H2.25L2.25014 6.26878C2.25128 5.24073 2.26175 4.38781 2.35616 3.71429C2.46614 2.92971 2.70907 2.22923 3.32725 1.74256ZM16.75 11.0115V21.2536H20.2502L20.2501 14.2439C20.2494 13.6385 20.2442 13.2173 20.2058 12.8871C20.1648 12.5351 20.0934 12.3669 20.003 12.2455C19.9127 12.1241 19.7721 12.0073 19.4467 11.8669C19.1033 11.7188 18.6376 11.5778 17.9341 11.3668L16.75 11.0115ZM4.25511 2.92115C4.08211 3.05735 3.92946 3.29599 3.84164 3.92251C3.76674 4.45683 3.75303 5.15613 3.75055 6.1142L3.75 21.2536H6.25V18.9588C6.24995 18.526 6.24991 18.1292 6.29331 17.8064C6.3411 17.4509 6.45355 17.0752 6.76257 16.7662C7.07159 16.4571 7.44732 16.3447 7.8028 16.2969C8.12561 16.2535 8.52244 16.2535 8.95526 16.2536H10.0448C10.4776 16.2535 10.8744 16.2535 11.1972 16.2969C11.5527 16.3447 11.9284 16.4571 12.2374 16.7662C12.5465 17.0752 12.6589 17.4509 12.7067 17.8064C12.7414 18.0646 12.7484 18.3702 12.7497 18.7038L12.75 18.9589V21.2536H15.25V8.17218C15.25 7.39734 15.2489 6.87893 15.2039 6.48262C15.161 6.10427 15.0853 5.91918 14.9879 5.78591C14.8923 5.65512 14.7469 5.5345 14.4161 5.39342C14.0651 5.24377 13.5891 5.10429 12.8685 4.8951L7.86845 3.44378C6.6796 3.0987 5.87003 2.86582 5.25774 2.78384C4.66721 2.70478 4.42139 2.79025 4.25511 2.92115ZM10.1756 17.7537L9.00001 17.7536C8.5074 17.7536 8.21339 17.7552 8.00267 17.7835C7.90611 17.7965 7.85775 17.8118 7.83597 17.8208C7.83093 17.8228 7.82761 17.8244 7.82568 17.8255L7.82187 17.8293C7.82086 17.8312 7.81924 17.8345 7.81717 17.8396C7.80821 17.8613 7.79291 17.9097 7.77993 18.0063C7.75868 18.1643 7.75248 18.3692 7.7507 18.6696L7.75001 21.2536H11.25V19.0036C11.25 18.511 11.2484 18.217 11.2201 18.0063C11.2071 17.9097 11.1918 17.8613 11.1828 17.8396C11.1808 17.8345 11.1792 17.8312 11.1781 17.8293L11.1743 17.8255C11.1724 17.8244 11.1691 17.8228 11.164 17.8208C11.1423 17.8118 11.0939 17.7965 10.9973 17.7835C10.8129 17.7587 10.5648 17.7544 10.1756 17.7537ZM7.25 9.0036C7.25 8.58939 7.58579 8.2536 8 8.2536H11C11.4142 8.2536 11.75 8.58939 11.75 9.0036C11.75 9.41781 11.4142 9.7536 11 9.7536H8C7.58579 9.7536 7.25 9.41781 7.25 9.0036ZM7.25 13.0036C7.25 12.5894 7.58579 12.2536 8 12.2536H11C11.4142 12.2536 11.75 12.5894 11.75 13.0036C11.75 13.4178 11.4142 13.7536 11 13.7536H8C7.58579 13.7536 7.25 13.4178 7.25 13.0036Z" fill="#1B84E7"/>
</svg>
