<svg width="186" height="124" viewBox="0 0 186 124" fill="none" xmlns="http://www.w3.org/2000/svg">
<g clip-path="url(#clip0_116_9243)">
<path d="M105.313 33.1006C105.241 33.1006 105.169 33.086 105.101 33.0568C104.969 33.0002 104.867 32.8954 104.813 32.7619L103.66 29.8777C102.86 29.9681 102.05 29.9656 101.25 29.8702L100.036 32.7038C99.9796 32.836 99.8749 32.9382 99.7413 32.9916C99.608 33.045 99.4615 33.0432 99.3293 32.9866L95.1893 31.2125C94.9165 31.0956 94.7896 30.7784 94.9065 30.5056L96.0794 27.7687C95.4088 27.2552 94.8022 26.662 94.2754 26.0041L91.5696 27.0865C91.4362 27.1399 91.2897 27.1382 91.1576 27.0815C91.0254 27.0249 90.9232 26.9202 90.8699 26.7866L89.197 22.6048C89.1436 22.4713 89.1454 22.325 89.202 22.1928C89.2586 22.0606 89.3634 21.9584 89.4969 21.905L92.0648 20.8777C91.9397 19.9877 91.9304 19.0844 92.037 18.1913L89.5551 17.1277C89.4229 17.071 89.3207 16.9663 89.2673 16.8328C89.2139 16.6993 89.2156 16.553 89.2723 16.4208L91.0465 12.2808C91.1031 12.1486 91.2078 12.0465 91.3414 11.993C91.4749 11.9396 91.6212 11.9413 91.7534 11.998L94.1389 13.0204C94.7097 12.2744 95.3778 11.6095 96.1254 11.043L95.1725 8.66113C95.0623 8.3855 95.1969 8.07157 95.4724 7.96132L99.6544 6.2885C99.9299 6.17832 100.244 6.31273 100.354 6.58836L101.307 8.97034C102.239 8.86487 103.181 8.8856 104.109 9.03206L105.131 6.64658C105.188 6.51439 105.293 6.41221 105.426 6.35877C105.56 6.30546 105.706 6.30721 105.838 6.36375L109.978 8.13787C110.11 8.19448 110.213 8.29921 110.266 8.43275C110.319 8.56622 110.318 8.71255 110.261 8.84474L109.197 11.3267C109.891 11.8999 110.507 12.5604 111.03 13.2911L113.598 12.2639C113.873 12.1536 114.187 12.2882 114.298 12.5638L115.971 16.7457C116.081 17.0212 115.946 17.3352 115.671 17.4455L112.965 18.5279C113.037 19.3676 113.007 20.2155 112.876 21.0498L115.612 22.2227C115.745 22.2794 115.847 22.3841 115.9 22.5176C115.954 22.6511 115.952 22.7974 115.895 22.9296L114.121 27.0695C114.064 27.2017 113.96 27.304 113.826 27.3573C113.693 27.4107 113.546 27.409 113.414 27.3524L110.581 26.138C110.067 26.7586 109.482 27.3191 108.841 27.805L109.995 30.6892C110.048 30.8227 110.047 30.969 109.99 31.1012C109.933 31.2334 109.829 31.3355 109.695 31.389L105.513 33.0619C105.449 33.0877 105.381 33.1006 105.313 33.1006ZM103.738 29.7461L104.926 32.7167C104.968 32.82 105.047 32.9011 105.149 32.945C105.251 32.9888 105.365 32.9902 105.468 32.9489L109.65 31.276C109.753 31.2347 109.834 31.1555 109.878 31.0533C109.922 30.9509 109.923 30.8377 109.882 30.7343L108.694 27.7638L108.731 27.7358C109.391 27.2402 109.992 26.6647 110.516 26.0256L110.544 25.9902L113.462 27.2406C113.564 27.2844 113.678 27.2858 113.781 27.2445C113.884 27.2031 113.965 27.124 114.009 27.0217L115.783 22.8817C115.874 22.6705 115.776 22.425 115.564 22.3346L112.74 21.1242L112.748 21.0773C112.886 20.223 112.917 19.3538 112.84 18.4936L112.835 18.4485L115.625 17.3325C115.839 17.2471 115.943 17.0041 115.857 16.7908L114.185 12.6089C114.099 12.3956 113.856 12.2913 113.643 12.3768L110.986 13.4396L110.958 13.4005C110.427 12.6507 109.796 11.9748 109.085 11.3917L109.049 11.3628L110.149 8.79682C110.193 8.69451 110.194 8.58123 110.153 8.47791C110.111 8.37459 110.032 8.29349 109.93 8.24967L105.79 6.47555C105.579 6.38509 105.333 6.48322 105.243 6.69437L104.183 9.16722L104.136 9.15961C103.189 9.00568 102.226 8.98447 101.275 9.09648L101.228 9.10193L100.241 6.63352C100.155 6.42016 99.9127 6.31596 99.6992 6.40144L95.5173 8.07426C95.3039 8.15961 95.1999 8.40266 95.2852 8.61596L96.2727 11.0843L96.2354 11.1122C95.4689 11.6875 94.7864 12.3669 94.2067 13.1317L94.1779 13.1696L91.7051 12.1099C91.6028 12.066 91.4894 12.0647 91.3862 12.106C91.2828 12.1473 91.2018 12.2265 91.1579 12.3287L89.3838 16.4686C89.2932 16.6799 89.3914 16.9253 89.6026 17.0158L92.1685 18.1154L92.1629 18.1608C92.0499 19.0738 92.0595 19.998 92.1916 20.9076L92.1985 20.955L89.5418 22.0178C89.4385 22.0592 89.3574 22.1383 89.3136 22.2405C89.2698 22.3429 89.2684 22.4561 89.3097 22.5595L90.9826 26.7413C91.0239 26.8447 91.103 26.9258 91.2053 26.9696C91.3077 27.0135 91.421 27.0148 91.5243 26.9735L94.3142 25.8574L94.3423 25.8929C94.8792 26.5694 95.501 27.1775 96.1906 27.7005L96.2285 27.7292L95.0182 30.5534C94.9277 30.7646 95.0259 31.0101 95.237 31.1006L99.377 32.8747C99.5883 32.9652 99.8337 32.867 99.9242 32.6559L101.174 29.7383L101.22 29.7439C102.04 29.8454 102.871 29.848 103.692 29.7515L103.738 29.7461ZM102.482 26.068C101.595 26.068 100.708 25.8877 99.8675 25.5276C98.2372 24.829 96.9765 23.5372 96.3177 21.8903C94.9578 18.4906 96.6172 14.6183 100.017 13.2584C101.664 12.5996 103.469 12.6216 105.099 13.3202C106.729 14.0189 107.99 15.3107 108.649 16.9576C110.009 20.3573 108.349 24.2295 104.95 25.5895C104.152 25.9087 103.316 26.068 102.482 26.068ZM96.4306 21.8451C97.0774 23.4618 98.3149 24.7299 99.9155 25.4158C101.516 26.1016 103.288 26.1232 104.905 25.4765C108.242 24.1414 109.871 20.3401 108.536 17.0027C107.889 15.386 106.652 14.1179 105.051 13.432C103.451 12.7461 101.679 12.7245 100.062 13.3713C96.7246 14.7064 95.0956 18.5077 96.4306 21.8451Z" fill="#1B84E7"/>
<path d="M95.522 116.389C129.652 116.389 157.319 113.523 157.319 109.988C157.319 106.453 129.652 103.587 95.522 103.587C61.3923 103.587 33.7246 106.453 33.7246 109.988C33.7246 113.523 61.3923 116.389 95.522 116.389Z" fill="#F1F5FB"/>
<g opacity="0.6">
<path d="M40.8327 39.7662L35.7186 47.0694C35.387 47.5429 34.7343 47.658 34.2607 47.3263L26.9576 42.2122C26.4841 41.8806 26.369 41.2279 26.7007 40.7544L31.8148 33.4513C32.1464 32.9778 32.7991 32.8627 33.2726 33.1943L40.5757 38.3084C41.0492 38.64 41.1643 39.2927 40.8327 39.7662Z" fill="#D1E6FA"/>
<path d="M76.2721 64.5836L71.158 71.8867C70.8264 72.3603 70.1737 72.4754 69.7002 72.1437L62.3971 67.0296C61.9236 66.698 61.8085 66.0453 62.1401 65.5718L67.2542 58.2687C67.5858 57.7951 68.2385 57.6801 68.712 58.0117L76.0151 63.1258C76.4887 63.4574 76.6038 64.1101 76.2721 64.5836Z" fill="#D1E6FA"/>
<path d="M53.0763 36.0124L44.296 37.5602C43.7267 37.6605 43.1838 37.2804 43.0834 36.711L41.5356 27.9308C41.4352 27.3615 41.8154 26.8185 42.3848 26.7182L51.165 25.1704C51.7343 25.07 52.2772 25.4502 52.3776 26.0195L53.9254 34.7998C54.0258 35.3691 53.6456 35.912 53.0763 36.0124Z" fill="#D1E6FA"/>
<path d="M60.588 78.6207L51.8077 80.1685C51.2384 80.2689 50.6955 79.8887 50.5951 79.3194L49.0473 70.5392C48.947 69.9699 49.3271 69.4269 49.8965 69.3266L58.6767 67.7788C59.246 67.6784 59.7889 68.0586 59.8893 68.6279L61.4371 77.4082C61.5375 77.9774 61.1573 78.5203 60.588 78.6207Z" fill="#D1E6FA"/>
<path d="M68.1576 54.3419L66.5807 45.3967C66.4884 44.8729 66.8382 44.3735 67.3619 44.2811L76.3071 42.7042C76.8309 42.6119 77.3303 42.9617 77.4227 43.4854L78.9996 52.4307C79.0919 52.9545 78.7422 53.4539 78.2184 53.5462L69.2732 55.1231C68.7494 55.2155 68.25 54.8657 68.1576 54.3419Z" fill="#D1E6FA"/>
<path d="M25.5356 61.7706L23.9877 52.9903C23.8874 52.421 24.2675 51.8781 24.8369 51.7778L33.6172 50.2299C34.1865 50.1296 34.7294 50.5097 34.8297 51.0791L36.3776 59.8594C36.4779 60.4287 36.0978 60.9716 35.5284 61.0719L26.7481 62.6198C26.1788 62.7201 25.6359 62.3399 25.5356 61.7706Z" fill="#D1E6FA"/>
<path d="M64.4574 42.0635L57.0172 36.8534C56.5815 36.5483 56.4757 35.9478 56.7807 35.5121L61.9908 28.0718C62.296 27.6361 62.8964 27.5303 63.3321 27.8354L70.7724 33.0456C71.2081 33.3507 71.3139 33.9512 71.0088 34.3869L65.7987 41.8271C65.4936 42.2628 64.8931 42.3686 64.4574 42.0635Z" fill="#D1E6FA"/>
<path d="M39.5723 77.4553L32.2692 72.3412C31.7956 72.0095 31.6805 71.3568 32.0122 70.8833L37.1263 63.5802C37.4579 63.1066 38.1106 62.9916 38.5841 63.3232L45.8872 68.4373C46.3607 68.769 46.4758 69.4216 46.1442 69.8952L41.0301 77.1983C40.6985 77.6718 40.0459 77.7868 39.5723 77.4553Z" fill="#D1E6FA"/>
<path d="M72.0063 54.6429L72.0068 54.641C72.408 50.9269 71.8157 47.1682 70.299 43.7642L70.2986 43.7634C69.5925 42.1756 68.6866 40.6662 67.5867 39.2758L67.5861 39.2756C66.3437 37.707 64.8573 36.2902 63.1359 35.0827C61.7371 34.104 60.2609 33.3187 58.7384 32.7195L58.7366 32.719C56.9777 32.0289 55.157 31.5879 53.3251 31.3905C49.6128 30.9898 45.8505 31.581 42.4469 33.096C40.6905 33.8791 39.0283 34.9056 37.5195 36.1679C37.5195 36.1679 37.5193 36.1685 37.5187 36.1683C36.1252 37.3349 34.8602 38.7018 33.7668 40.2614C32.6753 41.8217 31.8229 43.4777 31.2036 45.1859C30.5344 47.0363 30.137 48.9492 30.0044 50.8668L30.0042 50.8674C29.7439 54.5836 30.4721 58.3231 32.1205 61.6728C32.9317 63.3283 33.9671 64.8871 35.2185 66.3047C36.3019 67.5305 37.5456 68.6487 38.9436 69.6299C40.6675 70.8361 42.507 71.7475 44.4051 72.378L44.4057 72.3782C46.0897 72.9378 47.816 73.2727 49.5496 73.3924L49.5515 73.393C53.2674 73.6539 57.0045 72.925 60.3568 71.2767C61.846 70.5458 63.261 69.6325 64.5598 68.5448C65.9559 67.3788 67.2209 66.012 68.3126 64.4511C69.4059 62.8914 70.2565 61.2349 70.8756 59.5272L70.8758 59.5266C71.4526 57.9317 71.8278 56.2926 72.0063 54.6429ZM40.1709 44.7459C44.374 38.7419 52.6477 37.2846 58.652 41.4871C64.6549 45.6918 66.1126 53.9663 61.9084 59.9674C57.7056 65.9708 49.4317 67.4287 43.4276 63.2256C37.4264 59.0221 35.9662 50.7488 40.1709 44.7459Z" fill="#D1E6FA"/>
<path d="M63.6053 65.2832C60.8633 67.9586 57.4867 69.5838 53.9736 70.1651L63.6053 65.2832Z" fill="#D1E6FA"/>
</g>
<path d="M128.259 29.4432L123.456 35.4649C123.175 35.8175 122.661 35.8754 122.309 35.5942L116.287 30.7913C115.934 30.5101 115.877 29.9962 116.158 29.6436L120.961 23.6219C121.242 23.2693 121.756 23.2115 122.108 23.4927L128.13 28.2956C128.483 28.5768 128.54 29.0907 128.259 29.4432Z" fill="#D1E6FA"/>
<path d="M156.897 52.3752L152.183 58.2858C151.877 58.6691 151.319 58.732 150.935 58.4263L145.025 53.712C144.641 53.4064 144.578 52.8479 144.884 52.4646L149.598 46.5539C149.904 46.1707 150.463 46.1078 150.846 46.4134L156.757 51.1277C157.14 51.4334 157.203 51.9918 156.897 52.3752Z" fill="#D1E6FA"/>
<path d="M138.775 26.9683L131.262 27.8143C130.775 27.8692 130.336 27.5187 130.281 27.0316L129.435 19.5186C129.38 19.0314 129.73 18.5921 130.218 18.5372L137.731 17.6912C138.218 17.6363 138.657 17.9868 138.712 18.4739L139.558 25.9869C139.613 26.4741 139.262 26.9135 138.775 26.9683Z" fill="#D1E6FA"/>
<path d="M142.881 63.4263L135.368 64.2723C134.881 64.3271 134.441 63.9767 134.386 63.4895L133.54 55.9766C133.485 55.4894 133.836 55.05 134.323 54.9951L141.836 54.1492C142.323 54.0944 142.763 54.4448 142.817 54.9319L143.663 62.4449C143.718 62.9321 143.368 63.3715 142.881 63.4263Z" fill="#D1E6FA"/>
<path d="M150.563 43.2083L149.717 35.6953C149.662 35.2081 150.013 34.7687 150.5 34.714L158.013 33.868C158.5 33.8131 158.939 34.1636 158.994 34.6507L159.84 42.1637C159.895 42.6508 159.545 43.0902 159.057 43.1451L151.544 43.9911C151.057 44.0459 150.618 43.6955 150.563 43.2083Z" fill="#D1E6FA"/>
<path d="M114.105 47.3129L113.259 39.7999C113.204 39.3127 113.555 38.8733 114.042 38.8185L121.555 37.9725C122.042 37.9176 122.481 38.2681 122.536 38.7552L123.382 46.2682C123.437 46.7553 123.087 47.1947 122.599 47.2496L115.087 48.0956C114.599 48.1505 114.16 47.8 114.105 47.3129Z" fill="#D1E6FA"/>
<path d="M148.088 32.6908L142.066 27.888C141.714 27.6067 141.656 27.0929 141.937 26.7403L146.74 20.7186C147.021 20.366 147.535 20.3082 147.888 20.5894L153.909 25.3922C154.262 25.6734 154.32 26.1873 154.038 26.5399L149.236 32.5616C148.954 32.9142 148.441 32.9721 148.088 32.6908Z" fill="#D1E6FA"/>
<path d="M125.211 61.3734L119.19 56.5705C118.837 56.2893 118.779 55.7755 119.061 55.4229L123.863 49.4012C124.145 49.0486 124.658 48.9908 125.011 49.272L131.033 54.0749C131.385 54.3561 131.443 54.8699 131.162 55.2225L126.359 61.2442C126.078 61.5968 125.564 61.6546 125.211 61.3734Z" fill="#D1E6FA"/>
<path d="M143.74 24.4798C142.287 23.8015 140.77 23.3327 139.23 23.069C136.109 22.5325 132.894 22.8355 129.933 23.9382C128.405 24.5064 126.944 25.2881 125.6 26.277C124.358 27.19 123.215 28.2799 122.208 29.5425C121.201 30.8052 120.393 32.162 119.779 33.5756C119.113 35.1063 118.676 36.704 118.462 38.3204C118.045 41.4525 118.465 44.6545 119.682 47.5777C120.282 49.021 121.076 50.3958 122.06 51.6608C122.912 52.756 123.905 53.7689 125.038 54.6721C126.432 55.784 127.941 56.6537 129.514 57.287C130.909 57.8489 132.354 58.2248 133.815 58.4185C136.948 58.8349 140.15 58.4153 143.073 57.1983C144.372 56.6582 145.617 55.9601 146.775 55.108C148.017 54.195 149.16 53.1051 150.167 51.8425C151.174 50.5798 151.983 49.223 152.597 47.8094C153.17 46.4904 153.574 45.1219 153.811 43.7345C154.348 40.614 154.045 37.3989 152.942 34.4376C152.428 33.0564 151.74 31.7311 150.882 30.4961C149.915 29.1027 148.732 27.8248 147.338 26.7129C146.205 25.8098 144.997 25.0665 143.74 24.4798ZM129.171 49.4894C124.313 45.6144 123.516 38.5348 127.391 33.6764C131.266 28.8181 138.346 28.0209 143.204 31.8959C148.062 35.7708 148.859 42.8504 144.984 47.7088C141.109 52.5671 134.03 53.3643 129.171 49.4894Z" fill="#D1E6FA"/>
<path d="M78.2146 15.0249L68.1304 19.4854L72.5908 29.5696L82.6751 25.1092L78.2146 15.0249Z" fill="#76B5F1"/>
<path d="M79.7238 14.4931L66.3522 20.4069C65.8205 20.6421 65.1932 20.3995 64.9581 19.8678L64.4599 18.7415C64.2248 18.2099 64.4674 17.5825 64.9991 17.3474L78.3707 11.4336C78.9023 11.1985 79.5296 11.441 79.7648 11.9727L80.263 13.099C80.498 13.6306 80.2554 14.258 79.7238 14.4931Z" fill="#D1E6FA"/>
<path d="M126.722 97.7062C144.57 79.8583 144.57 50.921 126.722 33.0731C108.874 15.2251 79.9365 15.2252 62.0885 33.0731C44.2406 50.921 44.2406 79.8583 62.0885 97.7062C79.9365 115.554 108.874 115.554 126.722 97.7062Z" fill="#76B5F1"/>
<path d="M124.394 95.3794C140.956 78.8171 140.956 51.9642 124.394 35.4018C107.832 18.8395 80.9789 18.8395 64.4165 35.4019C47.8542 51.9642 47.8542 78.8171 64.4165 95.3794C80.9789 111.942 107.832 111.942 124.394 95.3794Z" fill="#F1F5FB"/>
<g opacity="0.2">
<path d="M122.6 93.4561C138.171 77.8848 138.171 52.6387 122.6 37.0674C107.028 21.4961 81.7822 21.4961 66.2109 37.0674C50.6396 52.6387 50.6396 77.8848 66.2109 93.4561C81.7822 109.027 107.028 109.027 122.6 93.4561Z" fill="#D1E6FA"/>
</g>
<path d="M81.402 35.6227C81.1696 35.7255 80.8954 35.6195 80.7926 35.3871L78.4201 30.0227C78.3173 29.7903 78.4234 29.5161 78.6558 29.4133C78.8882 29.3105 79.1624 29.4166 79.2652 29.6489L81.6377 35.0133C81.7405 35.2457 81.6344 35.5199 81.402 35.6227Z" fill="#76B5F1"/>
<path d="M110.472 101.23C110.215 101.343 109.911 101.226 109.797 100.968L107.169 95.0253C107.055 94.7679 107.172 94.464 107.43 94.3502C107.687 94.2363 107.991 94.3538 108.105 94.6112L110.733 100.554C110.847 100.812 110.73 101.116 110.472 101.23Z" fill="#76B5F1"/>
<path d="M126.098 51.3746C126.028 51.2164 126.1 51.0297 126.258 50.9598L129.909 49.3451C130.068 49.2751 130.254 49.3473 130.324 49.5055C130.394 49.6636 130.322 49.8503 130.164 49.9202L126.513 51.535C126.355 51.605 126.168 51.5327 126.098 51.3746Z" fill="#76B5F1"/>
<path d="M58.4886 81.2759C58.4187 81.1178 58.4909 80.9311 58.649 80.8612L62.3 79.2464C62.4582 79.1765 62.6449 79.2487 62.7148 79.4068C62.7847 79.565 62.7126 79.7517 62.5544 79.8216L58.9034 81.4363C58.7452 81.5063 58.5586 81.4341 58.4886 81.2759Z" fill="#76B5F1"/>
<path d="M129.021 67.0301C129.029 66.8573 129.177 66.7227 129.35 66.7308L133.337 66.9197C133.51 66.9279 133.645 67.0759 133.637 67.2486C133.629 67.4214 133.481 67.556 133.308 67.5478L129.32 67.359C129.147 67.3509 129.013 67.2028 129.021 67.0301Z" fill="#76B5F1"/>
<path d="M55.1766 63.5329C55.1848 63.3602 55.3329 63.2255 55.5056 63.2338L59.4933 63.4226C59.666 63.4308 59.8007 63.5788 59.7925 63.7515C59.7843 63.9243 59.6363 64.0589 59.4635 64.0507L55.4758 63.8619C55.3031 63.8537 55.1684 63.7057 55.1766 63.5329Z" fill="#76B5F1"/>
<path d="M123.547 84.1421C123.641 83.9966 123.836 83.9542 123.982 84.0478L127.339 86.2081C127.484 86.3017 127.527 86.4973 127.433 86.6427C127.34 86.7882 127.144 86.8306 126.999 86.737L123.642 84.5767C123.496 84.483 123.454 84.2875 123.547 84.1421Z" fill="#76B5F1"/>
<path d="M61.3793 44.1382C61.4729 43.9927 61.6685 43.9503 61.8139 44.0439L65.1711 46.2042C65.3165 46.2978 65.3589 46.4934 65.2654 46.6388C65.1718 46.7843 64.9762 46.8267 64.8307 46.7331L61.4736 44.5728C61.3282 44.4791 61.2857 44.2836 61.3793 44.1382Z" fill="#76B5F1"/>
<path d="M87.125 99.2834C87.294 99.3198 87.4026 99.4879 87.3663 99.657L86.5267 103.56C86.4903 103.729 86.3222 103.837 86.1531 103.801C85.984 103.765 85.8755 103.597 85.9118 103.428L86.7514 99.5247C86.7878 99.3556 86.9559 99.247 87.125 99.2834Z" fill="#76B5F1"/>
<path d="M102.673 27.01C102.842 27.0463 102.95 27.2144 102.914 27.3835L102.075 31.2864C102.038 31.4555 101.87 31.5641 101.701 31.5277C101.532 31.4914 101.423 31.3232 101.46 31.1541L102.299 27.2513C102.336 27.0821 102.504 26.9736 102.673 27.01Z" fill="#76B5F1"/>
<path d="M71.7178 91.5998C71.8485 91.713 71.8629 91.9126 71.7497 92.0434L69.1363 95.0613C69.0231 95.192 68.8235 95.2063 68.6927 95.0931C68.562 94.9799 68.5476 94.7803 68.6608 94.6496L71.2742 91.6316C71.3875 91.5009 71.5871 91.4866 71.7178 91.5998Z" fill="#76B5F1"/>
<path d="M120.112 35.7141C120.243 35.8273 120.257 36.0269 120.144 36.1576L117.53 39.1755C117.417 39.3063 117.218 39.3206 117.087 39.2074C116.956 39.0942 116.942 38.8946 117.055 38.7638L119.668 35.7459C119.781 35.6152 119.981 35.6009 120.112 35.7141Z" fill="#76B5F1"/>
<path d="M77.6115 56.3798L94.7541 71.6265C95.5014 72.2911 96.8295 71.914 97.65 70.8042C98.3779 69.8197 98.3524 68.5953 97.5944 68.1343L77.8144 56.1054C77.6821 56.025 77.4958 56.277 77.6115 56.3798Z" fill="#76B5F1"/>
<path d="M102.075 38.4532L93.6948 68.9869C93.3295 70.3178 94.1653 71.6805 95.5173 71.9581C96.7166 72.2043 97.8744 71.3855 98.0417 70.1727L102.41 38.5219C102.439 38.3103 102.132 38.2473 102.075 38.4532Z" fill="#499DEC"/>
<path d="M69.277 48.9133C69.0858 49.2199 93.5237 63.8593 93.5237 63.8593L100.898 35.1057C100.898 35.1057 80.571 30.7931 69.277 48.9133Z" fill="#499DEC"/>
</g>
<defs>
<clipPath id="clip0_116_9243">
<rect width="185.771" height="123.848" fill="white"/>
</clipPath>
</defs>
</svg>
