<svg width="28" height="28" viewBox="0 0 28 28" fill="none" xmlns="http://www.w3.org/2000/svg">
<path fill-rule="evenodd" clip-rule="evenodd" d="M12.8333 1.45801C6.55108 1.45801 1.45832 6.55077 1.45832 12.833C1.45832 19.1152 6.55108 24.208 12.8333 24.208C15.6594 24.2079 18.2425 23.1747 20.2318 21.4688L25.0472 26.2852C25.3889 26.6269 25.9438 26.6269 26.2855 26.2852C26.6269 25.9435 26.6268 25.3895 26.2855 25.0479L21.47 20.2314C23.1756 18.2422 24.2083 15.6588 24.2083 12.833C24.2083 6.55088 19.1154 1.45818 12.8333 1.45801ZM12.8333 3.20801C18.1489 3.20818 22.4583 7.51738 22.4583 12.833C22.4583 18.1486 18.1489 22.4578 12.8333 22.458C7.51758 22.458 3.20832 18.1488 3.20832 12.833C3.20832 7.51727 7.51758 3.20801 12.8333 3.20801Z" fill="#1B84E7"/>
</svg>
