<svg width="24" height="24" viewBox="0 0 24 24" fill="none" xmlns="http://www.w3.org/2000/svg">
<path d="M11.9995 1.25C13.6806 1.2501 15.0481 1.81801 16.2407 2.43555C16.601 2.6221 16.9355 2.80705 17.2554 2.9834C18.0384 3.41508 18.7327 3.79703 19.4947 4.04004L19.52 4.04883C19.9672 4.19142 20.3378 4.3099 20.6187 4.41992C20.8831 4.5235 21.1974 4.6653 21.4204 4.91309C21.6207 5.13561 21.7243 5.38505 21.7925 5.62402C21.8545 5.84103 21.9018 6.10484 21.9527 6.38672L21.9575 6.41699C23.1958 13.2825 20.4916 19.7873 13.8814 22.3184L13.8491 22.3301C13.1993 22.579 12.7536 22.75 12.0025 22.75C11.2514 22.75 10.8055 22.5799 10.1558 22.3311L10.1226 22.3184C3.51231 19.7874 0.805552 13.2826 2.04348 6.41699C2.04531 6.40685 2.04752 6.39681 2.04934 6.38672C2.10012 6.1049 2.14756 5.841 2.20949 5.62402C2.27771 5.38517 2.38048 5.1355 2.58059 4.91309C2.80355 4.66528 3.11793 4.52354 3.38235 4.41992C3.66321 4.30986 4.03384 4.19149 4.48098 4.04883L4.50637 4.04004C5.2678 3.7971 5.96139 3.41494 6.74367 2.9834C7.06348 2.80698 7.39904 2.62219 7.7593 2.43555C8.95135 1.81801 10.3184 1.25 11.9995 1.25ZM11.9995 2.75C10.673 2.75 9.56031 3.19171 8.44875 3.76758C8.17181 3.91106 7.88621 4.06885 7.59328 4.23047C6.76299 4.68856 5.87429 5.17878 4.96242 5.46973C4.48341 5.62256 4.15931 5.72625 3.92922 5.81641C3.77793 5.87571 3.71214 5.91334 3.69094 5.92578C3.683 5.94181 3.66941 5.97472 3.65188 6.03613C3.61303 6.17223 3.57828 6.36057 3.52004 6.68359C2.37954 13.0095 4.87145 18.7009 10.6597 20.917C11.3239 21.1713 11.542 21.25 12.0025 21.25C12.4628 21.25 12.681 21.1713 13.3452 20.917C19.1329 18.7009 21.6228 13.0097 20.482 6.68359C20.4237 6.3606 20.389 6.17225 20.3501 6.03613C20.3325 5.97452 20.318 5.94179 20.3101 5.92578C20.2887 5.91323 20.2228 5.87557 20.0718 5.81641C19.8417 5.72628 19.5177 5.6225 19.0386 5.46973C18.1265 5.1788 17.2375 4.68856 16.4068 4.23047C16.1137 4.06886 15.8274 3.91107 15.5503 3.76758C14.4383 3.19179 13.3258 2.75009 11.9995 2.75ZM12.0083 6.25C13.3933 6.25016 14.516 7.37287 14.5161 8.75781V9.7627C15.1627 9.97615 15.8091 10.4698 16.1187 11.4043L16.1284 11.4307L16.1353 11.458C16.1917 11.6839 16.2182 11.9834 16.2329 12.2627C16.2485 12.5574 16.2524 12.8878 16.2505 13.2041C16.2468 13.8117 16.2186 14.4552 16.1773 14.7031L16.1704 14.7422L16.1597 14.7803C15.9724 15.4547 15.6277 15.985 15.1079 16.3281C14.6029 16.6615 14.0183 16.7616 13.4507 16.752C13.3479 16.752 13.1994 16.7523 13.021 16.7529H11.3042C10.7024 16.7494 10.154 16.7404 9.91067 16.7188L9.86867 16.7148L9.82766 16.707C9.00834 16.5398 8.1498 15.992 7.82473 14.7734L7.8091 14.7148L7.80324 14.6543C7.76328 14.2545 7.74537 13.6078 7.75149 13.0117C7.75458 12.7104 7.76389 12.4108 7.78078 12.1514C7.79664 11.908 7.82174 11.6497 7.86965 11.458C8.01425 10.8796 8.5369 10.0666 9.50051 9.75684V8.75781C9.50061 7.37277 10.6233 6.25 12.0083 6.25ZM10.3374 11.1299C9.68286 11.1299 9.38274 11.5902 9.32473 11.8223C9.31266 11.8709 9.29247 12.0096 9.27688 12.249C9.26228 12.4732 9.2544 12.7439 9.25149 13.0273C9.24597 13.5654 9.2612 14.1123 9.28957 14.4424C9.37469 14.7261 9.50109 14.8956 9.62453 15.0029C9.75141 15.1133 9.90879 15.1867 10.0874 15.2285C10.5523 15.2609 12.0444 15.2558 12.9497 15.2529C13.1554 15.2523 13.3314 15.252 13.4575 15.252H13.4712C13.8612 15.2593 14.1141 15.1878 14.2818 15.0771C14.4311 14.9786 14.5895 14.7984 14.7017 14.4229C14.7205 14.2614 14.747 13.7689 14.7505 13.1953C14.7523 12.8969 14.7484 12.5971 14.7349 12.3408C14.7219 12.0953 14.7024 11.9299 14.6851 11.8457C14.4886 11.2925 14.0548 11.1299 13.6968 11.1299H10.3374ZM12.0083 7.75C11.4517 7.75 11.0006 8.2012 11.0005 8.75781V9.62988H13.0161V8.75781C13.016 8.20129 12.5648 7.75016 12.0083 7.75Z" fill="#6C5CE7"/>
</svg>
