<svg width="24" height="24" viewBox="0 0 24 24" fill="none" xmlns="http://www.w3.org/2000/svg">
<path d="M12.6548 1.25782C12.9714 1.25778 13.2696 1.2576 13.519 1.28614C13.7969 1.31793 14.0891 1.39193 14.3618 1.58887C14.6343 1.78568 14.7967 2.03936 14.9145 2.29297C15.0203 2.52084 15.1142 2.80433 15.2143 3.10547L15.2251 3.1377L15.5532 4.11719C15.6478 4.3558 15.8131 4.55947 16.0268 4.7002L16.3296 4.875C16.5827 5.00093 16.8709 5.03652 17.1469 4.97657L18.3481 4.63868L18.3823 4.62891C18.7103 4.53578 19.0176 4.44819 19.2817 4.40625C19.5754 4.35966 19.8968 4.35415 20.229 4.48926C20.5611 4.62437 20.7874 4.85258 20.9653 5.09082C21.1254 5.30518 21.2841 5.58207 21.4546 5.87793L21.9848 6.79786C22.1445 7.07491 22.2945 7.33524 22.395 7.56739C22.5068 7.82581 22.5895 8.11768 22.5542 8.45411C22.5188 8.79048 22.3775 9.05863 22.2143 9.28809C22.0677 9.49423 21.8666 9.71742 21.6528 9.95508L21.6303 9.98047L21.6294 9.98145L20.6186 11.1123C20.4922 11.2835 20.3598 11.6556 20.3598 12.0078C20.3599 12.3603 20.4922 12.7321 20.6186 12.9033L21.6303 14.0352L21.6528 14.0606C21.8665 14.2982 22.0677 14.5214 22.2143 14.7275C22.3775 14.957 22.5188 15.2251 22.5542 15.5615C22.5895 15.898 22.5069 16.1898 22.395 16.4482C22.2945 16.6804 22.1445 16.9407 21.9848 17.2178L21.4546 18.1377C21.2841 18.4335 21.1254 18.7105 20.9653 18.9248C20.7874 19.163 20.5611 19.3913 20.229 19.5264C19.8968 19.6615 19.5754 19.656 19.2817 19.6094C19.0176 19.5674 18.7103 19.4799 18.3823 19.3867L18.3481 19.377L17.1469 19.0391C16.8709 18.9791 16.5827 19.0146 16.3296 19.1406L16.0268 19.3154C15.8132 19.4562 15.6478 19.6599 15.5532 19.8984L15.2251 20.877L15.2143 20.9102C15.1142 21.2113 15.0203 21.4948 14.9145 21.7227C14.7967 21.9763 14.6343 22.2299 14.3618 22.4268C14.0891 22.6237 13.7969 22.6977 13.519 22.7295C13.2696 22.758 12.9715 22.7579 12.6548 22.7578H11.4702C11.1535 22.7579 10.8554 22.758 10.6059 22.7295C10.328 22.6977 10.0359 22.6237 9.76315 22.4268C9.49067 22.2299 9.32819 21.9763 9.21042 21.7227C9.10461 21.4948 9.01076 21.2113 8.91061 20.9102L8.89987 20.877L8.57174 19.8984C8.4771 19.6599 8.31176 19.4562 8.09811 19.3154L7.79538 19.1406C7.54224 19.0146 7.25406 18.9791 6.97799 19.0391L5.77682 19.377L5.74264 19.3867C5.41462 19.4799 5.10737 19.5674 4.84323 19.6094C4.54956 19.656 4.22815 19.6615 3.89596 19.5264C3.56386 19.3913 3.33757 19.163 3.15963 18.9248C2.99955 18.7105 2.84079 18.4335 2.67038 18.1377L2.65085 18.1055L2.1401 17.2178C1.98041 16.9407 1.83048 16.6804 1.72995 16.4482C1.61807 16.1898 1.53542 15.898 1.57077 15.5615C1.60615 15.2251 1.74746 14.957 1.91061 14.7275C2.05721 14.5214 2.25837 14.2982 2.47213 14.0606L2.4946 14.0352L2.49557 14.0342L3.50631 12.9033C3.63269 12.7321 3.76507 12.3603 3.7651 12.0078C3.7651 11.6556 3.6327 11.2835 3.50631 11.1123L2.49557 9.98145L2.4946 9.98047L2.47213 9.95508C2.25837 9.71741 2.05721 9.49423 1.91061 9.28809C1.74746 9.05863 1.60616 8.79048 1.57077 8.45411C1.53543 8.11768 1.61809 7.82581 1.72995 7.56739C1.83047 7.33524 1.98041 7.07491 2.1401 6.79786C2.146 6.78763 2.15176 6.77688 2.15768 6.76661L2.65085 5.91016C2.65709 5.89931 2.66416 5.88873 2.67038 5.87793C2.84081 5.58207 2.99954 5.30518 3.15963 5.09082C3.33758 4.85258 3.56385 4.62437 3.89596 4.48926C4.22816 4.35415 4.54955 4.35966 4.84323 4.40625C5.10736 4.44819 5.41463 4.53578 5.74264 4.62891C5.75427 4.63221 5.76612 4.63536 5.7778 4.63868L6.97799 4.97657C7.25402 5.03652 7.54227 5.00093 7.79538 4.875L8.09811 4.7002C8.3118 4.55947 8.47709 4.3558 8.57174 4.11719L8.89987 3.13868C8.90347 3.12784 8.90702 3.11628 8.91061 3.10547C9.01076 2.80432 9.10461 2.52085 9.21042 2.29297C9.32819 2.03936 9.49067 1.78568 9.76315 1.58887C10.0359 1.39193 10.328 1.31793 10.6059 1.28614C10.8554 1.2576 11.1535 1.25778 11.4702 1.25782H12.6548ZM11.5053 2.75782C11.1411 2.75782 10.9306 2.75881 10.7768 2.77637C10.7075 2.78431 10.6708 2.79417 10.6538 2.79981C10.6462 2.80236 10.6411 2.80469 10.6411 2.80469L10.6401 2.80567C10.6391 2.80669 10.6363 2.81004 10.6323 2.81543C10.6215 2.82998 10.6012 2.86148 10.5717 2.92481C10.5063 3.06571 10.438 3.26593 10.3227 3.61231L9.98385 4.62598L9.97799 4.64161C9.76789 5.1893 9.38787 5.65529 8.89401 5.97168L8.87936 5.98145L8.5112 6.19336L8.49557 6.20215C7.91932 6.49823 7.25672 6.58015 6.62546 6.43457L6.60788 6.43067L5.36862 6.08203C4.99206 5.97518 4.7726 5.91385 4.60788 5.8877C4.53386 5.87597 4.49407 5.87582 4.47506 5.87696C4.46635 5.87748 4.46139 5.87891 4.46139 5.87891H4.46042C4.45985 5.87927 4.45578 5.88147 4.44967 5.88672C4.43515 5.89925 4.40694 5.92785 4.36178 5.98828C4.26171 6.12228 4.14639 6.31948 3.95065 6.65918L3.45749 7.51563C3.27387 7.83429 3.16815 8.01939 3.10592 8.16309C3.07799 8.22763 3.06862 8.26416 3.06491 8.28223C3.0632 8.29058 3.06296 8.2959 3.06296 8.2959V8.29883C3.0633 8.29999 3.06493 8.30486 3.06784 8.31153C3.07529 8.32849 3.09268 8.36188 3.13327 8.41895C3.22395 8.54645 3.36505 8.70522 3.61081 8.97852L3.61178 8.98047L4.65866 10.1504L4.67233 10.168C5.04675 10.642 5.2651 11.3705 5.2651 12.0078C5.26507 12.6454 5.04677 13.3736 4.67233 13.8477L4.65866 13.8652L3.61178 15.0352L3.61081 15.0371C3.36507 15.3104 3.22394 15.4692 3.13327 15.5967C3.09266 15.6538 3.07527 15.6872 3.06784 15.7041C3.06488 15.7109 3.06327 15.7157 3.06296 15.7168V15.7197C3.06296 15.7197 3.0632 15.725 3.06491 15.7334C3.06864 15.7515 3.07801 15.788 3.10592 15.8525C3.16815 15.9962 3.27387 16.1813 3.45749 16.5L3.95065 17.3564C4.14639 17.6961 4.2617 17.8933 4.36178 18.0273C4.40655 18.0873 4.43505 18.1153 4.44967 18.1279C4.45597 18.1334 4.45999 18.1364 4.46042 18.1367H4.46139C4.46139 18.1367 4.46635 18.1381 4.47506 18.1387C4.49407 18.1398 4.53388 18.1397 4.60788 18.1279C4.7726 18.1018 4.99208 18.0405 5.36862 17.9336L6.60788 17.585L6.62546 17.5801C7.25678 17.4345 7.91931 17.5173 8.49557 17.8135L8.5112 17.8223L8.87936 18.0342L8.89401 18.0439C9.38787 18.3604 9.76791 18.8263 9.97799 19.374L9.98385 19.3897L10.3227 20.4033C10.438 20.7497 10.5063 20.9499 10.5717 21.0908C10.6012 21.1542 10.6215 21.1857 10.6323 21.2002C10.6363 21.2056 10.6391 21.2089 10.6401 21.21L10.6411 21.2109C10.6411 21.2109 10.6462 21.2133 10.6538 21.2158C10.6708 21.2215 10.7075 21.2313 10.7768 21.2393C10.9306 21.2568 11.1411 21.2578 11.5053 21.2578H12.6196C12.9838 21.2578 13.1943 21.2568 13.3481 21.2393C13.4175 21.2313 13.4541 21.2215 13.4712 21.2158C13.478 21.2135 13.4822 21.2122 13.4829 21.2119L13.4848 21.21C13.4858 21.2089 13.4886 21.2056 13.4926 21.2002C13.5035 21.1857 13.5238 21.1542 13.5532 21.0908C13.6186 20.9499 13.687 20.7497 13.8022 20.4033V20.4023L14.1411 19.3897L14.1469 19.374C14.357 18.8263 14.7371 18.3604 15.2309 18.0439L15.2456 18.0342L15.6137 17.8223L15.6294 17.8135C16.2056 17.5173 16.8682 17.4345 17.4995 17.5801L17.5171 17.585L18.7563 17.9336C19.1329 18.0405 19.3523 18.1018 19.5171 18.1279C19.5911 18.1397 19.6309 18.1398 19.6499 18.1387C19.6586 18.1381 19.6635 18.1367 19.6635 18.1367H19.6645C19.6649 18.1365 19.6689 18.1334 19.6753 18.1279C19.6899 18.1153 19.7184 18.0873 19.7632 18.0273C19.8632 17.8933 19.9785 17.6961 20.1743 17.3564L20.6674 16.5C20.8511 16.1813 20.9568 15.9962 21.019 15.8525C21.0469 15.788 21.0563 15.7515 21.06 15.7334C21.0617 15.725 21.063 15.7197 21.063 15.7197L21.062 15.7188V15.7168C21.0617 15.7157 21.0601 15.7109 21.0571 15.7041C21.0497 15.6872 21.0323 15.6538 20.9917 15.5967C20.901 15.4692 20.7599 15.3104 20.5141 15.0371L19.4663 13.8652L19.4526 13.8477C19.0782 13.3736 18.8599 12.6454 18.8598 12.0078C18.8598 11.3705 19.0782 10.642 19.4526 10.168L19.4663 10.1504L20.5132 8.98047L20.5141 8.97852C20.7599 8.70522 20.901 8.54645 20.9917 8.41895C21.0323 8.36188 21.0496 8.32849 21.0571 8.31153C21.06 8.30487 21.0616 8.29999 21.062 8.29883V8.29688L21.063 8.2959C21.063 8.2959 21.0617 8.29058 21.06 8.28223C21.0563 8.26416 21.0469 8.22763 21.019 8.16309C20.9568 8.01939 20.8511 7.83429 20.6674 7.51563L20.1743 6.65918C19.9785 6.31948 19.8632 6.12228 19.7632 5.98828C19.718 5.92785 19.6898 5.89925 19.6753 5.88672C19.6692 5.88146 19.6651 5.87927 19.6645 5.87891H19.6635C19.6635 5.87891 19.6586 5.87748 19.6499 5.87696C19.6309 5.87582 19.5911 5.87597 19.5171 5.8877C19.3523 5.91385 19.1329 5.97518 18.7563 6.08203L17.5171 6.43067L17.4995 6.43457C16.8682 6.58015 16.2056 6.49823 15.6294 6.20215L15.6137 6.19336L15.2456 5.98145L15.2309 5.97168C14.7371 5.65529 14.357 5.1893 14.1469 4.64161L14.1411 4.62598L13.8022 3.61231C13.687 3.26593 13.6186 3.06571 13.5532 2.92481C13.5238 2.86148 13.5035 2.82998 13.4926 2.81543C13.4886 2.81004 13.4858 2.80669 13.4848 2.80567L13.4839 2.80469C13.4839 2.80469 13.4788 2.80236 13.4712 2.79981C13.4541 2.79417 13.4175 2.78431 13.3481 2.77637C13.1943 2.75881 12.9838 2.75782 12.6196 2.75782H11.5053ZM12.019 7.75C14.3662 7.75 16.269 9.65279 16.269 12C16.269 14.3472 14.3662 16.25 12.019 16.25C9.67201 16.2498 7.76901 14.3471 7.76901 12C7.76901 9.65294 9.67201 7.75025 12.019 7.75ZM12.019 9.25C10.5004 9.25025 9.26901 10.4814 9.26901 12C9.26901 13.5186 10.5004 14.7498 12.019 14.75C13.5378 14.75 14.769 13.5188 14.769 12C14.769 10.4812 13.5378 9.25 12.019 9.25Z" fill="#CC0C39"/>
</svg>
