<svg width="24" height="24" viewBox="0 0 24 24" fill="none" xmlns="http://www.w3.org/2000/svg">
<path fill-rule="evenodd" clip-rule="evenodd" d="M11.4442 2.90131C11.1163 3.02499 10.6899 3.21395 10.082 3.48378C9.17697 3.88554 8.04298 4.32622 6.7544 4.69252C5.82618 4.95638 5.18115 5.14055 4.71414 5.32164C4.2422 5.50464 4.0754 5.64092 4.00257 5.73734C3.9193 5.84758 3.84068 6.02883 3.79634 6.44741C3.75099 6.87554 3.75 7.44367 3.75 8.28029V11.1833C3.75 13.7526 4.90193 15.8295 6.39888 17.4511C7.90098 19.0784 9.7179 20.209 10.944 20.8561C11.5732 21.1881 11.7178 21.25 12 21.25C12.2822 21.25 12.4268 21.1881 13.056 20.8561C14.2821 20.209 16.099 19.0784 17.6011 17.4511C19.0981 15.8295 20.25 13.7526 20.25 11.1833V8.28029C20.25 7.44367 20.249 6.87554 20.2037 6.44741C20.1593 6.02883 20.0807 5.84758 19.9974 5.73734C19.9246 5.64092 19.7578 5.50464 19.2859 5.32164C18.8189 5.14055 18.1738 4.95638 17.2456 4.69252C15.957 4.32622 14.823 3.88554 13.918 3.48378C13.3101 3.21395 12.8837 3.02499 12.5558 2.90131C12.2188 2.77416 12.0693 2.75 12 2.75C11.9307 2.75 11.7812 2.77416 11.4442 2.90131ZM10.9148 1.49784C11.2831 1.35888 11.6453 1.25 12 1.25C12.3547 1.25 12.7169 1.35888 13.0852 1.49784C13.4581 1.63848 13.9238 1.8452 14.5045 2.103L14.5266 2.11279C15.3802 2.49172 16.4473 2.90617 17.6557 3.24968L17.6932 3.26033C18.5751 3.51101 19.2881 3.71367 19.8282 3.9231C20.371 4.13358 20.8631 4.39466 21.1943 4.83324C21.5152 5.258 21.6386 5.75424 21.6953 6.28941C21.75 6.80597 21.75 7.45411 21.75 8.23883V11.1833C21.75 14.2392 20.3705 16.6624 18.7033 18.4686C17.0412 20.2691 15.0612 21.4939 13.7561 22.1827C13.7349 22.1938 13.7139 22.205 13.6931 22.216C13.1373 22.5098 12.6829 22.75 12 22.75C11.3171 22.75 10.8627 22.5098 10.3069 22.216C10.2861 22.205 10.2651 22.1938 10.2439 22.1827C8.93883 21.4939 6.95877 20.2691 5.29669 18.4686C3.62946 16.6624 2.25 14.2392 2.25 11.1833L2.25 8.23885C2.24998 7.45411 2.24997 6.80597 2.30469 6.28941C2.36138 5.75424 2.48481 5.258 2.80565 4.83324C3.13694 4.39466 3.62904 4.13358 4.17183 3.9231C4.71192 3.71367 5.42489 3.51101 6.30676 3.26034L6.34426 3.24968C7.5527 2.90617 8.61981 2.49172 9.47342 2.11279L9.49543 2.10302C10.0762 1.84521 10.5419 1.63848 10.9148 1.49784Z" fill="#1B84E7"/>
</svg>
