<svg width="16" height="16" viewBox="0 0 16 16" fill="none" xmlns="http://www.w3.org/2000/svg">
<path fill-rule="evenodd" clip-rule="evenodd" d="M9.73633 1.48992C10.802 0.978072 11.4452 0.670238 12.2051 0.925463C12.9737 1.18345 13.2428 1.74699 13.6494 2.60027C14.7807 4.97293 14.7807 7.69537 13.6494 10.068C13.2428 10.9212 12.9737 11.4849 12.2051 11.7428C12.0185 11.8055 11.8387 11.8346 11.6582 11.8346C11.1035 11.8346 10.5394 11.5634 9.73535 11.1774L6.11328 9.43816C6.48021 10.7261 7.10233 11.2988 7.73535 11.7135C8.18401 12.0076 8.46907 12.4906 8.49707 13.0046C8.52298 13.4805 8.32598 13.9288 7.95605 14.2341L6.96191 15.0534C6.86995 15.1293 6.75614 15.1657 6.64355 15.1657C6.53397 15.1655 6.42499 15.1309 6.33398 15.0593C4.13743 13.3173 4.1469 12.2438 4.1709 9.65007C4.17259 9.45365 4.17359 9.25251 4.1748 9.04167C4.12133 9.05156 4.07456 9.06098 4.02832 9.06609C3.37662 9.14062 2.76296 8.95499 2.30176 8.5446C1.79242 8.0906 1.5 7.39569 1.5 6.63835V6.02996C1.50012 5.2728 1.79253 4.57859 2.30176 4.12468C2.76308 3.71342 3.37695 3.52854 4.03223 3.6032C4.15614 3.61654 4.28673 3.64614 4.54785 3.70476C4.80785 3.76343 5.06145 3.73447 5.30078 3.6198L9.73438 1.49089L9.73633 1.48992ZM5.16895 9.78972C5.14832 12.0955 5.17058 12.7787 6.64258 14.0202L7.32031 13.4616C7.47861 13.3304 7.50496 13.1705 7.49902 13.0593C7.48836 12.8606 7.37146 12.6702 7.1875 12.5495C6.16883 11.8826 5.53373 11.0284 5.16895 9.78972ZM11.8867 1.87078C11.5301 1.75081 11.1666 1.91082 10.1689 2.38933L10.168 2.39031L5.7334 4.52019C5.65718 4.55674 5.57862 4.58585 5.5 4.61296L5.5 8.05046C5.57856 8.07749 5.65635 8.10986 5.73242 8.14617L10.167 10.2751C11.1663 10.7544 11.5301 10.9146 11.8867 10.7946C12.2381 10.6766 12.3644 10.4397 12.7471 9.6364C13.7476 7.53714 13.7477 5.12824 12.7471 3.02898C12.3644 2.22565 12.2381 1.98878 11.8867 1.87078ZM3.9209 4.59539C3.53993 4.55151 3.2203 4.64382 2.96777 4.86882C2.67112 5.13347 2.50099 5.55634 2.50098 6.02898V6.63738C2.50105 7.10992 2.67117 7.53293 2.96777 7.79753C3.22036 8.02255 3.54022 8.11427 3.91797 8.07097C3.9913 8.06297 4.1191 8.03432 4.3291 7.98699C4.38592 7.97416 4.4431 7.96572 4.5 7.95769L4.5 4.70867C4.44311 4.70052 4.38587 4.69106 4.3291 4.67839C4.11857 4.63109 3.99154 4.60272 3.9209 4.59539Z" fill="#6B7280"/>
</svg>
