<svg width="24" height="24" viewBox="0 0 24 24" fill="none" xmlns="http://www.w3.org/2000/svg">
<path d="M21 19.25C21.4142 19.25 21.75 19.5858 21.75 20C21.75 20.4142 21.4142 20.75 21 20.75H3C2.58579 20.75 2.25 20.4142 2.25 20C2.25 19.5858 2.58579 19.25 3 19.25H21ZM5 16.25C5.41421 16.25 5.75 16.5858 5.75 17C5.75 17.4142 5.41421 17.75 5 17.75H3C2.58579 17.75 2.25 17.4142 2.25 17C2.25 16.5858 2.58579 16.25 3 16.25H5ZM12 12.25C14.6234 12.25 16.75 14.3766 16.75 17C16.75 17.4142 16.4142 17.75 16 17.75C15.5858 17.75 15.25 17.4142 15.25 17C15.25 15.2051 13.7949 13.75 12 13.75C10.2051 13.75 8.75 15.2051 8.75 17C8.75 17.4142 8.41421 17.75 8 17.75C7.58579 17.75 7.25 17.4142 7.25 17C7.25 14.3766 9.37665 12.25 12 12.25ZM21 16.25C21.4142 16.25 21.75 16.5858 21.75 17C21.75 17.4142 21.4142 17.75 21 17.75H19C18.5858 17.75 18.25 17.4142 18.25 17C18.25 16.5858 18.5858 16.25 19 16.25H21ZM17.833 10.1084C18.1259 9.81558 18.6007 9.81558 18.8936 10.1084C19.1864 10.4013 19.1864 10.876 18.8936 11.1689L17.4795 12.583C17.1866 12.8759 16.7118 12.8759 16.4189 12.583C16.1261 12.2901 16.1261 11.8153 16.4189 11.5225L17.833 10.1084ZM5.10449 10.1025C5.39739 9.8097 5.87216 9.80966 6.16504 10.1025L7.5791 11.5166C7.87192 11.8095 7.87192 12.2843 7.5791 12.5771C7.28623 12.87 6.81145 12.87 6.51855 12.5771L5.10449 11.1631C4.8116 10.8702 4.8116 10.3954 5.10449 10.1025ZM12 3.25C12.2583 3.25 12.4811 3.33939 12.6426 3.42578C12.8098 3.51533 12.9656 3.63156 13.1035 3.74902C13.3788 3.98354 13.6544 4.28485 13.9004 4.5752C14.1301 4.84632 14.3529 5.1309 14.543 5.37305C14.5588 5.39322 14.5745 5.41306 14.5898 5.43262C14.803 5.70404 14.9494 5.88628 15.0381 5.97754C15.3265 6.27458 15.3194 6.74947 15.0225 7.03809C14.7254 7.32651 14.2505 7.31939 13.9619 7.02246C13.8049 6.86091 13.6032 6.60389 13.4111 6.35938C13.3964 6.34062 13.3811 6.3217 13.3662 6.30273C13.1733 6.05701 12.9665 5.79356 12.7559 5.54492C12.7539 5.54263 12.7519 5.54037 12.75 5.53809V10C12.75 10.4142 12.4142 10.75 12 10.75C11.5858 10.75 11.25 10.4142 11.25 10V5.53809C11.2481 5.54037 11.2461 5.54263 11.2441 5.54492C11.0335 5.79356 10.8267 6.05701 10.6338 6.30273C10.6189 6.3217 10.6036 6.34062 10.5889 6.35938C10.3968 6.60389 10.1951 6.86091 10.0381 7.02246C9.74947 7.31939 9.27458 7.32651 8.97754 7.03809C8.68061 6.74947 8.67349 6.27458 8.96191 5.97754C9.05062 5.88628 9.19696 5.70404 9.41016 5.43262C9.42552 5.41306 9.4412 5.39322 9.45703 5.37305C9.6471 5.1309 9.86988 4.84632 10.0996 4.5752C10.3456 4.28485 10.6212 3.98354 10.8965 3.74902C11.0344 3.63156 11.1902 3.51533 11.3574 3.42578C11.5189 3.33939 11.7417 3.25 12 3.25Z" fill="#98A2B3"/>
</svg>
