<svg width="24" height="24" viewBox="0 0 24 24" fill="none" xmlns="http://www.w3.org/2000/svg">
<path fill-rule="evenodd" clip-rule="evenodd" d="M16.9553 6.75022L17.7696 6.75022C18.2935 6.7502 18.7393 6.75019 19.1097 6.78619C19.5043 6.82455 19.8703 6.90769 20.2226 7.10717C20.575 7.30665 20.8346 7.57775 21.0705 7.8964C21.2919 8.19548 21.5213 8.57775 21.7908 9.02698L23.0732 11.1643C23.0872 11.1876 23.101 11.2107 23.1147 11.2335C23.3579 11.6381 23.5499 11.9577 23.6503 12.3201C23.7507 12.6825 23.7504 13.0554 23.7501 13.5275C23.7501 13.5541 23.7501 13.5809 23.7501 13.6082L23.7501 15.545C23.7502 15.9778 23.7502 16.3746 23.7068 16.6974C23.659 17.0529 23.5466 17.4286 23.2375 17.7377C22.9285 18.0467 22.5528 18.1591 22.1973 18.2069C22.0319 18.2292 21.8471 18.24 21.648 18.2453C21.3232 19.4021 20.2607 20.2502 19.0001 20.2502C17.7413 20.2502 16.6801 19.4045 16.3536 18.2502H7.64658C7.32012 19.4045 6.25887 20.2502 5.0001 20.2502C3.74132 20.2502 2.68008 19.4045 2.35361 18.2502H2.2501C2.23413 18.2502 2.21809 18.2502 2.202 18.2503C2.02008 18.2505 1.83077 18.2508 1.65869 18.2166C0.96448 18.0785 0.42181 17.5358 0.283722 16.8416C0.249493 16.6695 0.249776 16.4802 0.250049 16.2983C0.250073 16.2822 0.250097 16.2662 0.250097 16.2502C0.250097 16.2343 0.250073 16.2182 0.250049 16.2021C0.249776 16.0202 0.249493 15.8309 0.283723 15.6588C0.42181 14.9646 0.96448 14.4219 1.65869 14.2838C1.83077 14.2496 2.02008 14.2499 2.20199 14.2502C2.21809 14.2502 2.23413 14.2502 2.2501 14.2502H14.2501L14.2501 9.45548C14.25 9.02266 14.25 8.62583 14.2934 8.30301C14.3412 7.94753 14.4536 7.57181 14.7627 7.26279C15.0717 6.95376 15.4474 6.84132 15.8029 6.79352C16.1257 6.75012 16.5225 6.75017 16.9553 6.75022ZM15.7501 16.7502H16.3536C16.6801 15.596 17.7413 14.7502 19.0001 14.7502C20.2569 14.7502 21.3168 15.5933 21.645 16.7448C21.7873 16.7406 21.9011 16.7333 21.9974 16.7203C22.094 16.7073 22.1424 16.692 22.1641 16.6831C22.1692 16.681 22.1725 16.6794 22.1744 16.6784L22.1769 16.677L22.1782 16.6746C22.1792 16.6726 22.1809 16.6693 22.1829 16.6643C22.1919 16.6425 22.2072 16.5941 22.2202 16.4976C22.2485 16.2868 22.2501 15.9928 22.2501 15.5002V13.6082C22.2501 13.4654 22.2497 13.3481 22.2486 13.2502L19.9554 13.2502C19.5225 13.2503 19.1257 13.2503 18.8029 13.2069C18.4474 13.1591 18.0717 13.0467 17.7627 12.7377C17.4536 12.4286 17.3412 12.0529 17.2934 11.6974C17.25 11.3746 17.25 10.9778 17.2501 10.545L17.2501 10.0002C17.2501 9.58601 17.5859 9.25022 18.0001 9.25022C18.4143 9.25022 18.7501 9.58601 18.7501 10.0002V10.5002C18.7501 10.9928 18.7517 11.2868 18.78 11.4976C18.793 11.5941 18.8083 11.6425 18.8173 11.6643C18.8193 11.6693 18.8209 11.6726 18.822 11.6746L18.8233 11.677L18.8258 11.6784C18.8277 11.6794 18.831 11.681 18.8361 11.6831C18.8578 11.692 18.9062 11.7073 19.0028 11.7203C19.2135 11.7486 19.5075 11.7502 20.0001 11.7502H21.6755L20.5222 9.82811C20.2302 9.34153 20.0379 9.02254 19.865 8.78896C19.7017 8.56843 19.5898 8.47259 19.4836 8.41247C19.3774 8.35235 19.2377 8.3057 18.9645 8.27915C18.6753 8.25104 18.3028 8.25022 17.7353 8.25022H17.0001C16.5075 8.25022 16.2135 8.25182 16.0028 8.28015C15.9062 8.29313 15.8578 8.30842 15.8361 8.31738C15.831 8.31946 15.8277 8.32107 15.8258 8.32208L15.8233 8.32346L15.822 8.32589C15.8209 8.32783 15.8193 8.33114 15.8173 8.33619C15.8083 8.35797 15.793 8.40633 15.78 8.50289C15.7517 8.71361 15.7501 9.00762 15.7501 9.50022V16.7502ZM14.2501 16.7502V15.7502H7.12152C7.36062 16.0397 7.54159 16.379 7.64658 16.7502H14.2501ZM2.87868 15.7502H2.2501C2.12885 15.7502 2.05666 15.7503 2.00231 15.7522C1.96792 15.7534 1.95301 15.755 1.94939 15.7554C1.85179 15.7756 1.77551 15.8519 1.75529 15.9495C1.75485 15.9531 1.75324 15.968 1.75206 16.0024C1.7502 16.0568 1.7501 16.129 1.7501 16.2502C1.7501 16.3715 1.7502 16.4437 1.75206 16.498C1.75324 16.5324 1.75485 16.5473 1.75529 16.5509C1.77551 16.6485 1.85179 16.7248 1.94938 16.745C1.95301 16.7455 1.96792 16.7471 2.00231 16.7483C2.05666 16.7501 2.12885 16.7502 2.2501 16.7502H2.35361C2.4586 16.379 2.63958 16.0397 2.87868 15.7502ZM15.8233 8.32346V8.32346V8.32346ZM5.0001 16.2502C4.30974 16.2502 3.7501 16.8099 3.7501 17.5002C3.7501 18.1906 4.30974 18.7502 5.0001 18.7502C5.69045 18.7502 6.2501 18.1906 6.2501 17.5002C6.2501 16.8099 5.69045 16.2502 5.0001 16.2502ZM19.0001 16.2502C18.3097 16.2502 17.7501 16.8099 17.7501 17.5002C17.7501 18.1906 18.3097 18.7502 19.0001 18.7502C19.6905 18.7502 20.2501 18.1906 20.2501 17.5002C20.2501 16.8099 19.6905 16.2502 19.0001 16.2502Z" fill="#1B84E7"/>
<path fill-rule="evenodd" clip-rule="evenodd" d="M4.07857 3.75011C4.12283 3.75017 4.16743 3.75022 4.2124 3.75022H9.2878C9.33276 3.75022 9.37736 3.75017 9.42162 3.75011C10.3984 3.74887 11.2062 3.74785 11.9646 4.35909C12.3199 4.64549 12.5582 4.9456 12.7235 5.3177C12.8661 5.63882 12.9439 5.99745 13.0202 6.3488C13.0234 6.36358 13.0266 6.37836 13.0298 6.39311C13.1727 7.05056 13.2501 7.76105 13.2501 8.50022C13.2501 9.23939 13.1727 9.94989 13.0298 10.6073C13.0266 10.6221 13.0234 10.6369 13.0202 10.6516C12.9439 11.003 12.8661 11.3616 12.7235 11.6827C12.5582 12.0548 12.3199 12.355 11.9646 12.6414C11.2062 13.2526 10.3984 13.2516 9.42162 13.2503C9.37736 13.2503 9.33276 13.2502 9.2878 13.2502H4.2124C4.16743 13.2502 4.12283 13.2503 4.07857 13.2503C3.10181 13.2516 2.29402 13.2526 1.53564 12.6414C1.18029 12.355 0.941991 12.0548 0.776721 11.6827C0.634095 11.3616 0.556268 11.003 0.480022 10.6516C0.476814 10.6369 0.473607 10.6221 0.470399 10.6073C0.327485 9.94989 0.250097 9.23939 0.250097 8.50022C0.250097 7.76105 0.327485 7.05056 0.4704 6.39311C0.473608 6.37836 0.476814 6.36358 0.480023 6.34879C0.556268 5.99745 0.634096 5.63882 0.776721 5.3177C0.941991 4.9456 1.18029 4.64549 1.53564 4.35909C2.29402 3.74785 3.10181 3.74887 4.07857 3.75011ZM5.5001 11.7502H8.0001V5.25022H5.5001V11.7502ZM4.0001 5.25063V11.7498C3.00784 11.7455 2.76358 11.7045 2.47693 11.4735C2.28287 11.3171 2.2042 11.2013 2.14759 11.0739C2.07433 10.9089 2.0258 10.701 1.93617 10.2887C1.81675 9.73938 1.7501 9.13584 1.7501 8.50022C1.7501 7.86461 1.81675 7.26107 1.93617 6.71174C2.0258 6.29943 2.07433 6.09151 2.14759 5.92658C2.2042 5.79911 2.28287 5.68339 2.47693 5.52698C2.76358 5.29595 3.00784 5.25491 4.0001 5.25063ZM9.5001 5.25063V11.7498C10.4924 11.7455 10.7366 11.7045 11.0233 11.4735C11.2173 11.3171 11.296 11.2013 11.3526 11.0739C11.4259 10.9089 11.4744 10.701 11.564 10.2887C11.6834 9.73938 11.7501 9.13584 11.7501 8.50022C11.7501 7.86461 11.6834 7.26107 11.564 6.71174C11.4744 6.29943 11.4259 6.09151 11.3526 5.92658C11.296 5.79911 11.2173 5.68339 11.0233 5.52698C10.7366 5.29595 10.4924 5.25491 9.5001 5.25063Z" fill="#1B84E7"/>
</svg>
