<svg width="24" height="24" viewBox="0 0 24 24" fill="none" xmlns="http://www.w3.org/2000/svg">
<path d="M14.5 1.25C14.9142 1.25 15.25 1.58579 15.25 2C15.25 2.41421 14.9142 2.75 14.5 2.75H13.25V3.25586C15.0637 3.30152 16.753 3.84201 18.1904 4.74805L18.9697 3.96973C19.2626 3.67683 19.7374 3.67683 20.0303 3.96973C20.3232 4.26262 20.3232 4.73738 20.0303 5.03027L19.4062 5.65332C21.4543 7.44066 22.75 10.0682 22.75 13C22.75 18.3848 18.3848 22.75 13 22.75H2C1.58579 22.75 1.25 22.4142 1.25 22C1.25 21.5858 1.58579 21.25 2 21.25H13C17.5563 21.25 21.25 17.5563 21.25 13C21.25 8.44365 17.5563 4.75 13 4.75C8.7484 4.75 5.20054 7.96372 4.74512 12.082C4.69962 12.4936 4.32954 12.7904 3.91797 12.7451C3.50637 12.6996 3.20957 12.3295 3.25488 11.918C3.50452 9.65968 4.53649 7.6363 6.06934 6.11328C6.03449 6.08875 6.00089 6.06144 5.96973 6.03027L4.96973 5.03027C4.67683 4.73738 4.67683 4.26262 4.96973 3.96973C5.26262 3.67683 5.73738 3.67683 6.03027 3.96973L7.03027 4.96973C7.08999 5.02944 7.13456 5.09816 7.16992 5.16992C8.48677 4.19864 10.0533 3.54774 11.75 3.33105V2.75H10.5C10.0858 2.75 9.75 2.41421 9.75 2C9.75 1.58579 10.0858 1.25 10.5 1.25H14.5ZM7 18.25C7.41421 18.25 7.75 18.5858 7.75 19C7.75 19.4142 7.41421 19.75 7 19.75H2C1.58579 19.75 1.25 19.4142 1.25 19C1.25 18.5858 1.58579 18.25 2 18.25H7ZM5 14.25C5.41421 14.25 5.75 14.5858 5.75 15C5.75 15.4142 5.41421 15.75 5 15.75H2C1.58579 15.75 1.25 15.4142 1.25 15C1.25 14.5858 1.58579 14.25 2 14.25H5ZM15.9697 8.46973C16.2626 8.17686 16.7374 8.17691 17.0303 8.46973C17.3232 8.76262 17.3232 9.23738 17.0303 9.53027L14.5303 12.0303C14.6708 12.324 14.75 12.6529 14.75 13C14.75 14.2426 13.7426 15.25 12.5 15.25C11.2574 15.2499 10.25 14.2426 10.25 13C10.25 11.7574 11.2574 10.7501 12.5 10.75C12.847 10.75 13.176 10.8292 13.4697 10.9697L15.9697 8.46973ZM12.5 12.25C12.0859 12.2501 11.75 12.5858 11.75 13C11.75 13.4142 12.0858 13.7499 12.5 13.75C12.9142 13.75 13.25 13.4142 13.25 13C13.25 12.7927 13.1668 12.6063 13.0303 12.4697C12.8937 12.3332 12.7073 12.25 12.5 12.25Z" fill="#1B84E7"/>
</svg>
