<svg width="16" height="16" viewBox="0 0 16 16" fill="none" xmlns="http://www.w3.org/2000/svg">
<path d="M8.00049 0.833008C11.9584 0.833184 15.1665 4.04207 15.1665 8C15.1663 11.9578 11.9583 15.1658 8.00049 15.166C4.04256 15.166 0.833672 11.9579 0.833496 8C0.833496 4.04196 4.04245 0.833008 8.00049 0.833008ZM8.00049 1.83301C4.59473 1.83301 1.8335 4.59424 1.8335 8C1.83367 11.4056 4.59484 14.166 8.00049 14.166C11.406 14.1658 14.1663 11.4055 14.1665 8C14.1665 4.59435 11.4061 1.83318 8.00049 1.83301ZM10.313 4.97949C10.5082 4.78428 10.8247 4.78439 11.02 4.97949C11.2153 5.17475 11.2153 5.49126 11.02 5.68652L8.70752 8L9.02002 8.3125C9.21529 8.50776 9.21527 8.82426 9.02002 9.01953C8.82476 9.21471 8.50823 9.21476 8.31299 9.01953L8.00049 8.70703L7.68701 9.01953C7.49175 9.21479 7.17524 9.21479 6.97998 9.01953C6.78488 8.82426 6.78477 8.50771 6.97998 8.3125L7.29346 8L5.97998 6.68652C5.78472 6.49127 5.78473 6.17476 5.97998 5.97949C6.17524 5.78424 6.49175 5.78424 6.68701 5.97949L8.00049 7.29297L10.313 4.97949Z" fill="#1B84E7"/>
</svg>
