<svg width="24" height="24" viewBox="0 0 24 24" fill="none" xmlns="http://www.w3.org/2000/svg">
<path d="M12 1.25C17.9371 1.25 22.75 6.06294 22.75 12C22.75 17.9371 17.9371 22.75 12 22.75C6.06294 22.75 1.25 17.9371 1.25 12C1.25 6.06294 6.06294 1.25 12 1.25ZM10.4014 16.25C8.87637 16.2501 7.46853 17.0675 6.71191 18.3916L6.23242 19.2285C7.81418 20.4922 9.81797 21.25 12 21.25C14.1818 21.25 16.1849 20.492 17.7666 19.2285L17.2881 18.3916C16.5314 17.0675 15.1237 16.25 13.5986 16.25H10.4014ZM12 2.75C6.89137 2.75 2.75 6.89137 2.75 12C2.75 14.3712 3.64336 16.5329 5.11035 18.1699L5.40918 17.6475C6.43286 15.856 8.33808 14.7501 10.4014 14.75H13.5986C15.662 14.75 17.5671 15.8559 18.5908 17.6475L18.8887 18.1699C20.3559 16.5329 21.25 14.3714 21.25 12C21.25 6.89137 17.1086 2.75 12 2.75ZM12 6C13.933 6 15.5 7.567 15.5 9.5C15.5 11.433 13.933 13 12 13C10.067 13 8.5 11.433 8.5 9.5C8.5 7.567 10.067 6 12 6ZM12 7.5C10.8954 7.5 10 8.39543 10 9.5C10 10.6046 10.8954 11.5 12 11.5C13.1046 11.5 14 10.6046 14 9.5C14 8.39543 13.1046 7.5 12 7.5Z" fill="#6C5CE7"/>
</svg>
