<svg width="24" height="24" viewBox="0 0 24 24" fill="none" xmlns="http://www.w3.org/2000/svg">
<path fill-rule="evenodd" clip-rule="evenodd" d="M15.7958 3.80871C15.4161 3.75203 14.8691 3.75001 14.0243 3.75001H11.9349C11.2443 3.75001 10.7853 3.75101 10.4309 3.78911C10.0947 3.82526 9.92148 3.88922 9.79005 3.97508C9.65836 4.06112 9.5293 4.19482 9.35932 4.48998C9.18044 4.80059 8.99292 5.22229 8.71252 5.85651L6.90088 9.9541C6.58958 10.6582 6.39228 11.1093 6.29941 11.4452C6.25528 11.6048 6.24816 11.6945 6.2502 11.7408C6.25161 11.7726 6.25643 11.7767 6.25704 11.7772C6.25712 11.7777 6.25808 11.7831 6.2853 11.7968C6.32523 11.8168 6.40846 11.8464 6.57085 11.8706C6.91294 11.9216 7.40222 11.9236 8.16908 11.9236H8.62804C8.64543 11.9236 8.66276 11.9236 8.68004 11.9236C9.25064 11.9235 9.75806 11.9235 10.1599 11.9816C10.5945 12.0444 11.0502 12.1932 11.3812 12.6081C11.7116 13.022 11.7567 13.4993 11.7236 13.9372C11.6929 14.3434 11.583 14.8406 11.459 15.4011L10.7611 18.558C10.6575 19.0271 10.5742 19.4056 10.5153 19.7119C10.7295 19.4877 10.9879 19.2027 11.3075 18.8493L16.8426 12.7287C17.1974 12.3363 17.4339 12.074 17.5916 11.8706C17.7122 11.715 17.7425 11.6471 17.7477 11.6365C17.7614 11.518 17.71 11.4027 17.6163 11.3345C17.6039 11.331 17.5333 11.3086 17.3422 11.294C17.0867 11.2744 16.7349 11.2739 16.2073 11.2739H16.1783C15.7957 11.2739 15.4655 11.2739 15.2011 11.2533C14.934 11.2324 14.6304 11.1853 14.3554 11.0237C13.8024 10.6988 13.4619 10.1071 13.4556 9.4668C13.4526 9.14882 13.5617 8.86221 13.676 8.61907C13.7892 8.37838 13.9529 8.09043 14.1428 7.75632L15.229 5.8456C15.648 5.1085 15.918 4.62937 16.0578 4.26898C16.1248 4.09625 16.1424 3.99716 16.1447 3.94548C16.1457 3.92303 16.1436 3.9138 16.1435 3.91323C16.1434 3.91313 16.1435 3.91328 16.1435 3.91323C16.1433 3.91288 16.1428 3.91177 16.142 3.91033C16.1414 3.90921 16.1409 3.9085 16.1406 3.90812C16.1401 3.90765 16.1385 3.90628 16.1354 3.90412C16.1316 3.90153 16.1252 3.89748 16.1153 3.89234C16.0708 3.86939 15.9777 3.83585 15.7958 3.80871ZM16.0173 2.32514C16.5421 2.40348 17.1135 2.59299 17.4411 3.16038C17.7678 3.72637 17.6484 4.31617 17.4563 4.81136C17.2715 5.2879 16.9438 5.86433 16.5621 6.53565L15.4611 8.47252C15.2529 8.8388 15.1188 9.07576 15.0334 9.25737C14.9693 9.39366 14.9576 9.4495 14.9557 9.45874C14.9589 9.56981 15.0176 9.67007 15.1089 9.7266C15.1188 9.72978 15.1729 9.74649 15.318 9.75782C15.5167 9.77336 15.7875 9.7739 16.2073 9.7739H16.238C16.7268 9.77389 17.1369 9.77388 17.4567 9.79838C17.766 9.82206 18.1302 9.87463 18.4355 10.0776C19.0284 10.4716 19.3367 11.1749 19.2285 11.8773C19.1729 12.2386 18.9678 12.5434 18.7773 12.7893C18.5803 13.0435 18.3046 13.3484 17.9756 13.7121L12.384 19.8952C11.8711 20.4625 11.4393 20.94 11.088 21.2463C10.9093 21.402 10.6983 21.5621 10.4628 21.6576C10.2035 21.7629 9.86127 21.8076 9.52137 21.6305C9.18223 21.4538 9.02287 21.1486 8.95948 20.8774C8.90175 20.6304 8.91012 20.3659 8.93375 20.1296C8.98022 19.6648 9.11946 19.035 9.28499 18.2864L9.98325 15.1277C10.1218 14.5012 10.2063 14.1103 10.2279 13.8242C10.238 13.6902 10.2305 13.6171 10.2224 13.5797C10.2167 13.5531 10.2116 13.5471 10.2092 13.5443C10.2091 13.544 10.2094 13.5444 10.2092 13.5443C10.2091 13.5441 10.2085 13.5433 10.2083 13.543C10.2062 13.5402 10.2018 13.5345 10.1787 13.5238C10.1452 13.5083 10.0769 13.4852 9.94529 13.4662C9.66378 13.4254 9.26688 13.4236 8.62804 13.4236L8.11198 13.4236C7.41908 13.4236 6.81593 13.4237 6.34985 13.3543C5.85677 13.2808 5.32891 13.1044 4.99741 12.5916C4.66669 12.0801 4.72072 11.5262 4.85366 11.0454C4.97963 10.5899 5.22437 10.0364 5.50605 9.39944C5.51367 9.3822 5.52131 9.36491 5.52899 9.34756L7.35631 5.21448C7.61688 4.62508 7.83598 4.12946 8.05945 3.74142C8.29628 3.33017 8.56991 2.98046 8.96967 2.71931C9.3697 2.45798 9.79951 2.34835 10.2706 2.2977C10.7146 2.24997 11.2546 2.24998 11.8958 2.25L14.0836 2.25C14.8522 2.24995 15.5133 2.24991 16.0173 2.32514Z" fill="#2FBF71"/>
</svg>
