<svg width="24" height="24" viewBox="0 0 24 24" fill="none" xmlns="http://www.w3.org/2000/svg">
<path d="M22 19.0002C22.5523 19.0002 23 19.4479 23 20.0002C23 20.5525 22.5523 21.0002 22 21.0002H6C5.44771 21.0002 5 20.5525 5 20.0002C5 19.4479 5.44771 19.0002 6 19.0002H22ZM1.77832 6.33127C3.74801 3.64368 7.40118 2.74945 10.3955 4.16916C11.6588 4.76818 12.9185 5.38027 14.1758 5.99045C14.7999 6.29335 15.4238 6.59604 16.0469 6.8967C16.6046 7.16582 16.8488 7.21076 17.0156 7.1799C17.1783 7.14979 17.3867 7.02402 17.7988 6.56565C18.0056 6.33565 18.1852 6.08296 18.3965 5.85666C18.63 5.60659 18.9616 5.31236 19.3975 5.22287C19.598 5.18174 19.7861 5.19451 19.9727 5.22776C20.4719 5.31683 21.0153 5.44618 21.4873 5.63401C22.1916 5.91427 22.5882 6.514 22.4795 7.2678C22.4424 7.52453 22.3608 7.83129 22.2666 8.18479L21.9629 9.32444C21.7349 10.18 21.5508 10.8721 21.3311 11.3967C21.1023 11.9428 20.8076 12.3768 20.3193 12.6526C19.8328 12.9272 19.3059 12.9588 18.7129 12.8801C18.1406 12.8041 17.4371 12.6153 16.5645 12.3801L14.1279 11.7229C14.0557 11.7034 13.9883 11.7679 14.0039 11.841L14.3184 13.3137C14.4749 14.0487 13.7922 14.6543 13.0898 14.4651L10.8281 13.8557C10.1956 13.6851 9.6533 13.2747 9.32129 12.7121C9.31583 12.7029 9.31051 12.6934 9.30566 12.6838L8.07812 10.2551C8.0174 10.1352 7.90963 10.0473 7.78223 10.0129L2.62305 8.62326C1.68263 8.36796 1.13878 7.21738 1.77539 6.3342L1.77832 6.33127Z" fill="#1B84E7"/>
</svg>
