<svg width="24" height="24" viewBox="0 0 24 24" fill="none" xmlns="http://www.w3.org/2000/svg">
<path d="M22 19.25C22.4138 19.2502 22.75 19.5861 22.75 20C22.75 20.414 22.4138 20.7499 22 20.75H6.0117C5.5977 20.75 5.2617 20.414 5.2617 20C5.2617 19.586 5.5977 19.25 6.0117 19.25H22ZM2.64744 5.02348C6.47644 1.86748 10.3101 3.81224 10.7871 4.07524C11.2966 4.30054 13.8775 5.56289 14.1035 5.67485L14.2851 5.7647C15.686 6.45865 16.501 6.83953 16.707 6.89653L16.7363 6.90532C16.9337 6.96506 16.975 6.94004 17.0976 6.86528C17.1196 6.85128 17.1411 6.83822 17.1611 6.82622C17.3331 6.72521 17.7101 6.26846 17.9131 6.02446C18.0729 5.83161 18.211 5.66497 18.334 5.54204C18.5889 5.28612 18.9577 5.07125 19.2627 4.99419C19.5887 4.87819 20.0823 4.93249 21.4463 5.35649L21.5478 5.38774L21.5918 5.40825C22.2037 5.68224 22.5687 6.06685 22.6797 6.5518C22.7826 6.88569 22.7248 7.20061 22.6738 7.47954C22.6658 7.52454 22.6564 7.57216 22.6484 7.62016L22.6416 7.66411L22.6299 7.70708C22.5869 7.85408 22.5164 8.12768 22.4365 8.44438C22.1975 9.38338 21.8359 10.8029 21.5019 11.5909L21.4941 11.6094C21.3201 11.9894 21.1058 12.3925 20.582 12.7764L20.5488 12.7999C19.7418 13.3268 18.7835 13.1575 18.2695 13.0665L18.2363 13.0606C17.9473 13.0096 16.8256 12.7103 15.3906 12.3233C14.9316 12.1993 14.4578 12.0708 14.3838 12.0538C14.3549 12.0478 14.3248 12.0403 14.2939 12.0303C14.3219 12.1662 14.3585 12.3304 14.3955 12.4913C14.5364 13.1169 14.5939 13.3898 14.5849 13.5967C14.5699 14.2226 13.999 14.747 13.3252 14.7471H13.2246L13.1318 14.7227C13.0329 14.6967 12.8951 14.6621 12.7353 14.6211C11.3256 14.2612 10.5601 14.053 10.291 13.918C10.081 13.814 9.75149 13.608 9.52049 13.376C9.25855 13.1141 9.11089 12.8387 9.00291 12.6387C8.98498 12.6049 8.96712 12.572 8.9492 12.5391C8.8942 12.4411 8.81859 12.2859 8.72459 12.0899C8.59659 11.8249 8.42039 11.462 8.31541 11.2911L8.2783 11.2207C8.2153 11.0887 8.16033 10.9694 8.11033 10.8604C8.01335 10.6484 7.90157 10.4086 7.84959 10.3516C7.78409 10.293 7.62814 10.2313 7.38181 10.1661L7.31736 10.1485C6.83936 10.0225 3.73547 9.17819 3.10447 8.99419C3.01658 8.96823 2.93338 8.9468 2.85447 8.92583C2.33354 8.79085 1.68576 8.62241 1.33884 7.68364C0.954043 6.64372 1.91274 5.72737 2.42771 5.2354C2.48959 5.17651 2.54394 5.12504 2.58689 5.0811L2.64744 5.02348ZM10.0722 5.39458C10.0402 5.37558 6.82588 3.54927 3.62888 6.15727C3.58099 6.20516 3.52373 6.25956 3.46091 6.31938C3.01518 6.74513 2.7762 7.03651 2.75095 7.18559C2.81793 7.36653 2.83387 7.3708 3.22849 7.4727C3.32038 7.49667 3.4186 7.52185 3.52146 7.5518C4.14546 7.7338 7.22224 8.57231 7.69724 8.69731L7.76072 8.71391C8.2117 8.83191 8.48344 8.90429 8.85642 9.24126C9.12535 9.48319 9.27077 9.79766 9.47068 10.2325C9.51368 10.3265 9.56124 10.4301 9.61424 10.5411C9.75518 10.777 9.9233 11.1258 10.0732 11.4356C10.1472 11.5885 10.2238 11.7466 10.2558 11.8057C10.2778 11.8447 10.3002 11.8848 10.3222 11.9268C10.4062 12.0837 10.4731 12.2075 10.581 12.3155C10.656 12.3915 10.832 12.5122 10.959 12.5752C11.1786 12.6724 12.4152 12.9897 12.999 13.1397C12.975 13.0299 12.9487 12.9162 12.9277 12.8213C12.8627 12.5333 12.8005 12.2605 12.7695 12.0645C12.7595 12.0015 12.7368 11.9063 12.7148 11.8155C12.6509 11.5476 12.5899 11.2938 12.6308 11.0489C12.6728 10.7969 12.823 10.5783 13.042 10.4473C13.466 10.1953 13.9642 10.334 14.5722 10.544C14.631 10.5639 14.6809 10.5819 14.7158 10.5918C14.8118 10.6138 15.0933 10.6901 15.7783 10.8741C16.6414 11.1071 18.2482 11.5401 18.4941 11.5831L18.5293 11.5889C18.8553 11.6469 19.3981 11.7427 19.7099 11.5528C19.9218 11.3928 20.0051 11.25 20.123 10.9942C20.412 10.3093 20.7534 8.96527 20.9804 8.07427C21.0614 7.75744 21.1268 7.50212 21.1758 7.33012C21.1828 7.28916 21.1902 7.24898 21.1982 7.21001C21.2132 7.12901 21.2323 7.02182 21.2363 6.96782L21.2226 6.91997C21.1986 6.89795 21.1395 6.85291 21.0156 6.79497L20.999 6.79009C20.168 6.53209 19.8166 6.46431 19.6816 6.44731L19.6172 6.45317C19.5672 6.47417 19.4675 6.52663 19.3935 6.60063C19.3185 6.67566 19.1894 6.83053 19.0654 6.98149C18.7154 7.40449 18.3189 7.88421 17.9209 8.11821L17.8847 8.1397C17.6647 8.2757 17.1495 8.59381 16.3095 8.34282C15.9343 8.23866 14.9987 7.79126 13.6181 7.10747L13.4385 7.01958C12.8747 6.7422 10.4444 5.55769 10.1611 5.43852L10.1152 5.41997L10.0722 5.39458Z" fill="#70809F"/>
</svg>
