<svg width="24" height="24" viewBox="0 0 24 24" fill="none" xmlns="http://www.w3.org/2000/svg">
<path opacity="0.4" d="M20 13.9951V11.4951C20 10.3251 20 9.33512 19.97 8.49512H2.03003C2.00003 9.33512 2 10.3251 2 11.4951V13.9951C2 17.7651 2.00004 19.6552 3.17004 20.8252C4.34004 21.9952 6.23 21.9951 10 21.9951H12C15.77 21.9951 17.66 21.9952 18.83 20.8252C20 19.6552 20 17.7651 20 13.9951Z" fill="#2FBF71"/>
<path d="M21.751 15.2852C22.141 15.1452 22.5709 15.3552 22.7109 15.7451C22.8509 16.1351 22.641 16.5651 22.251 16.7051C20.141 17.4551 17.4809 21.0753 16.6309 22.4053C16.4908 22.6252 16.2509 22.7549 16.001 22.7549V22.7451H15.9111C15.6212 22.7051 15.3811 22.5053 15.291 22.2354C14.7724 20.6496 13.7765 20.2175 13.7314 20.1953C13.3515 20.0354 13.1617 19.6055 13.3115 19.2256C13.4615 18.8456 13.8915 18.6549 14.2715 18.7949C14.3243 18.816 15.3321 19.2173 16.1309 20.4854C17.2808 18.8954 19.571 16.0652 21.751 15.2852ZM16 1.24512C16.41 1.24512 16.75 1.58512 16.75 1.99512V2.93555C17.8677 3.1141 18.6851 3.45954 19.3604 4.13477C20.7504 5.52477 20.75 7.51512 20.75 11.4951V12.9951C20.75 13.4051 20.41 13.7451 20 13.7451C19.59 13.7451 19.25 13.4051 19.25 12.9951V11.4951C19.25 10.6494 19.2491 9.90354 19.2363 9.24512H2.76367C2.75094 9.90354 2.75 10.6494 2.75 11.4951V13.9951C2.75 17.5551 2.7502 19.3449 3.7002 20.2949C4.6502 21.2449 6.44 21.2451 10 21.2451H11.5C11.91 21.2451 12.25 21.5851 12.25 21.9951C12.25 22.4051 11.91 22.7451 11.5 22.7451H10C6.02 22.7451 4.02965 22.7455 2.63965 21.3555C1.24965 19.9655 1.25 17.9751 1.25 13.9951V11.4951C1.25 7.51512 1.24965 5.52477 2.63965 4.13477C3.31487 3.45954 4.13227 3.1141 5.25 2.93555V1.99512C5.25 1.58512 5.59 1.24512 6 1.24512C6.41 1.24512 6.75 1.58512 6.75 1.99512V2.79004C7.6605 2.74474 8.72874 2.74512 10 2.74512H12C13.2713 2.74512 14.3395 2.74474 15.25 2.79004V1.99512C15.25 1.58512 15.59 1.24512 16 1.24512ZM10 4.24512C8.69365 4.24512 7.62563 4.24504 6.75 4.29199V4.99512C6.75 5.40512 6.41 5.74512 6 5.74512C5.59 5.74512 5.25 5.40512 5.25 4.99512V4.46191C4.56891 4.59979 4.07066 4.82488 3.7002 5.19531C3.16814 5.72736 2.93402 6.52276 2.83105 7.74512H19.1689C19.066 6.52276 18.8319 5.72736 18.2998 5.19531C17.9293 4.82488 17.4311 4.59979 16.75 4.46191V4.99512C16.75 5.40512 16.41 5.74512 16 5.74512C15.59 5.74512 15.25 5.40512 15.25 4.99512V4.29199C14.3744 4.24504 13.3063 4.24512 12 4.24512H10Z" fill="#2FBF71"/>
</svg>
