<svg width="24" height="24" viewBox="0 0 24 24" fill="none" xmlns="http://www.w3.org/2000/svg">
<path d="M17 1.25C17.55 1.25 18 1.7 18 2.25V3.50977C18.9 3.69977 19.6803 4.03969 20.3203 4.67969C21.1003 5.45969 21.4396 6.45012 21.5996 7.62012C21.7496 8.75008 21.75 10.1801 21.75 11.96V14.04C21.75 15.82 21.7496 17.2499 21.5996 18.3799C21.4396 19.5499 21.1003 20.5403 20.3203 21.3203C19.5403 22.1003 18.5499 22.4396 17.3799 22.5996C16.2599 22.7496 14.8198 22.75 13.0498 22.75H10.9502C9.18023 22.75 7.74011 22.7496 6.62012 22.5996C5.45012 22.4396 4.45969 22.1003 3.67969 21.3203C2.89973 20.5403 2.56039 19.5499 2.40039 18.3799C2.2504 17.2499 2.25 15.82 2.25 14.04V11.96C2.25 10.1801 2.2504 8.75008 2.40039 7.62012C2.56039 6.45012 2.89969 5.45969 3.67969 4.67969C4.31969 4.03969 5.1 3.69977 6 3.50977V2.25C6 1.7 6.45 1.25 7 1.25C7.55 1.25 8 1.7 8 2.25V3.29004C8.85 3.25004 9.8402 3.25 10.9502 3.25H13.0498C14.1598 3.25 15.15 3.25004 16 3.29004V2.25C16 1.7 16.45 1.25 17 1.25ZM4.21973 9.25C4.19973 9.9 4.2002 10.6503 4.2002 11.5303V13.9697C4.2002 15.8397 4.19984 17.1401 4.33984 18.1201C4.45985 19.08 4.70056 19.5804 5.06055 19.9404C5.4205 20.3002 5.92033 20.5402 6.87988 20.6602C7.85988 20.8002 9.16027 20.7998 11.0303 20.7998H12.9805C14.8401 20.7998 16.14 20.8001 17.1299 20.6602C18.0799 20.5402 18.5804 20.3004 18.9404 19.9404C19.3004 19.5805 19.5399 19.08 19.6699 18.1201C19.7999 17.1401 19.7998 15.8397 19.7998 13.9697V11.5303C19.7998 10.6503 19.8 9.9 19.79 9.25H4.21973ZM15.6699 11.5596C16.1898 11.3698 16.7595 11.65 16.9395 12.1699C17.1294 12.6897 16.8497 13.2592 16.3301 13.4395C15.2001 13.8495 14.0897 14.91 13.2197 16C12.7998 16.5299 12.4595 17.0294 12.2295 17.3994C12.1095 17.5794 12.02 17.7301 11.96 17.8301C11.93 17.8801 11.9094 17.9202 11.8994 17.9502L11.8799 17.9697C11.69 18.3296 11.31 18.5298 10.9102 18.5C10.5203 18.46 10.1799 18.1901 10.0498 17.8203C9.8898 17.3303 9.55949 16.98 9.22949 16.75C9.06954 16.64 8.78975 16.5002 8.67969 16.4502C8.15969 16.2702 7.8798 15.7097 8.0498 15.1797C8.22986 14.6599 8.78949 14.38 9.31934 14.5498C9.66934 14.6698 10.1196 14.9301 10.3896 15.1201C10.5896 15.2601 10.79 15.4297 11 15.6396C11.19 15.3597 11.4103 15.0599 11.6602 14.75C12.5802 13.59 13.98 12.1595 15.6699 11.5596Z" fill="#1B84E7"/>
</svg>
