<svg width="16" height="16" viewBox="0 0 16 16" fill="none" xmlns="http://www.w3.org/2000/svg">
<path d="M11.333 0.833008C11.6063 0.833008 11.833 1.05967 11.833 1.33301V1.95996C12.5783 2.07898 13.123 2.30955 13.5732 2.75977C14.4999 3.68639 14.5 5.0129 14.5 7.66602V9.33301C14.5 11.9862 14.4997 13.3126 13.5732 14.2393C12.6466 15.1659 11.3201 15.166 8.66699 15.166H7.33301C4.67989 15.166 3.35339 15.1659 2.42676 14.2393C1.50025 13.3126 1.5 11.9862 1.5 9.33301V7.66602C1.5 5.0129 1.50013 3.68639 2.42676 2.75977C2.87697 2.30955 3.42168 2.07898 4.16699 1.95996V1.33301C4.16699 1.05967 4.39366 0.833008 4.66699 0.833008C4.94018 0.833188 5.16699 1.05978 5.16699 1.33301V1.86328C5.77385 1.8331 6.48579 1.83301 7.33301 1.83301H8.66699C9.51421 1.83301 10.2262 1.8331 10.833 1.86328V1.33301C10.833 1.05978 11.0598 0.833188 11.333 0.833008ZM2.50879 6.16602C2.5003 6.60495 2.5 7.10218 2.5 7.66602V9.33301C2.5 11.7063 2.50046 12.8999 3.13379 13.5332C3.76718 14.1662 4.9603 14.166 7.33301 14.166H8.66699C11.0401 14.166 12.2339 14.1665 12.8672 13.5332C13.5004 12.8998 13.5 11.7061 13.5 9.33301V7.66602C13.5 7.10218 13.4997 6.60495 13.4912 6.16602H2.50879ZM10.5 7.85938C10.7598 7.76635 11.0462 7.90634 11.1396 8.16602C11.233 8.42602 11.093 8.71331 10.833 8.80664C9.16466 9.39827 7.79475 11.8718 7.77344 11.9062C7.68677 12.0662 7.51301 12.166 7.33301 12.166H7.28613C7.08626 12.1459 6.92015 12.0127 6.85352 11.8262C6.6077 11.0888 5.84491 10.8151 5.83301 10.8066C5.57301 10.7133 5.43303 10.4329 5.52637 10.1729C5.61309 9.91295 5.89337 9.77273 6.15332 9.85938C6.19505 9.8733 6.84076 10.0942 7.34668 10.6934C7.94668 9.80003 9.1 8.35938 10.5 7.85938ZM7.33301 2.83301C6.46242 2.83301 5.75062 2.83298 5.16699 2.86426V3.33301C5.16699 3.60623 4.94018 3.83283 4.66699 3.83301C4.39366 3.83301 4.16699 3.60634 4.16699 3.33301V2.97754C3.71277 3.06945 3.38082 3.21978 3.13379 3.4668C2.77913 3.82146 2.62237 4.35128 2.55371 5.16602H13.4463C13.3777 4.35162 13.2215 3.82145 12.8672 3.4668C12.6201 3.21976 12.2873 3.06945 11.833 2.97754V3.33301C11.833 3.60634 11.6063 3.83301 11.333 3.83301C11.0598 3.83283 10.833 3.60623 10.833 3.33301V2.86426C10.2494 2.83298 9.53758 2.83301 8.66699 2.83301H7.33301Z" fill="#3CB3AA"/>
</svg>
