<svg width="24" height="24" viewBox="0 0 24 24" fill="none" xmlns="http://www.w3.org/2000/svg">
<path d="M20.75 11.9995C20.75 11.6259 20.5844 11.2794 20.4275 11.0191C20.2582 10.7383 20.0306 10.4484 19.7808 10.1657C19.2798 9.59865 18.6262 8.98966 17.9918 8.4388C17.3537 7.88469 16.7178 7.37448 16.2428 7.00371C16.0049 6.81801 15.8064 6.66657 15.667 6.56126C15.5973 6.50859 15.5423 6.46742 15.5044 6.43923L15.4609 6.40684L15.4493 6.39829L15.4453 6.39533C15.1118 6.14967 14.6419 6.22056 14.3962 6.55406C14.1505 6.88754 14.2217 7.35702 14.5552 7.60269L14.5679 7.61211L14.608 7.64188C14.6434 7.66828 14.6958 7.70752 14.7628 7.75813C14.8968 7.85938 15.089 8.00598 15.3198 8.18615C15.7823 8.54712 16.3964 9.04002 17.0083 9.57137C17.6239 10.106 18.2202 10.6648 18.6567 11.1589C18.6843 11.1901 18.711 11.2208 18.7369 11.251L4 11.251C3.58579 11.251 3.25 11.5868 3.25 12.001C3.25 12.4152 3.58579 12.751 4 12.751L18.7343 12.751C18.7093 12.7802 18.6834 12.8099 18.6567 12.8401C18.2202 13.3342 17.6239 13.893 17.0083 14.4276C16.3964 14.959 15.7823 15.4519 15.3198 15.8128C15.089 15.993 14.8969 16.1396 14.7628 16.2409C14.6958 16.2915 14.6434 16.3307 14.608 16.3571L14.5679 16.3869L14.5552 16.3963C14.2217 16.642 14.1505 17.1115 14.3962 17.4449C14.6419 17.7784 15.1118 17.8493 15.4453 17.6037L15.4493 17.6007L15.4609 17.5922L15.5044 17.5598C15.5423 17.5316 15.5973 17.4904 15.667 17.4377C15.8064 17.3324 16.0049 17.181 16.2428 16.9953C16.7178 16.6245 17.3537 16.1143 17.9918 15.5602C18.6262 15.0093 19.2798 14.4003 19.7808 13.8333C20.0306 13.5506 20.2582 13.2607 20.4275 12.9799C20.5834 12.7212 20.748 12.3772 20.75 12.0062" fill="white"/>
</svg>
