<svg width="391" height="276" viewBox="0 0 391 276" fill="none" xmlns="http://www.w3.org/2000/svg">
<g filter="url(#filter0_d_88_19724)">
<rect x="10" y="8" width="370.67" height="256" rx="8" fill="white" shape-rendering="crispEdges"/>
<rect x="42" y="40" width="32" height="32" rx="16" fill="#A4CEF5"/>
<path fill-rule="evenodd" clip-rule="evenodd" d="M63.0116 51.9713C63.2113 52.162 63.2187 52.4785 63.028 52.6782L56.028 60.0116C55.9351 60.109 55.8068 60.1647 55.6722 60.1663C55.5375 60.1679 55.408 60.1151 55.3128 60.0199L52.9795 57.6866C52.7842 57.4913 52.7842 57.1747 52.9795 56.9795C53.1747 56.7842 53.4913 56.7842 53.6866 56.9795L55.658 58.9509L62.3047 51.9878C62.4953 51.788 62.8118 51.7807 63.0116 51.9713Z" fill="#1B84E7" stroke="#1B84E7" stroke-width="1.5" stroke-linecap="round" stroke-linejoin="round"/>
<rect x="57" y="72" width="2" height="40" fill="#A4CEF5"/>
<path d="M89.76 55.344H84.672L83.696 58H82.512L86.592 46.96H87.856L91.92 58H90.736L89.76 55.344ZM89.424 54.416L87.216 48.368L85.008 54.416H89.424ZM94.8215 51.184C95.0988 50.5973 95.5362 50.112 96.1335 49.728C96.7415 49.3333 97.4615 49.136 98.2935 49.136C99.0828 49.136 99.7922 49.3227 100.422 49.696C101.062 50.0587 101.558 50.5813 101.91 51.264C102.272 51.936 102.454 52.72 102.454 53.616C102.454 54.512 102.272 55.3013 101.91 55.984C101.558 56.6667 101.062 57.1947 100.422 57.568C99.7922 57.9413 99.0828 58.128 98.2935 58.128C97.4722 58.128 96.7575 57.936 96.1495 57.552C95.5415 57.1573 95.0988 56.6667 94.8215 56.08V62.128H93.7175V49.264H94.8215V51.184ZM101.318 53.616C101.318 52.8907 101.174 52.2667 100.885 51.744C100.608 51.2107 100.224 50.8053 99.7335 50.528C99.2428 50.2507 98.6882 50.112 98.0695 50.112C97.4722 50.112 96.9228 50.256 96.4215 50.544C95.9308 50.832 95.5415 51.2427 95.2535 51.776C94.9655 52.3093 94.8215 52.928 94.8215 53.632C94.8215 54.336 94.9655 54.9547 95.2535 55.488C95.5415 56.0213 95.9308 56.432 96.4215 56.72C96.9228 57.008 97.4722 57.152 98.0695 57.152C98.6882 57.152 99.2428 57.0133 99.7335 56.736C100.224 56.448 100.608 56.0373 100.885 55.504C101.174 54.96 101.318 54.3307 101.318 53.616ZM105.618 51.184C105.896 50.5973 106.333 50.112 106.93 49.728C107.538 49.3333 108.258 49.136 109.09 49.136C109.88 49.136 110.589 49.3227 111.218 49.696C111.858 50.0587 112.354 50.5813 112.706 51.264C113.069 51.936 113.25 52.72 113.25 53.616C113.25 54.512 113.069 55.3013 112.706 55.984C112.354 56.6667 111.858 57.1947 111.218 57.568C110.589 57.9413 109.88 58.128 109.09 58.128C108.269 58.128 107.554 57.936 106.946 57.552C106.338 57.1573 105.896 56.6667 105.618 56.08V62.128H104.514V49.264H105.618V51.184ZM112.114 53.616C112.114 52.8907 111.97 52.2667 111.682 51.744C111.405 51.2107 111.021 50.8053 110.53 50.528C110.04 50.2507 109.485 50.112 108.866 50.112C108.269 50.112 107.72 50.256 107.218 50.544C106.728 50.832 106.338 51.2427 106.05 51.776C105.762 52.3093 105.618 52.928 105.618 53.632C105.618 54.336 105.762 54.9547 106.05 55.488C106.338 56.0213 106.728 56.432 107.218 56.72C107.72 57.008 108.269 57.152 108.866 57.152C109.485 57.152 110.04 57.0133 110.53 56.736C111.021 56.448 111.405 56.0373 111.682 55.504C111.97 54.96 112.114 54.3307 112.114 53.616ZM116.431 46.16V58H115.311V46.16H116.431ZM119.528 47.616C119.304 47.616 119.112 47.536 118.952 47.376C118.792 47.216 118.712 47.0187 118.712 46.784C118.712 46.5493 118.792 46.3573 118.952 46.208C119.112 46.048 119.304 45.968 119.528 45.968C119.752 45.968 119.944 46.048 120.104 46.208C120.264 46.3573 120.344 46.5493 120.344 46.784C120.344 47.0187 120.264 47.216 120.104 47.376C119.944 47.536 119.752 47.616 119.528 47.616ZM120.088 49.264V58H118.968V49.264H120.088ZM122.112 53.632C122.112 52.7253 122.293 51.936 122.656 51.264C123.018 50.5813 123.52 50.0587 124.16 49.696C124.8 49.3227 125.53 49.136 126.352 49.136C127.429 49.136 128.314 49.4027 129.008 49.936C129.712 50.4693 130.165 51.1947 130.368 52.112H129.168C129.018 51.4827 128.693 50.992 128.192 50.64C127.701 50.2773 127.088 50.096 126.352 50.096C125.765 50.096 125.237 50.2293 124.768 50.496C124.298 50.7627 123.925 51.1627 123.648 51.696C123.381 52.2187 123.248 52.864 123.248 53.632C123.248 54.4 123.381 55.0507 123.648 55.584C123.925 56.1173 124.298 56.5173 124.768 56.784C125.237 57.0507 125.765 57.184 126.352 57.184C127.088 57.184 127.701 57.008 128.192 56.656C128.693 56.2933 129.018 55.792 129.168 55.152H130.368C130.165 56.048 129.712 56.768 129.008 57.312C128.304 57.856 127.418 58.128 126.352 58.128C125.53 58.128 124.8 57.9467 124.16 57.584C123.52 57.2107 123.018 56.688 122.656 56.016C122.293 55.3333 122.112 54.5387 122.112 53.632ZM131.924 53.616C131.924 52.72 132.1 51.936 132.452 51.264C132.815 50.5813 133.311 50.0587 133.94 49.696C134.58 49.3227 135.3 49.136 136.1 49.136C136.932 49.136 137.647 49.328 138.244 49.712C138.852 50.096 139.29 50.5867 139.556 51.184V49.264H140.676V58H139.556V56.064C139.279 56.6613 138.836 57.1573 138.228 57.552C137.631 57.936 136.916 58.128 136.084 58.128C135.295 58.128 134.58 57.9413 133.94 57.568C133.311 57.1947 132.815 56.6667 132.452 55.984C132.1 55.3013 131.924 54.512 131.924 53.616ZM139.556 53.632C139.556 52.928 139.412 52.3093 139.124 51.776C138.836 51.2427 138.442 50.832 137.94 50.544C137.45 50.256 136.906 50.112 136.308 50.112C135.69 50.112 135.135 50.2507 134.644 50.528C134.154 50.8053 133.764 51.2107 133.476 51.744C133.199 52.2667 133.06 52.8907 133.06 53.616C133.06 54.3307 133.199 54.96 133.476 55.504C133.764 56.0373 134.154 56.448 134.644 56.736C135.135 57.0133 135.69 57.152 136.308 57.152C136.906 57.152 137.45 57.008 137.94 56.72C138.442 56.432 138.836 56.0213 139.124 55.488C139.412 54.9547 139.556 54.336 139.556 53.632ZM147.329 49.104C148.374 49.104 149.228 49.4293 149.889 50.08C150.55 50.72 150.881 51.6533 150.881 52.88V58H149.777V53.008C149.777 52.0587 149.537 51.3333 149.057 50.832C148.588 50.3307 147.942 50.08 147.121 50.08C146.278 50.08 145.606 50.3467 145.105 50.88C144.604 51.4133 144.353 52.1973 144.353 53.232V58H143.233V49.264H144.353V50.752C144.63 50.2187 145.03 49.8133 145.553 49.536C146.076 49.248 146.668 49.104 147.329 49.104ZM154.814 50.208V55.632C154.814 56.1653 154.915 56.5333 155.118 56.736C155.321 56.9387 155.678 57.04 156.19 57.04H157.214V58H156.014C155.225 58 154.638 57.8187 154.254 57.456C153.87 57.0827 153.678 56.4747 153.678 55.632V50.208H152.462V49.264H153.678V47.072H154.814V49.264H157.214V50.208H154.814ZM164.572 46.816V58H163.452V46.816H164.572ZM171.204 49.104C172.249 49.104 173.103 49.4293 173.764 50.08C174.425 50.72 174.756 51.6533 174.756 52.88V58H173.652V53.008C173.652 52.0587 173.412 51.3333 172.932 50.832C172.463 50.3307 171.817 50.08 170.996 50.08C170.153 50.08 169.481 50.3467 168.98 50.88C168.479 51.4133 168.228 52.1973 168.228 53.232V58H167.108V49.264H168.228V50.752C168.505 50.2187 168.905 49.8133 169.428 49.536C169.951 49.248 170.543 49.104 171.204 49.104ZM180.673 50.208H178.641V58H177.521V50.208H176.305V49.264H177.521V48.656C177.521 47.7067 177.761 47.008 178.241 46.56C178.732 46.112 179.521 45.888 180.609 45.888V46.848C179.884 46.848 179.372 46.9867 179.073 47.264C178.785 47.5413 178.641 48.0053 178.641 48.656V49.264H180.673V50.208ZM186.26 58.128C185.439 58.128 184.698 57.9467 184.036 57.584C183.386 57.2107 182.868 56.688 182.484 56.016C182.111 55.3333 181.924 54.5387 181.924 53.632C181.924 52.7253 182.116 51.936 182.5 51.264C182.884 50.5813 183.407 50.0587 184.068 49.696C184.73 49.3227 185.471 49.136 186.292 49.136C187.114 49.136 187.855 49.3227 188.516 49.696C189.188 50.0587 189.711 50.5813 190.084 51.264C190.468 51.936 190.66 52.7253 190.66 53.632C190.66 54.528 190.468 55.3173 190.084 56C189.7 56.6827 189.172 57.2107 188.5 57.584C187.828 57.9467 187.082 58.128 186.26 58.128ZM186.26 57.152C186.836 57.152 187.37 57.024 187.86 56.768C188.351 56.5013 188.746 56.1067 189.044 55.584C189.354 55.0507 189.508 54.4 189.508 53.632C189.508 52.864 189.359 52.2187 189.06 51.696C188.762 51.1627 188.367 50.768 187.876 50.512C187.386 50.2453 186.852 50.112 186.276 50.112C185.7 50.112 185.167 50.2453 184.676 50.512C184.186 50.768 183.791 51.1627 183.492 51.696C183.204 52.2187 183.06 52.864 183.06 53.632C183.06 54.4 183.204 55.0507 183.492 55.584C183.791 56.1067 184.18 56.5013 184.66 56.768C185.151 57.024 185.684 57.152 186.26 57.152ZM193.822 50.816C194.067 50.272 194.441 49.8507 194.942 49.552C195.454 49.2533 196.078 49.104 196.814 49.104V50.272H196.51C195.699 50.272 195.049 50.4907 194.558 50.928C194.067 51.3653 193.822 52.096 193.822 53.12V58H192.702V49.264H193.822V50.816ZM208.899 49.104C209.923 49.104 210.755 49.4293 211.395 50.08C212.045 50.72 212.371 51.6533 212.371 52.88V58H211.267V53.008C211.267 52.0587 211.037 51.3333 210.579 50.832C210.12 50.3307 209.496 50.08 208.707 50.08C207.885 50.08 207.229 50.352 206.739 50.896C206.248 51.44 206.003 52.2293 206.003 53.264V58H204.899V53.008C204.899 52.0587 204.669 51.3333 204.211 50.832C203.752 50.3307 203.123 50.08 202.323 50.08C201.501 50.08 200.845 50.352 200.355 50.896C199.864 51.44 199.619 52.2293 199.619 53.264V58H198.499V49.264H199.619V50.768C199.896 50.224 200.291 49.8133 200.803 49.536C201.315 49.248 201.885 49.104 202.515 49.104C203.272 49.104 203.933 49.2853 204.499 49.648C205.075 50.0107 205.491 50.544 205.747 51.248C205.981 50.5547 206.381 50.0267 206.947 49.664C207.523 49.2907 208.173 49.104 208.899 49.104ZM214.346 53.616C214.346 52.72 214.522 51.936 214.874 51.264C215.237 50.5813 215.733 50.0587 216.362 49.696C217.002 49.3227 217.722 49.136 218.522 49.136C219.354 49.136 220.069 49.328 220.666 49.712C221.274 50.096 221.711 50.5867 221.978 51.184V49.264H223.098V58H221.978V56.064C221.701 56.6613 221.258 57.1573 220.65 57.552C220.053 57.936 219.338 58.128 218.506 58.128C217.717 58.128 217.002 57.9413 216.362 57.568C215.733 57.1947 215.237 56.6667 214.874 55.984C214.522 55.3013 214.346 54.512 214.346 53.616ZM221.978 53.632C221.978 52.928 221.834 52.3093 221.546 51.776C221.258 51.2427 220.863 50.832 220.362 50.544C219.871 50.256 219.327 50.112 218.73 50.112C218.111 50.112 217.557 50.2507 217.066 50.528C216.575 50.8053 216.186 51.2107 215.898 51.744C215.621 52.2667 215.482 52.8907 215.482 53.616C215.482 54.3307 215.621 54.96 215.898 55.504C216.186 56.0373 216.575 56.448 217.066 56.736C217.557 57.0133 218.111 57.152 218.73 57.152C219.327 57.152 219.871 57.008 220.362 56.72C220.863 56.432 221.258 56.0213 221.546 55.488C221.834 54.9547 221.978 54.336 221.978 53.632ZM227.111 50.208V55.632C227.111 56.1653 227.212 56.5333 227.415 56.736C227.618 56.9387 227.975 57.04 228.487 57.04H229.511V58H228.311C227.522 58 226.935 57.8187 226.551 57.456C226.167 57.0827 225.975 56.4747 225.975 55.632V50.208H224.759V49.264H225.975V47.072H227.111V49.264H229.511V50.208H227.111ZM231.918 47.616C231.694 47.616 231.502 47.536 231.342 47.376C231.182 47.216 231.102 47.0187 231.102 46.784C231.102 46.5493 231.182 46.3573 231.342 46.208C231.502 46.048 231.694 45.968 231.918 45.968C232.142 45.968 232.334 46.048 232.494 46.208C232.654 46.3573 232.734 46.5493 232.734 46.784C232.734 47.0187 232.654 47.216 232.494 47.376C232.334 47.536 232.142 47.616 231.918 47.616ZM232.478 49.264V58H231.358V49.264H232.478ZM238.838 58.128C238.017 58.128 237.276 57.9467 236.614 57.584C235.964 57.2107 235.446 56.688 235.062 56.016C234.689 55.3333 234.502 54.5387 234.502 53.632C234.502 52.7253 234.694 51.936 235.078 51.264C235.462 50.5813 235.985 50.0587 236.646 49.696C237.308 49.3227 238.049 49.136 238.87 49.136C239.692 49.136 240.433 49.3227 241.094 49.696C241.766 50.0587 242.289 50.5813 242.662 51.264C243.046 51.936 243.238 52.7253 243.238 53.632C243.238 54.528 243.046 55.3173 242.662 56C242.278 56.6827 241.75 57.2107 241.078 57.584C240.406 57.9467 239.66 58.128 238.838 58.128ZM238.838 57.152C239.414 57.152 239.948 57.024 240.438 56.768C240.929 56.5013 241.324 56.1067 241.622 55.584C241.932 55.0507 242.086 54.4 242.086 53.632C242.086 52.864 241.937 52.2187 241.638 51.696C241.34 51.1627 240.945 50.768 240.454 50.512C239.964 50.2453 239.43 50.112 238.854 50.112C238.278 50.112 237.745 50.2453 237.254 50.512C236.764 50.768 236.369 51.1627 236.07 51.696C235.782 52.2187 235.638 52.864 235.638 53.632C235.638 54.4 235.782 55.0507 236.07 55.584C236.369 56.1067 236.758 56.5013 237.238 56.768C237.729 57.024 238.262 57.152 238.838 57.152ZM249.376 49.104C250.421 49.104 251.275 49.4293 251.936 50.08C252.597 50.72 252.928 51.6533 252.928 52.88V58H251.824V53.008C251.824 52.0587 251.584 51.3333 251.104 50.832C250.635 50.3307 249.989 50.08 249.168 50.08C248.325 50.08 247.653 50.3467 247.152 50.88C246.651 51.4133 246.4 52.1973 246.4 53.232V58H245.28V49.264H246.4V50.752C246.677 50.2187 247.077 49.8133 247.6 49.536C248.123 49.248 248.715 49.104 249.376 49.104Z" fill="#2F2F2F"/>
<path d="M89.378 76.028C89.378 76.868 89.1027 77.5447 88.552 78.058C88.0013 78.5713 87.1753 78.828 86.074 78.828H84.1V83H83.12V73.214H86.074C87.166 73.214 87.9873 73.4707 88.538 73.984C89.098 74.4973 89.378 75.1787 89.378 76.028ZM86.074 77.988C87.6047 77.988 88.37 77.3347 88.37 76.028C88.37 75.3747 88.188 74.88 87.824 74.544C87.46 74.208 86.8767 74.04 86.074 74.04H84.1V77.988H86.074ZM97.9383 78.786C97.9383 79.122 97.929 79.3787 97.9103 79.556H91.5683C91.5963 80.1347 91.7363 80.6293 91.9883 81.04C92.2403 81.4507 92.5717 81.7633 92.9823 81.978C93.393 82.1833 93.841 82.286 94.3263 82.286C94.961 82.286 95.493 82.132 95.9223 81.824C96.361 81.516 96.6503 81.1007 96.7903 80.578H97.8263C97.6397 81.3247 97.2383 81.936 96.6223 82.412C96.0157 82.8787 95.2503 83.112 94.3263 83.112C93.6077 83.112 92.9637 82.9533 92.3943 82.636C91.825 82.3093 91.377 81.852 91.0503 81.264C90.733 80.6667 90.5743 79.9713 90.5743 79.178C90.5743 78.3847 90.733 77.6893 91.0503 77.092C91.3677 76.4947 91.811 76.0373 92.3803 75.72C92.9497 75.4027 93.5983 75.244 94.3263 75.244C95.0543 75.244 95.689 75.4027 96.2303 75.72C96.781 76.0373 97.201 76.4667 97.4903 77.008C97.789 77.54 97.9383 78.1327 97.9383 78.786ZM96.9443 78.758C96.9537 78.1887 96.837 77.7033 96.5943 77.302C96.361 76.9007 96.039 76.5973 95.6283 76.392C95.2177 76.1867 94.7697 76.084 94.2843 76.084C93.5563 76.084 92.9357 76.3173 92.4223 76.784C91.909 77.2507 91.6243 77.9087 91.5683 78.758H96.9443ZM100.711 76.714C100.926 76.238 101.253 75.8693 101.691 75.608C102.139 75.3467 102.685 75.216 103.329 75.216V76.238H103.063C102.354 76.238 101.785 76.4293 101.355 76.812C100.926 77.1947 100.711 77.834 100.711 78.73V83H99.7313V75.356H100.711V76.714ZM107.436 83.112C106.558 83.112 105.84 82.9113 105.28 82.51C104.729 82.0993 104.421 81.544 104.356 80.844H105.364C105.41 81.2733 105.611 81.6233 105.966 81.894C106.33 82.1553 106.815 82.286 107.422 82.286C107.954 82.286 108.369 82.16 108.668 81.908C108.976 81.656 109.13 81.3433 109.13 80.97C109.13 80.7087 109.046 80.494 108.878 80.326C108.71 80.158 108.495 80.0273 108.234 79.934C107.982 79.8313 107.636 79.724 107.198 79.612C106.628 79.4627 106.166 79.3133 105.812 79.164C105.457 79.0147 105.154 78.7953 104.902 78.506C104.659 78.2073 104.538 77.8107 104.538 77.316C104.538 76.9427 104.65 76.5973 104.874 76.28C105.098 75.9627 105.415 75.7107 105.826 75.524C106.236 75.3373 106.703 75.244 107.226 75.244C108.047 75.244 108.71 75.454 109.214 75.874C109.718 76.2847 109.988 76.854 110.026 77.582H109.046C109.018 77.134 108.84 76.7747 108.514 76.504C108.196 76.224 107.758 76.084 107.198 76.084C106.703 76.084 106.302 76.2007 105.994 76.434C105.686 76.6673 105.532 76.9567 105.532 77.302C105.532 77.6007 105.62 77.848 105.798 78.044C105.984 78.2307 106.213 78.38 106.484 78.492C106.754 78.5947 107.118 78.7113 107.576 78.842C108.126 78.9913 108.565 79.136 108.892 79.276C109.218 79.416 109.498 79.6213 109.732 79.892C109.965 80.1627 110.086 80.522 110.096 80.97C110.096 81.3807 109.984 81.7493 109.76 82.076C109.536 82.3933 109.223 82.6453 108.822 82.832C108.42 83.0187 107.958 83.112 107.436 83.112ZM115.286 83.112C114.568 83.112 113.919 82.9533 113.34 82.636C112.771 82.3093 112.318 81.852 111.982 81.264C111.656 80.6667 111.492 79.9713 111.492 79.178C111.492 78.3847 111.66 77.694 111.996 77.106C112.332 76.5087 112.79 76.0513 113.368 75.734C113.947 75.4073 114.596 75.244 115.314 75.244C116.033 75.244 116.682 75.4073 117.26 75.734C117.848 76.0513 118.306 76.5087 118.632 77.106C118.968 77.694 119.136 78.3847 119.136 79.178C119.136 79.962 118.968 80.6527 118.632 81.25C118.296 81.8473 117.834 82.3093 117.246 82.636C116.658 82.9533 116.005 83.112 115.286 83.112ZM115.286 82.258C115.79 82.258 116.257 82.146 116.686 81.922C117.116 81.6887 117.461 81.3433 117.722 80.886C117.993 80.4193 118.128 79.85 118.128 79.178C118.128 78.506 117.998 77.9413 117.736 77.484C117.475 77.0173 117.13 76.672 116.7 76.448C116.271 76.2147 115.804 76.098 115.3 76.098C114.796 76.098 114.33 76.2147 113.9 76.448C113.471 76.672 113.126 77.0173 112.864 77.484C112.612 77.9413 112.486 78.506 112.486 79.178C112.486 79.85 112.612 80.4193 112.864 80.886C113.126 81.3433 113.466 81.6887 113.886 81.922C114.316 82.146 114.782 82.258 115.286 82.258ZM124.507 75.216C125.421 75.216 126.168 75.5007 126.747 76.07C127.325 76.63 127.615 77.4467 127.615 78.52V83H126.649V78.632C126.649 77.8013 126.439 77.1667 126.019 76.728C125.608 76.2893 125.043 76.07 124.325 76.07C123.587 76.07 122.999 76.3033 122.561 76.77C122.122 77.2367 121.903 77.9227 121.903 78.828V83H120.923V75.356H121.903V76.658C122.145 76.1913 122.495 75.8367 122.953 75.594C123.41 75.342 123.928 75.216 124.507 75.216ZM129.334 79.164C129.334 78.38 129.488 77.694 129.796 77.106C130.113 76.5087 130.547 76.0513 131.098 75.734C131.658 75.4073 132.288 75.244 132.988 75.244C133.716 75.244 134.341 75.412 134.864 75.748C135.396 76.084 135.779 76.5133 136.012 77.036V75.356H136.992V83H136.012V81.306C135.769 81.8287 135.382 82.2627 134.85 82.608C134.327 82.944 133.702 83.112 132.974 83.112C132.283 83.112 131.658 82.9487 131.098 82.622C130.547 82.2953 130.113 81.8333 129.796 81.236C129.488 80.6387 129.334 79.948 129.334 79.164ZM136.012 79.178C136.012 78.562 135.886 78.0207 135.634 77.554C135.382 77.0873 135.037 76.728 134.598 76.476C134.169 76.224 133.693 76.098 133.17 76.098C132.629 76.098 132.143 76.2193 131.714 76.462C131.285 76.7047 130.944 77.0593 130.692 77.526C130.449 77.9833 130.328 78.5293 130.328 79.164C130.328 79.7893 130.449 80.34 130.692 80.816C130.944 81.2827 131.285 81.642 131.714 81.894C132.143 82.1367 132.629 82.258 133.17 82.258C133.693 82.258 134.169 82.132 134.598 81.88C135.037 81.628 135.382 81.2687 135.634 80.802C135.886 80.3353 136.012 79.794 136.012 79.178ZM140.209 72.64V83H139.229V72.64H140.209ZM145.822 79.164C145.822 78.38 145.981 77.694 146.298 77.106C146.616 76.5087 147.05 76.0513 147.6 75.734C148.16 75.4073 148.79 75.244 149.49 75.244C150.162 75.244 150.769 75.4073 151.31 75.734C151.852 76.0607 152.248 76.4853 152.5 77.008V72.64H153.48V83H152.5V81.292C152.267 81.824 151.884 82.2627 151.352 82.608C150.82 82.944 150.195 83.112 149.476 83.112C148.776 83.112 148.146 82.9487 147.586 82.622C147.036 82.2953 146.602 81.8333 146.284 81.236C145.976 80.6387 145.822 79.948 145.822 79.164ZM152.5 79.178C152.5 78.562 152.374 78.0207 152.122 77.554C151.87 77.0873 151.525 76.728 151.086 76.476C150.657 76.224 150.181 76.098 149.658 76.098C149.117 76.098 148.632 76.2193 148.202 76.462C147.773 76.7047 147.432 77.0593 147.18 77.526C146.938 77.9833 146.816 78.5293 146.816 79.164C146.816 79.7893 146.938 80.34 147.18 80.816C147.432 81.2827 147.773 81.642 148.202 81.894C148.632 82.1367 149.117 82.258 149.658 82.258C150.181 82.258 150.657 82.132 151.086 81.88C151.525 81.628 151.87 81.2687 152.122 80.802C152.374 80.3353 152.5 79.794 152.5 79.178ZM162.634 78.786C162.634 79.122 162.624 79.3787 162.606 79.556H156.264C156.292 80.1347 156.432 80.6293 156.684 81.04C156.936 81.4507 157.267 81.7633 157.678 81.978C158.088 82.1833 158.536 82.286 159.022 82.286C159.656 82.286 160.188 82.132 160.618 81.824C161.056 81.516 161.346 81.1007 161.486 80.578H162.522C162.335 81.3247 161.934 81.936 161.318 82.412C160.711 82.8787 159.946 83.112 159.022 83.112C158.303 83.112 157.659 82.9533 157.09 82.636C156.52 82.3093 156.072 81.852 155.746 81.264C155.428 80.6667 155.27 79.9713 155.27 79.178C155.27 78.3847 155.428 77.6893 155.746 77.092C156.063 76.4947 156.506 76.0373 157.076 75.72C157.645 75.4027 158.294 75.244 159.022 75.244C159.75 75.244 160.384 75.4027 160.926 75.72C161.476 76.0373 161.896 76.4667 162.186 77.008C162.484 77.54 162.634 78.1327 162.634 78.786ZM161.64 78.758C161.649 78.1887 161.532 77.7033 161.29 77.302C161.056 76.9007 160.734 76.5973 160.324 76.392C159.913 76.1867 159.465 76.084 158.98 76.084C158.252 76.084 157.631 76.3173 157.118 76.784C156.604 77.2507 156.32 77.9087 156.264 78.758H161.64ZM165.701 76.182V80.928C165.701 81.3947 165.789 81.7167 165.967 81.894C166.144 82.0713 166.457 82.16 166.905 82.16H167.801V83H166.751C166.06 83 165.547 82.8413 165.211 82.524C164.875 82.1973 164.707 81.6653 164.707 80.928V76.182H163.643V75.356H164.707V73.438H165.701V75.356H167.801V76.182H165.701ZM168.969 79.164C168.969 78.38 169.123 77.694 169.431 77.106C169.748 76.5087 170.182 76.0513 170.733 75.734C171.293 75.4073 171.923 75.244 172.623 75.244C173.351 75.244 173.976 75.412 174.499 75.748C175.031 76.084 175.414 76.5133 175.647 77.036V75.356H176.627V83H175.647V81.306C175.404 81.8287 175.017 82.2627 174.485 82.608C173.962 82.944 173.337 83.112 172.609 83.112C171.918 83.112 171.293 82.9487 170.733 82.622C170.182 82.2953 169.748 81.8333 169.431 81.236C169.123 80.6387 168.969 79.948 168.969 79.164ZM175.647 79.178C175.647 78.562 175.521 78.0207 175.269 77.554C175.017 77.0873 174.672 76.728 174.233 76.476C173.804 76.224 173.328 76.098 172.805 76.098C172.264 76.098 171.778 76.2193 171.349 76.462C170.92 76.7047 170.579 77.0593 170.327 77.526C170.084 77.9833 169.963 78.5293 169.963 79.164C169.963 79.7893 170.084 80.34 170.327 80.816C170.579 81.2827 170.92 81.642 171.349 81.894C171.778 82.1367 172.264 82.258 172.805 82.258C173.328 82.258 173.804 82.132 174.233 81.88C174.672 81.628 175.017 81.2687 175.269 80.802C175.521 80.3353 175.647 79.794 175.647 79.178ZM179.354 73.914C179.158 73.914 178.99 73.844 178.85 73.704C178.71 73.564 178.64 73.3913 178.64 73.186C178.64 72.9807 178.71 72.8127 178.85 72.682C178.99 72.542 179.158 72.472 179.354 72.472C179.55 72.472 179.718 72.542 179.858 72.682C179.998 72.8127 180.068 72.9807 180.068 73.186C180.068 73.3913 179.998 73.564 179.858 73.704C179.718 73.844 179.55 73.914 179.354 73.914ZM179.844 75.356V83H178.864V75.356H179.844ZM183.043 72.64V83H182.063V72.64H183.043ZM187.895 83.112C187.017 83.112 186.299 82.9113 185.739 82.51C185.188 82.0993 184.88 81.544 184.815 80.844H185.823C185.869 81.2733 186.07 81.6233 186.425 81.894C186.789 82.1553 187.274 82.286 187.881 82.286C188.413 82.286 188.828 82.16 189.127 81.908C189.435 81.656 189.589 81.3433 189.589 80.97C189.589 80.7087 189.505 80.494 189.337 80.326C189.169 80.158 188.954 80.0273 188.693 79.934C188.441 79.8313 188.095 79.724 187.657 79.612C187.087 79.4627 186.625 79.3133 186.271 79.164C185.916 79.0147 185.613 78.7953 185.361 78.506C185.118 78.2073 184.997 77.8107 184.997 77.316C184.997 76.9427 185.109 76.5973 185.333 76.28C185.557 75.9627 185.874 75.7107 186.285 75.524C186.695 75.3373 187.162 75.244 187.685 75.244C188.506 75.244 189.169 75.454 189.673 75.874C190.177 76.2847 190.447 76.854 190.485 77.582H189.505C189.477 77.134 189.299 76.7747 188.973 76.504C188.655 76.224 188.217 76.084 187.657 76.084C187.162 76.084 186.761 76.2007 186.453 76.434C186.145 76.6673 185.991 76.9567 185.991 77.302C185.991 77.6007 186.079 77.848 186.257 78.044C186.443 78.2307 186.672 78.38 186.943 78.492C187.213 78.5947 187.577 78.7113 188.035 78.842C188.585 78.9913 189.024 79.136 189.351 79.276C189.677 79.416 189.957 79.6213 190.191 79.892C190.424 80.1627 190.545 80.522 190.555 80.97C190.555 81.3807 190.443 81.7493 190.219 82.076C189.995 82.3933 189.682 82.6453 189.281 82.832C188.879 83.0187 188.417 83.112 187.895 83.112ZM195.793 79.164C195.793 78.38 195.947 77.694 196.255 77.106C196.572 76.5087 197.006 76.0513 197.557 75.734C198.117 75.4073 198.747 75.244 199.447 75.244C200.175 75.244 200.8 75.412 201.323 75.748C201.855 76.084 202.238 76.5133 202.471 77.036V75.356H203.451V83H202.471V81.306C202.228 81.8287 201.841 82.2627 201.309 82.608C200.786 82.944 200.161 83.112 199.433 83.112C198.742 83.112 198.117 82.9487 197.557 82.622C197.006 82.2953 196.572 81.8333 196.255 81.236C195.947 80.6387 195.793 79.948 195.793 79.164ZM202.471 79.178C202.471 78.562 202.345 78.0207 202.093 77.554C201.841 77.0873 201.496 76.728 201.057 76.476C200.628 76.224 200.152 76.098 199.629 76.098C199.088 76.098 198.602 76.2193 198.173 76.462C197.744 76.7047 197.403 77.0593 197.151 77.526C196.908 77.9833 196.787 78.5293 196.787 79.164C196.787 79.7893 196.908 80.34 197.151 80.816C197.403 81.2827 197.744 81.642 198.173 81.894C198.602 82.1367 199.088 82.258 199.629 82.258C200.152 82.258 200.628 82.132 201.057 81.88C201.496 81.628 201.841 81.2687 202.093 80.802C202.345 80.3353 202.471 79.794 202.471 79.178ZM209.272 75.216C210.187 75.216 210.934 75.5007 211.512 76.07C212.091 76.63 212.38 77.4467 212.38 78.52V83H211.414V78.632C211.414 77.8013 211.204 77.1667 210.784 76.728C210.374 76.2893 209.809 76.07 209.09 76.07C208.353 76.07 207.765 76.3033 207.326 76.77C206.888 77.2367 206.668 77.9227 206.668 78.828V83H205.688V75.356H206.668V76.658C206.911 76.1913 207.261 75.8367 207.718 75.594C208.176 75.342 208.694 75.216 209.272 75.216ZM214.1 79.164C214.1 78.38 214.258 77.694 214.576 77.106C214.893 76.5087 215.327 76.0513 215.878 75.734C216.438 75.4073 217.068 75.244 217.768 75.244C218.44 75.244 219.046 75.4073 219.588 75.734C220.129 76.0607 220.526 76.4853 220.778 77.008V72.64H221.758V83H220.778V81.292C220.544 81.824 220.162 82.2627 219.63 82.608C219.098 82.944 218.472 83.112 217.754 83.112C217.054 83.112 216.424 82.9487 215.864 82.622C215.313 82.2953 214.879 81.8333 214.562 81.236C214.254 80.6387 214.1 79.948 214.1 79.164ZM220.778 79.178C220.778 78.562 220.652 78.0207 220.4 77.554C220.148 77.0873 219.802 76.728 219.364 76.476C218.934 76.224 218.458 76.098 217.936 76.098C217.394 76.098 216.909 76.2193 216.48 76.462C216.05 76.7047 215.71 77.0593 215.458 77.526C215.215 77.9833 215.094 78.5293 215.094 79.164C215.094 79.7893 215.215 80.34 215.458 80.816C215.71 81.2827 216.05 81.642 216.48 81.894C216.909 82.1367 217.394 82.258 217.936 82.258C218.458 82.258 218.934 82.132 219.364 81.88C219.802 81.628 220.148 81.2687 220.4 80.802C220.652 80.3353 220.778 79.794 220.778 79.178ZM227.389 79.164C227.389 78.38 227.547 77.694 227.865 77.106C228.182 76.5087 228.616 76.0513 229.167 75.734C229.727 75.4073 230.357 75.244 231.057 75.244C231.729 75.244 232.335 75.4073 232.877 75.734C233.418 76.0607 233.815 76.4853 234.067 77.008V72.64H235.047V83H234.067V81.292C233.833 81.824 233.451 82.2627 232.919 82.608C232.387 82.944 231.761 83.112 231.043 83.112C230.343 83.112 229.713 82.9487 229.153 82.622C228.602 82.2953 228.168 81.8333 227.851 81.236C227.543 80.6387 227.389 79.948 227.389 79.164ZM234.067 79.178C234.067 78.562 233.941 78.0207 233.689 77.554C233.437 77.0873 233.091 76.728 232.653 76.476C232.223 76.224 231.747 76.098 231.225 76.098C230.683 76.098 230.198 76.2193 229.769 76.462C229.339 76.7047 228.999 77.0593 228.747 77.526C228.504 77.9833 228.383 78.5293 228.383 79.164C228.383 79.7893 228.504 80.34 228.747 80.816C228.999 81.2827 229.339 81.642 229.769 81.894C230.198 82.1367 230.683 82.258 231.225 82.258C231.747 82.258 232.223 82.132 232.653 81.88C233.091 81.628 233.437 81.2687 233.689 80.802C233.941 80.3353 234.067 79.794 234.067 79.178ZM240.63 83.112C239.911 83.112 239.263 82.9533 238.684 82.636C238.115 82.3093 237.662 81.852 237.326 81.264C236.999 80.6667 236.836 79.9713 236.836 79.178C236.836 78.3847 237.004 77.694 237.34 77.106C237.676 76.5087 238.133 76.0513 238.712 75.734C239.291 75.4073 239.939 75.244 240.658 75.244C241.377 75.244 242.025 75.4073 242.604 75.734C243.192 76.0513 243.649 76.5087 243.976 77.106C244.312 77.694 244.48 78.3847 244.48 79.178C244.48 79.962 244.312 80.6527 243.976 81.25C243.64 81.8473 243.178 82.3093 242.59 82.636C242.002 82.9533 241.349 83.112 240.63 83.112ZM240.63 82.258C241.134 82.258 241.601 82.146 242.03 81.922C242.459 81.6887 242.805 81.3433 243.066 80.886C243.337 80.4193 243.472 79.85 243.472 79.178C243.472 78.506 243.341 77.9413 243.08 77.484C242.819 77.0173 242.473 76.672 242.044 76.448C241.615 76.2147 241.148 76.098 240.644 76.098C240.14 76.098 239.673 76.2147 239.244 76.448C238.815 76.672 238.469 77.0173 238.208 77.484C237.956 77.9413 237.83 78.506 237.83 79.178C237.83 79.85 237.956 80.4193 238.208 80.886C238.469 81.3433 238.81 81.6887 239.23 81.922C239.659 82.146 240.126 82.258 240.63 82.258ZM245.818 79.178C245.818 78.3847 245.977 77.694 246.294 77.106C246.612 76.5087 247.05 76.0513 247.61 75.734C248.17 75.4073 248.81 75.244 249.528 75.244C250.471 75.244 251.246 75.4773 251.852 75.944C252.468 76.4107 252.865 77.0453 253.042 77.848H251.992C251.862 77.2973 251.577 76.868 251.138 76.56C250.709 76.2427 250.172 76.084 249.528 76.084C249.015 76.084 248.553 76.2007 248.142 76.434C247.732 76.6673 247.405 77.0173 247.162 77.484C246.929 77.9413 246.812 78.506 246.812 79.178C246.812 79.85 246.929 80.4193 247.162 80.886C247.405 81.3527 247.732 81.7027 248.142 81.936C248.553 82.1693 249.015 82.286 249.528 82.286C250.172 82.286 250.709 82.132 251.138 81.824C251.577 81.5067 251.862 81.068 251.992 80.508H253.042C252.865 81.292 252.468 81.922 251.852 82.398C251.236 82.874 250.462 83.112 249.528 83.112C248.81 83.112 248.17 82.9533 247.61 82.636C247.05 82.3093 246.612 81.852 246.294 81.264C245.977 80.6667 245.818 79.9713 245.818 79.178ZM261.474 75.356V83H260.494V81.656C260.27 82.132 259.925 82.496 259.458 82.748C258.992 83 258.469 83.126 257.89 83.126C256.976 83.126 256.229 82.846 255.65 82.286C255.072 81.7167 254.782 80.8953 254.782 79.822V75.356H255.748V79.71C255.748 80.5407 255.954 81.1753 256.364 81.614C256.784 82.0527 257.354 82.272 258.072 82.272C258.81 82.272 259.398 82.0387 259.836 81.572C260.275 81.1053 260.494 80.4193 260.494 79.514V75.356H261.474ZM272.812 75.216C273.708 75.216 274.436 75.5007 274.996 76.07C275.565 76.63 275.85 77.4467 275.85 78.52V83H274.884V78.632C274.884 77.8013 274.683 77.1667 274.282 76.728C273.88 76.2893 273.334 76.07 272.644 76.07C271.925 76.07 271.351 76.308 270.922 76.784C270.492 77.26 270.278 77.9507 270.278 78.856V83H269.312V78.632C269.312 77.8013 269.111 77.1667 268.71 76.728C268.308 76.2893 267.758 76.07 267.058 76.07C266.339 76.07 265.765 76.308 265.336 76.784C264.906 77.26 264.692 77.9507 264.692 78.856V83H263.712V75.356H264.692V76.672C264.934 76.196 265.28 75.8367 265.728 75.594C266.176 75.342 266.675 75.216 267.226 75.216C267.888 75.216 268.467 75.3747 268.962 75.692C269.466 76.0093 269.83 76.476 270.054 77.092C270.259 76.4853 270.609 76.0233 271.104 75.706C271.608 75.3793 272.177 75.216 272.812 75.216ZM284.942 78.786C284.942 79.122 284.933 79.3787 284.914 79.556H278.572C278.6 80.1347 278.74 80.6293 278.992 81.04C279.244 81.4507 279.576 81.7633 279.986 81.978C280.397 82.1833 280.845 82.286 281.33 82.286C281.965 82.286 282.497 82.132 282.926 81.824C283.365 81.516 283.654 81.1007 283.794 80.578H284.83C284.644 81.3247 284.242 81.936 283.626 82.412C283.02 82.8787 282.254 83.112 281.33 83.112C280.612 83.112 279.968 82.9533 279.398 82.636C278.829 82.3093 278.381 81.852 278.054 81.264C277.737 80.6667 277.578 79.9713 277.578 79.178C277.578 78.3847 277.737 77.6893 278.054 77.092C278.372 76.4947 278.815 76.0373 279.384 75.72C279.954 75.4027 280.602 75.244 281.33 75.244C282.058 75.244 282.693 75.4027 283.234 75.72C283.785 76.0373 284.205 76.4667 284.494 77.008C284.793 77.54 284.942 78.1327 284.942 78.786ZM283.948 78.758C283.958 78.1887 283.841 77.7033 283.598 77.302C283.365 76.9007 283.043 76.5973 282.632 76.392C282.222 76.1867 281.774 76.084 281.288 76.084C280.56 76.084 279.94 76.3173 279.426 76.784C278.913 77.2507 278.628 77.9087 278.572 78.758H283.948ZM290.319 75.216C291.234 75.216 291.981 75.5007 292.559 76.07C293.138 76.63 293.427 77.4467 293.427 78.52V83H292.461V78.632C292.461 77.8013 292.251 77.1667 291.831 76.728C291.421 76.2893 290.856 76.07 290.137 76.07C289.4 76.07 288.812 76.3033 288.373 76.77C287.935 77.2367 287.715 77.9227 287.715 78.828V83H286.735V75.356H287.715V76.658C287.958 76.1913 288.308 75.8367 288.765 75.594C289.223 75.342 289.741 75.216 290.319 75.216ZM296.869 76.182V80.928C296.869 81.3947 296.957 81.7167 297.135 81.894C297.312 82.0713 297.625 82.16 298.073 82.16H298.969V83H297.919C297.228 83 296.715 82.8413 296.379 82.524C296.043 82.1973 295.875 81.6653 295.875 80.928V76.182H294.811V75.356H295.875V73.438H296.869V75.356H298.969V76.182H296.869ZM311.049 75.356V83H310.069V81.656C309.845 82.132 309.499 82.496 309.033 82.748C308.566 83 308.043 83.126 307.465 83.126C306.55 83.126 305.803 82.846 305.225 82.286C304.646 81.7167 304.357 80.8953 304.357 79.822V75.356H305.323V79.71C305.323 80.5407 305.528 81.1753 305.939 81.614C306.359 82.0527 306.928 82.272 307.647 82.272C308.384 82.272 308.972 82.0387 309.411 81.572C309.849 81.1053 310.069 80.4193 310.069 79.514V75.356H311.049ZM314.252 77.036C314.495 76.5227 314.877 76.098 315.4 75.762C315.932 75.4167 316.562 75.244 317.29 75.244C317.981 75.244 318.601 75.4073 319.152 75.734C319.712 76.0513 320.146 76.5087 320.454 77.106C320.771 77.694 320.93 78.38 320.93 79.164C320.93 79.948 320.771 80.6387 320.454 81.236C320.146 81.8333 319.712 82.2953 319.152 82.622C318.601 82.9487 317.981 83.112 317.29 83.112C316.571 83.112 315.946 82.944 315.414 82.608C314.882 82.2627 314.495 81.8333 314.252 81.32V86.612H313.286V75.356H314.252V77.036ZM319.936 79.164C319.936 78.5293 319.81 77.9833 319.558 77.526C319.315 77.0593 318.979 76.7047 318.55 76.462C318.121 76.2193 317.635 76.098 317.094 76.098C316.571 76.098 316.091 76.224 315.652 76.476C315.223 76.728 314.882 77.0873 314.63 77.554C314.378 78.0207 314.252 78.562 314.252 79.178C314.252 79.794 314.378 80.3353 314.63 80.802C314.882 81.2687 315.223 81.628 315.652 81.88C316.091 82.132 316.571 82.258 317.094 82.258C317.635 82.258 318.121 82.1367 318.55 81.894C318.979 81.642 319.315 81.2827 319.558 80.816C319.81 80.34 319.936 79.7893 319.936 79.164ZM323.713 72.64V83H322.733V72.64H323.713ZM329.279 83.112C328.56 83.112 327.911 82.9533 327.333 82.636C326.763 82.3093 326.311 81.852 325.975 81.264C325.648 80.6667 325.485 79.9713 325.485 79.178C325.485 78.3847 325.653 77.694 325.989 77.106C326.325 76.5087 326.782 76.0513 327.361 75.734C327.939 75.4073 328.588 75.244 329.307 75.244C330.025 75.244 330.674 75.4073 331.253 75.734C331.841 76.0513 332.298 76.5087 332.625 77.106C332.961 77.694 333.129 78.3847 333.129 79.178C333.129 79.962 332.961 80.6527 332.625 81.25C332.289 81.8473 331.827 82.3093 331.239 82.636C330.651 82.9533 329.997 83.112 329.279 83.112ZM329.279 82.258C329.783 82.258 330.249 82.146 330.679 81.922C331.108 81.6887 331.453 81.3433 331.715 80.886C331.985 80.4193 332.121 79.85 332.121 79.178C332.121 78.506 331.99 77.9413 331.729 77.484C331.467 77.0173 331.122 76.672 330.693 76.448C330.263 76.2147 329.797 76.098 329.293 76.098C328.789 76.098 328.322 76.2147 327.893 76.448C327.463 76.672 327.118 77.0173 326.857 77.484C326.605 77.9413 326.479 78.506 326.479 79.178C326.479 79.85 326.605 80.4193 326.857 80.886C327.118 81.3433 327.459 81.6887 327.879 81.922C328.308 82.146 328.775 82.258 329.279 82.258ZM334.467 79.164C334.467 78.38 334.621 77.694 334.929 77.106C335.246 76.5087 335.68 76.0513 336.231 75.734C336.791 75.4073 337.421 75.244 338.121 75.244C338.849 75.244 339.474 75.412 339.997 75.748C340.529 76.084 340.912 76.5133 341.145 77.036V75.356H342.125V83H341.145V81.306C340.902 81.8287 340.515 82.2627 339.983 82.608C339.46 82.944 338.835 83.112 338.107 83.112C337.416 83.112 336.791 82.9487 336.231 82.622C335.68 82.2953 335.246 81.8333 334.929 81.236C334.621 80.6387 334.467 79.948 334.467 79.164ZM341.145 79.178C341.145 78.562 341.019 78.0207 340.767 77.554C340.515 77.0873 340.17 76.728 339.731 76.476C339.302 76.224 338.826 76.098 338.303 76.098C337.762 76.098 337.276 76.2193 336.847 76.462C336.418 76.7047 336.077 77.0593 335.825 77.526C335.582 77.9833 335.461 78.5293 335.461 79.164C335.461 79.7893 335.582 80.34 335.825 80.816C336.077 81.2827 336.418 81.642 336.847 81.894C337.276 82.1367 337.762 82.258 338.303 82.258C338.826 82.258 339.302 82.132 339.731 81.88C340.17 81.628 340.515 81.2687 340.767 80.802C341.019 80.3353 341.145 79.794 341.145 79.178ZM343.914 79.164C343.914 78.38 344.073 77.694 344.39 77.106C344.708 76.5087 345.142 76.0513 345.692 75.734C346.252 75.4073 346.882 75.244 347.582 75.244C348.254 75.244 348.861 75.4073 349.402 75.734C349.944 76.0607 350.34 76.4853 350.592 77.008V72.64H351.572V83H350.592V81.292C350.359 81.824 349.976 82.2627 349.444 82.608C348.912 82.944 348.287 83.112 347.568 83.112C346.868 83.112 346.238 82.9487 345.678 82.622C345.128 82.2953 344.694 81.8333 344.376 81.236C344.068 80.6387 343.914 79.948 343.914 79.164ZM350.592 79.178C350.592 78.562 350.466 78.0207 350.214 77.554C349.962 77.0873 349.617 76.728 349.178 76.476C348.749 76.224 348.273 76.098 347.75 76.098C347.209 76.098 346.724 76.2193 346.294 76.462C345.865 76.7047 345.524 77.0593 345.272 77.526C345.03 77.9833 344.908 78.5293 344.908 79.164C344.908 79.7893 345.03 80.34 345.272 80.816C345.524 81.2827 345.865 81.642 346.294 81.894C346.724 82.1367 347.209 82.258 347.75 82.258C348.273 82.258 348.749 82.132 349.178 81.88C349.617 81.628 349.962 81.2687 350.214 80.802C350.466 80.3353 350.592 79.794 350.592 79.178Z" fill="#6B7280"/>
<rect x="40.5" y="110.5" width="35" height="35" rx="17.5" stroke="#E8F3FD" stroke-width="3"/>
<rect x="43" y="113" width="30" height="30" rx="15" stroke="#A4CEF5" stroke-width="2"/>
<path d="M54.968 131.52C55.992 130.635 56.7973 129.909 57.384 129.344C57.9813 128.768 58.4773 128.171 58.872 127.552C59.2667 126.933 59.464 126.315 59.464 125.696C59.464 125.056 59.3093 124.555 59 124.192C58.7013 123.829 58.2267 123.648 57.576 123.648C56.9467 123.648 56.456 123.851 56.104 124.256C55.7627 124.651 55.5813 125.184 55.56 125.856H53.8C53.832 124.64 54.1947 123.712 54.888 123.072C55.592 122.421 56.4827 122.096 57.56 122.096C58.7227 122.096 59.6293 122.416 60.28 123.056C60.9413 123.696 61.272 124.549 61.272 125.616C61.272 126.384 61.0747 127.125 60.68 127.84C60.296 128.544 59.832 129.179 59.288 129.744C58.7547 130.299 58.072 130.944 57.24 131.68L56.52 132.32H61.592V133.84H53.816V132.512L54.968 131.52Z" fill="#1B84E7"/>
<rect x="57" y="144" width="2" height="40" fill="#D0D5DD"/>
<path d="M89.152 124.288C89.7493 124.395 90.256 124.709 90.672 125.232C91.088 125.755 91.296 126.347 91.296 127.008C91.296 127.573 91.1467 128.085 90.848 128.544C90.56 128.992 90.1387 129.349 89.584 129.616C89.0293 129.872 88.384 130 87.648 130H83.2V118.88H87.44C88.1973 118.88 88.848 119.008 89.392 119.264C89.936 119.52 90.3467 119.867 90.624 120.304C90.9013 120.731 91.04 121.211 91.04 121.744C91.04 122.384 90.8693 122.917 90.528 123.344C90.1867 123.771 89.728 124.085 89.152 124.288ZM85.024 123.552H87.28C87.8773 123.552 88.3413 123.419 88.672 123.152C89.0133 122.875 89.184 122.48 89.184 121.968C89.184 121.467 89.0133 121.077 88.672 120.8C88.3413 120.512 87.8773 120.368 87.28 120.368H85.024V123.552ZM87.488 128.512C88.1067 128.512 88.592 128.363 88.944 128.064C89.296 127.765 89.472 127.349 89.472 126.816C89.472 126.272 89.2853 125.84 88.912 125.52C88.5387 125.2 88.0427 125.04 87.424 125.04H85.024V128.512H87.488ZM97.1021 130.144C96.2701 130.144 95.5181 129.957 94.8461 129.584C94.1741 129.2 93.6461 128.667 93.2621 127.984C92.8781 127.291 92.6861 126.491 92.6861 125.584C92.6861 124.688 92.8835 123.893 93.2781 123.2C93.6728 122.507 94.2115 121.973 94.8941 121.6C95.5768 121.227 96.3395 121.04 97.1821 121.04C98.0248 121.04 98.7875 121.227 99.4701 121.6C100.153 121.973 100.691 122.507 101.086 123.2C101.481 123.893 101.678 124.688 101.678 125.584C101.678 126.48 101.475 127.275 101.07 127.968C100.665 128.661 100.11 129.2 99.4061 129.584C98.7128 129.957 97.9448 130.144 97.1021 130.144ZM97.1021 128.56C97.5715 128.56 98.0088 128.448 98.4141 128.224C98.8301 128 99.1661 127.664 99.4221 127.216C99.6781 126.768 99.8061 126.224 99.8061 125.584C99.8061 124.944 99.6835 124.405 99.4381 123.968C99.1928 123.52 98.8675 123.184 98.4621 122.96C98.0568 122.736 97.6195 122.624 97.1501 122.624C96.6808 122.624 96.2435 122.736 95.8381 122.96C95.4435 123.184 95.1288 123.52 94.8941 123.968C94.6595 124.405 94.5421 124.944 94.5421 125.584C94.5421 126.533 94.7821 127.269 95.2621 127.792C95.7528 128.304 96.3661 128.56 97.1021 128.56ZM107.305 130.144C106.473 130.144 105.721 129.957 105.049 129.584C104.377 129.2 103.849 128.667 103.465 127.984C103.081 127.291 102.889 126.491 102.889 125.584C102.889 124.688 103.087 123.893 103.481 123.2C103.876 122.507 104.415 121.973 105.097 121.6C105.78 121.227 106.543 121.04 107.385 121.04C108.228 121.04 108.991 121.227 109.673 121.6C110.356 121.973 110.895 122.507 111.289 123.2C111.684 123.893 111.881 124.688 111.881 125.584C111.881 126.48 111.679 127.275 111.273 127.968C110.868 128.661 110.313 129.2 109.609 129.584C108.916 129.957 108.148 130.144 107.305 130.144ZM107.305 128.56C107.775 128.56 108.212 128.448 108.617 128.224C109.033 128 109.369 127.664 109.625 127.216C109.881 126.768 110.009 126.224 110.009 125.584C110.009 124.944 109.887 124.405 109.641 123.968C109.396 123.52 109.071 123.184 108.665 122.96C108.26 122.736 107.823 122.624 107.353 122.624C106.884 122.624 106.447 122.736 106.041 122.96C105.647 123.184 105.332 123.52 105.097 123.968C104.863 124.405 104.745 124.944 104.745 125.584C104.745 126.533 104.985 127.269 105.465 127.792C105.956 128.304 106.569 128.56 107.305 128.56ZM117.172 125.6L121.236 130H118.772L115.508 126.208V130H113.684V118.16H115.508V125.04L118.708 121.184H121.236L117.172 125.6ZM123.472 120.016C123.141 120.016 122.864 119.904 122.64 119.68C122.416 119.456 122.304 119.179 122.304 118.848C122.304 118.517 122.416 118.24 122.64 118.016C122.864 117.792 123.141 117.68 123.472 117.68C123.792 117.68 124.064 117.792 124.288 118.016C124.512 118.24 124.624 118.517 124.624 118.848C124.624 119.179 124.512 119.456 124.288 119.68C124.064 119.904 123.792 120.016 123.472 120.016ZM124.368 121.184V130H122.544V121.184H124.368ZM131.211 121.04C131.904 121.04 132.523 121.184 133.067 121.472C133.621 121.76 134.053 122.187 134.363 122.752C134.672 123.317 134.827 124 134.827 124.8V130H133.019V125.072C133.019 124.283 132.821 123.68 132.427 123.264C132.032 122.837 131.493 122.624 130.811 122.624C130.128 122.624 129.584 122.837 129.179 123.264C128.784 123.68 128.587 124.283 128.587 125.072V130H126.763V121.184H128.587V122.192C128.885 121.829 129.264 121.547 129.723 121.344C130.192 121.141 130.688 121.04 131.211 121.04ZM140.705 121.04C141.388 121.04 141.99 121.179 142.513 121.456C143.046 121.723 143.462 122.059 143.761 122.464V121.184H145.601V130.144C145.601 130.955 145.43 131.675 145.089 132.304C144.748 132.944 144.252 133.445 143.601 133.808C142.961 134.171 142.193 134.352 141.297 134.352C140.102 134.352 139.11 134.069 138.321 133.504C137.532 132.949 137.084 132.192 136.977 131.232H138.785C138.924 131.691 139.217 132.059 139.665 132.336C140.124 132.624 140.668 132.768 141.297 132.768C142.033 132.768 142.625 132.544 143.073 132.096C143.532 131.648 143.761 130.997 143.761 130.144V128.672C143.452 129.088 143.03 129.44 142.497 129.728C141.974 130.005 141.377 130.144 140.705 130.144C139.937 130.144 139.233 129.952 138.593 129.568C137.964 129.173 137.462 128.629 137.089 127.936C136.726 127.232 136.545 126.437 136.545 125.552C136.545 124.667 136.726 123.883 137.089 123.2C137.462 122.517 137.964 121.989 138.593 121.616C139.233 121.232 139.937 121.04 140.705 121.04ZM143.761 125.584C143.761 124.976 143.633 124.448 143.377 124C143.132 123.552 142.806 123.211 142.401 122.976C141.996 122.741 141.558 122.624 141.089 122.624C140.62 122.624 140.182 122.741 139.777 122.976C139.372 123.2 139.041 123.536 138.785 123.984C138.54 124.421 138.417 124.944 138.417 125.552C138.417 126.16 138.54 126.693 138.785 127.152C139.041 127.611 139.372 127.963 139.777 128.208C140.193 128.443 140.63 128.56 141.089 128.56C141.558 128.56 141.996 128.443 142.401 128.208C142.806 127.973 143.132 127.632 143.377 127.184C143.633 126.725 143.761 126.192 143.761 125.584ZM155.785 118.88C156.969 118.88 158.004 119.109 158.889 119.568C159.785 120.016 160.473 120.667 160.953 121.52C161.444 122.363 161.689 123.349 161.689 124.48C161.689 125.611 161.444 126.592 160.953 127.424C160.473 128.256 159.785 128.896 158.889 129.344C158.004 129.781 156.969 130 155.785 130H152.153V118.88H155.785ZM155.785 128.512C157.086 128.512 158.084 128.16 158.777 127.456C159.47 126.752 159.817 125.76 159.817 124.48C159.817 123.189 159.47 122.181 158.777 121.456C158.084 120.731 157.086 120.368 155.785 120.368H153.977V128.512H155.785ZM171.577 125.376C171.577 125.707 171.556 126.005 171.513 126.272H164.777C164.83 126.976 165.092 127.541 165.561 127.968C166.03 128.395 166.606 128.608 167.289 128.608C168.27 128.608 168.964 128.197 169.369 127.376H171.337C171.07 128.187 170.585 128.853 169.881 129.376C169.188 129.888 168.324 130.144 167.289 130.144C166.446 130.144 165.689 129.957 165.017 129.584C164.356 129.2 163.833 128.667 163.449 127.984C163.076 127.291 162.889 126.491 162.889 125.584C162.889 124.677 163.07 123.883 163.433 123.2C163.806 122.507 164.324 121.973 164.985 121.6C165.657 121.227 166.425 121.04 167.289 121.04C168.121 121.04 168.862 121.221 169.513 121.584C170.164 121.947 170.67 122.459 171.033 123.12C171.396 123.771 171.577 124.523 171.577 125.376ZM169.673 124.8C169.662 124.128 169.422 123.589 168.953 123.184C168.484 122.779 167.902 122.576 167.209 122.576C166.58 122.576 166.041 122.779 165.593 123.184C165.145 123.579 164.878 124.117 164.793 124.8H169.673ZM175.5 122.672V127.552C175.5 127.883 175.575 128.123 175.724 128.272C175.884 128.411 176.151 128.48 176.524 128.48H177.644V130H176.204C175.383 130 174.753 129.808 174.316 129.424C173.879 129.04 173.66 128.416 173.66 127.552V122.672H172.62V121.184H173.66V118.992H175.5V121.184H177.644V122.672H175.5ZM178.717 125.552C178.717 124.667 178.898 123.883 179.261 123.2C179.634 122.517 180.136 121.989 180.765 121.616C181.405 121.232 182.109 121.04 182.877 121.04C183.57 121.04 184.173 121.179 184.685 121.456C185.208 121.723 185.624 122.059 185.933 122.464V121.184H187.773V130H185.933V128.688C185.624 129.104 185.202 129.451 184.669 129.728C184.136 130.005 183.528 130.144 182.845 130.144C182.088 130.144 181.394 129.952 180.765 129.568C180.136 129.173 179.634 128.629 179.261 127.936C178.898 127.232 178.717 126.437 178.717 125.552ZM185.933 125.584C185.933 124.976 185.805 124.448 185.549 124C185.304 123.552 184.978 123.211 184.573 122.976C184.168 122.741 183.73 122.624 183.261 122.624C182.792 122.624 182.354 122.741 181.949 122.976C181.544 123.2 181.213 123.536 180.957 123.984C180.712 124.421 180.589 124.944 180.589 125.552C180.589 126.16 180.712 126.693 180.957 127.152C181.213 127.611 181.544 127.963 181.949 128.208C182.365 128.443 182.802 128.56 183.261 128.56C183.73 128.56 184.168 128.443 184.573 128.208C184.978 127.973 185.304 127.632 185.549 127.184C185.805 126.725 185.933 126.192 185.933 125.584ZM191.097 120.016C190.766 120.016 190.489 119.904 190.265 119.68C190.041 119.456 189.929 119.179 189.929 118.848C189.929 118.517 190.041 118.24 190.265 118.016C190.489 117.792 190.766 117.68 191.097 117.68C191.417 117.68 191.689 117.792 191.913 118.016C192.137 118.24 192.249 118.517 192.249 118.848C192.249 119.179 192.137 119.456 191.913 119.68C191.689 119.904 191.417 120.016 191.097 120.016ZM191.993 121.184V130H190.169V121.184H191.993ZM196.212 118.16V130H194.388V118.16H196.212ZM201.806 130.144C201.113 130.144 200.489 130.021 199.934 129.776C199.39 129.52 198.958 129.179 198.638 128.752C198.318 128.315 198.148 127.829 198.126 127.296H200.014C200.046 127.669 200.222 127.984 200.542 128.24C200.873 128.485 201.284 128.608 201.774 128.608C202.286 128.608 202.681 128.512 202.958 128.32C203.246 128.117 203.39 127.861 203.39 127.552C203.39 127.221 203.23 126.976 202.91 126.816C202.601 126.656 202.105 126.48 201.422 126.288C200.761 126.107 200.222 125.931 199.806 125.76C199.39 125.589 199.028 125.328 198.718 124.976C198.42 124.624 198.27 124.16 198.27 123.584C198.27 123.115 198.409 122.688 198.686 122.304C198.964 121.909 199.358 121.6 199.87 121.376C200.393 121.152 200.99 121.04 201.662 121.04C202.665 121.04 203.47 121.296 204.078 121.808C204.697 122.309 205.028 122.997 205.07 123.872H203.246C203.214 123.477 203.054 123.163 202.766 122.928C202.478 122.693 202.089 122.576 201.598 122.576C201.118 122.576 200.75 122.667 200.494 122.848C200.238 123.029 200.11 123.269 200.11 123.568C200.11 123.803 200.196 124 200.366 124.16C200.537 124.32 200.745 124.448 200.99 124.544C201.236 124.629 201.598 124.741 202.078 124.88C202.718 125.051 203.241 125.227 203.646 125.408C204.062 125.579 204.42 125.835 204.718 126.176C205.017 126.517 205.172 126.971 205.182 127.536C205.182 128.037 205.044 128.485 204.766 128.88C204.489 129.275 204.094 129.584 203.582 129.808C203.081 130.032 202.489 130.144 201.806 130.144Z" fill="#1B84E7"/>
<path d="M87.698 149.946C88.2487 150.049 88.7153 150.329 89.098 150.786C89.4807 151.243 89.672 151.775 89.672 152.382C89.672 152.877 89.546 153.325 89.294 153.726C89.0513 154.118 88.692 154.431 88.216 154.664C87.74 154.888 87.1707 155 86.508 155H83.12V145.214H86.41C87.3993 145.214 88.1507 145.443 88.664 145.9C89.1867 146.357 89.448 146.95 89.448 147.678C89.448 148.285 89.2847 148.779 88.958 149.162C88.6313 149.535 88.2113 149.797 87.698 149.946ZM84.1 149.54H86.382C87.0447 149.54 87.5533 149.386 87.908 149.078C88.272 148.761 88.454 148.327 88.454 147.776C88.454 147.235 88.272 146.81 87.908 146.502C87.5533 146.194 87.0307 146.04 86.34 146.04H84.1V149.54ZM86.438 154.174C87.1473 154.174 87.698 154.006 88.09 153.67C88.4913 153.334 88.692 152.872 88.692 152.284C88.692 151.696 88.482 151.229 88.062 150.884C87.6513 150.529 87.096 150.352 86.396 150.352H84.1V154.174H86.438ZM92.4535 148.714C92.6682 148.238 92.9948 147.869 93.4335 147.608C93.8815 147.347 94.4275 147.216 95.0715 147.216V148.238H94.8055C94.0962 148.238 93.5268 148.429 93.0975 148.812C92.6682 149.195 92.4535 149.834 92.4535 150.73V155H91.4735V147.356H92.4535V148.714ZM96.0978 151.164C96.0978 150.38 96.2518 149.694 96.5598 149.106C96.8771 148.509 97.3111 148.051 97.8618 147.734C98.4218 147.407 99.0518 147.244 99.7518 147.244C100.48 147.244 101.105 147.412 101.628 147.748C102.16 148.084 102.542 148.513 102.776 149.036V147.356H103.756V155H102.776V153.306C102.533 153.829 102.146 154.263 101.614 154.608C101.091 154.944 100.466 155.112 99.7378 155.112C99.0471 155.112 98.4218 154.949 97.8618 154.622C97.3111 154.295 96.8771 153.833 96.5598 153.236C96.2518 152.639 96.0978 151.948 96.0978 151.164ZM102.776 151.178C102.776 150.562 102.65 150.021 102.398 149.554C102.146 149.087 101.8 148.728 101.362 148.476C100.932 148.224 100.456 148.098 99.9338 148.098C99.3924 148.098 98.9071 148.219 98.4778 148.462C98.0484 148.705 97.7078 149.059 97.4558 149.526C97.2131 149.983 97.0918 150.529 97.0918 151.164C97.0918 151.789 97.2131 152.34 97.4558 152.816C97.7078 153.283 98.0484 153.642 98.4778 153.894C98.9071 154.137 99.3924 154.258 99.9338 154.258C100.456 154.258 100.932 154.132 101.362 153.88C101.8 153.628 102.146 153.269 102.398 152.802C102.65 152.335 102.776 151.794 102.776 151.178ZM109.577 147.216C110.492 147.216 111.238 147.501 111.817 148.07C112.396 148.63 112.685 149.447 112.685 150.52V155H111.719V150.632C111.719 149.801 111.509 149.167 111.089 148.728C110.678 148.289 110.114 148.07 109.395 148.07C108.658 148.07 108.07 148.303 107.631 148.77C107.192 149.237 106.973 149.923 106.973 150.828V155H105.993V147.356H106.973V148.658C107.216 148.191 107.566 147.837 108.023 147.594C108.48 147.342 108.998 147.216 109.577 147.216ZM114.404 151.178C114.404 150.385 114.563 149.694 114.88 149.106C115.198 148.509 115.636 148.051 116.196 147.734C116.756 147.407 117.396 147.244 118.114 147.244C119.057 147.244 119.832 147.477 120.438 147.944C121.054 148.411 121.451 149.045 121.628 149.848H120.578C120.448 149.297 120.163 148.868 119.724 148.56C119.295 148.243 118.758 148.084 118.114 148.084C117.601 148.084 117.139 148.201 116.728 148.434C116.318 148.667 115.991 149.017 115.748 149.484C115.515 149.941 115.398 150.506 115.398 151.178C115.398 151.85 115.515 152.419 115.748 152.886C115.991 153.353 116.318 153.703 116.728 153.936C117.139 154.169 117.601 154.286 118.114 154.286C118.758 154.286 119.295 154.132 119.724 153.824C120.163 153.507 120.448 153.068 120.578 152.508H121.628C121.451 153.292 121.054 153.922 120.438 154.398C119.822 154.874 119.048 155.112 118.114 155.112C117.396 155.112 116.756 154.953 116.196 154.636C115.636 154.309 115.198 153.852 114.88 153.264C114.563 152.667 114.404 151.971 114.404 151.178ZM127.078 147.216C127.657 147.216 128.175 147.337 128.632 147.58C129.099 147.823 129.463 148.196 129.724 148.7C129.995 149.195 130.13 149.801 130.13 150.52V155H129.164V150.632C129.164 149.801 128.954 149.167 128.534 148.728C128.124 148.289 127.559 148.07 126.84 148.07C126.103 148.07 125.515 148.303 125.076 148.77C124.638 149.237 124.418 149.923 124.418 150.828V155H123.438V144.64H124.418V148.658C124.661 148.201 125.016 147.846 125.482 147.594C125.958 147.342 126.49 147.216 127.078 147.216ZM133.194 153.376L131.738 157.044H131.066L132.102 153.376H133.194ZM138.111 151.164C138.111 150.38 138.27 149.694 138.587 149.106C138.905 148.509 139.339 148.051 139.889 147.734C140.449 147.407 141.079 147.244 141.779 147.244C142.451 147.244 143.058 147.407 143.599 147.734C144.141 148.061 144.537 148.485 144.789 149.008V144.64H145.769V155H144.789V153.292C144.556 153.824 144.173 154.263 143.641 154.608C143.109 154.944 142.484 155.112 141.765 155.112C141.065 155.112 140.435 154.949 139.875 154.622C139.325 154.295 138.891 153.833 138.573 153.236C138.265 152.639 138.111 151.948 138.111 151.164ZM144.789 151.178C144.789 150.562 144.663 150.021 144.411 149.554C144.159 149.087 143.814 148.728 143.375 148.476C142.946 148.224 142.47 148.098 141.947 148.098C141.406 148.098 140.921 148.219 140.491 148.462C140.062 148.705 139.721 149.059 139.469 149.526C139.227 149.983 139.105 150.529 139.105 151.164C139.105 151.789 139.227 152.34 139.469 152.816C139.721 153.283 140.062 153.642 140.491 153.894C140.921 154.137 141.406 154.258 141.947 154.258C142.47 154.258 142.946 154.132 143.375 153.88C143.814 153.628 144.159 153.269 144.411 152.802C144.663 152.335 144.789 151.794 144.789 151.178ZM147.559 151.164C147.559 150.38 147.713 149.694 148.021 149.106C148.338 148.509 148.772 148.051 149.323 147.734C149.883 147.407 150.513 147.244 151.213 147.244C151.941 147.244 152.566 147.412 153.089 147.748C153.621 148.084 154.003 148.513 154.237 149.036V147.356H155.217V155H154.237V153.306C153.994 153.829 153.607 154.263 153.075 154.608C152.552 154.944 151.927 155.112 151.199 155.112C150.508 155.112 149.883 154.949 149.323 154.622C148.772 154.295 148.338 153.833 148.021 153.236C147.713 152.639 147.559 151.948 147.559 151.164ZM154.237 151.178C154.237 150.562 154.111 150.021 153.859 149.554C153.607 149.087 153.261 148.728 152.823 148.476C152.393 148.224 151.917 148.098 151.395 148.098C150.853 148.098 150.368 148.219 149.939 148.462C149.509 148.705 149.169 149.059 148.917 149.526C148.674 149.983 148.553 150.529 148.553 151.164C148.553 151.789 148.674 152.34 148.917 152.816C149.169 153.283 149.509 153.642 149.939 153.894C150.368 154.137 150.853 154.258 151.395 154.258C151.917 154.258 152.393 154.132 152.823 153.88C153.261 153.628 153.607 153.269 153.859 152.802C154.111 152.335 154.237 151.794 154.237 151.178ZM158.728 148.182V152.928C158.728 153.395 158.817 153.717 158.994 153.894C159.171 154.071 159.484 154.16 159.932 154.16H160.828V155H159.778C159.087 155 158.574 154.841 158.238 154.524C157.902 154.197 157.734 153.665 157.734 152.928V148.182H156.67V147.356H157.734V145.438H158.728V147.356H160.828V148.182H158.728ZM169.36 150.786C169.36 151.122 169.351 151.379 169.332 151.556H162.99C163.018 152.135 163.158 152.629 163.41 153.04C163.662 153.451 163.994 153.763 164.404 153.978C164.815 154.183 165.263 154.286 165.748 154.286C166.383 154.286 166.915 154.132 167.344 153.824C167.783 153.516 168.072 153.101 168.212 152.578H169.248C169.062 153.325 168.66 153.936 168.044 154.412C167.438 154.879 166.672 155.112 165.748 155.112C165.03 155.112 164.386 154.953 163.816 154.636C163.247 154.309 162.799 153.852 162.472 153.264C162.155 152.667 161.996 151.971 161.996 151.178C161.996 150.385 162.155 149.689 162.472 149.092C162.79 148.495 163.233 148.037 163.802 147.72C164.372 147.403 165.02 147.244 165.748 147.244C166.476 147.244 167.111 147.403 167.652 147.72C168.203 148.037 168.623 148.467 168.912 149.008C169.211 149.54 169.36 150.133 169.36 150.786ZM168.366 150.758C168.376 150.189 168.259 149.703 168.016 149.302C167.783 148.901 167.461 148.597 167.05 148.392C166.64 148.187 166.192 148.084 165.706 148.084C164.978 148.084 164.358 148.317 163.844 148.784C163.331 149.251 163.046 149.909 162.99 150.758H168.366ZM174.547 151.164C174.547 150.38 174.701 149.694 175.009 149.106C175.326 148.509 175.76 148.051 176.311 147.734C176.871 147.407 177.501 147.244 178.201 147.244C178.929 147.244 179.554 147.412 180.077 147.748C180.609 148.084 180.992 148.513 181.225 149.036V147.356H182.205V155H181.225V153.306C180.982 153.829 180.595 154.263 180.063 154.608C179.54 154.944 178.915 155.112 178.187 155.112C177.496 155.112 176.871 154.949 176.311 154.622C175.76 154.295 175.326 153.833 175.009 153.236C174.701 152.639 174.547 151.948 174.547 151.164ZM181.225 151.178C181.225 150.562 181.099 150.021 180.847 149.554C180.595 149.087 180.25 148.728 179.811 148.476C179.382 148.224 178.906 148.098 178.383 148.098C177.842 148.098 177.356 148.219 176.927 148.462C176.498 148.705 176.157 149.059 175.905 149.526C175.662 149.983 175.541 150.529 175.541 151.164C175.541 151.789 175.662 152.34 175.905 152.816C176.157 153.283 176.498 153.642 176.927 153.894C177.356 154.137 177.842 154.258 178.383 154.258C178.906 154.258 179.382 154.132 179.811 153.88C180.25 153.628 180.595 153.269 180.847 152.802C181.099 152.335 181.225 151.794 181.225 151.178ZM188.026 147.216C188.941 147.216 189.688 147.501 190.266 148.07C190.845 148.63 191.134 149.447 191.134 150.52V155H190.168V150.632C190.168 149.801 189.958 149.167 189.538 148.728C189.128 148.289 188.563 148.07 187.844 148.07C187.107 148.07 186.519 148.303 186.08 148.77C185.642 149.237 185.422 149.923 185.422 150.828V155H184.442V147.356H185.422V148.658C185.665 148.191 186.015 147.837 186.472 147.594C186.93 147.342 187.448 147.216 188.026 147.216ZM192.854 151.164C192.854 150.38 193.012 149.694 193.33 149.106C193.647 148.509 194.081 148.051 194.632 147.734C195.192 147.407 195.822 147.244 196.522 147.244C197.194 147.244 197.8 147.407 198.342 147.734C198.883 148.061 199.28 148.485 199.532 149.008V144.64H200.512V155H199.532V153.292C199.298 153.824 198.916 154.263 198.384 154.608C197.852 154.944 197.226 155.112 196.508 155.112C195.808 155.112 195.178 154.949 194.618 154.622C194.067 154.295 193.633 153.833 193.316 153.236C193.008 152.639 192.854 151.948 192.854 151.164ZM199.532 151.178C199.532 150.562 199.406 150.021 199.154 149.554C198.902 149.087 198.556 148.728 198.118 148.476C197.688 148.224 197.212 148.098 196.69 148.098C196.148 148.098 195.663 148.219 195.234 148.462C194.804 148.705 194.464 149.059 194.212 149.526C193.969 149.983 193.848 150.529 193.848 151.164C193.848 151.789 193.969 152.34 194.212 152.816C194.464 153.283 194.804 153.642 195.234 153.894C195.663 154.137 196.148 154.258 196.69 154.258C197.212 154.258 197.688 154.132 198.118 153.88C198.556 153.628 198.902 153.269 199.154 152.802C199.406 152.335 199.532 151.794 199.532 151.178ZM207.865 148.182V152.928C207.865 153.395 207.953 153.717 208.131 153.894C208.308 154.071 208.621 154.16 209.069 154.16H209.965V155H208.915C208.224 155 207.711 154.841 207.375 154.524C207.039 154.197 206.871 153.665 206.871 152.928V148.182H205.807V147.356H206.871V145.438H207.865V147.356H209.965V148.182H207.865ZM212.071 145.914C211.875 145.914 211.707 145.844 211.567 145.704C211.427 145.564 211.357 145.391 211.357 145.186C211.357 144.981 211.427 144.813 211.567 144.682C211.707 144.542 211.875 144.472 212.071 144.472C212.267 144.472 212.435 144.542 212.575 144.682C212.715 144.813 212.785 144.981 212.785 145.186C212.785 145.391 212.715 145.564 212.575 145.704C212.435 145.844 212.267 145.914 212.071 145.914ZM212.561 147.356V155H211.581V147.356H212.561ZM223.88 147.216C224.776 147.216 225.504 147.501 226.064 148.07C226.633 148.63 226.918 149.447 226.918 150.52V155H225.952V150.632C225.952 149.801 225.751 149.167 225.35 148.728C224.949 148.289 224.403 148.07 223.712 148.07C222.993 148.07 222.419 148.308 221.99 148.784C221.561 149.26 221.346 149.951 221.346 150.856V155H220.38V150.632C220.38 149.801 220.179 149.167 219.778 148.728C219.377 148.289 218.826 148.07 218.126 148.07C217.407 148.07 216.833 148.308 216.404 148.784C215.975 149.26 215.76 149.951 215.76 150.856V155H214.78V147.356H215.76V148.672C216.003 148.196 216.348 147.837 216.796 147.594C217.244 147.342 217.743 147.216 218.294 147.216C218.957 147.216 219.535 147.375 220.03 147.692C220.534 148.009 220.898 148.476 221.122 149.092C221.327 148.485 221.677 148.023 222.172 147.706C222.676 147.379 223.245 147.216 223.88 147.216ZM236.011 150.786C236.011 151.122 236.001 151.379 235.983 151.556H229.641C229.669 152.135 229.809 152.629 230.061 153.04C230.313 153.451 230.644 153.763 231.055 153.978C231.465 154.183 231.913 154.286 232.399 154.286C233.033 154.286 233.565 154.132 233.995 153.824C234.433 153.516 234.723 153.101 234.863 152.578H235.899C235.712 153.325 235.311 153.936 234.695 154.412C234.088 154.879 233.323 155.112 232.399 155.112C231.68 155.112 231.036 154.953 230.467 154.636C229.897 154.309 229.449 153.852 229.123 153.264C228.805 152.667 228.647 151.971 228.647 151.178C228.647 150.385 228.805 149.689 229.123 149.092C229.44 148.495 229.883 148.037 230.453 147.72C231.022 147.403 231.671 147.244 232.399 147.244C233.127 147.244 233.761 147.403 234.303 147.72C234.853 148.037 235.273 148.467 235.563 149.008C235.861 149.54 236.011 150.133 236.011 150.786ZM235.017 150.758C235.026 150.189 234.909 149.703 234.667 149.302C234.433 148.901 234.111 148.597 233.701 148.392C233.29 148.187 232.842 148.084 232.357 148.084C231.629 148.084 231.008 148.317 230.495 148.784C229.981 149.251 229.697 149.909 229.641 150.758H235.017ZM244.277 155.112C243.4 155.112 242.681 154.911 242.121 154.51C241.571 154.099 241.263 153.544 241.197 152.844H242.205C242.252 153.273 242.453 153.623 242.807 153.894C243.171 154.155 243.657 154.286 244.263 154.286C244.795 154.286 245.211 154.16 245.509 153.908C245.817 153.656 245.971 153.343 245.971 152.97C245.971 152.709 245.887 152.494 245.719 152.326C245.551 152.158 245.337 152.027 245.075 151.934C244.823 151.831 244.478 151.724 244.039 151.612C243.47 151.463 243.008 151.313 242.653 151.164C242.299 151.015 241.995 150.795 241.743 150.506C241.501 150.207 241.379 149.811 241.379 149.316C241.379 148.943 241.491 148.597 241.715 148.28C241.939 147.963 242.257 147.711 242.667 147.524C243.078 147.337 243.545 147.244 244.067 147.244C244.889 147.244 245.551 147.454 246.055 147.874C246.559 148.285 246.83 148.854 246.867 149.582H245.887C245.859 149.134 245.682 148.775 245.355 148.504C245.038 148.224 244.599 148.084 244.039 148.084C243.545 148.084 243.143 148.201 242.835 148.434C242.527 148.667 242.373 148.957 242.373 149.302C242.373 149.601 242.462 149.848 242.639 150.044C242.826 150.231 243.055 150.38 243.325 150.492C243.596 150.595 243.96 150.711 244.417 150.842C244.968 150.991 245.407 151.136 245.733 151.276C246.06 151.416 246.34 151.621 246.573 151.892C246.807 152.163 246.928 152.522 246.937 152.97C246.937 153.381 246.825 153.749 246.601 154.076C246.377 154.393 246.065 154.645 245.663 154.832C245.262 155.019 244.8 155.112 244.277 155.112ZM255.698 150.786C255.698 151.122 255.689 151.379 255.67 151.556H249.328C249.356 152.135 249.496 152.629 249.748 153.04C250 153.451 250.331 153.763 250.742 153.978C251.153 154.183 251.601 154.286 252.086 154.286C252.721 154.286 253.253 154.132 253.682 153.824C254.121 153.516 254.41 153.101 254.55 152.578H255.586C255.399 153.325 254.998 153.936 254.382 154.412C253.775 154.879 253.01 155.112 252.086 155.112C251.367 155.112 250.723 154.953 250.154 154.636C249.585 154.309 249.137 153.852 248.81 153.264C248.493 152.667 248.334 151.971 248.334 151.178C248.334 150.385 248.493 149.689 248.81 149.092C249.127 148.495 249.571 148.037 250.14 147.72C250.709 147.403 251.358 147.244 252.086 147.244C252.814 147.244 253.449 147.403 253.99 147.72C254.541 148.037 254.961 148.467 255.25 149.008C255.549 149.54 255.698 150.133 255.698 150.786ZM254.704 150.758C254.713 150.189 254.597 149.703 254.354 149.302C254.121 148.901 253.799 148.597 253.388 148.392C252.977 148.187 252.529 148.084 252.044 148.084C251.316 148.084 250.695 148.317 250.182 148.784C249.669 149.251 249.384 149.909 249.328 150.758H254.704ZM258.471 144.64V155H257.491V144.64H258.471ZM267.606 150.786C267.606 151.122 267.597 151.379 267.578 151.556H261.236C261.264 152.135 261.404 152.629 261.656 153.04C261.908 153.451 262.24 153.763 262.65 153.978C263.061 154.183 263.509 154.286 263.994 154.286C264.629 154.286 265.161 154.132 265.59 153.824C266.029 153.516 266.318 153.101 266.458 152.578H267.494C267.308 153.325 266.906 153.936 266.29 154.412C265.684 154.879 264.918 155.112 263.994 155.112C263.276 155.112 262.632 154.953 262.062 154.636C261.493 154.309 261.045 153.852 260.718 153.264C260.401 152.667 260.242 151.971 260.242 151.178C260.242 150.385 260.401 149.689 260.718 149.092C261.036 148.495 261.479 148.037 262.048 147.72C262.618 147.403 263.266 147.244 263.994 147.244C264.722 147.244 265.357 147.403 265.898 147.72C266.449 148.037 266.869 148.467 267.158 149.008C267.457 149.54 267.606 150.133 267.606 150.786ZM266.612 150.758C266.622 150.189 266.505 149.703 266.262 149.302C266.029 148.901 265.707 148.597 265.296 148.392C264.886 148.187 264.438 148.084 263.952 148.084C263.224 148.084 262.604 148.317 262.09 148.784C261.577 149.251 261.292 149.909 261.236 150.758H266.612ZM268.951 151.178C268.951 150.385 269.11 149.694 269.427 149.106C269.745 148.509 270.183 148.051 270.743 147.734C271.303 147.407 271.943 147.244 272.661 147.244C273.604 147.244 274.379 147.477 274.985 147.944C275.601 148.411 275.998 149.045 276.175 149.848H275.125C274.995 149.297 274.71 148.868 274.271 148.56C273.842 148.243 273.305 148.084 272.661 148.084C272.148 148.084 271.686 148.201 271.275 148.434C270.865 148.667 270.538 149.017 270.295 149.484C270.062 149.941 269.945 150.506 269.945 151.178C269.945 151.85 270.062 152.419 270.295 152.886C270.538 153.353 270.865 153.703 271.275 153.936C271.686 154.169 272.148 154.286 272.661 154.286C273.305 154.286 273.842 154.132 274.271 153.824C274.71 153.507 274.995 153.068 275.125 152.508H276.175C275.998 153.292 275.601 153.922 274.985 154.398C274.369 154.874 273.595 155.112 272.661 155.112C271.943 155.112 271.303 154.953 270.743 154.636C270.183 154.309 269.745 153.852 269.427 153.264C269.11 152.667 268.951 151.971 268.951 151.178ZM279.259 148.182V152.928C279.259 153.395 279.348 153.717 279.525 153.894C279.703 154.071 280.015 154.16 280.463 154.16H281.359V155H280.309C279.619 155 279.105 154.841 278.769 154.524C278.433 154.197 278.265 153.665 278.265 152.928V148.182H277.201V147.356H278.265V145.438H279.259V147.356H281.359V148.182H279.259ZM283.465 145.914C283.269 145.914 283.101 145.844 282.961 145.704C282.821 145.564 282.751 145.391 282.751 145.186C282.751 144.981 282.821 144.813 282.961 144.682C283.101 144.542 283.269 144.472 283.465 144.472C283.661 144.472 283.829 144.542 283.969 144.682C284.109 144.813 284.179 144.981 284.179 145.186C284.179 145.391 284.109 145.564 283.969 145.704C283.829 145.844 283.661 145.914 283.465 145.914ZM283.955 147.356V155H282.975V147.356H283.955ZM289.521 155.112C288.802 155.112 288.153 154.953 287.575 154.636C287.005 154.309 286.553 153.852 286.217 153.264C285.89 152.667 285.727 151.971 285.727 151.178C285.727 150.385 285.895 149.694 286.231 149.106C286.567 148.509 287.024 148.051 287.603 147.734C288.181 147.407 288.83 147.244 289.549 147.244C290.267 147.244 290.916 147.407 291.495 147.734C292.083 148.051 292.54 148.509 292.867 149.106C293.203 149.694 293.371 150.385 293.371 151.178C293.371 151.962 293.203 152.653 292.867 153.25C292.531 153.847 292.069 154.309 291.481 154.636C290.893 154.953 290.239 155.112 289.521 155.112ZM289.521 154.258C290.025 154.258 290.491 154.146 290.921 153.922C291.35 153.689 291.695 153.343 291.957 152.886C292.227 152.419 292.363 151.85 292.363 151.178C292.363 150.506 292.232 149.941 291.971 149.484C291.709 149.017 291.364 148.672 290.935 148.448C290.505 148.215 290.039 148.098 289.535 148.098C289.031 148.098 288.564 148.215 288.135 148.448C287.705 148.672 287.36 149.017 287.099 149.484C286.847 149.941 286.721 150.506 286.721 151.178C286.721 151.85 286.847 152.419 287.099 152.886C287.36 153.343 287.701 153.689 288.121 153.922C288.55 154.146 289.017 154.258 289.521 154.258ZM298.741 147.216C299.656 147.216 300.402 147.501 300.981 148.07C301.56 148.63 301.849 149.447 301.849 150.52V155H300.883V150.632C300.883 149.801 300.673 149.167 300.253 148.728C299.842 148.289 299.278 148.07 298.559 148.07C297.822 148.07 297.234 148.303 296.795 148.77C296.356 149.237 296.137 149.923 296.137 150.828V155H295.157V147.356H296.137V148.658C296.38 148.191 296.73 147.837 297.187 147.594C297.644 147.342 298.162 147.216 298.741 147.216Z" fill="#6B7280"/>
<rect x="43" y="185" width="30" height="30" rx="15" stroke="#D0D5DD" stroke-width="2"/>
<path d="M53.928 197.216C53.992 196.224 54.3707 195.451 55.064 194.896C55.768 194.341 56.664 194.064 57.752 194.064C58.4987 194.064 59.144 194.197 59.688 194.464C60.232 194.731 60.6427 195.093 60.92 195.552C61.1973 196.011 61.336 196.528 61.336 197.104C61.336 197.765 61.16 198.331 60.808 198.8C60.456 199.269 60.0347 199.584 59.544 199.744V199.808C60.1733 200 60.664 200.352 61.016 200.864C61.368 201.365 61.544 202.011 61.544 202.8C61.544 203.429 61.4 203.989 61.112 204.48C60.824 204.971 60.3973 205.36 59.832 205.648C59.2667 205.925 58.5893 206.064 57.8 206.064C56.648 206.064 55.6987 205.771 54.952 205.184C54.216 204.587 53.8213 203.733 53.768 202.624H55.528C55.5707 203.189 55.7893 203.653 56.184 204.016C56.5787 204.368 57.112 204.544 57.784 204.544C58.4347 204.544 58.936 204.368 59.288 204.016C59.64 203.653 59.816 203.189 59.816 202.624C59.816 201.877 59.576 201.349 59.096 201.04C58.6267 200.72 57.9013 200.56 56.92 200.56H56.504V199.056H56.936C57.8 199.045 58.456 198.901 58.904 198.624C59.3627 198.347 59.592 197.909 59.592 197.312C59.592 196.8 59.4267 196.395 59.096 196.096C58.7653 195.787 58.296 195.632 57.688 195.632C57.0907 195.632 56.6267 195.787 56.296 196.096C55.9653 196.395 55.768 196.768 55.704 197.216H53.928Z" fill="#D0D5DD"/>
<path d="M86.672 202.112C85.936 202.112 85.2853 201.984 84.72 201.728C84.1653 201.472 83.728 201.115 83.408 200.656C83.088 200.197 82.9173 199.685 82.896 199.12H84.08C84.1333 199.664 84.3733 200.144 84.8 200.56C85.2267 200.965 85.8507 201.168 86.672 201.168C87.4293 201.168 88.0267 200.976 88.464 200.592C88.912 200.197 89.136 199.701 89.136 199.104C89.136 198.624 89.0133 198.24 88.768 197.952C88.5227 197.653 88.2187 197.435 87.856 197.296C87.4933 197.147 86.992 196.987 86.352 196.816C85.6053 196.613 85.0133 196.416 84.576 196.224C84.1387 196.032 83.7653 195.733 83.456 195.328C83.1467 194.923 82.992 194.373 82.992 193.68C82.992 193.104 83.1413 192.592 83.44 192.144C83.7387 191.685 84.16 191.328 84.704 191.072C85.248 190.816 85.872 190.688 86.576 190.688C87.6107 190.688 88.4427 190.944 89.072 191.456C89.712 191.957 90.08 192.608 90.176 193.408H88.96C88.8853 192.949 88.6347 192.544 88.208 192.192C87.7813 191.829 87.2053 191.648 86.48 191.648C85.808 191.648 85.248 191.829 84.8 192.192C84.352 192.544 84.128 193.029 84.128 193.648C84.128 194.117 84.2507 194.496 84.496 194.784C84.7413 195.072 85.0453 195.291 85.408 195.44C85.7813 195.589 86.2827 195.749 86.912 195.92C87.6373 196.123 88.224 196.325 88.672 196.528C89.12 196.72 89.4987 197.019 89.808 197.424C90.1173 197.829 90.272 198.373 90.272 199.056C90.272 199.579 90.1333 200.075 89.856 200.544C89.5787 201.013 89.168 201.392 88.624 201.68C88.08 201.968 87.4293 202.112 86.672 202.112ZM100.004 193.264V202H98.8843V200.464C98.6283 201.008 98.2336 201.424 97.7003 201.712C97.1669 202 96.5696 202.144 95.9083 202.144C94.8629 202.144 94.0096 201.824 93.3483 201.184C92.6869 200.533 92.3563 199.595 92.3563 198.368V193.264H93.4603V198.24C93.4603 199.189 93.6949 199.915 94.1643 200.416C94.6443 200.917 95.2949 201.168 96.1163 201.168C96.9589 201.168 97.6309 200.901 98.1323 200.368C98.6336 199.835 98.8843 199.051 98.8843 198.016V193.264H100.004ZM112.961 193.104C113.985 193.104 114.817 193.429 115.457 194.08C116.108 194.72 116.433 195.653 116.433 196.88V202H115.329V197.008C115.329 196.059 115.1 195.333 114.641 194.832C114.183 194.331 113.559 194.08 112.769 194.08C111.948 194.08 111.292 194.352 110.801 194.896C110.311 195.44 110.065 196.229 110.065 197.264V202H108.961V197.008C108.961 196.059 108.732 195.333 108.273 194.832C107.815 194.331 107.185 194.08 106.385 194.08C105.564 194.08 104.908 194.352 104.417 194.896C103.927 195.44 103.681 196.229 103.681 197.264V202H102.561V193.264H103.681V194.768C103.959 194.224 104.353 193.813 104.865 193.536C105.377 193.248 105.948 193.104 106.577 193.104C107.335 193.104 107.996 193.285 108.561 193.648C109.137 194.011 109.553 194.544 109.809 195.248C110.044 194.555 110.444 194.027 111.009 193.664C111.585 193.291 112.236 193.104 112.961 193.104ZM129.321 193.104C130.345 193.104 131.177 193.429 131.817 194.08C132.467 194.72 132.793 195.653 132.793 196.88V202H131.689V197.008C131.689 196.059 131.459 195.333 131.001 194.832C130.542 194.331 129.918 194.08 129.129 194.08C128.307 194.08 127.651 194.352 127.161 194.896C126.67 195.44 126.425 196.229 126.425 197.264V202H125.321V197.008C125.321 196.059 125.091 195.333 124.633 194.832C124.174 194.331 123.545 194.08 122.745 194.08C121.923 194.08 121.267 194.352 120.777 194.896C120.286 195.44 120.041 196.229 120.041 197.264V202H118.921V193.264H120.041V194.768C120.318 194.224 120.713 193.813 121.225 193.536C121.737 193.248 122.307 193.104 122.937 193.104C123.694 193.104 124.355 193.285 124.921 193.648C125.497 194.011 125.913 194.544 126.169 195.248C126.403 194.555 126.803 194.027 127.369 193.664C127.945 193.291 128.595 193.104 129.321 193.104ZM134.768 197.616C134.768 196.72 134.944 195.936 135.296 195.264C135.659 194.581 136.155 194.059 136.784 193.696C137.424 193.323 138.144 193.136 138.944 193.136C139.776 193.136 140.491 193.328 141.088 193.712C141.696 194.096 142.133 194.587 142.4 195.184V193.264H143.52V202H142.4V200.064C142.123 200.661 141.68 201.157 141.072 201.552C140.475 201.936 139.76 202.128 138.928 202.128C138.139 202.128 137.424 201.941 136.784 201.568C136.155 201.195 135.659 200.667 135.296 199.984C134.944 199.301 134.768 198.512 134.768 197.616ZM142.4 197.632C142.4 196.928 142.256 196.309 141.968 195.776C141.68 195.243 141.285 194.832 140.784 194.544C140.293 194.256 139.749 194.112 139.152 194.112C138.533 194.112 137.979 194.251 137.488 194.528C136.997 194.805 136.608 195.211 136.32 195.744C136.043 196.267 135.904 196.891 135.904 197.616C135.904 198.331 136.043 198.96 136.32 199.504C136.608 200.037 136.997 200.448 137.488 200.736C137.979 201.013 138.533 201.152 139.152 201.152C139.749 201.152 140.293 201.008 140.784 200.72C141.285 200.432 141.68 200.021 141.968 199.488C142.256 198.955 142.4 198.336 142.4 197.632ZM147.197 194.816C147.442 194.272 147.816 193.851 148.317 193.552C148.829 193.253 149.453 193.104 150.189 193.104V194.272H149.885C149.074 194.272 148.424 194.491 147.933 194.928C147.442 195.365 147.197 196.096 147.197 197.12V202H146.077V193.264H147.197V194.816ZM159.074 193.264L153.89 206.112H152.722L154.418 201.952L150.834 193.264H152.066L155.042 200.72L157.922 193.264H159.074Z" fill="#98A2B3"/>
<path d="M88.328 227L85.906 222.912H84.1V227H83.12V217.214H86.06C87.152 217.214 87.978 217.475 88.538 217.998C89.1073 218.521 89.392 219.207 89.392 220.056C89.392 220.765 89.1867 221.372 88.776 221.876C88.3747 222.371 87.7773 222.693 86.984 222.842L89.504 227H88.328ZM84.1 222.114H86.074C86.8393 222.114 87.4133 221.927 87.796 221.554C88.188 221.181 88.384 220.681 88.384 220.056C88.384 219.412 88.1973 218.917 87.824 218.572C87.4507 218.217 86.8627 218.04 86.06 218.04H84.1V222.114ZM98.2528 222.786C98.2528 223.122 98.2435 223.379 98.2248 223.556H91.8828C91.9108 224.135 92.0508 224.629 92.3028 225.04C92.5548 225.451 92.8861 225.763 93.2968 225.978C93.7075 226.183 94.1555 226.286 94.6408 226.286C95.2755 226.286 95.8075 226.132 96.2368 225.824C96.6755 225.516 96.9648 225.101 97.1048 224.578H98.1408C97.9541 225.325 97.5528 225.936 96.9368 226.412C96.3301 226.879 95.5648 227.112 94.6408 227.112C93.9221 227.112 93.2781 226.953 92.7088 226.636C92.1395 226.309 91.6915 225.852 91.3648 225.264C91.0475 224.667 90.8888 223.971 90.8888 223.178C90.8888 222.385 91.0475 221.689 91.3648 221.092C91.6821 220.495 92.1255 220.037 92.6948 219.72C93.2641 219.403 93.9128 219.244 94.6408 219.244C95.3688 219.244 96.0035 219.403 96.5448 219.72C97.0955 220.037 97.5155 220.467 97.8048 221.008C98.1035 221.54 98.2528 222.133 98.2528 222.786ZM97.2588 222.758C97.2681 222.189 97.1515 221.703 96.9088 221.302C96.6755 220.901 96.3535 220.597 95.9428 220.392C95.5321 220.187 95.0841 220.084 94.5988 220.084C93.8708 220.084 93.2501 220.317 92.7368 220.784C92.2235 221.251 91.9388 221.909 91.8828 222.758H97.2588ZM102.762 226.048L105.338 219.356H106.374L103.308 227H102.202L99.1358 219.356H100.186L102.762 226.048ZM108.192 217.914C107.996 217.914 107.828 217.844 107.688 217.704C107.548 217.564 107.478 217.391 107.478 217.186C107.478 216.981 107.548 216.813 107.688 216.682C107.828 216.542 107.996 216.472 108.192 216.472C108.388 216.472 108.556 216.542 108.696 216.682C108.836 216.813 108.906 216.981 108.906 217.186C108.906 217.391 108.836 217.564 108.696 217.704C108.556 217.844 108.388 217.914 108.192 217.914ZM108.682 219.356V227H107.702V219.356H108.682ZM117.817 222.786C117.817 223.122 117.808 223.379 117.789 223.556H111.447C111.475 224.135 111.615 224.629 111.867 225.04C112.119 225.451 112.451 225.763 112.861 225.978C113.272 226.183 113.72 226.286 114.205 226.286C114.84 226.286 115.372 226.132 115.801 225.824C116.24 225.516 116.529 225.101 116.669 224.578H117.705C117.519 225.325 117.117 225.936 116.501 226.412C115.895 226.879 115.129 227.112 114.205 227.112C113.487 227.112 112.843 226.953 112.273 226.636C111.704 226.309 111.256 225.852 110.929 225.264C110.612 224.667 110.453 223.971 110.453 223.178C110.453 222.385 110.612 221.689 110.929 221.092C111.247 220.495 111.69 220.037 112.259 219.72C112.829 219.403 113.477 219.244 114.205 219.244C114.933 219.244 115.568 219.403 116.109 219.72C116.66 220.037 117.08 220.467 117.369 221.008C117.668 221.54 117.817 222.133 117.817 222.786ZM116.823 222.758C116.833 222.189 116.716 221.703 116.473 221.302C116.24 220.901 115.918 220.597 115.507 220.392C115.097 220.187 114.649 220.084 114.163 220.084C113.435 220.084 112.815 220.317 112.301 220.784C111.788 221.251 111.503 221.909 111.447 222.758H116.823ZM129.69 219.356L127.296 227H126.316L124.202 220.588L122.088 227H121.094L118.7 219.356H119.694L121.598 226.006L123.74 219.356H124.72L126.834 226.02L128.724 219.356H129.69ZM134.42 223.164C134.42 222.38 134.574 221.694 134.882 221.106C135.199 220.509 135.633 220.051 136.184 219.734C136.744 219.407 137.374 219.244 138.074 219.244C138.802 219.244 139.427 219.412 139.95 219.748C140.482 220.084 140.865 220.513 141.098 221.036V219.356H142.078V227H141.098V225.306C140.855 225.829 140.468 226.263 139.936 226.608C139.413 226.944 138.788 227.112 138.06 227.112C137.369 227.112 136.744 226.949 136.184 226.622C135.633 226.295 135.199 225.833 134.882 225.236C134.574 224.639 134.42 223.948 134.42 223.164ZM141.098 223.178C141.098 222.562 140.972 222.021 140.72 221.554C140.468 221.087 140.123 220.728 139.684 220.476C139.255 220.224 138.779 220.098 138.256 220.098C137.715 220.098 137.229 220.219 136.8 220.462C136.371 220.705 136.03 221.059 135.778 221.526C135.535 221.983 135.414 222.529 135.414 223.164C135.414 223.789 135.535 224.34 135.778 224.816C136.03 225.283 136.371 225.642 136.8 225.894C137.229 226.137 137.715 226.258 138.256 226.258C138.779 226.258 139.255 226.132 139.684 225.88C140.123 225.628 140.468 225.269 140.72 224.802C140.972 224.335 141.098 223.794 141.098 223.178ZM147.899 219.216C148.814 219.216 149.561 219.501 150.139 220.07C150.718 220.63 151.007 221.447 151.007 222.52V227H150.041V222.632C150.041 221.801 149.831 221.167 149.411 220.728C149.001 220.289 148.436 220.07 147.717 220.07C146.98 220.07 146.392 220.303 145.953 220.77C145.515 221.237 145.295 221.923 145.295 222.828V227H144.315V219.356H145.295V220.658C145.538 220.191 145.888 219.837 146.345 219.594C146.803 219.342 147.321 219.216 147.899 219.216ZM152.727 223.164C152.727 222.38 152.885 221.694 153.203 221.106C153.52 220.509 153.954 220.051 154.505 219.734C155.065 219.407 155.695 219.244 156.395 219.244C157.067 219.244 157.673 219.407 158.215 219.734C158.756 220.061 159.153 220.485 159.405 221.008V216.64H160.385V227H159.405V225.292C159.171 225.824 158.789 226.263 158.257 226.608C157.725 226.944 157.099 227.112 156.381 227.112C155.681 227.112 155.051 226.949 154.491 226.622C153.94 226.295 153.506 225.833 153.189 225.236C152.881 224.639 152.727 223.948 152.727 223.164ZM159.405 223.178C159.405 222.562 159.279 222.021 159.027 221.554C158.775 221.087 158.429 220.728 157.991 220.476C157.561 220.224 157.085 220.098 156.563 220.098C156.021 220.098 155.536 220.219 155.107 220.462C154.677 220.705 154.337 221.059 154.085 221.526C153.842 221.983 153.721 222.529 153.721 223.164C153.721 223.789 153.842 224.34 154.085 224.816C154.337 225.283 154.677 225.642 155.107 225.894C155.536 226.137 156.021 226.258 156.563 226.258C157.085 226.258 157.561 226.132 157.991 225.88C158.429 225.628 158.775 225.269 159.027 224.802C159.279 224.335 159.405 223.794 159.405 223.178ZM166.016 223.178C166.016 222.385 166.174 221.694 166.492 221.106C166.809 220.509 167.248 220.051 167.808 219.734C168.368 219.407 169.007 219.244 169.726 219.244C170.668 219.244 171.443 219.477 172.05 219.944C172.666 220.411 173.062 221.045 173.24 221.848H172.19C172.059 221.297 171.774 220.868 171.336 220.56C170.906 220.243 170.37 220.084 169.726 220.084C169.212 220.084 168.75 220.201 168.34 220.434C167.929 220.667 167.602 221.017 167.36 221.484C167.126 221.941 167.01 222.506 167.01 223.178C167.01 223.85 167.126 224.419 167.36 224.886C167.602 225.353 167.929 225.703 168.34 225.936C168.75 226.169 169.212 226.286 169.726 226.286C170.37 226.286 170.906 226.132 171.336 225.824C171.774 225.507 172.059 225.068 172.19 224.508H173.24C173.062 225.292 172.666 225.922 172.05 226.398C171.434 226.874 170.659 227.112 169.726 227.112C169.007 227.112 168.368 226.953 167.808 226.636C167.248 226.309 166.809 225.852 166.492 225.264C166.174 224.667 166.016 223.971 166.016 223.178ZM178.396 227.112C177.677 227.112 177.028 226.953 176.45 226.636C175.88 226.309 175.428 225.852 175.092 225.264C174.765 224.667 174.602 223.971 174.602 223.178C174.602 222.385 174.77 221.694 175.106 221.106C175.442 220.509 175.899 220.051 176.478 219.734C177.056 219.407 177.705 219.244 178.424 219.244C179.142 219.244 179.791 219.407 180.37 219.734C180.958 220.051 181.415 220.509 181.742 221.106C182.078 221.694 182.246 222.385 182.246 223.178C182.246 223.962 182.078 224.653 181.742 225.25C181.406 225.847 180.944 226.309 180.356 226.636C179.768 226.953 179.114 227.112 178.396 227.112ZM178.396 226.258C178.9 226.258 179.366 226.146 179.796 225.922C180.225 225.689 180.57 225.343 180.832 224.886C181.102 224.419 181.238 223.85 181.238 223.178C181.238 222.506 181.107 221.941 180.846 221.484C180.584 221.017 180.239 220.672 179.81 220.448C179.38 220.215 178.914 220.098 178.41 220.098C177.906 220.098 177.439 220.215 177.01 220.448C176.58 220.672 176.235 221.017 175.974 221.484C175.722 221.941 175.596 222.506 175.596 223.178C175.596 223.85 175.722 224.419 175.974 224.886C176.235 225.343 176.576 225.689 176.996 225.922C177.425 226.146 177.892 226.258 178.396 226.258ZM187.616 219.216C188.531 219.216 189.277 219.501 189.856 220.07C190.435 220.63 190.724 221.447 190.724 222.52V227H189.758V222.632C189.758 221.801 189.548 221.167 189.128 220.728C188.717 220.289 188.153 220.07 187.434 220.07C186.697 220.07 186.109 220.303 185.67 220.77C185.231 221.237 185.012 221.923 185.012 222.828V227H184.032V219.356H185.012V220.658C185.255 220.191 185.605 219.837 186.062 219.594C186.519 219.342 187.037 219.216 187.616 219.216ZM195.901 220.182H194.123V227H193.143V220.182H192.079V219.356H193.143V218.824C193.143 217.993 193.353 217.382 193.773 216.99C194.203 216.598 194.893 216.402 195.845 216.402V217.242C195.211 217.242 194.763 217.363 194.501 217.606C194.249 217.849 194.123 218.255 194.123 218.824V219.356H195.901V220.182ZM197.934 217.914C197.738 217.914 197.57 217.844 197.43 217.704C197.29 217.564 197.22 217.391 197.22 217.186C197.22 216.981 197.29 216.813 197.43 216.682C197.57 216.542 197.738 216.472 197.934 216.472C198.13 216.472 198.298 216.542 198.438 216.682C198.578 216.813 198.648 216.981 198.648 217.186C198.648 217.391 198.578 217.564 198.438 217.704C198.298 217.844 198.13 217.914 197.934 217.914ZM198.424 219.356V227H197.444V219.356H198.424ZM201.623 220.714C201.838 220.238 202.165 219.869 202.603 219.608C203.051 219.347 203.597 219.216 204.241 219.216V220.238H203.975C203.266 220.238 202.697 220.429 202.267 220.812C201.838 221.195 201.623 221.834 201.623 222.73V227H200.643V219.356H201.623V220.714ZM214.816 219.216C215.712 219.216 216.44 219.501 217 220.07C217.569 220.63 217.854 221.447 217.854 222.52V227H216.888V222.632C216.888 221.801 216.687 221.167 216.286 220.728C215.884 220.289 215.338 220.07 214.648 220.07C213.929 220.07 213.355 220.308 212.926 220.784C212.496 221.26 212.282 221.951 212.282 222.856V227H211.316V222.632C211.316 221.801 211.115 221.167 210.714 220.728C210.312 220.289 209.762 220.07 209.062 220.07C208.343 220.07 207.769 220.308 207.34 220.784C206.91 221.26 206.696 221.951 206.696 222.856V227H205.716V219.356H206.696V220.672C206.938 220.196 207.284 219.837 207.732 219.594C208.18 219.342 208.679 219.216 209.23 219.216C209.892 219.216 210.471 219.375 210.966 219.692C211.47 220.009 211.834 220.476 212.058 221.092C212.263 220.485 212.613 220.023 213.108 219.706C213.612 219.379 214.181 219.216 214.816 219.216ZM226.504 227.112C225.627 227.112 224.908 226.911 224.348 226.51C223.797 226.099 223.489 225.544 223.424 224.844H224.432C224.479 225.273 224.679 225.623 225.034 225.894C225.398 226.155 225.883 226.286 226.49 226.286C227.022 226.286 227.437 226.16 227.736 225.908C228.044 225.656 228.198 225.343 228.198 224.97C228.198 224.709 228.114 224.494 227.946 224.326C227.778 224.158 227.563 224.027 227.302 223.934C227.05 223.831 226.705 223.724 226.266 223.612C225.697 223.463 225.235 223.313 224.88 223.164C224.525 223.015 224.222 222.795 223.97 222.506C223.727 222.207 223.606 221.811 223.606 221.316C223.606 220.943 223.718 220.597 223.942 220.28C224.166 219.963 224.483 219.711 224.894 219.524C225.305 219.337 225.771 219.244 226.294 219.244C227.115 219.244 227.778 219.454 228.282 219.874C228.786 220.285 229.057 220.854 229.094 221.582H228.114C228.086 221.134 227.909 220.775 227.582 220.504C227.265 220.224 226.826 220.084 226.266 220.084C225.771 220.084 225.37 220.201 225.062 220.434C224.754 220.667 224.6 220.957 224.6 221.302C224.6 221.601 224.689 221.848 224.866 222.044C225.053 222.231 225.281 222.38 225.552 222.492C225.823 222.595 226.187 222.711 226.644 222.842C227.195 222.991 227.633 223.136 227.96 223.276C228.287 223.416 228.567 223.621 228.8 223.892C229.033 224.163 229.155 224.522 229.164 224.97C229.164 225.381 229.052 225.749 228.828 226.076C228.604 226.393 228.291 226.645 227.89 226.832C227.489 227.019 227.027 227.112 226.504 227.112ZM237.631 219.356V227H236.651V225.656C236.427 226.132 236.081 226.496 235.615 226.748C235.148 227 234.625 227.126 234.047 227.126C233.132 227.126 232.385 226.846 231.807 226.286C231.228 225.717 230.939 224.895 230.939 223.822V219.356H231.905V223.71C231.905 224.541 232.11 225.175 232.521 225.614C232.941 226.053 233.51 226.272 234.229 226.272C234.966 226.272 235.554 226.039 235.993 225.572C236.431 225.105 236.651 224.419 236.651 223.514V219.356H237.631ZM240.834 221.05C241.086 220.518 241.473 220.084 241.996 219.748C242.528 219.412 243.153 219.244 243.872 219.244C244.572 219.244 245.197 219.407 245.748 219.734C246.299 220.051 246.728 220.509 247.036 221.106C247.353 221.694 247.512 222.38 247.512 223.164C247.512 223.948 247.353 224.639 247.036 225.236C246.728 225.833 246.294 226.295 245.734 226.622C245.183 226.949 244.563 227.112 243.872 227.112C243.144 227.112 242.514 226.949 241.982 226.622C241.459 226.286 241.077 225.852 240.834 225.32V227H239.868V216.64H240.834V221.05ZM246.518 223.164C246.518 222.529 246.392 221.983 246.14 221.526C245.897 221.059 245.561 220.705 245.132 220.462C244.703 220.219 244.217 220.098 243.676 220.098C243.153 220.098 242.673 220.224 242.234 220.476C241.805 220.728 241.464 221.087 241.212 221.554C240.96 222.021 240.834 222.562 240.834 223.178C240.834 223.794 240.96 224.335 241.212 224.802C241.464 225.269 241.805 225.628 242.234 225.88C242.673 226.132 243.153 226.258 243.676 226.258C244.217 226.258 244.703 226.137 245.132 225.894C245.561 225.642 245.897 225.283 246.14 224.816C246.392 224.34 246.518 223.789 246.518 223.164ZM258.415 219.216C259.311 219.216 260.039 219.501 260.599 220.07C261.169 220.63 261.453 221.447 261.453 222.52V227H260.487V222.632C260.487 221.801 260.287 221.167 259.885 220.728C259.484 220.289 258.938 220.07 258.247 220.07C257.529 220.07 256.955 220.308 256.525 220.784C256.096 221.26 255.881 221.951 255.881 222.856V227H254.915V222.632C254.915 221.801 254.715 221.167 254.313 220.728C253.912 220.289 253.361 220.07 252.661 220.07C251.943 220.07 251.369 220.308 250.939 220.784C250.51 221.26 250.295 221.951 250.295 222.856V227H249.315V219.356H250.295V220.672C250.538 220.196 250.883 219.837 251.331 219.594C251.779 219.342 252.279 219.216 252.829 219.216C253.492 219.216 254.071 219.375 254.565 219.692C255.069 220.009 255.433 220.476 255.657 221.092C255.863 220.485 256.213 220.023 256.707 219.706C257.211 219.379 257.781 219.216 258.415 219.216ZM264.12 217.914C263.924 217.914 263.756 217.844 263.616 217.704C263.476 217.564 263.406 217.391 263.406 217.186C263.406 216.981 263.476 216.813 263.616 216.682C263.756 216.542 263.924 216.472 264.12 216.472C264.316 216.472 264.484 216.542 264.624 216.682C264.764 216.813 264.834 216.981 264.834 217.186C264.834 217.391 264.764 217.564 264.624 217.704C264.484 217.844 264.316 217.914 264.12 217.914ZM264.61 219.356V227H263.63V219.356H264.61ZM269.461 227.112C268.584 227.112 267.865 226.911 267.305 226.51C266.754 226.099 266.446 225.544 266.381 224.844H267.389C267.436 225.273 267.636 225.623 267.991 225.894C268.355 226.155 268.84 226.286 269.447 226.286C269.979 226.286 270.394 226.16 270.693 225.908C271.001 225.656 271.155 225.343 271.155 224.97C271.155 224.709 271.071 224.494 270.903 224.326C270.735 224.158 270.52 224.027 270.259 223.934C270.007 223.831 269.662 223.724 269.223 223.612C268.654 223.463 268.192 223.313 267.837 223.164C267.482 223.015 267.179 222.795 266.927 222.506C266.684 222.207 266.563 221.811 266.563 221.316C266.563 220.943 266.675 220.597 266.899 220.28C267.123 219.963 267.44 219.711 267.851 219.524C268.262 219.337 268.728 219.244 269.251 219.244C270.072 219.244 270.735 219.454 271.239 219.874C271.743 220.285 272.014 220.854 272.051 221.582H271.071C271.043 221.134 270.866 220.775 270.539 220.504C270.222 220.224 269.783 220.084 269.223 220.084C268.728 220.084 268.327 220.201 268.019 220.434C267.711 220.667 267.557 220.957 267.557 221.302C267.557 221.601 267.646 221.848 267.823 222.044C268.01 222.231 268.238 222.38 268.509 222.492C268.78 222.595 269.144 222.711 269.601 222.842C270.152 222.991 270.59 223.136 270.917 223.276C271.244 223.416 271.524 223.621 271.757 223.892C271.99 224.163 272.112 224.522 272.121 224.97C272.121 225.381 272.009 225.749 271.785 226.076C271.561 226.393 271.248 226.645 270.847 226.832C270.446 227.019 269.984 227.112 269.461 227.112ZM276.598 227.112C275.72 227.112 275.002 226.911 274.442 226.51C273.891 226.099 273.583 225.544 273.518 224.844H274.526C274.572 225.273 274.773 225.623 275.128 225.894C275.492 226.155 275.977 226.286 276.584 226.286C277.116 226.286 277.531 226.16 277.83 225.908C278.138 225.656 278.292 225.343 278.292 224.97C278.292 224.709 278.208 224.494 278.04 224.326C277.872 224.158 277.657 224.027 277.396 223.934C277.144 223.831 276.798 223.724 276.36 223.612C275.79 223.463 275.328 223.313 274.974 223.164C274.619 223.015 274.316 222.795 274.064 222.506C273.821 222.207 273.7 221.811 273.7 221.316C273.7 220.943 273.812 220.597 274.036 220.28C274.26 219.963 274.577 219.711 274.988 219.524C275.398 219.337 275.865 219.244 276.388 219.244C277.209 219.244 277.872 219.454 278.376 219.874C278.88 220.285 279.15 220.854 279.188 221.582H278.208C278.18 221.134 278.002 220.775 277.676 220.504C277.358 220.224 276.92 220.084 276.36 220.084C275.865 220.084 275.464 220.201 275.156 220.434C274.848 220.667 274.694 220.957 274.694 221.302C274.694 221.601 274.782 221.848 274.96 222.044C275.146 222.231 275.375 222.38 275.646 222.492C275.916 222.595 276.28 222.711 276.738 222.842C277.288 222.991 277.727 223.136 278.054 223.276C278.38 223.416 278.66 223.621 278.894 223.892C279.127 224.163 279.248 224.522 279.258 224.97C279.258 225.381 279.146 225.749 278.922 226.076C278.698 226.393 278.385 226.645 277.984 226.832C277.582 227.019 277.12 227.112 276.598 227.112ZM281.592 217.914C281.396 217.914 281.228 217.844 281.088 217.704C280.948 217.564 280.878 217.391 280.878 217.186C280.878 216.981 280.948 216.813 281.088 216.682C281.228 216.542 281.396 216.472 281.592 216.472C281.788 216.472 281.956 216.542 282.096 216.682C282.236 216.813 282.306 216.981 282.306 217.186C282.306 217.391 282.236 217.564 282.096 217.704C281.956 217.844 281.788 217.914 281.592 217.914ZM282.082 219.356V227H281.102V219.356H282.082ZM287.648 227.112C286.929 227.112 286.28 226.953 285.702 226.636C285.132 226.309 284.68 225.852 284.344 225.264C284.017 224.667 283.854 223.971 283.854 223.178C283.854 222.385 284.022 221.694 284.358 221.106C284.694 220.509 285.151 220.051 285.73 219.734C286.308 219.407 286.957 219.244 287.676 219.244C288.394 219.244 289.043 219.407 289.622 219.734C290.21 220.051 290.667 220.509 290.994 221.106C291.33 221.694 291.498 222.385 291.498 223.178C291.498 223.962 291.33 224.653 290.994 225.25C290.658 225.847 290.196 226.309 289.608 226.636C289.02 226.953 288.366 227.112 287.648 227.112ZM287.648 226.258C288.152 226.258 288.618 226.146 289.048 225.922C289.477 225.689 289.822 225.343 290.084 224.886C290.354 224.419 290.49 223.85 290.49 223.178C290.49 222.506 290.359 221.941 290.098 221.484C289.836 221.017 289.491 220.672 289.062 220.448C288.632 220.215 288.166 220.098 287.662 220.098C287.158 220.098 286.691 220.215 286.262 220.448C285.832 220.672 285.487 221.017 285.226 221.484C284.974 221.941 284.848 222.506 284.848 223.178C284.848 223.85 284.974 224.419 285.226 224.886C285.487 225.343 285.828 225.689 286.248 225.922C286.677 226.146 287.144 226.258 287.648 226.258ZM296.868 219.216C297.783 219.216 298.529 219.501 299.108 220.07C299.687 220.63 299.976 221.447 299.976 222.52V227H299.01V222.632C299.01 221.801 298.8 221.167 298.38 220.728C297.969 220.289 297.405 220.07 296.686 220.07C295.949 220.07 295.361 220.303 294.922 220.77C294.483 221.237 294.264 221.923 294.264 222.828V227H293.284V219.356H294.264V220.658C294.507 220.191 294.857 219.837 295.314 219.594C295.771 219.342 296.289 219.216 296.868 219.216Z" fill="#98A2B3"/>
</g>
<defs>
<filter id="filter0_d_88_19724" x="0" y="0" width="390.67" height="276" filterUnits="userSpaceOnUse" color-interpolation-filters="sRGB">
<feFlood flood-opacity="0" result="BackgroundImageFix"/>
<feColorMatrix in="SourceAlpha" type="matrix" values="0 0 0 0 0 0 0 0 0 0 0 0 0 0 0 0 0 0 127 0" result="hardAlpha"/>
<feOffset dy="2"/>
<feGaussianBlur stdDeviation="5"/>
<feComposite in2="hardAlpha" operator="out"/>
<feColorMatrix type="matrix" values="0 0 0 0 0.0666667 0 0 0 0 0.168627 0 0 0 0 0.372549 0 0 0 0.08 0"/>
<feBlend mode="normal" in2="BackgroundImageFix" result="effect1_dropShadow_88_19724"/>
<feBlend mode="normal" in="SourceGraphic" in2="effect1_dropShadow_88_19724" result="shape"/>
</filter>
</defs>
</svg>
