<svg width="24" height="24" viewBox="0 0 24 24" fill="none" xmlns="http://www.w3.org/2000/svg">
<path d="M12 1.25C12.3546 1.25 12.7167 1.35913 13.085 1.49805C13.4578 1.63869 13.9241 1.84474 14.5049 2.10254L14.5264 2.11328C15.3799 2.49217 16.447 2.90651 17.6553 3.25L17.6934 3.26074C18.5751 3.51137 19.2881 3.71346 19.8281 3.92285C20.3709 4.1333 20.8631 4.39452 21.1943 4.83301C21.5151 5.25768 21.6386 5.75403 21.6953 6.28906C21.75 6.80562 21.75 7.45453 21.75 8.23926L21.75 11.1836C21.7499 14.2394 20.3703 16.6627 18.7031 18.4687C17.0411 20.2692 15.0609 21.4939 13.7559 22.1826C13.7348 22.1937 13.7141 22.2049 13.6934 22.2158C13.1375 22.5097 12.6829 22.75 12 22.75C11.3171 22.75 10.8625 22.5097 10.3066 22.2158C10.2859 22.2049 10.2652 22.1937 10.2441 22.1826C8.93912 21.4939 6.95892 20.2692 5.29688 18.4688C3.62969 16.6627 2.25008 14.2394 2.25 11.1836L2.25 8.23926C2.24998 7.45452 2.24997 6.80562 2.30469 6.28906C2.36139 5.75403 2.48489 5.25767 2.80566 4.83301C3.13694 4.39452 3.62915 4.1333 4.17188 3.92285C4.7119 3.71346 5.42493 3.51137 6.30664 3.26074L6.34473 3.25C7.55302 2.9065 8.6201 2.49119 9.47363 2.1123L9.49512 2.10254C10.0759 1.84473 10.5422 1.63869 10.915 1.49805C11.2833 1.35913 11.6454 1.25 12 1.25ZM12 2.75C11.9307 2.75 11.7813 2.77427 11.4443 2.90137C11.1165 3.02503 10.6898 3.21361 10.082 3.4834C9.1771 3.8851 8.04326 4.32611 6.75488 4.69238C5.82666 4.95624 5.18088 5.1402 4.71387 5.32129C4.24233 5.50415 4.07583 5.64091 4.00293 5.7373C3.91967 5.84753 3.84024 6.02875 3.7959 6.44727C3.75055 6.87539 3.75 7.44367 3.75 8.28027L3.75 11.1836C3.75008 13.7526 4.90163 15.8296 6.39844 17.4512C7.90054 19.0784 9.71822 20.2093 10.9443 20.8564C11.5731 21.1883 11.7179 21.25 12 21.25C12.2821 21.25 12.4269 21.1883 13.0557 20.8564C14.2818 20.2093 16.0995 19.0784 17.6016 17.4512C19.0984 15.8296 20.2499 13.7526 20.25 11.1836L20.25 8.28027C20.25 7.44367 20.2495 6.87539 20.2041 6.44727C20.1598 6.02875 20.0803 5.84753 19.9971 5.7373C19.9242 5.6409 19.7577 5.50415 19.2861 5.32129C18.8191 5.1402 18.1733 4.95624 17.2451 4.69238C15.9567 4.32612 14.8229 3.8851 13.918 3.4834C13.3102 3.21361 12.8835 3.02503 12.5557 2.90137C12.2187 2.77427 12.0693 2.75 12 2.75ZM12 6.25C13.5188 6.25 14.75 7.48122 14.75 9V9.90137C14.9665 9.96748 15.1756 10.0656 15.3701 10.2148C15.526 10.3345 15.6655 10.474 15.7852 10.6299C16.057 10.9841 16.1598 11.3854 16.2061 11.7959C16.2496 12.1818 16.25 12.6575 16.25 13.209V13.291C16.25 13.8425 16.2496 14.3182 16.2061 14.7041C16.1598 15.1146 16.057 15.5159 15.7852 15.8701C15.6655 16.026 15.526 16.1655 15.3701 16.2852C15.0159 16.557 14.6146 16.6598 14.2041 16.7061C13.8182 16.7496 13.3425 16.75 12.791 16.75H11.209C10.6575 16.75 10.1818 16.7496 9.7959 16.7061C9.38541 16.6598 8.98411 16.557 8.62988 16.2852C8.47403 16.1655 8.33446 16.026 8.21484 15.8701C7.94303 15.5159 7.84025 15.1146 7.79395 14.7041C7.75044 14.3182 7.74997 13.8425 7.75 13.291V13.209C7.74997 12.6575 7.75044 12.1818 7.79395 11.7959C7.84025 11.3854 7.94303 10.9841 8.21484 10.6299C8.33446 10.474 8.47403 10.3345 8.62988 10.2148C8.82441 10.0656 9.03348 9.96748 9.25 9.90137V9C9.25 7.48122 10.4812 6.25 12 6.25ZM11.25 11.25C10.6462 11.25 10.2558 11.2513 9.96387 11.2842C9.68728 11.3154 9.59261 11.3672 9.54297 11.4053C9.49129 11.445 9.44499 11.4913 9.40527 11.543C9.36718 11.5926 9.31539 11.6873 9.28418 11.9639C9.25127 12.2558 9.25 12.6462 9.25 13.25C9.25 13.8538 9.25127 14.2442 9.28418 14.5361C9.31539 14.8127 9.36718 14.9074 9.40527 14.957C9.44499 15.0087 9.49129 15.055 9.54297 15.0947C9.59261 15.1328 9.68728 15.1846 9.96387 15.2158C10.2558 15.2487 10.6462 15.25 11.25 15.25H12.75C13.3538 15.25 13.7442 15.2487 14.0361 15.2158C14.3127 15.1846 14.4074 15.1328 14.457 15.0947C14.5087 15.055 14.555 15.0087 14.5947 14.957C14.6328 14.9074 14.6846 14.8127 14.7158 14.5361C14.7487 14.2442 14.75 13.8538 14.75 13.25C14.75 12.6462 14.7487 12.2558 14.7158 11.9639C14.6846 11.6873 14.6328 11.5926 14.5947 11.543C14.555 11.4913 14.5087 11.445 14.457 11.4053C14.4074 11.3672 14.3127 11.3154 14.0361 11.2842C13.7442 11.2513 13.3538 11.25 12.75 11.25H11.25ZM12 7.75C11.3096 7.75 10.75 8.30964 10.75 9V9.75098C10.8964 9.74993 11.0495 9.74999 11.209 9.75H12.791C12.9505 9.74999 13.1036 9.74993 13.25 9.75098V9C13.25 8.30964 12.6904 7.75 12 7.75Z" fill="#41557F"/>
</svg>
