<svg width="28" height="28" viewBox="0 0 28 28" fill="none" xmlns="http://www.w3.org/2000/svg">
<path d="M21 1.45703C21.4831 1.45703 21.8748 1.84893 21.875 2.33203V3.07422C22.8138 3.34032 23.6056 3.77189 24.2646 4.48438C25.1722 5.46552 25.5763 6.70527 25.7695 8.25879C25.9588 9.78099 25.959 11.7318 25.959 14.2207V14.9443C25.959 17.4333 25.9588 19.3841 25.7695 20.9062C25.5763 22.4598 25.1722 23.6995 24.2646 24.6807C23.3482 25.6713 22.1752 26.1206 20.707 26.334C19.2861 26.5405 17.4705 26.541 15.1797 26.541H12.8213C10.5303 26.541 8.71401 26.5405 7.29297 26.334C5.82491 26.1206 4.65179 25.6714 3.73535 24.6807C2.82779 23.6995 2.42465 22.4598 2.23145 20.9062C2.04214 19.3841 2.04198 17.4333 2.04199 14.9443V14.2207C2.04198 11.7317 2.04217 9.781 2.23145 8.25879C2.42464 6.70534 2.82788 5.4655 3.73535 4.48438C4.39435 3.77195 5.18634 3.34034 6.125 3.07422V2.33203C6.12518 1.849 6.51695 1.45714 7 1.45703C7.48314 1.45703 7.87482 1.84893 7.875 2.33203V2.75977C9.20045 2.6245 10.8317 2.624 12.8213 2.62402H15.1797C17.1689 2.624 18.7997 2.62454 20.125 2.75977V2.33203C20.1252 1.849 20.5169 1.45714 21 1.45703ZM3.83789 10.207C3.79311 11.3235 3.79199 12.6585 3.79199 14.2832V14.8818C3.79199 17.4465 3.79346 19.2887 3.96777 20.6904C4.13975 22.0732 4.46647 22.8941 5.01953 23.4922C5.56379 24.0806 6.29694 24.4211 7.54492 24.6025C8.82555 24.7887 10.5139 24.791 12.8916 24.791H15.1084C17.4861 24.791 19.1744 24.7886 20.4551 24.6025C21.7031 24.4211 22.4362 24.0806 22.9805 23.4922C23.5336 22.8941 23.8602 22.0733 24.0322 20.6904C24.2065 19.2887 24.209 17.4465 24.209 14.8818V14.2832C24.209 12.6585 24.2079 11.3235 24.1631 10.207H3.83789ZM14 13.124C14.4832 13.124 14.875 13.5158 14.875 13.999V16.624H17.5C17.9832 16.624 18.375 17.0158 18.375 17.499C18.375 17.9823 17.9832 18.374 17.5 18.374H14.875V20.999C14.875 21.4823 14.4832 21.874 14 21.874C13.5168 21.8739 13.125 21.4822 13.125 20.999V18.374H10.5C10.0168 18.3739 9.625 17.9822 9.625 17.499C9.625 17.0158 10.0168 16.6241 10.5 16.624H13.125V13.999C13.125 13.5158 13.5168 13.1241 14 13.124ZM12.8916 4.37402C10.7126 4.37402 9.11285 4.37791 7.875 4.52148V4.66602C7.87482 5.14912 7.48314 5.54102 7 5.54102C6.60022 5.54093 6.26265 5.27253 6.1582 4.90625C5.68323 5.09531 5.322 5.34586 5.01953 5.67285C4.46888 6.26839 4.14324 7.08489 3.9707 8.45703H24.0293C23.8567 7.08477 23.5312 6.2684 22.9805 5.67285C22.6777 5.34551 22.3165 5.0944 21.8408 4.90527C21.7365 5.27189 21.4001 5.54102 21 5.54102C20.5169 5.54091 20.1252 5.14905 20.125 4.66602V4.52148C18.8872 4.37795 17.2873 4.37402 15.1084 4.37402H12.8916Z" fill="#161616"/>
</svg>
