<svg width="24" height="24" viewBox="0 0 24 24" fill="none" xmlns="http://www.w3.org/2000/svg">
<path d="M4.00024 13.251C3.58625 13.2513 3.25024 13.587 3.25024 14.001C3.25051 14.4149 3.58642 14.7508 4.00024 14.751H6.39575C6.57744 14.7511 6.75574 14.7915 6.91626 14.8692L8.95825 15.8575C9.32379 16.0343 9.72564 16.126 10.1321 16.126H11.175C11.6014 16.1261 11.9521 16.3535 12.1282 16.6719L10.1936 17.2071C9.91266 17.2847 9.61205 17.2572 9.35278 17.1319L7.16919 16.0752C6.79642 15.8952 6.34758 16.0512 6.16723 16.4239C5.98687 16.7966 6.14321 17.2453 6.51587 17.4258L8.69946 18.4825C9.28788 18.767 9.96275 18.8266 10.593 18.6524L13.134 17.9502C13.4841 17.8535 13.7502 17.5337 13.7502 17.1426C13.7502 17.1135 13.7473 17.0846 13.7463 17.0557L17.8137 15.8067L17.8166 15.8057C18.314 15.6509 18.8629 15.8298 19.1897 16.2823C19.3055 16.4429 19.245 16.6636 19.1038 16.7452L11.5881 21.0821C11.2872 21.2556 10.9356 21.2963 10.6086 21.1993L4.21411 19.3018C3.81701 19.184 3.39932 19.4106 3.28149 19.8077C3.16385 20.2047 3.39034 20.6215 3.78735 20.7393L10.1819 22.6377C10.9063 22.8527 11.6831 22.7588 12.3381 22.3809L19.8538 18.045C20.7869 17.5066 21.0268 16.265 20.4055 15.4043C19.7126 14.4449 18.5018 14.0216 17.3713 14.3731L17.3704 14.3741L13.2415 15.6426C12.768 15.0224 12.0123 14.6261 11.175 14.626H10.1321C9.95037 14.626 9.7721 14.5846 9.61157 14.5069L7.56958 13.5186C7.20406 13.3418 6.80217 13.2511 6.39575 13.251H4.00024ZM12.385 1.99614C11.4017 1.25028 9.77748 0.81466 8.00122 1.91509C6.73229 2.70131 6.06102 4.3112 6.29809 6.09673C6.53743 7.89835 7.68506 9.88812 10.0383 11.6475C10.0676 11.6694 10.0964 11.6914 10.1252 11.7129C10.8967 12.2907 11.5107 12.75 12.5002 12.75C13.4898 12.75 14.1038 12.2908 14.8752 11.7129C14.9042 11.6913 14.9337 11.6695 14.9631 11.6475C17.3162 9.88817 18.4631 7.89829 18.7024 6.09673C18.9394 4.31135 18.269 2.70139 17.0002 1.91509C15.2239 0.814464 13.5988 1.25024 12.6155 1.99614C12.5732 2.02819 12.5352 2.05769 12.5002 2.08403C12.4653 2.05766 12.4273 2.02822 12.385 1.99614ZM8.79126 3.19048C9.96456 2.46356 10.9145 2.76421 11.4778 3.19146L11.4963 3.20513C11.6393 3.31356 11.7745 3.41658 11.886 3.49028C11.9453 3.52951 12.0215 3.57587 12.1057 3.61431C12.1842 3.65012 12.3243 3.70413 12.5002 3.70415C12.6765 3.70415 12.8173 3.65012 12.8957 3.61431C12.9798 3.57592 13.0553 3.52946 13.1145 3.49028C13.2261 3.41651 13.3621 3.31367 13.5051 3.20513L13.5227 3.19146C14.086 2.76415 15.0368 2.46342 16.2102 3.19048C16.8766 3.60369 17.392 4.57191 17.2161 5.89849C17.042 7.20942 16.1761 8.8678 14.0647 10.4463C13.1775 11.1097 12.9488 11.25 12.5002 11.25C12.0518 11.25 11.823 11.1096 10.9358 10.4463C8.82448 8.86782 7.95848 7.2094 7.78442 5.89849C7.60841 4.57162 8.12462 3.60352 8.79126 3.19048Z" fill="#1B84E7"/>
</svg>
