<svg width="24" height="24" viewBox="0 0 24 24" fill="none" xmlns="http://www.w3.org/2000/svg">
<path fill-rule="evenodd" clip-rule="evenodd" d="M6.1 19.7519C6.28856 19.7519 6.38284 19.7519 6.44142 19.8105C6.5 19.8691 6.5 19.9633 6.5 20.1519V20.6339C6.5 21.0126 6.25925 21.3589 5.87812 21.5283L5.83329 21.5483C5.60202 21.6516 5.37734 21.7519 5.10942 21.7519H3.39058C3.12266 21.7519 2.89798 21.6516 2.66671 21.5483L2.62188 21.5283C2.24075 21.3589 2 21.0126 2 20.6339V19.7451C2 19.4895 2 19.3617 2.07048 19.3018C2.14095 19.2419 2.28329 19.2651 2.56796 19.3116C2.59625 19.3162 2.62479 19.3204 2.65355 19.3242L5.77037 19.7368C5.84651 19.7468 5.92322 19.7519 6 19.7519H6.1ZM17.9 19.7517C17.7114 19.7517 17.6172 19.7517 17.5586 19.8103C17.5 19.8689 17.5 19.9631 17.5 20.1517V20.6337C17.5 21.0124 17.7407 21.3587 18.1219 21.5281L18.1667 21.5481C18.398 21.6514 18.6227 21.7517 18.8906 21.7517H20.6094C20.8773 21.7517 21.102 21.6514 21.3333 21.5481L21.3781 21.5281C21.7592 21.3587 22 21.0124 22 20.6337V19.7449C22 19.4893 22 19.3615 21.9295 19.3016C21.859 19.2417 21.7167 19.2649 21.432 19.3114C21.4037 19.316 21.3752 19.3202 21.3465 19.3241L18.2296 19.7366C18.1535 19.7467 18.0768 19.7517 18 19.7517H17.9ZM16.2328 2.30029C16.7265 2.35473 17.2036 2.47599 17.6415 2.78087C18.0794 3.08574 18.3493 3.48453 18.5589 3.91969C18.7205 4.25512 18.8689 4.66335 19.0296 5.1251L19.1276 5.40843L19.8369 7.46385L20.553 7.10579C21.047 6.8588 21.6477 7.05903 21.8946 7.553C22.1416 8.04698 21.9414 8.64766 21.4474 8.89464L20.7647 9.236C21.081 9.57229 21.4159 9.9471 21.7098 10.3405C22.2502 11.0638 22.75 11.9711 22.75 12.9996V16.4702C22.75 17.3475 22.1567 18.2064 21.2152 18.331L18.0984 18.7435C18.0658 18.7479 18.0329 18.75 18 18.75H6C5.96709 18.75 5.93422 18.7479 5.90159 18.7435L2.78475 18.331C1.84332 18.2064 1.25 17.3475 1.25 16.4702V12.9996C1.25 11.9711 1.74984 11.0638 2.29022 10.3405C2.58422 9.94698 2.91909 9.57216 3.23541 9.23585L2.55301 8.89464C2.05903 8.64766 1.8588 8.04698 2.10579 7.553C2.35278 7.05903 2.95345 6.8588 3.44743 7.10579L4.16317 7.46366L4.87242 5.40845C5.07214 4.82959 5.24721 4.32221 5.44107 3.91969C5.65065 3.48453 5.92061 3.08574 6.35853 2.78087C6.79644 2.47599 7.2735 2.35473 7.76717 2.30029C8.14771 2.25838 8.59564 2.2514 9.09995 2.25023L14.5908 2.25C15.2225 2.25 15.7762 2.25 16.2328 2.30029ZM12.9692 15H11.0314C10.0477 15 9.5559 15 9.17494 15.2735C8.87929 15.4858 8.70306 15.8251 8.46817 16.4193L8.42728 16.5234C8.35251 16.7167 8.32188 16.8242 8.37275 16.9054C8.4321 17 8.56701 17 8.83682 17L15.2714 16.9997C15.4707 16.998 15.5771 16.9865 15.6279 16.9054C15.6873 16.8107 15.6357 16.6802 15.5325 16.4193C15.2976 15.8251 15.1214 15.4858 14.8257 15.2735C14.4448 15 13.9529 15 12.9692 15ZM3.33557 11.5794C2.96509 11.3941 2.51459 11.5443 2.32934 11.9148C2.1441 12.2853 2.29427 12.7358 2.66475 12.921L4.16475 13.671C4.53524 13.8563 4.98574 13.7061 5.17098 13.3356C5.35623 12.9651 5.20606 12.5146 4.83557 12.3294L3.33557 11.5794ZM21.671 11.9148C21.4857 11.5443 21.0352 11.3941 20.6648 11.5794L19.1648 12.3294C18.7943 12.5146 18.6441 12.9651 18.8293 13.3356C19.0146 13.7061 19.4651 13.8563 19.8356 13.671L21.3356 12.921C21.7061 12.7358 21.8562 12.2853 21.671 11.9148ZM14.5399 4.12494H9.46009C8.7625 4.12494 8.3208 4.12635 7.98735 4.16313C7.57661 4.20842 7.38093 4.33706 7.20106 4.71053C7.0595 5.00446 6.91843 5.40875 6.69783 6.04798L6.21253 7.45427C6.08737 7.81692 6.0248 7.99825 6.11452 8.12413C6.20424 8.25 6.39606 8.25 6.7797 8.25H17.2203C17.6039 8.25 17.7958 8.25 17.8855 8.12413C17.9752 7.99825 17.9126 7.81692 17.7875 7.45427L17.3022 6.04798C17.0816 5.40875 16.9405 5.00446 16.7989 4.71053C16.6191 4.33706 16.4234 4.20842 16.0126 4.16313C15.6792 4.12635 15.2375 4.12494 14.5399 4.12494Z" fill="#1B84E7"/>
</svg>
