<svg width="24" height="24" viewBox="0 0 24 24" fill="none" xmlns="http://www.w3.org/2000/svg">
<path d="M13.0547 2.24994C14.4222 2.24992 15.5247 2.24961 16.3916 2.36615C17.2917 2.48717 18.0495 2.74666 18.6514 3.34857C19.2533 3.95048 19.5128 4.70824 19.6338 5.60834C19.7503 6.47528 19.75 7.57776 19.75 8.94525V15.0546C19.75 16.4221 19.7503 17.5247 19.6338 18.3915C19.5128 19.2916 19.2534 20.0494 18.6514 20.6513C18.0495 21.2533 17.2917 21.5127 16.3916 21.6337C15.5247 21.7502 14.4221 21.7499 13.0547 21.7499H10.9453C9.57785 21.7499 8.47534 21.7502 7.6084 21.6337C6.7083 21.5127 5.95054 21.2533 5.34863 20.6513C4.74672 20.0494 4.48723 19.2916 4.36621 18.3915C4.24967 17.5247 4.24998 16.4222 4.25 15.0546V8.94525C4.24998 7.57776 4.24968 6.47528 4.36621 5.60834C4.48723 4.70823 4.74671 3.95049 5.34863 3.34857C5.95055 2.74666 6.70829 2.48717 7.6084 2.36615C8.47534 2.24961 9.57785 2.24992 10.9453 2.24994H13.0547ZM11 3.74994C9.56484 3.74994 8.5639 3.75195 7.80859 3.85346C7.07482 3.95211 6.68594 4.13236 6.40918 4.40912C6.13242 4.68588 5.95217 5.07476 5.85352 5.80853C5.75201 6.56383 5.75 7.56478 5.75 8.99994V14.9999C5.75 16.4353 5.75196 17.4369 5.85352 18.1923C5.95218 18.9257 6.13248 19.314 6.40918 19.5908C6.68594 19.8675 7.07482 20.0477 7.80859 20.1464C8.5639 20.2479 9.56484 20.2499 11 20.2499H13C14.4352 20.2499 15.4361 20.2479 16.1914 20.1464C16.9252 20.0477 17.314 19.8675 17.5908 19.5908C17.8675 19.314 18.0478 18.9251 18.1465 18.1913C18.2479 17.4361 18.25 16.4351 18.25 14.9999V8.99994C18.25 7.56478 18.2479 6.56384 18.1465 5.80853C18.0478 5.07476 17.8675 4.68588 17.5908 4.40912C17.3141 4.13242 16.9257 3.95212 16.1924 3.85346C15.437 3.7519 14.4354 3.74994 13 3.74994H11ZM12 12.7421C13.4431 12.7437 15.3237 13.4588 16.5342 15.3222C16.713 15.598 16.8162 16.031 16.584 16.4433C16.4171 16.7393 16.1135 17.1243 15.7793 17.4443C15.6088 17.6075 15.4123 17.7707 15.2031 17.9023C15.003 18.028 14.7382 18.1584 14.4385 18.1904C13.7596 18.2624 12.0683 18.2711 12.0059 18.2714L11.9961 18.2724L11.9941 18.2714C11.9222 18.2711 10.187 18.2623 9.50977 18.1904C9.21013 18.1583 8.94517 18.028 8.74512 17.9023C8.53599 17.7707 8.34028 17.6073 8.16992 17.4443C7.83586 17.1244 7.53215 16.7401 7.36523 16.4443L7.65039 14.9853C8.8686 13.3667 10.6532 12.7407 12 12.7421ZM2 6.24994C2.41421 6.24994 2.75 6.58573 2.75 6.99994V16.9999C2.75 17.4141 2.41421 17.7499 2 17.7499C1.58579 17.7499 1.25 17.4141 1.25 16.9999V6.99994C1.25 6.58573 1.58579 6.24994 2 6.24994ZM22 6.24994C22.4142 6.24994 22.75 6.58573 22.75 6.99994V16.9999C22.75 17.4141 22.4142 17.7499 22 17.7499C21.5858 17.7499 21.25 17.4141 21.25 16.9999V6.99994C21.25 6.58573 21.5858 6.24994 22 6.24994ZM8.99414 16.1386C9.05935 16.2125 9.13118 16.2877 9.20703 16.3603C9.32906 16.4771 9.44523 16.5707 9.54395 16.6328C9.63154 16.6877 9.67394 16.6989 9.6748 16.6992C10.2616 16.7604 11.8796 16.7716 12 16.7724C12.1165 16.7717 13.6879 16.7605 14.2744 16.6992C14.2789 16.6979 14.3216 16.6844 14.4053 16.6318C14.5039 16.5698 14.6193 16.4769 14.7412 16.3603C14.8929 16.215 15.0283 16.0583 15.1289 15.9257C14.2252 14.6926 12.935 14.2431 11.998 14.2421L8.99414 16.1386ZM12 5.75775C13.5188 5.75781 14.75 6.98902 14.75 8.50775C14.75 10.0264 13.5187 11.2577 12 11.2578C10.4813 11.2578 9.25003 10.0265 9.25 8.50775C9.25 6.989 10.4813 5.75775 12 5.75775ZM12 7.25775C11.3097 7.25775 10.75 7.81742 10.75 8.50775C10.75 9.19805 11.3098 9.75775 12 9.75775C12.6903 9.7577 13.25 9.19801 13.25 8.50775C13.25 7.81748 12.6904 7.25781 12 7.25775Z" fill="#1B84E7"/>
</svg>
