<svg width="16" height="16" viewBox="0 0 16 16" fill="none" xmlns="http://www.w3.org/2000/svg">
<path fill-rule="evenodd" clip-rule="evenodd" d="M4.02503 0.833374H3.97628C3.48352 0.833367 3.0785 0.83336 2.75084 0.864514C2.41036 0.896888 2.10212 0.966398 1.82176 1.13821C1.54341 1.30878 1.30939 1.5428 1.13882 1.82115C0.967008 2.10151 0.897499 2.40975 0.865125 2.75023C0.833971 3.07789 0.833977 3.4829 0.833985 3.97566V4.02441C0.833977 4.51716 0.833971 4.92219 0.865125 5.24985C0.897499 5.59033 0.967008 5.89857 1.13882 6.17893C1.30939 6.45728 1.54341 6.69131 1.82176 6.86187C2.10212 7.03369 2.41036 7.10319 2.75084 7.13557C3.0785 7.16672 3.4835 7.16671 3.97624 7.16671H4.02502C4.51776 7.16671 4.9228 7.16672 5.25046 7.13557C5.59094 7.10319 5.89918 7.03369 6.17954 6.86187C6.45789 6.69131 6.69192 6.45728 6.86248 6.17893C7.0343 5.89857 7.1038 5.59033 7.13618 5.24985C7.16733 4.92219 7.16732 4.51719 7.16732 4.02445V3.97567C7.16732 3.48293 7.16733 3.07789 7.13618 2.75023C7.1038 2.40975 7.0343 2.10151 6.86248 1.82115C6.69192 1.5428 6.45789 1.30878 6.17954 1.13821C5.89918 0.966398 5.59094 0.896888 5.25046 0.864514C4.9228 0.83336 4.51779 0.833367 4.02503 0.833374ZM4.02506 8.83337H3.97628C3.48354 8.83337 3.0785 8.83337 2.75084 8.86451C2.41036 8.89691 2.10212 8.96637 1.82176 9.13817C1.54341 9.30877 1.30939 9.54277 1.13882 9.82117C0.967008 10.1015 0.897499 10.4098 0.865125 10.7502C0.833971 11.0779 0.833977 11.4829 0.833985 11.9756V12.0244C0.833977 12.5172 0.833971 12.9222 0.865125 13.2498C0.897499 13.5903 0.967008 13.8986 1.13882 14.1789C1.30939 14.4573 1.54341 14.6913 1.82176 14.8619C2.10212 15.0337 2.41036 15.1032 2.75084 15.1356C3.07849 15.1667 3.48348 15.1667 3.9762 15.1667H4.02502C4.51775 15.1667 4.92281 15.1667 5.25046 15.1356C5.59094 15.1032 5.89918 15.0337 6.17954 14.8619C6.45789 14.6913 6.69192 14.4573 6.86248 14.1789C7.0343 13.8986 7.1038 13.5903 7.13618 13.2498C7.16733 12.9222 7.16732 12.5172 7.16732 12.0244V11.9756C7.16732 11.4829 7.16733 11.0779 7.13618 10.7502C7.1038 10.4098 7.0343 10.1015 6.86248 9.82117C6.69192 9.54277 6.45789 9.30877 6.17954 9.13817C5.89918 8.96637 5.59094 8.89691 5.25046 8.86451C4.9228 8.83337 4.5178 8.83337 4.02506 8.83337ZM12.0251 0.833374C12.5178 0.833367 12.9228 0.83336 13.2505 0.864514C13.5909 0.896888 13.8992 0.966398 14.1795 1.13821C14.4579 1.30878 14.6919 1.5428 14.8625 1.82115C15.0343 2.10151 15.1038 2.40975 15.1362 2.75023C15.1673 3.07788 15.1673 3.48287 15.1673 3.97559V4.02441C15.1673 4.51715 15.1673 4.9222 15.1362 5.24985C15.1038 5.59033 15.0343 5.89857 14.8625 6.17893C14.6919 6.45728 14.4579 6.69131 14.1795 6.86187C13.8992 7.03369 13.5909 7.10319 13.2505 7.13557C12.9228 7.16672 12.5178 7.16671 12.0251 7.16671H11.9763C11.4835 7.16671 11.0785 7.16672 10.7509 7.13557C10.4104 7.10319 10.1021 7.03369 9.82178 6.86187C9.54338 6.69131 9.30938 6.45728 9.13878 6.17893C8.96698 5.89857 8.89752 5.59033 8.86512 5.24985C8.83398 4.92219 8.83398 4.51719 8.83398 4.02445V3.97567C8.83398 3.48293 8.83398 3.07789 8.86512 2.75023C8.89752 2.40975 8.96698 2.10151 9.13878 1.82115C9.30938 1.5428 9.54338 1.30878 9.82178 1.13821C10.1021 0.966398 10.4104 0.896888 10.7509 0.864514C11.0785 0.83336 11.4835 0.833367 11.9763 0.833374H12.0251ZM12.0251 8.83337H11.9763C11.4835 8.83337 11.0785 8.83337 10.7509 8.86451C10.4104 8.89691 10.1021 8.96637 9.82178 9.13817C9.54338 9.30877 9.30938 9.54277 9.13878 9.82117C8.96698 10.1015 8.89752 10.4098 8.86512 10.7502C8.83398 11.0779 8.83398 11.4829 8.83398 11.9756V12.0244C8.83398 12.5172 8.83398 12.9222 8.86512 13.2498C8.89752 13.5903 8.96698 13.8986 9.13878 14.1789C9.30938 14.4573 9.54338 14.6913 9.82178 14.8619C10.1021 15.0337 10.4104 15.1032 10.7509 15.1356C11.0785 15.1667 11.4835 15.1667 11.9762 15.1667H12.0251C12.5178 15.1667 12.9228 15.1667 13.2505 15.1356C13.5909 15.1032 13.8992 15.0337 14.1795 14.8619C14.4579 14.6913 14.6919 14.4573 14.8625 14.1789C15.0343 13.8986 15.1038 13.5903 15.1362 13.2498C15.1673 12.9222 15.1673 12.5172 15.1673 12.0245V11.9756C15.1673 11.4829 15.1673 11.0779 15.1362 10.7502C15.1038 10.4098 15.0343 10.1015 14.8625 9.82117C14.6919 9.54277 14.4579 9.30877 14.1795 9.13817C13.8992 8.96637 13.5909 8.89691 13.2505 8.86451C12.9228 8.83337 12.5178 8.83337 12.0251 8.83337Z" fill="#1B84E7"/>
</svg>
