<svg width="24" height="24" viewBox="0 0 24 24" fill="none" xmlns="http://www.w3.org/2000/svg">
<path d="M10.207 2.25013C10.6005 2.25006 10.9731 2.25043 11.2783 2.29505C11.6239 2.34557 11.9884 2.46598 12.2822 2.78528C12.5433 3.06915 12.6465 3.40343 12.6953 3.72181C12.7299 3.80797 12.75 3.90161 12.75 4.00013V7.25013H16.3887C17.1023 7.2491 17.7022 7.24812 18.2373 7.52063C18.5331 7.67129 18.7643 7.87813 18.9805 8.11634C19.1834 8.34005 19.4032 8.62605 19.6592 8.96009L19.8916 9.2638C19.8993 9.27379 19.9064 9.28412 19.9141 9.29407C20.1289 9.57428 20.3292 9.83478 20.4697 10.0724C20.6261 10.3369 20.7499 10.6374 20.75 11.0001C20.75 11.3631 20.6262 11.6642 20.4697 11.9288C20.3292 12.1664 20.1288 12.427 19.9141 12.7072C19.9065 12.717 19.8992 12.7275 19.8916 12.7374L19.6592 13.0402C19.4031 13.3744 19.1835 13.6611 18.9805 13.8849C18.7644 14.123 18.533 14.329 18.2373 14.4796C17.7022 14.7521 17.1023 14.7512 16.3887 14.7501H12.75V20.2501H15C15.4141 20.2501 15.7499 20.586 15.75 21.0001C15.75 21.4143 15.4142 21.7501 15 21.7501H9C8.58579 21.7501 8.25 21.4143 8.25 21.0001C8.25013 20.586 8.58587 20.2501 9 20.2501H11.25V9.75013H7.61133C6.89771 9.75116 6.29782 9.75213 5.7627 9.47962C5.46696 9.32897 5.23562 9.12305 5.01953 8.88489C4.81651 8.66112 4.59694 8.37436 4.34082 8.04016L4.1084 7.73743C4.10079 7.7275 4.09351 7.71704 4.08594 7.70716C3.87116 7.42699 3.67083 7.16642 3.53027 6.92884C3.37376 6.66424 3.25 6.36311 3.25 6.00013C3.25006 5.63737 3.37386 5.33687 3.53027 5.07239C3.67083 4.83478 3.87113 4.57427 4.08594 4.29407C4.09356 4.28412 4.10074 4.27379 4.1084 4.2638L4.32324 3.98352C4.32913 3.97584 4.33497 3.96772 4.34082 3.96009C4.59682 3.62605 4.8166 3.34005 5.01953 3.11634C5.23567 2.87813 5.46687 2.67129 5.7627 2.52063C6.29782 2.24812 6.89771 2.2491 7.61133 2.25013H10.207ZM12.75 13.2501H16.2549C17.1763 13.2501 17.3834 13.2319 17.5566 13.1437C17.6316 13.1055 17.7214 13.0399 17.8691 12.8771C18.0254 12.7049 18.2077 12.4682 18.4863 12.1046L18.7012 11.8243C18.9467 11.504 19.0897 11.3156 19.1787 11.1652C19.2191 11.0968 19.2357 11.0552 19.2432 11.0324C19.2493 11.0136 19.25 11.0056 19.25 11.0001C19.25 10.9947 19.2493 10.9865 19.2432 10.9679C19.2356 10.9451 19.2189 10.9041 19.1787 10.8361C19.0897 10.6855 18.9469 10.4965 18.7012 10.1759L18.4863 9.89563C18.2077 9.53214 18.0253 9.2963 17.8691 9.12415C17.7214 8.96137 17.6316 8.89573 17.5566 8.85755C17.3834 8.76932 17.1764 8.75013 16.2549 8.75013H12.75V13.2501ZM7.74512 3.75013C6.8236 3.75013 6.61661 3.76932 6.44336 3.85755C6.36843 3.89573 6.27856 3.96137 6.13086 4.12415C5.97468 4.2963 5.79227 4.53214 5.51367 4.89563L5.29883 5.17591C5.05312 5.49649 4.91034 5.68552 4.82129 5.83606C4.78109 5.90406 4.76436 5.94507 4.75684 5.9679C4.75071 5.98652 4.75001 5.99465 4.75 6.00013C4.75 6.00558 4.75071 6.01364 4.75684 6.03235C4.76434 6.05517 4.78088 6.09685 4.82129 6.16516C4.91032 6.31565 5.05329 6.50398 5.29883 6.82434L5.51367 7.10462C5.79234 7.46821 5.97465 7.70492 6.13086 7.87708C6.27857 8.03986 6.36843 8.10552 6.44336 8.14368C6.6166 8.23188 6.82372 8.25013 7.74512 8.25013H11.25V5.00013C11.25 4.50937 11.2483 4.21074 11.2217 3.99524C11.2073 3.87889 11.1899 3.82602 11.1807 3.80579C11.1637 3.79929 11.128 3.78915 11.0615 3.77942C10.8779 3.75257 10.6167 3.75013 10.1602 3.75013H7.74512Z" fill="#1B84E7"/>
</svg>
