<svg width="24" height="24" viewBox="0 0 24 24" fill="none" xmlns="http://www.w3.org/2000/svg">
<path d="M14.5 1.25C16.3723 1.25001 17.9235 2.62241 18.2041 4.41602C18.9683 4.55396 19.6204 4.81769 20.1514 5.34863C20.7533 5.95055 21.0128 6.70829 21.1338 7.6084C21.2503 8.47533 21.25 9.57783 21.25 10.9453V15.4639C21.2507 16.1623 21.2515 16.7153 21.041 17.2236C20.8304 17.732 20.4387 18.1228 19.9443 18.6162L17.1162 21.4443C16.6228 21.9387 16.232 22.3304 15.7236 22.541C15.2153 22.7515 14.6623 22.7507 13.9639 22.75H12.4453C11.0778 22.75 9.97534 22.7503 9.1084 22.6338C8.20829 22.5128 7.45055 22.2533 6.84863 21.6514C6.31769 21.1204 6.05396 20.4683 5.91602 19.7041C4.12236 19.4236 2.75 17.8724 2.75 16V7.94531C2.74998 6.57782 2.74968 5.47534 2.86621 4.6084C2.98723 3.70829 3.24672 2.95055 3.84863 2.34863C4.45055 1.74672 5.20829 1.48723 6.1084 1.36621C6.97534 1.24968 8.07782 1.24998 9.44531 1.25H14.5ZM12.5 5.75C11.0648 5.75 10.0639 5.75202 9.30859 5.85352C8.57482 5.95217 8.18594 6.13242 7.90918 6.40918C7.63242 6.68594 7.45217 7.07482 7.35352 7.80859C7.25202 8.5639 7.25 9.56485 7.25 11V16C7.25 17.4352 7.25202 18.4361 7.35352 19.1914C7.45217 19.9252 7.63242 20.3141 7.90918 20.5908C8.18594 20.8676 8.57482 21.0478 9.30859 21.1465C10.0639 21.248 11.0648 21.25 12.5 21.25H13.8428C13.9973 21.25 14.1322 21.2482 14.25 21.2471V20.4482C14.25 19.5498 14.2501 18.7999 14.3301 18.2051C14.4145 17.5775 14.6003 17.011 15.0557 16.5557C15.511 16.1003 16.0775 15.9145 16.7051 15.8301C17.2999 15.7501 18.0498 15.75 18.9482 15.75H19.748C19.7492 15.6322 19.75 15.4973 19.75 15.3428V11C19.75 9.56485 19.748 8.5639 19.6465 7.80859C19.5478 7.07482 19.3676 6.68594 19.0908 6.40918C18.8141 6.13242 18.4252 5.95217 17.6914 5.85352C16.9361 5.75202 15.9352 5.75 14.5 5.75H12.5ZM19 17.25C18.036 17.25 17.3883 17.2515 16.9053 17.3164C16.4439 17.3785 16.2465 17.4859 16.1162 17.6162C15.9859 17.7465 15.8785 17.9439 15.8164 18.4053C15.7515 18.8883 15.75 19.536 15.75 20.5V20.6836C15.8569 20.5803 15.9855 20.4539 16.1416 20.2979L18.7979 17.6416C18.9542 17.4853 19.0812 17.357 19.1846 17.25H19ZM9.5 2.75C8.06485 2.75 7.0639 2.75202 6.30859 2.85352C5.57482 2.95217 5.18594 3.13242 4.90918 3.40918C4.63242 3.68594 4.45217 4.07482 4.35352 4.80859C4.25202 5.5639 4.25 6.56485 4.25 8V16C4.25 16.9874 4.88679 17.824 5.77149 18.127C5.75038 17.5176 5.74999 16.8285 5.75 16.0547V10.9453C5.74998 9.57782 5.74968 8.47534 5.86621 7.6084C5.98723 6.70829 6.24672 5.95055 6.84863 5.34863C7.45055 4.74672 8.20829 4.48723 9.1084 4.36621C9.97534 4.24968 11.0778 4.24998 12.4453 4.25H14.5547C15.3285 4.24999 16.0176 4.25038 16.627 4.27149C16.3239 3.38686 15.4873 2.75001 14.5 2.75H9.5ZM14.002 12.25C14.4162 12.25 14.752 12.5858 14.752 13C14.752 13.4142 14.4162 13.75 14.002 13.75H10.002C9.58774 13.75 9.25195 13.4142 9.25195 13C9.25195 12.5858 9.58774 12.25 10.002 12.25H14.002ZM17.002 8.25C17.4162 8.25 17.752 8.58579 17.752 9C17.752 9.41421 17.4162 9.75 17.002 9.75H10.002C9.58774 9.75 9.25195 9.41421 9.25195 9C9.25195 8.58579 9.58774 8.25 10.002 8.25H17.002Z" fill="#6C5CE7"/>
</svg>
