<svg width="16" height="16" viewBox="0 0 16 16" fill="none" xmlns="http://www.w3.org/2000/svg">
<path d="M13.333 10.5C13.609 10.5002 13.833 10.724 13.833 11C13.833 11.4245 13.8112 11.7997 13.7412 12.1182C13.67 12.4421 13.5417 12.7385 13.3066 12.9736C13.0714 13.2088 12.7744 13.337 12.4502 13.4082C12.1318 13.4781 11.7573 13.5 11.333 13.5H4.66602C4.24153 13.5 3.86635 13.4782 3.54785 13.4082C3.22383 13.337 2.92749 13.2087 2.69238 12.9736C2.45727 12.7385 2.32904 12.4422 2.25781 12.1182C2.18784 11.7997 2.16602 11.4245 2.16602 11C2.16602 10.7239 2.38987 10.5 2.66602 10.5C2.94216 10.5 3.16602 10.7239 3.16602 11C3.16602 11.4028 3.18789 11.6917 3.23438 11.9033C3.27962 12.1092 3.34146 12.2086 3.39941 12.2666C3.45737 12.3246 3.55679 12.3864 3.7627 12.4316C3.97432 12.4781 4.26317 12.5 4.66602 12.5H11.333C11.7357 12.5 12.0248 12.4781 12.2363 12.4316C12.442 12.3864 12.5417 12.3245 12.5996 12.2666C12.6575 12.2086 12.7194 12.1091 12.7646 11.9033C12.8111 11.6917 12.833 11.4028 12.833 11C12.833 10.7239 13.0569 10.5 13.333 10.5ZM7.99902 2.5C8.27517 2.5 8.49902 2.72386 8.49902 3V8.6416C8.50027 8.64013 8.50168 8.63819 8.50293 8.63672C8.64339 8.47095 8.78155 8.29566 8.91016 8.13184C8.9201 8.11917 8.92962 8.10627 8.93945 8.09375C9.0676 7.93059 9.20291 7.75909 9.30762 7.65137C9.5001 7.45349 9.81668 7.44918 10.0146 7.6416C10.2125 7.83408 10.2168 8.15066 10.0244 8.34863C9.96527 8.40952 9.86858 8.5311 9.72656 8.71191C9.71642 8.72482 9.70576 8.73766 9.69531 8.75098C9.56861 8.9124 9.41975 9.10247 9.2666 9.2832C9.10247 9.47691 8.91802 9.67757 8.73438 9.83398C8.64242 9.9123 8.53922 9.99012 8.42773 10.0498C8.32011 10.1074 8.17121 10.167 7.99902 10.167C7.82701 10.1669 7.67884 10.1074 7.57129 10.0498C7.4597 9.99009 7.3557 9.91237 7.26367 9.83398C7.08016 9.67764 6.89644 9.47677 6.73242 9.2832C6.57927 9.10246 6.43042 8.9124 6.30371 8.75098C6.29326 8.73766 6.2826 8.72483 6.27246 8.71191C6.13057 8.53127 6.03377 8.40957 5.97461 8.34863C5.78214 8.15062 5.78636 7.83407 5.98438 7.6416C6.18239 7.44916 6.49895 7.45336 6.69141 7.65137C6.79607 7.75906 6.93049 7.93066 7.05859 8.09375C7.06847 8.10633 7.07888 8.11911 7.08887 8.13184C7.21745 8.29562 7.35469 8.471 7.49512 8.63672C7.49646 8.6383 7.49768 8.64002 7.49902 8.6416V3C7.49902 2.72397 7.72303 2.50018 7.99902 2.5Z" fill="#333333"/>
</svg>
