<svg width="24" height="24" viewBox="0 0 24 24" fill="none" xmlns="http://www.w3.org/2000/svg">
<path d="M18.6348 13.4317C19.1245 13.1892 19.6997 13.1892 20.1895 13.4317C20.4516 13.5616 20.6747 13.786 20.8877 14.0001L21 14.1124C21.2141 14.3253 21.4384 14.5484 21.5684 14.8106C21.811 15.3004 21.8109 15.8754 21.5684 16.3653C21.4384 16.6275 21.2141 16.8506 21 17.0635C20.9812 17.0823 20.963 17.1015 20.9443 17.1202L16.1201 21.9434C16.1014 21.9622 16.0824 21.982 16.0635 22.001C15.8336 22.2322 15.5855 22.4809 15.2588 22.6163C14.9319 22.7517 14.5801 22.751 14.2539 22.7501H13C12.5859 22.7499 12.25 22.4142 12.25 22.0001V20.7471C12.2491 20.4211 12.2485 20.0691 12.3838 19.7422C12.5192 19.4153 12.7687 19.1665 13 18.9366L17.9365 14.0001C18.1495 13.786 18.3726 13.5616 18.6348 13.4317ZM10.5605 1.25005C11.1637 1.24955 11.6401 1.24959 12.0869 1.40728C12.1792 1.43986 12.2701 1.47735 12.3584 1.51958C12.7858 1.72407 13.1227 2.06153 13.5488 2.48833L18.4443 7.38384C18.9387 7.8773 19.3304 8.26801 19.541 8.77642C19.6259 8.98143 19.6613 9.25146 19.6816 9.44048C19.7055 9.66192 19.7206 9.91047 19.7305 10.1368C19.7404 10.3649 19.7446 10.58 19.7471 10.7374C19.7483 10.8162 19.7497 10.8813 19.75 10.9268V11.0001C19.7498 11.4141 19.4141 11.7501 19 11.7501C18.5858 11.7501 18.25 11.4142 18.25 11.0001V10.9376C18.2497 10.8958 18.2492 10.8348 18.248 10.7608C18.2457 10.6124 18.2406 10.4122 18.2314 10.2022C18.2247 10.0471 18.2159 9.89134 18.2041 9.75005H17.9453C16.5778 9.75007 15.4753 9.75038 14.6084 9.63384C13.7083 9.51282 12.9505 9.25334 12.3486 8.65142C11.7468 8.04951 11.4872 7.29173 11.3662 6.39165C11.2497 5.52473 11.25 4.42217 11.25 3.05474V2.76372C11.0832 2.75309 10.8419 2.75005 10.4561 2.75005C8.81549 2.75005 7.6499 2.75103 6.75488 2.85552C5.87608 2.95813 5.35453 3.15168 4.95996 3.46978C4.77959 3.61521 4.61516 3.77964 4.46973 3.96001C4.15159 4.35459 3.95808 4.87607 3.85547 5.75493C3.75097 6.64997 3.75 7.81547 3.75 9.45611V14.0001C3.75 15.9067 3.75151 17.2615 3.88965 18.2891C4.02491 19.2952 4.27897 19.8747 4.70215 20.2979C5.08716 20.6829 5.60051 20.9265 6.44238 21.0694C7.30599 21.2159 8.43505 21.2445 10.002 21.2491C10.416 21.2503 10.751 21.587 10.75 22.001C10.7488 22.4152 10.4121 22.7502 9.99805 22.7491C8.4511 22.7445 7.19753 22.7196 6.19141 22.5489C5.16341 22.3745 4.31968 22.0365 3.6416 21.3585C2.89331 20.6101 2.56095 19.6616 2.40332 18.4893C2.25016 17.3501 2.24998 15.8944 2.25 14.0567V9.40728C2.24999 7.82594 2.25039 6.57315 2.36621 5.58111C2.48511 4.56279 2.7339 3.72298 3.30176 3.01861C3.51427 2.75503 3.755 2.51531 4.01855 2.30279C4.72296 1.73485 5.56267 1.48517 6.58105 1.36626C7.57311 1.25045 8.8259 1.25004 10.4072 1.25005H10.5605ZM19.5215 14.7745C19.4525 14.7413 19.3717 14.7413 19.3027 14.7745C19.2976 14.7778 19.2775 14.7925 19.2354 14.8301C19.1683 14.8901 19.0836 14.975 18.9414 15.1172L14.1172 19.9405C13.9647 20.093 13.8794 20.1793 13.8203 20.2481C13.7942 20.2785 13.7817 20.2971 13.7754 20.3067C13.7726 20.3109 13.7711 20.3134 13.7705 20.3145L13.7695 20.3155L13.7686 20.3174C13.7682 20.3187 13.7676 20.3215 13.7666 20.3262C13.7642 20.3375 13.7609 20.3601 13.7578 20.4004C13.751 20.4908 13.75 20.6117 13.75 20.8272V21.2501H14.1738C14.3894 21.2501 14.5102 21.2491 14.6006 21.2422C14.6405 21.2392 14.6625 21.2358 14.6738 21.2335C14.6792 21.2323 14.6825 21.2318 14.6836 21.2315L14.6846 21.2305H14.6865C14.6876 21.2299 14.6901 21.2284 14.6943 21.2256C14.704 21.2193 14.7223 21.2061 14.7529 21.1797C14.8217 21.1207 14.9071 21.0353 15.0596 20.8829L19.8828 16.0596C20.0253 15.9171 20.1109 15.8319 20.1709 15.7647C20.2082 15.7229 20.2221 15.7026 20.2256 15.6973C20.2587 15.6286 20.2585 15.5483 20.2256 15.4795C20.2222 15.4744 20.2082 15.454 20.1709 15.4122C20.111 15.3451 20.0261 15.2595 19.8838 15.1172C19.7415 14.9749 19.656 14.8901 19.5889 14.8301C19.5467 14.7925 19.5266 14.7778 19.5215 14.7745ZM12.751 3.81158C12.7546 4.82646 12.7723 5.58835 12.8535 6.19243C12.9522 6.92588 13.1325 7.31417 13.4092 7.59087C13.6859 7.86764 14.0748 8.04788 14.8086 8.14654C15.4126 8.22771 16.1738 8.24541 17.1885 8.24908L12.751 3.81158Z" fill="#1B84E7"/>
</svg>
