<svg width="24" height="24" viewBox="0 0 24 24" fill="none" xmlns="http://www.w3.org/2000/svg">
<path d="M14.5547 4.25C15.9222 4.24998 17.0247 4.24967 17.8916 4.36621C18.7917 4.48723 19.5495 4.74672 20.1514 5.34863C20.7532 5.95053 21.0128 6.70834 21.1338 7.6084C21.2503 8.47531 21.25 9.57794 21.25 10.9453V15.4639C21.2507 16.1623 21.2515 16.7153 21.041 17.2236C20.8304 17.732 20.4387 18.1228 19.9443 18.6162L17.1162 21.4443C16.6228 21.9387 16.232 22.3295 15.7236 22.54C15.2152 22.7506 14.6624 22.7507 13.9639 22.75C12.5964 22.75 9.97556 22.7503 9.1084 22.6338C8.20834 22.5128 7.45053 22.2532 6.84863 21.6514C6.24673 21.0495 5.98723 20.2917 5.86621 19.3916C5.74966 18.5247 5.74998 17.4222 5.75 16.0547V10.9453C5.74998 9.57795 5.74971 8.4753 5.86621 7.6084C5.98722 6.70835 6.2468 5.95053 6.84863 5.34863C7.45055 4.74672 8.2083 4.48723 9.1084 4.36621C9.97534 4.24967 11.0778 4.24998 12.4453 4.25H14.5547ZM18.9482 15.75C18.0498 15.75 17.2999 15.7501 16.7051 15.8301C16.0775 15.9145 15.511 16.1003 15.0557 16.5557C14.6003 17.011 14.4145 17.5775 14.3301 18.2051C14.2501 18.7998 14.25 19.6016 14.25 20.5V21.248C14.8013 21.2428 14.9866 21.2226 15.1494 21.1553C15.3471 21.0734 15.5193 20.9192 16.1406 20.2979L18.7979 17.6416C19.4186 17.0208 19.5724 16.8478 19.6543 16.6504C19.7218 16.4875 19.7428 16.3018 19.748 15.75H18.9482ZM14.5 1.25C15.8729 1.25001 17.0741 1.98811 17.7275 3.08887C16.841 2.99973 15.7878 2.99994 14.6309 3H12.3691C11.0646 2.99993 9.89196 2.99915 8.94141 3.12695C7.90337 3.26654 6.83784 3.59103 5.96484 4.46387C5.09173 5.33698 4.76752 6.40318 4.62793 7.44141C4.50015 8.39196 4.49993 9.56464 4.5 10.8691V16.1299C4.49994 17.287 4.49969 18.3409 4.58887 19.2275C3.48786 18.5742 2.75 17.3731 2.75 16V7.94531C2.74998 6.57784 2.74968 5.47533 2.86621 4.6084C2.98723 3.70829 3.24672 2.95055 3.84863 2.34863C4.45055 1.74672 5.20829 1.48723 6.1084 1.36621C6.97534 1.24967 8.07782 1.24998 9.44531 1.25H14.5ZM10.002 11.25C9.58774 11.25 9.25195 11.5858 9.25195 12C9.25199 12.4142 9.58776 12.75 10.002 12.75H14.002C14.4161 12.75 14.7519 12.4142 14.752 12C14.752 11.5858 14.4162 11.25 14.002 11.25H10.002ZM10.002 7.25C9.58774 7.25 9.25195 7.58579 9.25195 8C9.25199 8.41418 9.58776 8.75 10.002 8.75H17.002C17.4161 8.75 17.7519 8.41418 17.752 8C17.752 7.58579 17.4162 7.25 17.002 7.25H10.002Z" fill="#1B84E7"/>
</svg>
