<svg width="24" height="24" viewBox="0 0 24 24" fill="none" xmlns="http://www.w3.org/2000/svg">
<path d="M4.09433 3.62738C5.58553 2.46885 8.49642 1.4059 12.0982 3.24067C14.5002 4.4642 16.603 4.38554 18.0201 3.99262L18.0562 3.98285C18.4863 3.86358 18.8618 3.75902 19.1529 3.70746C19.3047 3.68059 19.4764 3.66017 19.6471 3.67035C19.8203 3.68074 20.0485 3.72622 20.2564 3.88422C20.6263 4.16545 20.6952 4.60303 20.7213 4.84223C20.7505 5.10935 20.7496 5.4548 20.7496 5.83442V13.4018C20.7496 13.4174 20.7504 13.4344 20.7506 13.4526C20.7525 13.6468 20.7552 13.9813 20.5748 14.2856C20.3956 14.5877 20.1237 14.7336 19.9664 14.8178C19.9532 14.8249 19.9408 14.832 19.9293 14.8383C18.3451 15.7042 15.1322 16.4696 11.4176 14.5776C8.13706 12.9065 5.70261 14.1439 4.75058 15.0366V21.0004C4.75058 21.4145 4.41463 21.7502 4.00058 21.7504C3.58637 21.7504 3.25058 21.4146 3.25058 21.0004V14.7416C3.25055 14.7387 3.24961 14.7358 3.24961 14.7329V5.42133C3.24869 5.09835 3.24813 4.73874 3.42832 4.37055C3.60729 4.0049 3.84659 3.81949 4.06308 3.6518C4.07342 3.64379 4.08411 3.63533 4.09433 3.62738ZM11.4176 4.57758C8.40913 3.04508 6.11711 3.95504 5.01426 4.81196C4.9539 4.85885 4.9115 4.89185 4.87558 4.92133C4.84079 4.94991 4.82177 4.96827 4.81015 4.97992C4.80003 4.99008 4.79577 4.99536 4.79355 4.99848C4.79108 5.00197 4.78448 5.01036 4.775 5.02973V5.03071C4.77037 5.0401 4.76376 5.05311 4.7584 5.10492C4.75057 5.18063 4.74961 5.28216 4.74961 5.48969V6.9809C4.74977 6.98739 4.75058 6.9939 4.75058 7.00043V13.184C6.36279 12.2373 8.96758 11.6459 12.0982 13.2407C15.3159 14.8797 18.0025 14.1817 19.2096 13.5219C19.2241 13.514 19.2376 13.507 19.2496 13.5004V5.87446C19.2496 5.59051 19.2495 5.38051 19.2437 5.22016C19.0457 5.26558 18.7829 5.33745 18.4205 5.43793C16.6773 5.92128 14.1849 5.98715 11.4176 4.57758Z" fill="#2FBF71"/>
</svg>
