<svg width="199" height="132" viewBox="0 0 199 132" fill="none" xmlns="http://www.w3.org/2000/svg">
<path d="M99.1775 29.736C99.0655 29.736 98.9746 29.6452 98.9746 29.5331V1.8416C98.9746 1.72953 99.0655 1.63867 99.1775 1.63867C99.2896 1.63867 99.3805 1.72953 99.3805 1.8416V29.5331C99.3805 29.6452 99.2896 29.736 99.1775 29.736Z" fill="white"/>
<path d="M99.1775 29.7361C99.2896 29.7361 99.3805 29.6452 99.3805 29.5331V28.2981C99.2465 28.2533 99.1116 28.2028 98.9746 28.1416V29.5331C98.9746 29.6452 99.0655 29.7361 99.1775 29.7361Z" fill="#F1F5FB"/>
<path d="M99.6013 1.64146C99.6013 1.87535 99.4115 2.06515 99.1776 2.06515C98.9437 2.06515 98.7539 1.87535 98.7539 1.64146C98.7539 1.40724 98.9437 1.21777 99.1776 1.21777C99.4115 1.21777 99.6013 1.40724 99.6013 1.64146Z" fill="#D1E6FA"/>
<path d="M99.5737 1.77932C99.1998 1.73322 98.97 1.56798 98.8054 1.4502C98.7751 1.50841 98.7539 1.57202 98.7539 1.64235C98.7539 1.87624 98.9437 2.06604 99.1776 2.06604C99.363 2.06604 99.5161 1.94523 99.5737 1.77932Z" fill="#A4CEF5"/>
<path d="M99.2756 1.23068C99.8951 1.23876 99.7565 0.309606 99.7565 0.309606H100.017C100.017 0.309606 99.9032 0 99.6017 0C99.3002 0 99.0303 0.344269 99.0027 0.666662C99.0027 0.666662 98.8462 0.0821138 98.165 0.381287L98.6577 0.648153C98.6577 0.648153 98.6399 1.23068 99.2756 1.23068Z" fill="#D1E6FA"/>
<path d="M99.3871 2.41483C102.088 1.79662 101.86 7.63774 103.569 8.74424C103.569 8.74424 102.389 8.89063 101.999 9.8181C101.608 10.7456 100.949 11.3924 100.473 11.5754C100.473 11.5754 99.3871 10.404 98.9721 8.69544C98.5572 6.98689 99.3871 2.41483 99.3871 2.41483Z" fill="#A4CEF5"/>
<path d="M100.164 6.36343C100.518 8.35735 100.947 9.7388 101.812 10.2002C101.865 10.1036 101.914 10.0023 101.961 9.89798C101.309 9.54126 100.877 8.45225 100.495 6.30487C100.29 5.15092 99.7178 4.43344 99.141 3.99023C99.1235 4.11677 99.106 4.24801 99.0889 4.38296C99.5556 4.79117 99.9948 5.41273 100.164 6.36343Z" fill="#A4CEF5"/>
<path d="M101.121 5.81847C100.855 4.32025 99.9713 3.55801 99.2605 3.17773C99.244 3.28408 99.2262 3.39883 99.208 3.52166C99.8279 3.87906 100.556 4.56726 100.789 5.87736C101.104 7.64884 101.477 8.93909 102.162 9.52868C102.231 9.43445 102.307 9.351 102.389 9.2773C101.845 8.81659 101.463 7.74105 101.121 5.81847Z" fill="#A4CEF5"/>
<path d="M100.825 11.3752C100.91 11.314 100.996 11.2433 101.083 11.1615C99.6067 9.75954 99.4011 7.92883 99.251 6.55647C99.1975 6.06884 99.1504 5.65996 99.0548 5.34766C99.3005 5.74813 99.4681 6.44507 99.6427 7.17298C99.9604 8.49621 100.347 10.09 101.408 10.8075C101.475 10.7234 101.541 10.6338 101.606 10.5389C100.648 9.90593 100.29 8.4252 99.9702 7.09457C99.7242 6.07018 99.5061 5.18411 99.034 4.83008C98.9757 5.32713 98.9242 5.85514 98.8916 6.36936C98.9 6.44306 98.9081 6.51743 98.9165 6.59348C99.0629 7.93185 99.2847 9.88506 100.825 11.3752Z" fill="#A4CEF5"/>
<path d="M101.955 6.4758C101.658 5.26632 101.322 3.89531 100.04 3.01562L99.8491 3.29292C101.026 4.10025 101.346 5.40463 101.628 6.55556C101.873 7.55269 102.109 8.50473 102.868 8.96308C103.031 8.885 103.186 8.8325 103.31 8.79919C102.453 8.49463 102.227 7.58735 101.955 6.4758Z" fill="#A4CEF5"/>
<path d="M100.971 5.41795C101.403 5.23791 101.614 4.89162 101.701 4.49721C101.228 3.17365 100.606 2.1358 99.3868 2.41478C99.3868 2.41478 99.0001 4.54668 98.8867 6.44268C99.2885 6.84416 99.6994 6.76406 99.6994 6.76406C99.6994 6.76406 99.5376 6.0163 100.971 5.41795Z" fill="#A4CEF5"/>
<path d="M99.9285 2.73193L99.8117 2.69794L99.7424 2.59766L99.6741 2.69861L99.5576 2.73328L99.632 2.82952L99.6293 2.95101L99.7437 2.90995L99.8585 2.95034L99.8548 2.82851L99.9285 2.73193Z" fill="#A4CEF5"/>
<path d="M100.534 3.06594L100.413 3.05551L100.326 2.9707L100.278 3.08277L100.17 3.13964L100.262 3.2194L100.283 3.3392L100.387 3.27661L100.508 3.29377L100.48 3.17531L100.534 3.06594Z" fill="#A4CEF5"/>
<path d="M99.5988 3.45852L99.4777 3.44809L99.3905 3.36328L99.343 3.47535L99.2354 3.53188L99.3272 3.61198L99.3478 3.73178L99.4521 3.66919L99.5726 3.68635L99.5453 3.56789L99.5988 3.45852Z" fill="#A4CEF5"/>
<path d="M101.017 3.826L100.928 3.74255L100.912 3.62207L100.806 3.68029L100.686 3.65808L100.708 3.77788L100.65 3.88456L100.771 3.90038L100.855 3.98855L100.907 3.8785L101.017 3.826Z" fill="#A4CEF5"/>
<path d="M100.213 4.16912L100.124 4.08566L100.109 3.96484L100.002 4.0234L99.882 4.00119L99.9046 4.12066L99.8467 4.22767L99.9672 4.24315L100.051 4.33132L100.103 4.22161L100.213 4.16912Z" fill="#A4CEF5"/>
<path d="M99.5644 4.84197L99.4759 4.75851L99.4601 4.6377L99.3534 4.69625L99.2336 4.67404L99.2561 4.79351L99.1982 4.90052L99.3187 4.916L99.4025 5.00418L99.4547 4.89447L99.5644 4.84197Z" fill="#A4CEF5"/>
<path d="M101.281 4.6165L101.234 4.50443L101.268 4.38766L101.147 4.39775L101.047 4.3291L101.019 4.44756L100.922 4.52193L101.026 4.58486L101.067 4.69962L101.16 4.6202L101.281 4.6165Z" fill="#A4CEF5"/>
<path d="M100.565 5.03447L100.517 4.92207L100.552 4.80529L100.431 4.81572L100.33 4.74707L100.302 4.86553L100.206 4.9399L100.31 5.00283L100.351 5.11759L100.443 5.03783L100.565 5.03447Z" fill="#A4CEF5"/>
<path d="M99.4364 6.08134L99.3889 5.96894L99.4233 5.85217L99.3021 5.8626L99.2015 5.79395L99.1739 5.9124L99.0776 5.98678L99.1816 6.04971L99.2227 6.16446L99.3146 6.08471L99.4364 6.08134Z" fill="#A4CEF5"/>
<path d="M100.016 5.59565L99.9689 5.48359L100.003 5.36681L99.8817 5.37691L99.7811 5.30859L99.7535 5.42705L99.6572 5.50142L99.7612 5.56435L99.8023 5.67877L99.8941 5.59935L100.016 5.59565Z" fill="#A4CEF5"/>
<path d="M22.9439 34.2842H14.0781V35.5929H22.9439V34.2842Z" fill="#F1F5FB"/>
<path d="M22.8484 35.6436H14.1733V47.7586H22.8484V35.6436Z" fill="#DDEDFB"/>
<path d="M23.2677 35.2197H13.7534V36.3165H23.2677V35.2197Z" fill="white"/>
<path d="M23.2677 33.4434H13.7534V34.5401H23.2677V33.4434Z" fill="white"/>
<path d="M51.6607 32.042H42.7949V33.3507H51.6607V32.042Z" fill="#F1F5FB"/>
<path d="M51.5656 33.4004H42.8906V47.759H51.5656V33.4004Z" fill="#DDEDFB"/>
<path d="M51.985 32.9766H42.4707V34.0733H51.985V32.9766Z" fill="white"/>
<path d="M51.985 31.2002H42.4707V32.2969H51.985V31.2002Z" fill="white"/>
<path d="M175.412 35.5947H184.278V34.286H175.412V35.5947Z" fill="#F1F5FB"/>
<path d="M175.507 47.7588H184.182V35.6438H175.507V47.7588Z" fill="#DDEDFB"/>
<path d="M175.087 36.3174H184.602V35.2206H175.087V36.3174Z" fill="white"/>
<path d="M175.087 34.541H184.602V33.4443H175.087V34.541Z" fill="white"/>
<path d="M146.695 33.3506H155.561V32.0418H146.695V33.3506Z" fill="#F1F5FB"/>
<path d="M146.79 47.7588H155.465V33.4002H146.79V47.7588Z" fill="#DDEDFB"/>
<path d="M146.37 34.0732H155.885V32.9765H146.37V34.0732Z" fill="white"/>
<path d="M146.37 32.2969H155.885V31.2001H146.37V32.2969Z" fill="white"/>
<path d="M132.729 41.6719L195.814 41.6719V40.3298L132.729 40.3298V41.6719Z" fill="white"/>
<path d="M132.729 40.6373H195.823L197.773 38.1025H132.729V40.6373Z" fill="#F1F5FB"/>
<path d="M132.729 38.2856H197.766C198.054 38.2856 198.29 38.05 198.29 37.7619C198.29 37.4742 198.054 37.2383 197.766 37.2383H132.729C132.729 37.2383 132.729 37.4739 132.729 37.7619C132.729 38.05 132.729 38.2856 132.729 38.2856Z" fill="white"/>
<path d="M191.745 46.5186H195.814V41.262H191.745V46.5186Z" fill="white"/>
<path d="M187.957 46.5186H188.338V41.262H187.957V46.5186Z" fill="white"/>
<path d="M187.099 46.5186H187.48V41.262H187.099V46.5186Z" fill="white"/>
<path d="M186.242 46.5186H186.623V41.262H186.242V46.5186Z" fill="white"/>
<path d="M185.385 46.5186H185.766V41.262H185.385V46.5186Z" fill="white"/>
<path d="M184.527 46.5186H184.909V41.262H184.527V46.5186Z" fill="white"/>
<path d="M183.67 46.5186H184.051V41.262H183.67V46.5186Z" fill="white"/>
<path d="M182.813 46.5186H183.194V41.262H182.813V46.5186Z" fill="white"/>
<path d="M175.3 46.5186H179.369V41.262H175.3V46.5186Z" fill="white"/>
<path d="M171.511 46.5186H171.893V41.262H171.511V46.5186Z" fill="white"/>
<path d="M170.654 46.5186H171.035V41.262H170.654V46.5186Z" fill="white"/>
<path d="M169.796 46.5186H170.178V41.262H169.796V46.5186Z" fill="white"/>
<path d="M168.939 46.5186H169.321V41.262H168.939V46.5186Z" fill="white"/>
<path d="M168.082 46.5186H168.463V41.262H168.082V46.5186Z" fill="white"/>
<path d="M167.225 46.5186H167.606V41.262H167.225V46.5186Z" fill="white"/>
<path d="M166.368 46.5186H166.749V41.262H166.368V46.5186Z" fill="white"/>
<path d="M158.854 46.5186H162.924V41.262H158.854V46.5186Z" fill="white"/>
<path d="M155.066 46.5186H155.447V41.262H155.066V46.5186Z" fill="white"/>
<path d="M154.209 46.5186H154.59V41.262H154.209V46.5186Z" fill="white"/>
<path d="M153.352 46.5186H153.733V41.262H153.352V46.5186Z" fill="white"/>
<path d="M152.494 46.5186H152.875V41.262H152.494V46.5186Z" fill="white"/>
<path d="M151.637 46.5186H152.018V41.262H151.637V46.5186Z" fill="white"/>
<path d="M150.779 46.5186H151.161V41.262H150.779V46.5186Z" fill="white"/>
<path d="M149.922 46.5186H150.303V41.262H149.922V46.5186Z" fill="white"/>
<path d="M142.409 46.5186H146.479V41.262H142.409V46.5186Z" fill="white"/>
<path d="M138.621 46.5186H139.002V41.262H138.621V46.5186Z" fill="white"/>
<path d="M137.763 46.5186H138.145V41.262H137.763V46.5186Z" fill="white"/>
<path d="M136.906 46.5186H137.287V41.262H136.906V46.5186Z" fill="white"/>
<path d="M136.049 46.5186H136.43V41.262H136.049V46.5186Z" fill="white"/>
<path d="M135.191 46.5186H135.573V41.262H135.191V46.5186Z" fill="white"/>
<path d="M134.334 46.5186H134.715V41.262H134.334V46.5186Z" fill="white"/>
<path d="M133.477 46.5186H133.858V41.262H133.477V46.5186Z" fill="white"/>
<path d="M65.5606 40.3291H2.4751V41.6712H65.5606V40.3291Z" fill="white"/>
<path d="M65.5606 40.6373H2.46708L0.517578 38.1025H65.5606V40.6373Z" fill="#F1F5FB"/>
<path d="M65.5606 38.2856H0.523637C0.235569 38.2856 0 38.05 0 37.7619C0 37.4742 0.235569 37.2383 0.523637 37.2383H65.5606C65.5606 37.2383 65.5606 37.4739 65.5606 37.7619C65.5606 38.05 65.5606 38.2856 65.5606 38.2856Z" fill="white"/>
<path d="M6.54472 41.2617H2.4751V46.5183H6.54472V41.2617Z" fill="white"/>
<path d="M10.3334 41.2617H9.95215V46.5183H10.3334V41.2617Z" fill="white"/>
<path d="M11.1904 41.2617H10.8091V46.5183H11.1904V41.2617Z" fill="white"/>
<path d="M12.0478 41.2617H11.6665V46.5183H12.0478V41.2617Z" fill="white"/>
<path d="M12.9052 41.2617H12.5239V46.5183H12.9052V41.2617Z" fill="white"/>
<path d="M13.7621 41.2617H13.3809V46.5183H13.7621V41.2617Z" fill="white"/>
<path d="M14.6196 41.2617H14.2383V46.5183H14.6196V41.2617Z" fill="white"/>
<path d="M15.477 41.2617H15.0957V46.5183H15.477V41.2617Z" fill="white"/>
<path d="M22.99 41.2617H18.9204V46.5183H22.99V41.2617Z" fill="white"/>
<path d="M26.7783 41.2617H26.397V46.5183H26.7783V41.2617Z" fill="white"/>
<path d="M27.6362 41.2617H27.2549V46.5183H27.6362V41.2617Z" fill="white"/>
<path d="M28.4931 41.2617H28.1118V46.5183H28.4931V41.2617Z" fill="white"/>
<path d="M29.3505 41.2617H28.9692V46.5183H29.3505V41.2617Z" fill="white"/>
<path d="M30.2079 41.2617H29.8267V46.5183H30.2079V41.2617Z" fill="white"/>
<path d="M31.0649 41.2617H30.6836V46.5183H31.0649V41.2617Z" fill="white"/>
<path d="M31.9223 41.2617H31.541V46.5183H31.9223V41.2617Z" fill="white"/>
<path d="M39.4354 41.2617H35.3657V46.5183H39.4354V41.2617Z" fill="white"/>
<path d="M43.2241 41.2617H42.8428V46.5183H43.2241V41.2617Z" fill="white"/>
<path d="M44.081 41.2617H43.6997V46.5183H44.081V41.2617Z" fill="white"/>
<path d="M44.9384 41.2617H44.5571V46.5183H44.9384V41.2617Z" fill="white"/>
<path d="M45.7958 41.2617H45.4146V46.5183H45.7958V41.2617Z" fill="white"/>
<path d="M46.6528 41.2617H46.2715V46.5183H46.6528V41.2617Z" fill="white"/>
<path d="M47.5102 41.2617H47.1289V46.5183H47.5102V41.2617Z" fill="white"/>
<path d="M48.3676 41.2617H47.9863V46.5183H48.3676V41.2617Z" fill="white"/>
<path d="M55.8807 41.2617H51.811V46.5183H55.8807V41.2617Z" fill="white"/>
<path d="M59.6689 41.2617H59.2876V46.5183H59.6689V41.2617Z" fill="white"/>
<path d="M60.5268 41.2617H60.1455V46.5183H60.5268V41.2617Z" fill="white"/>
<path d="M61.3837 41.2617H61.0024V46.5183H61.3837V41.2617Z" fill="white"/>
<path d="M62.2411 41.2617H61.8599V46.5183H62.2411V41.2617Z" fill="white"/>
<path d="M63.0986 41.2617H62.7173V46.5183H63.0986V41.2617Z" fill="white"/>
<path d="M63.9555 41.2617H63.5742V46.5183H63.9555V41.2617Z" fill="white"/>
<path d="M64.8129 41.2617H64.4316V46.5183H64.8129V41.2617Z" fill="white"/>
<path d="M133.263 31.6553H65.0923V46.8105H133.263V31.6553Z" fill="#F1F5FB"/>
<path d="M129.719 31.6553H68.6367V46.8236H129.719V31.6553Z" fill="white"/>
<path d="M134.215 30.0703H64.1396V31.65H134.215V30.0703Z" fill="white"/>
<path d="M133.263 31.6553H65.0923V32.4767H133.263V31.6553Z" fill="#DDEDFB"/>
<path d="M195.88 54.001H2.4751V118.315H195.88V54.001Z" fill="#F1F5FB"/>
<path d="M195.88 115.139H2.4751V118.315H195.88V115.139Z" fill="white"/>
<path d="M195.88 44.1963H2.4751V48.6058H195.88V44.1963Z" fill="white"/>
<path d="M195.88 44.1963H2.4751V44.6169H195.88V44.1963Z" fill="#F1F5FB"/>
<path d="M195.88 50.7861H2.4751V54.4896H195.88V50.7861Z" fill="#F1F5FB"/>
<path d="M195.88 50.7861H2.4751V51.9966H195.88V50.7861Z" fill="#DDEDFB"/>
<path d="M62.5694 53.9268H56.9604V118.317H62.5694V53.9268Z" fill="#DDEDFB"/>
<path d="M195.88 54.7539H2.4751V58.1286H195.88V54.7539Z" fill="#DDEDFB"/>
<path d="M135.72 118.317H141.329V53.9268H135.72V118.317Z" fill="#DDEDFB"/>
<path d="M194.414 50.9082H192.937V52.1887H194.414V50.9082Z" fill="#D1E6FA"/>
<path d="M190.824 50.9082H189.347V52.1887H190.824V50.9082Z" fill="#D1E6FA"/>
<path d="M187.234 50.9082H185.757V52.1887H187.234V50.9082Z" fill="#D1E6FA"/>
<path d="M183.644 50.9082H182.167V52.1887H183.644V50.9082Z" fill="#D1E6FA"/>
<path d="M180.055 50.9082H178.578V52.1887H180.055V50.9082Z" fill="#D1E6FA"/>
<path d="M176.465 50.9082H174.988V52.1887H176.465V50.9082Z" fill="#D1E6FA"/>
<path d="M172.875 50.9082H171.398V52.1887H172.875V50.9082Z" fill="#D1E6FA"/>
<path d="M169.286 50.9082H167.809V52.1887H169.286V50.9082Z" fill="#D1E6FA"/>
<path d="M165.696 50.9082H164.219V52.1887H165.696V50.9082Z" fill="#D1E6FA"/>
<path d="M162.107 50.9082H160.63V52.1887H162.107V50.9082Z" fill="#D1E6FA"/>
<path d="M158.517 50.9082H157.04V52.1887H158.517V50.9082Z" fill="#D1E6FA"/>
<path d="M154.928 50.9082H153.451V52.1887H154.928V50.9082Z" fill="#D1E6FA"/>
<path d="M151.338 50.9082H149.861V52.1887H151.338V50.9082Z" fill="#D1E6FA"/>
<path d="M147.748 50.9082H146.271V52.1887H147.748V50.9082Z" fill="#D1E6FA"/>
<path d="M144.159 50.9082H142.682V52.1887H144.159V50.9082Z" fill="#D1E6FA"/>
<path d="M140.569 50.9082H139.092V52.1887H140.569V50.9082Z" fill="#D1E6FA"/>
<path d="M152.328 62.6572H141.572V79.5415H152.328V62.6572Z" fill="#D1E6FA"/>
<path d="M151.305 79.3981C141.846 83.8224 142.736 78.9912 142.736 78.9912L151.305 79.3981Z" fill="#D1E6FA"/>
<path d="M143.982 79.335H143.269V80.1995H143.982V79.335Z" fill="white"/>
<path d="M143.982 79.335H143.269V79.7004H143.982V79.335Z" fill="#F1F5FB"/>
<path d="M150.676 79.335H149.963V80.1995H150.676V79.335Z" fill="white"/>
<path d="M150.676 79.335H149.963V79.7004H150.676V79.335Z" fill="#F1F5FB"/>
<path d="M151.207 63.6484H142.657V78.6508H151.207V63.6484Z" fill="white"/>
<path d="M151.207 63.6494H142.657V64.0179H151.207V63.6494Z" fill="#F1F5FB"/>
<path d="M151.21 63.6494H150.613V65.5838H151.21V63.6494Z" fill="#F1F5FB"/>
<path d="M143.254 63.6494H142.657V65.5838H143.254V63.6494Z" fill="#F1F5FB"/>
<path d="M151.207 78.3975H142.657V78.6519H151.207V78.3975Z" fill="#F1F5FB"/>
<path d="M150.52 77.9653V64.3359H143.343V77.9653H150.52Z" fill="#DDEDFB"/>
<path d="M150.52 65.4673V64.3359H143.343V65.4673H150.52Z" fill="#D1E6FA"/>
<path d="M151.667 78.6543H142.195V79.5474H151.667V78.6543Z" fill="white"/>
<path d="M151.735 62.6699H142.128V63.7411H151.735V62.6699Z" fill="white"/>
<path d="M151.385 63.1406H142.479V63.4617H151.385V63.1406Z" fill="#D1E6FA"/>
<path d="M145.87 64.0938H145.374V78.2064H145.87V64.0938Z" fill="white"/>
<path d="M148.514 64.0938H148.018V78.2064H148.514V64.0938Z" fill="white"/>
<path d="M150.688 67.1191H143.168V67.6152H150.688V67.1191Z" fill="white"/>
<path d="M150.688 70.8574H143.168V71.3535H150.688V70.8574Z" fill="white"/>
<path d="M150.688 74.5947H143.168V75.0904H150.688V74.5947Z" fill="white"/>
<path d="M142.891 65.21H142.405V77.8826H142.891V65.21Z" fill="#F1F5FB"/>
<path d="M142.891 65.21H142.405V65.6454H142.891V65.21Z" fill="#D1E6FA"/>
<path d="M151.425 65.21H150.939V77.8826H151.425V65.21Z" fill="#F1F5FB"/>
<path d="M151.425 65.21H150.939V65.6454H151.425V65.21Z" fill="#D1E6FA"/>
<path d="M143.108 63.7383H142.189V65.4102H143.108V63.7383Z" fill="white"/>
<path d="M150.759 65.4102H151.677V63.7383H150.759V65.4102Z" fill="white"/>
<path d="M143.108 76.9922H142.189V78.6641H143.108V76.9922Z" fill="white"/>
<path d="M150.759 78.6641H151.677V76.9922H150.759V78.6641Z" fill="white"/>
<path d="M165.754 62.6572H154.998V79.5415H165.754V62.6572Z" fill="#D1E6FA"/>
<path d="M164.731 79.3981C155.272 83.8224 156.161 78.9912 156.161 78.9912L164.731 79.3981Z" fill="#D1E6FA"/>
<path d="M157.408 79.335H156.695V80.1995H157.408V79.335Z" fill="white"/>
<path d="M157.408 79.335H156.695V79.7004H157.408V79.335Z" fill="#F1F5FB"/>
<path d="M164.101 79.335H163.389V80.1995H164.101V79.335Z" fill="white"/>
<path d="M164.101 79.335H163.389V79.7004H164.101V79.335Z" fill="#F1F5FB"/>
<path d="M164.632 63.6484H156.083V78.6508H164.632V63.6484Z" fill="white"/>
<path d="M164.632 63.6494H156.083V64.0179H164.632V63.6494Z" fill="#F1F5FB"/>
<path d="M164.636 63.6494H164.039V65.5838H164.636V63.6494Z" fill="#F1F5FB"/>
<path d="M156.68 63.6494H156.083V65.5838H156.68V63.6494Z" fill="#F1F5FB"/>
<path d="M164.632 78.3975H156.083V78.6519H164.632V78.3975Z" fill="#F1F5FB"/>
<path d="M163.945 77.9643V64.335H156.769V77.9643H163.945Z" fill="#DDEDFB"/>
<path d="M163.945 65.4664V64.335H156.769V65.4664H163.945Z" fill="#D1E6FA"/>
<path d="M165.093 78.6543H155.621V79.5474H165.093V78.6543Z" fill="white"/>
<path d="M165.161 62.6699H155.554V63.7411H165.161V62.6699Z" fill="white"/>
<path d="M164.81 63.1406H155.904V63.4617H164.81V63.1406Z" fill="#D1E6FA"/>
<path d="M159.296 64.0938H158.8V78.2064H159.296V64.0938Z" fill="white"/>
<path d="M161.94 64.0938H161.444V78.2064H161.94V64.0938Z" fill="white"/>
<path d="M164.114 67.1191H156.594V67.6152H164.114V67.1191Z" fill="white"/>
<path d="M164.114 70.8574H156.594V71.3535H164.114V70.8574Z" fill="white"/>
<path d="M164.114 74.5947H156.594V75.0904H164.114V74.5947Z" fill="white"/>
<path d="M156.317 65.21H155.831V77.8826H156.317V65.21Z" fill="#F1F5FB"/>
<path d="M156.317 65.21H155.831V65.6454H156.317V65.21Z" fill="#D1E6FA"/>
<path d="M164.852 65.21H164.366V77.8826H164.852V65.21Z" fill="#F1F5FB"/>
<path d="M164.852 65.21H164.366V65.6454H164.852V65.21Z" fill="#D1E6FA"/>
<path d="M156.533 63.7383H155.615V65.4102H156.533V63.7383Z" fill="white"/>
<path d="M164.185 65.4102H165.104V63.7383H164.185V65.4102Z" fill="white"/>
<path d="M156.533 76.9922H155.615V78.6641H156.533V76.9922Z" fill="white"/>
<path d="M164.185 78.6641H165.104V76.9922H164.185V78.6641Z" fill="white"/>
<path d="M179.18 62.6572H168.424V79.5415H179.18V62.6572Z" fill="#D1E6FA"/>
<path d="M178.157 79.3981C168.697 83.8224 169.587 78.9912 169.587 78.9912L178.157 79.3981Z" fill="#D1E6FA"/>
<path d="M170.833 79.335H170.121V80.1995H170.833V79.335Z" fill="white"/>
<path d="M170.833 79.335H170.121V79.7004H170.833V79.335Z" fill="#F1F5FB"/>
<path d="M177.528 79.335H176.815V80.1995H177.528V79.335Z" fill="white"/>
<path d="M177.528 79.335H176.815V79.7004H177.528V79.335Z" fill="#F1F5FB"/>
<path d="M178.058 63.6484H169.508V78.6508H178.058V63.6484Z" fill="white"/>
<path d="M178.058 63.6494H169.508V64.0179H178.058V63.6494Z" fill="#F1F5FB"/>
<path d="M178.062 63.6494H177.464V65.5838H178.062V63.6494Z" fill="#F1F5FB"/>
<path d="M170.106 63.6494H169.508V65.5838H170.106V63.6494Z" fill="#F1F5FB"/>
<path d="M178.058 78.3975H169.508V78.6519H178.058V78.3975Z" fill="#F1F5FB"/>
<path d="M177.372 77.9653V64.3359H170.195V77.9653H177.372Z" fill="#DDEDFB"/>
<path d="M177.372 65.4673V64.3359H170.195V65.4673H177.372Z" fill="#D1E6FA"/>
<path d="M178.519 78.6543H169.047V79.5474H178.519V78.6543Z" fill="white"/>
<path d="M178.587 62.6699H168.98V63.7411H178.587V62.6699Z" fill="white"/>
<path d="M178.236 63.1406H169.33V63.4617H178.236V63.1406Z" fill="#D1E6FA"/>
<path d="M172.721 64.0938H172.226V78.2064H172.721V64.0938Z" fill="white"/>
<path d="M175.366 64.0938H174.87V78.2064H175.366V64.0938Z" fill="white"/>
<path d="M177.54 67.1191H170.02V67.6152H177.54V67.1191Z" fill="white"/>
<path d="M177.54 70.8574H170.02V71.3535H177.54V70.8574Z" fill="white"/>
<path d="M177.54 74.5947H170.02V75.0904H177.54V74.5947Z" fill="white"/>
<path d="M169.743 65.21H169.257V77.8826H169.743V65.21Z" fill="#F1F5FB"/>
<path d="M169.743 65.21H169.257V65.6454H169.743V65.21Z" fill="#D1E6FA"/>
<path d="M178.277 65.21H177.792V77.8826H178.277V65.21Z" fill="#F1F5FB"/>
<path d="M178.277 65.21H177.792V65.6454H178.277V65.21Z" fill="#D1E6FA"/>
<path d="M169.96 63.7383H169.041V65.4102H169.96V63.7383Z" fill="white"/>
<path d="M177.611 65.4102H178.529V63.7383H177.611V65.4102Z" fill="white"/>
<path d="M169.96 76.9922H169.041V78.6641H169.96V76.9922Z" fill="white"/>
<path d="M177.611 78.6641H178.529V76.9922H177.611V78.6641Z" fill="white"/>
<path d="M192.606 62.6572H181.85V79.5415H192.606V62.6572Z" fill="#D1E6FA"/>
<path d="M191.582 79.3981C182.123 83.8224 183.013 78.9912 183.013 78.9912L191.582 79.3981Z" fill="#D1E6FA"/>
<path d="M184.259 79.335H183.546V80.1995H184.259V79.335Z" fill="white"/>
<path d="M184.259 79.335H183.546V79.7004H184.259V79.335Z" fill="#F1F5FB"/>
<path d="M190.954 79.335H190.241V80.1995H190.954V79.335Z" fill="white"/>
<path d="M190.954 79.335H190.241V79.7004H190.954V79.335Z" fill="#F1F5FB"/>
<path d="M191.484 63.6484H182.934V78.6508H191.484V63.6484Z" fill="white"/>
<path d="M191.484 63.6494H182.934V64.0179H191.484V63.6494Z" fill="#F1F5FB"/>
<path d="M191.487 63.6494H190.89V65.5838H191.487V63.6494Z" fill="#F1F5FB"/>
<path d="M183.531 63.6494H182.934V65.5838H183.531V63.6494Z" fill="#F1F5FB"/>
<path d="M191.484 78.3975H182.934V78.6519H191.484V78.3975Z" fill="#F1F5FB"/>
<path d="M190.797 77.9643V64.335H183.621V77.9643H190.797Z" fill="#DDEDFB"/>
<path d="M190.797 65.4664V64.335H183.621V65.4664H190.797Z" fill="#D1E6FA"/>
<path d="M191.945 78.6543H182.473V79.5474H191.945V78.6543Z" fill="white"/>
<path d="M192.013 62.6699H182.406V63.7411H192.013V62.6699Z" fill="white"/>
<path d="M191.662 63.1406H182.756V63.4617H191.662V63.1406Z" fill="#D1E6FA"/>
<path d="M186.147 64.0938H185.651V78.2064H186.147V64.0938Z" fill="white"/>
<path d="M188.792 64.0938H188.296V78.2064H188.792V64.0938Z" fill="white"/>
<path d="M190.966 67.1191H183.445V67.6152H190.966V67.1191Z" fill="white"/>
<path d="M190.966 70.8574H183.445V71.3535H190.966V70.8574Z" fill="white"/>
<path d="M190.966 74.5947H183.445V75.0904H190.966V74.5947Z" fill="white"/>
<path d="M183.169 65.21H182.683V77.8826H183.169V65.21Z" fill="#F1F5FB"/>
<path d="M183.169 65.21H182.683V65.6454H183.169V65.21Z" fill="#D1E6FA"/>
<path d="M191.703 65.21H191.217V77.8826H191.703V65.21Z" fill="#F1F5FB"/>
<path d="M191.703 65.21H191.217V65.6454H191.703V65.21Z" fill="#D1E6FA"/>
<path d="M183.386 63.7383H182.467V65.4102H183.386V63.7383Z" fill="white"/>
<path d="M191.037 65.4102H191.956V63.7383H191.037V65.4102Z" fill="white"/>
<path d="M183.386 76.9922H182.467V78.6641H183.386V76.9922Z" fill="white"/>
<path d="M191.037 78.6641H191.956V76.9922H191.037V78.6641Z" fill="white"/>
<path d="M152.352 90.5762H141.596V107.46H152.352V90.5762Z" fill="#D1E6FA"/>
<path d="M151.328 107.317C141.869 111.741 142.759 106.91 142.759 106.91L151.328 107.317Z" fill="#D1E6FA"/>
<path d="M144.005 107.254H143.292V108.118H144.005V107.254Z" fill="white"/>
<path d="M144.005 107.254H143.292V107.619H144.005V107.254Z" fill="#F1F5FB"/>
<path d="M150.699 107.254H149.986V108.118H150.699V107.254Z" fill="white"/>
<path d="M150.699 107.254H149.986V107.619H150.699V107.254Z" fill="#F1F5FB"/>
<path d="M151.23 91.5674H142.68V106.57H151.23V91.5674Z" fill="white"/>
<path d="M151.23 91.5674H142.68V91.9362H151.23V91.5674Z" fill="#F1F5FB"/>
<path d="M151.234 91.5674H150.636V93.5017H151.234V91.5674Z" fill="#F1F5FB"/>
<path d="M143.278 91.5674H142.68V93.5017H143.278V91.5674Z" fill="#F1F5FB"/>
<path d="M151.23 106.315H142.68V106.57H151.23V106.315Z" fill="#F1F5FB"/>
<path d="M150.543 105.883V92.2539H143.367V105.883H150.543Z" fill="#DDEDFB"/>
<path d="M150.543 93.3853V92.2539H143.367V93.3853H150.543Z" fill="#D1E6FA"/>
<path d="M151.691 106.573H142.219V107.466H151.691V106.573Z" fill="white"/>
<path d="M151.758 90.5889H142.151V91.66H151.758V90.5889Z" fill="white"/>
<path d="M151.408 91.0596H142.502V91.3806H151.408V91.0596Z" fill="#D1E6FA"/>
<path d="M145.894 92.0127H145.398V106.125H145.894V92.0127Z" fill="white"/>
<path d="M148.538 92.0127H148.042V106.125H148.538V92.0127Z" fill="white"/>
<path d="M150.712 95.0381H143.192V95.5338H150.712V95.0381Z" fill="white"/>
<path d="M150.712 98.7764H143.192V99.2721H150.712V98.7764Z" fill="white"/>
<path d="M150.712 102.514H143.192V103.009H150.712V102.514Z" fill="white"/>
<path d="M142.915 93.1279H142.429V105.801H142.915V93.1279Z" fill="#F1F5FB"/>
<path d="M142.915 93.1279H142.429V93.5634H142.915V93.1279Z" fill="#D1E6FA"/>
<path d="M151.449 93.1279H150.963V105.801H151.449V93.1279Z" fill="#F1F5FB"/>
<path d="M151.449 93.1279H150.963V93.5634H151.449V93.1279Z" fill="#D1E6FA"/>
<path d="M143.132 91.6562H142.213V93.3281H143.132V91.6562Z" fill="white"/>
<path d="M150.782 93.3281H151.701V91.6562H150.782V93.3281Z" fill="white"/>
<path d="M143.132 104.911H142.213V106.583H143.132V104.911Z" fill="white"/>
<path d="M150.782 106.583H151.701V104.911H150.782V106.583Z" fill="white"/>
<path d="M165.778 90.5762H155.022V107.46H165.778V90.5762Z" fill="#D1E6FA"/>
<path d="M164.754 107.317C155.295 111.741 156.185 106.91 156.185 106.91L164.754 107.317Z" fill="#D1E6FA"/>
<path d="M157.432 107.254H156.719V108.118H157.432V107.254Z" fill="white"/>
<path d="M157.432 107.254H156.719V107.619H157.432V107.254Z" fill="#F1F5FB"/>
<path d="M164.125 107.254H163.413V108.118H164.125V107.254Z" fill="white"/>
<path d="M164.125 107.254H163.413V107.619H164.125V107.254Z" fill="#F1F5FB"/>
<path d="M164.656 91.5674H156.106V106.57H164.656V91.5674Z" fill="white"/>
<path d="M164.656 91.5674H156.106V91.9362H164.656V91.5674Z" fill="#F1F5FB"/>
<path d="M164.66 91.5674H164.062V93.5017H164.66V91.5674Z" fill="#F1F5FB"/>
<path d="M156.703 91.5674H156.106V93.5017H156.703V91.5674Z" fill="#F1F5FB"/>
<path d="M164.656 106.315H156.106V106.57H164.656V106.315Z" fill="#F1F5FB"/>
<path d="M163.969 105.883V92.2539H156.793V105.883H163.969Z" fill="#DDEDFB"/>
<path d="M163.969 93.3853V92.2539H156.793V93.3853H163.969Z" fill="#D1E6FA"/>
<path d="M165.117 106.573H155.645V107.466H165.117V106.573Z" fill="white"/>
<path d="M165.184 90.5889H155.578V91.66H165.184V90.5889Z" fill="white"/>
<path d="M164.834 91.0596H155.928V91.3806H164.834V91.0596Z" fill="#D1E6FA"/>
<path d="M159.319 92.0127H158.823V106.125H159.319V92.0127Z" fill="white"/>
<path d="M161.963 92.0127H161.468V106.125H161.963V92.0127Z" fill="white"/>
<path d="M164.138 95.0381H156.618V95.5338H164.138V95.0381Z" fill="white"/>
<path d="M164.138 98.7764H156.618V99.2721H164.138V98.7764Z" fill="white"/>
<path d="M164.138 102.514H156.618V103.009H164.138V102.514Z" fill="white"/>
<path d="M156.341 93.1279H155.855V105.801H156.341V93.1279Z" fill="#F1F5FB"/>
<path d="M156.341 93.1279H155.855V93.5634H156.341V93.1279Z" fill="#D1E6FA"/>
<path d="M164.875 93.1279H164.389V105.801H164.875V93.1279Z" fill="#F1F5FB"/>
<path d="M164.875 93.1279H164.389V93.5634H164.875V93.1279Z" fill="#D1E6FA"/>
<path d="M156.557 91.6562H155.639V93.3281H156.557V91.6562Z" fill="white"/>
<path d="M164.209 93.3281H165.127V91.6562H164.209V93.3281Z" fill="white"/>
<path d="M156.557 104.911H155.639V106.583H156.557V104.911Z" fill="white"/>
<path d="M164.209 106.583H165.127V104.911H164.209V106.583Z" fill="white"/>
<path d="M179.204 90.5762H168.448V107.46H179.204V90.5762Z" fill="#D1E6FA"/>
<path d="M178.181 107.317C168.721 111.741 169.611 106.91 169.611 106.91L178.181 107.317Z" fill="#D1E6FA"/>
<path d="M170.857 107.254H170.145V108.118H170.857V107.254Z" fill="white"/>
<path d="M170.857 107.254H170.145V107.619H170.857V107.254Z" fill="#F1F5FB"/>
<path d="M177.551 107.254H176.838V108.118H177.551V107.254Z" fill="white"/>
<path d="M177.551 107.254H176.838V107.619H177.551V107.254Z" fill="#F1F5FB"/>
<path d="M178.082 91.5674H169.532V106.57H178.082V91.5674Z" fill="white"/>
<path d="M178.082 91.5674H169.532V91.9362H178.082V91.5674Z" fill="#F1F5FB"/>
<path d="M178.086 91.5674H177.488V93.5017H178.086V91.5674Z" fill="#F1F5FB"/>
<path d="M170.13 91.5674H169.532V93.5017H170.13V91.5674Z" fill="#F1F5FB"/>
<path d="M178.082 106.315H169.532V106.57H178.082V106.315Z" fill="#F1F5FB"/>
<path d="M177.395 105.883V92.2539H170.218V105.883H177.395Z" fill="#DDEDFB"/>
<path d="M177.396 93.3853V92.2539H170.219V93.3853H177.396Z" fill="#D1E6FA"/>
<path d="M178.543 106.573H169.071V107.466H178.543V106.573Z" fill="white"/>
<path d="M178.61 90.5889H169.003V91.66H178.61V90.5889Z" fill="white"/>
<path d="M178.26 91.0596H169.354V91.3806H178.26V91.0596Z" fill="#D1E6FA"/>
<path d="M172.745 92.0127H172.25V106.125H172.745V92.0127Z" fill="white"/>
<path d="M175.39 92.0127H174.894V106.125H175.39V92.0127Z" fill="white"/>
<path d="M177.564 95.0381H170.044V95.5338H177.564V95.0381Z" fill="white"/>
<path d="M177.564 98.7764H170.044V99.2721H177.564V98.7764Z" fill="white"/>
<path d="M177.564 102.514H170.044V103.009H177.564V102.514Z" fill="white"/>
<path d="M169.767 93.1279H169.281V105.801H169.767V93.1279Z" fill="#F1F5FB"/>
<path d="M169.767 93.1279H169.281V93.5634H169.767V93.1279Z" fill="#D1E6FA"/>
<path d="M178.301 93.1279H177.815V105.801H178.301V93.1279Z" fill="#F1F5FB"/>
<path d="M178.301 93.1279H177.815V93.5634H178.301V93.1279Z" fill="#D1E6FA"/>
<path d="M169.984 91.6562H169.065V93.3281H169.984V91.6562Z" fill="white"/>
<path d="M177.634 93.3281H178.553V91.6562H177.634V93.3281Z" fill="white"/>
<path d="M169.984 104.911H169.065V106.583H169.984V104.911Z" fill="white"/>
<path d="M177.634 106.583H178.553V104.911H177.634V106.583Z" fill="white"/>
<path d="M192.63 90.5762H181.874V107.46H192.63V90.5762Z" fill="#D1E6FA"/>
<path d="M191.606 107.317C182.147 111.741 183.037 106.91 183.037 106.91L191.606 107.317Z" fill="#D1E6FA"/>
<path d="M184.283 107.254H183.57V108.118H184.283V107.254Z" fill="white"/>
<path d="M184.283 107.254H183.57V107.619H184.283V107.254Z" fill="#F1F5FB"/>
<path d="M190.977 107.254H190.264V108.118H190.977V107.254Z" fill="white"/>
<path d="M190.977 107.254H190.264V107.619H190.977V107.254Z" fill="#F1F5FB"/>
<path d="M191.508 91.5674H182.958V106.57H191.508V91.5674Z" fill="white"/>
<path d="M191.508 91.5674H182.958V91.9362H191.508V91.5674Z" fill="#F1F5FB"/>
<path d="M191.511 91.5674H190.914V93.5017H191.511V91.5674Z" fill="#F1F5FB"/>
<path d="M183.555 91.5674H182.958V93.5017H183.555V91.5674Z" fill="#F1F5FB"/>
<path d="M191.508 106.315H182.958V106.57H191.508V106.315Z" fill="#F1F5FB"/>
<path d="M190.821 105.883V92.2539H183.645V105.883H190.821Z" fill="#DDEDFB"/>
<path d="M190.821 93.3853V92.2539H183.645V93.3853H190.821Z" fill="#D1E6FA"/>
<path d="M191.969 106.573H182.497V107.466H191.969V106.573Z" fill="white"/>
<path d="M192.037 90.5889H182.43V91.66H192.037V90.5889Z" fill="white"/>
<path d="M191.686 91.0596H182.78V91.3806H191.686V91.0596Z" fill="#D1E6FA"/>
<path d="M186.171 92.0127H185.675V106.125H186.171V92.0127Z" fill="white"/>
<path d="M188.816 92.0127H188.32V106.125H188.816V92.0127Z" fill="white"/>
<path d="M190.99 95.0381H183.47V95.5338H190.99V95.0381Z" fill="white"/>
<path d="M190.99 98.7764H183.47V99.2721H190.99V98.7764Z" fill="white"/>
<path d="M190.99 102.514H183.47V103.009H190.99V102.514Z" fill="white"/>
<path d="M183.193 93.1279H182.707V105.801H183.193V93.1279Z" fill="#F1F5FB"/>
<path d="M183.193 93.1279H182.707V93.5634H183.193V93.1279Z" fill="#D1E6FA"/>
<path d="M191.727 93.1279H191.241V105.801H191.727V93.1279Z" fill="#F1F5FB"/>
<path d="M191.727 93.1279H191.241V93.5634H191.727V93.1279Z" fill="#D1E6FA"/>
<path d="M183.409 91.6562H182.491V93.3281H183.409V91.6562Z" fill="white"/>
<path d="M191.06 93.3281H191.979V91.6562H191.06V93.3281Z" fill="white"/>
<path d="M183.409 104.911H182.491V106.583H183.409V104.911Z" fill="white"/>
<path d="M191.06 106.583H191.979V104.911H191.06V106.583Z" fill="white"/>
<path d="M146.918 86.627L141.566 90.5906H152.271L146.918 86.627Z" fill="white"/>
<path d="M143.605 89.9178L146.918 87.4648L150.231 89.9178H143.605Z" fill="#D1E6FA"/>
<path d="M143.605 89.9178H144.043L147.169 87.6506L146.918 87.4648L143.605 89.9178Z" fill="#A4CEF5"/>
<path d="M173.728 86.627L168.376 90.5906H179.081L173.728 86.627Z" fill="white"/>
<path d="M170.416 89.9178L173.728 87.4648L177.041 89.9178H170.416Z" fill="#D1E6FA"/>
<path d="M170.416 89.9178H170.853L173.979 87.6506L173.728 87.4648L170.416 89.9178Z" fill="#A4CEF5"/>
<path d="M160.423 86.4463H160.373C157.413 86.4463 155.014 88.31 155.014 90.6091H165.783C165.783 88.3103 163.383 86.4463 160.423 86.4463Z" fill="white"/>
<path d="M155.774 89.9362C156.197 88.3327 158.098 87.1191 160.373 87.1191H160.423C162.698 87.1191 164.6 88.3327 165.022 89.9362H155.774Z" fill="#D1E6FA"/>
<path d="M162.816 87.6108C162.115 87.2995 161.297 87.1191 160.423 87.1191H160.373C158.098 87.1191 156.197 88.3327 155.774 89.9362H156.31C156.807 88.4141 159.017 86.7813 162.816 87.6108Z" fill="#A4CEF5"/>
<path d="M187.277 86.4463H187.227C184.267 86.4463 181.868 88.31 181.868 90.6091H192.637C192.637 88.3103 190.237 86.4463 187.277 86.4463Z" fill="white"/>
<path d="M182.628 89.9362C183.051 88.3327 184.952 87.1191 187.227 87.1191H187.277C189.552 87.1191 191.454 88.3327 191.876 89.9362H182.628Z" fill="#D1E6FA"/>
<path d="M189.67 87.6108C188.969 87.2995 188.151 87.1191 187.277 87.1191H187.227C184.952 87.1191 183.051 88.3327 182.628 89.9362H183.164C183.661 88.4141 185.871 86.7813 189.67 87.6108Z" fill="#A4CEF5"/>
<path d="M185.265 118.354H189.303V113.195H185.265V118.354Z" fill="#D1E6FA"/>
<path d="M171.692 118.354H175.73V113.195H171.692V118.354Z" fill="#D1E6FA"/>
<path d="M158.118 118.354H162.157V113.195H158.118V118.354Z" fill="#D1E6FA"/>
<path d="M144.545 118.354H148.583V113.195H144.545V118.354Z" fill="#D1E6FA"/>
<path d="M196.17 57.2813H2.18631C1.91506 57.2813 1.69531 57.0615 1.69531 56.7903V54.3972C1.69531 54.126 1.91506 53.9062 2.18631 53.9062H196.17C196.441 53.9062 196.66 54.126 196.66 54.3972V56.7903C196.66 57.0615 196.441 57.2813 196.17 57.2813Z" fill="white"/>
<path d="M196.66 54.7627H1.69531V56.3333H196.66V54.7627Z" fill="#DDEDFB"/>
<path d="M195.888 50.9078H2.46708L0.517578 48.373H197.838L195.888 50.9078Z" fill="white"/>
<path d="M197.832 48.5557H0.523637C0.235569 48.5557 0 48.3202 0 48.0324C0 47.7444 0.235569 47.5088 0.523637 47.5088H197.832C198.12 47.5088 198.355 47.7444 198.355 48.0324C198.355 48.3202 198.12 48.5557 197.832 48.5557Z" fill="#F1F5FB"/>
<path d="M5.35348 50.9082H3.87646V52.1887H5.35348V50.9082Z" fill="#D1E6FA"/>
<path d="M8.94333 50.9082H7.46631V52.1887H8.94333V50.9082Z" fill="#D1E6FA"/>
<path d="M12.5327 50.9082H11.0557V52.1887H12.5327V50.9082Z" fill="#D1E6FA"/>
<path d="M16.1225 50.9082H14.6455V52.1887H16.1225V50.9082Z" fill="#D1E6FA"/>
<path d="M19.7119 50.9082H18.2349V52.1887H19.7119V50.9082Z" fill="#D1E6FA"/>
<path d="M23.3017 50.9082H21.8247V52.1887H23.3017V50.9082Z" fill="#D1E6FA"/>
<path d="M26.8911 50.9082H25.4141V52.1887H26.8911V50.9082Z" fill="#D1E6FA"/>
<path d="M30.4809 50.9082H29.0039V52.1887H30.4809V50.9082Z" fill="#D1E6FA"/>
<path d="M34.0703 50.9082H32.5933V52.1887H34.0703V50.9082Z" fill="#D1E6FA"/>
<path d="M37.6601 50.9082H36.1831V52.1887H37.6601V50.9082Z" fill="#D1E6FA"/>
<path d="M41.25 50.9082H39.7729V52.1887H41.25V50.9082Z" fill="#D1E6FA"/>
<path d="M44.8393 50.9082H43.3623V52.1887H44.8393V50.9082Z" fill="#D1E6FA"/>
<path d="M48.4292 50.9082H46.9521V52.1887H48.4292V50.9082Z" fill="#D1E6FA"/>
<path d="M52.019 50.9082H50.542V52.1887H52.019V50.9082Z" fill="#D1E6FA"/>
<path d="M55.6084 50.9082H54.1313V52.1887H55.6084V50.9082Z" fill="#D1E6FA"/>
<path d="M59.1977 50.9082H57.7207V52.1887H59.1977V50.9082Z" fill="#D1E6FA"/>
<path d="M16.4397 62.6572H5.68359V79.5415H16.4397V62.6572Z" fill="#D1E6FA"/>
<path d="M15.4164 79.3981C5.95724 83.8224 6.84702 78.9912 6.84702 78.9912L15.4164 79.3981Z" fill="#D1E6FA"/>
<path d="M8.09265 79.335H7.37988V80.1995H8.09265V79.335Z" fill="white"/>
<path d="M8.09265 79.335H7.37988V79.7004H8.09265V79.335Z" fill="#F1F5FB"/>
<path d="M14.787 79.335H14.0742V80.1995H14.787V79.335Z" fill="white"/>
<path d="M14.787 79.335H14.0742V79.7004H14.787V79.335Z" fill="#F1F5FB"/>
<path d="M15.3179 63.6484H6.76807V78.6508H15.3179V63.6484Z" fill="white"/>
<path d="M15.3179 63.6494H6.76807V64.0179H15.3179V63.6494Z" fill="#F1F5FB"/>
<path d="M15.3215 63.6494H14.7241V65.5838H15.3215V63.6494Z" fill="#F1F5FB"/>
<path d="M7.3654 63.6494H6.76807V65.5838H7.3654V63.6494Z" fill="#F1F5FB"/>
<path d="M15.3179 78.3975H6.76807V78.6519H15.3179V78.3975Z" fill="#F1F5FB"/>
<path d="M14.6309 77.9653L14.6309 64.3359H7.45406L7.45406 77.9653H14.6309Z" fill="#DDEDFB"/>
<path d="M14.6309 65.4664V64.335H7.45407V65.4664H14.6309Z" fill="#D1E6FA"/>
<path d="M15.779 78.6543H6.30713V79.5474H15.779V78.6543Z" fill="white"/>
<path d="M15.8461 62.6699H6.23926V63.7411H15.8461V62.6699Z" fill="white"/>
<path d="M15.4956 63.1406H6.58936V63.4617H15.4956V63.1406Z" fill="#D1E6FA"/>
<path d="M9.98105 64.0938H9.48535V78.2064H9.98105V64.0938Z" fill="white"/>
<path d="M12.6256 64.0938H12.1299V78.2064H12.6256V64.0938Z" fill="white"/>
<path d="M14.8002 67.1191H7.27979V67.6152H14.8002V67.1191Z" fill="white"/>
<path d="M14.8002 70.8574H7.27979V71.3535H14.8002V70.8574Z" fill="white"/>
<path d="M14.8002 74.5947H7.27979V75.0904H14.8002V74.5947Z" fill="white"/>
<path d="M7.00255 65.21H6.5166V77.8826H7.00255V65.21Z" fill="#F1F5FB"/>
<path d="M7.00255 65.21H6.5166V65.6454H7.00255V65.21Z" fill="#D1E6FA"/>
<path d="M15.5367 65.21H15.0508V77.8826H15.5367V65.21Z" fill="#F1F5FB"/>
<path d="M15.5367 65.21H15.0508V65.6454H15.5367V65.21Z" fill="#D1E6FA"/>
<path d="M7.21901 63.7383H6.30029V65.4102H7.21901V63.7383Z" fill="white"/>
<path d="M14.8703 65.4102H15.7891V63.7383H14.8703V65.4102Z" fill="white"/>
<path d="M7.21901 76.9922H6.30029V78.6641H7.21901V76.9922Z" fill="white"/>
<path d="M14.8703 78.6641H15.7891V76.9922H14.8703V78.6641Z" fill="white"/>
<path d="M29.866 62.6572H19.1099V79.5415H29.866V62.6572Z" fill="#D1E6FA"/>
<path d="M28.8421 79.3981C19.383 83.8224 20.2728 78.9912 20.2728 78.9912L28.8421 79.3981Z" fill="#D1E6FA"/>
<path d="M21.5189 79.335H20.8062V80.1995H21.5189V79.335Z" fill="white"/>
<path d="M21.5189 79.335H20.8062V79.7004H21.5189V79.335Z" fill="#F1F5FB"/>
<path d="M28.2128 79.335H27.5V80.1995H28.2128V79.335Z" fill="white"/>
<path d="M28.2128 79.335H27.5V79.7004H28.2128V79.335Z" fill="#F1F5FB"/>
<path d="M28.7437 63.6484H20.1938V78.6508H28.7437V63.6484Z" fill="white"/>
<path d="M28.7437 63.6494H20.1938V64.0179H28.7437V63.6494Z" fill="#F1F5FB"/>
<path d="M28.7472 63.6494H28.1499V65.5838H28.7472V63.6494Z" fill="#F1F5FB"/>
<path d="M20.7912 63.6494H20.1938V65.5838H20.7912V63.6494Z" fill="#F1F5FB"/>
<path d="M28.7437 78.3975H20.1938V78.6519H28.7437V78.3975Z" fill="#F1F5FB"/>
<path d="M28.0566 77.9643L28.0566 64.335H20.8798L20.8798 77.9643H28.0566Z" fill="#DDEDFB"/>
<path d="M28.0571 65.4673V64.3359H20.8803V65.4673H28.0571Z" fill="#D1E6FA"/>
<path d="M29.2048 78.6543H19.7329V79.5474H29.2048V78.6543Z" fill="white"/>
<path d="M29.2724 62.6699H19.6655V63.7411H29.2724V62.6699Z" fill="white"/>
<path d="M28.9218 63.1406H20.0156V63.4617H28.9218V63.1406Z" fill="#D1E6FA"/>
<path d="M23.4068 64.0938H22.9111V78.2064H23.4068V64.0938Z" fill="white"/>
<path d="M26.0517 64.0938H25.5557V78.2064H26.0517V64.0938Z" fill="white"/>
<path d="M28.226 67.1191H20.7056V67.6152H28.226V67.1191Z" fill="white"/>
<path d="M28.226 70.8574H20.7056V71.3535H28.226V70.8574Z" fill="white"/>
<path d="M28.226 74.5947H20.7056V75.0904H28.226V74.5947Z" fill="white"/>
<path d="M20.4288 65.21H19.9429V77.8826H20.4288V65.21Z" fill="#F1F5FB"/>
<path d="M20.4288 65.21H19.9429V65.6454H20.4288V65.21Z" fill="#D1E6FA"/>
<path d="M28.963 65.21H28.4771V77.8826H28.963V65.21Z" fill="#F1F5FB"/>
<path d="M28.963 65.21H28.4771V65.6454H28.963V65.21Z" fill="#D1E6FA"/>
<path d="M20.6448 63.7383H19.7261V65.4102H20.6448V63.7383Z" fill="white"/>
<path d="M28.2961 65.4102H29.2148V63.7383H28.2961V65.4102Z" fill="white"/>
<path d="M20.6448 76.9922H19.7261V78.6641H20.6448V76.9922Z" fill="white"/>
<path d="M28.2961 78.6641H29.2148V76.9922H28.2961V78.6641Z" fill="white"/>
<path d="M43.2917 62.6572H32.5356V79.5415H43.2917V62.6572Z" fill="#D1E6FA"/>
<path d="M42.2684 79.3981C32.8093 83.8224 33.6991 78.9912 33.6991 78.9912L42.2684 79.3981Z" fill="#D1E6FA"/>
<path d="M34.9447 79.335H34.2319V80.1995H34.9447V79.335Z" fill="white"/>
<path d="M34.9447 79.335H34.2319V79.7004H34.9447V79.335Z" fill="#F1F5FB"/>
<path d="M41.6385 79.335H40.9258V80.1995H41.6385V79.335Z" fill="white"/>
<path d="M41.6385 79.335H40.9258V79.7004H41.6385V79.335Z" fill="#F1F5FB"/>
<path d="M42.1699 63.6484H33.6201V78.6508H42.1699V63.6484Z" fill="white"/>
<path d="M42.1699 63.6494H33.6201V64.0179H42.1699V63.6494Z" fill="#F1F5FB"/>
<path d="M42.1735 63.6494H41.5762V65.5838H42.1735V63.6494Z" fill="#F1F5FB"/>
<path d="M34.2175 63.6494H33.6201V65.5838H34.2175V63.6494Z" fill="#F1F5FB"/>
<path d="M42.1699 78.3975H33.6201V78.6519H42.1699V78.3975Z" fill="#F1F5FB"/>
<path d="M41.4829 77.9653V64.3359H34.3061V77.9653H41.4829Z" fill="#DDEDFB"/>
<path d="M41.4829 65.4664V64.335H34.3061V65.4664H41.4829Z" fill="#D1E6FA"/>
<path d="M42.6306 78.6543H33.1587V79.5474H42.6306V78.6543Z" fill="white"/>
<path d="M42.6982 62.6699H33.0913V63.7411H42.6982V62.6699Z" fill="white"/>
<path d="M42.3476 63.1406H33.4414V63.4617H42.3476V63.1406Z" fill="#D1E6FA"/>
<path d="M36.8334 64.0938H36.3374V78.2064H36.8334V64.0938Z" fill="white"/>
<path d="M39.4771 64.0938H38.9814V78.2064H39.4771V64.0938Z" fill="white"/>
<path d="M41.6517 67.1191H34.1313V67.6152H41.6517V67.1191Z" fill="white"/>
<path d="M41.6517 70.8574H34.1313V71.3535H41.6517V70.8574Z" fill="white"/>
<path d="M41.6517 74.5947H34.1313V75.0904H41.6517V74.5947Z" fill="white"/>
<path d="M33.8546 65.21H33.3687V77.8826H33.8546V65.21Z" fill="#F1F5FB"/>
<path d="M33.8546 65.21H33.3687V65.6454H33.8546V65.21Z" fill="#D1E6FA"/>
<path d="M42.3888 65.21H41.9028V77.8826H42.3888V65.21Z" fill="#F1F5FB"/>
<path d="M42.3888 65.21H41.9028V65.6454H42.3888V65.21Z" fill="#D1E6FA"/>
<path d="M34.0711 63.7383H33.1523V65.4102H34.0711V63.7383Z" fill="white"/>
<path d="M41.7224 65.4102H42.6411V63.7383H41.7224V65.4102Z" fill="white"/>
<path d="M34.0711 76.9922H33.1523V78.6641H34.0711V76.9922Z" fill="white"/>
<path d="M41.7224 78.6641H42.6411V76.9922H41.7224V78.6641Z" fill="white"/>
<path d="M56.7175 62.6572H45.9614V79.5415H56.7175V62.6572Z" fill="#D1E6FA"/>
<path d="M55.6942 79.3981C46.2351 83.8224 47.1248 78.9912 47.1248 78.9912L55.6942 79.3981Z" fill="#D1E6FA"/>
<path d="M48.371 79.335H47.6582V80.1995H48.371V79.335Z" fill="white"/>
<path d="M48.371 79.335H47.6582V79.7004H48.371V79.335Z" fill="#F1F5FB"/>
<path d="M55.0648 79.335H54.3521V80.1995H55.0648V79.335Z" fill="white"/>
<path d="M55.0648 79.335H54.3521V79.7004H55.0648V79.335Z" fill="#F1F5FB"/>
<path d="M55.5957 63.6484H47.0459V78.6508H55.5957V63.6484Z" fill="white"/>
<path d="M55.5957 63.6494H47.0459V64.0179H55.5957V63.6494Z" fill="#F1F5FB"/>
<path d="M55.5993 63.6494H55.002V65.5838H55.5993V63.6494Z" fill="#F1F5FB"/>
<path d="M47.6432 63.6494H47.0459V65.5838H47.6432V63.6494Z" fill="#F1F5FB"/>
<path d="M55.5957 78.3975H47.0459V78.6519H55.5957V78.3975Z" fill="#F1F5FB"/>
<path d="M54.9087 77.9643V64.335H47.7319V77.9643H54.9087Z" fill="#DDEDFB"/>
<path d="M54.9087 65.4673V64.3359H47.7319V65.4673H54.9087Z" fill="#D1E6FA"/>
<path d="M56.0564 78.6543H46.5845V79.5474H56.0564V78.6543Z" fill="white"/>
<path d="M56.1239 62.6699H46.5171V63.7411H56.1239V62.6699Z" fill="white"/>
<path d="M55.7739 63.1406H46.8677V63.4617H55.7739V63.1406Z" fill="#D1E6FA"/>
<path d="M50.2592 64.0938H49.7632V78.2064H50.2592V64.0938Z" fill="white"/>
<path d="M52.9029 64.0938H52.4072V78.2064H52.9029V64.0938Z" fill="white"/>
<path d="M55.0775 67.1191H47.5571V67.6152H55.0775V67.1191Z" fill="white"/>
<path d="M55.0775 70.8574H47.5571V71.3535H55.0775V70.8574Z" fill="white"/>
<path d="M55.0775 74.5947H47.5571V75.0904H55.0775V74.5947Z" fill="white"/>
<path d="M47.2804 65.21H46.7944V77.8826H47.2804V65.21Z" fill="#F1F5FB"/>
<path d="M47.2804 65.21H46.7944V65.6454H47.2804V65.21Z" fill="#D1E6FA"/>
<path d="M55.815 65.21H55.3291V77.8826H55.815V65.21Z" fill="#F1F5FB"/>
<path d="M55.815 65.21H55.3291V65.6454H55.815V65.21Z" fill="#D1E6FA"/>
<path d="M47.4968 63.7383H46.5781V65.4102H47.4968V63.7383Z" fill="white"/>
<path d="M55.1482 65.4102H56.0669V63.7383H55.1482V65.4102Z" fill="white"/>
<path d="M47.4968 76.9922H46.5781V78.6641H47.4968V76.9922Z" fill="white"/>
<path d="M55.1482 78.6641H56.0669V76.9922H55.1482V78.6641Z" fill="white"/>
<path d="M16.4397 90.5762H5.68359V107.46H16.4397V90.5762Z" fill="#D1E6FA"/>
<path d="M15.4164 107.317C5.95724 111.741 6.84702 106.91 6.84702 106.91L15.4164 107.317Z" fill="#D1E6FA"/>
<path d="M8.09265 107.254H7.37988V108.118H8.09265V107.254Z" fill="white"/>
<path d="M8.09265 107.254H7.37988V107.619H8.09265V107.254Z" fill="#F1F5FB"/>
<path d="M14.787 107.254H14.0742V108.118H14.787V107.254Z" fill="white"/>
<path d="M14.787 107.254H14.0742V107.619H14.787V107.254Z" fill="#F1F5FB"/>
<path d="M15.3179 91.5674H6.76807V106.57H15.3179V91.5674Z" fill="white"/>
<path d="M15.3179 91.5674H6.76807V91.9362H15.3179V91.5674Z" fill="#F1F5FB"/>
<path d="M15.3215 91.5674H14.7241V93.5017H15.3215V91.5674Z" fill="#F1F5FB"/>
<path d="M7.3654 91.5674H6.76807V93.5017H7.3654V91.5674Z" fill="#F1F5FB"/>
<path d="M15.3179 106.315H6.76807V106.57H15.3179V106.315Z" fill="#F1F5FB"/>
<path d="M14.6309 105.883L14.6309 92.2539H7.45407L7.45407 105.883H14.6309Z" fill="#DDEDFB"/>
<path d="M14.6309 93.3853V92.2539H7.45407V93.3853H14.6309Z" fill="#D1E6FA"/>
<path d="M15.779 106.573H6.30713V107.466H15.779V106.573Z" fill="white"/>
<path d="M15.8461 90.5889H6.23926V91.66H15.8461V90.5889Z" fill="white"/>
<path d="M15.4956 91.0596H6.58936V91.3806H15.4956V91.0596Z" fill="#D1E6FA"/>
<path d="M9.98105 92.0127H9.48535V106.125H9.98105V92.0127Z" fill="white"/>
<path d="M12.6256 92.0127H12.1299V106.125H12.6256V92.0127Z" fill="white"/>
<path d="M14.8002 95.0381H7.27979V95.5338H14.8002V95.0381Z" fill="white"/>
<path d="M14.8002 98.7764H7.27979V99.2721H14.8002V98.7764Z" fill="white"/>
<path d="M14.8002 102.514H7.27979V103.009H14.8002V102.514Z" fill="white"/>
<path d="M7.00255 93.1279H6.5166V105.801H7.00255V93.1279Z" fill="#F1F5FB"/>
<path d="M7.00255 93.1279H6.5166V93.5634H7.00255V93.1279Z" fill="#D1E6FA"/>
<path d="M15.5367 93.1279H15.0508V105.801H15.5367V93.1279Z" fill="#F1F5FB"/>
<path d="M15.5367 93.1279H15.0508V93.5634H15.5367V93.1279Z" fill="#D1E6FA"/>
<path d="M7.21901 91.6562H6.30029V93.3281H7.21901V91.6562Z" fill="white"/>
<path d="M14.8703 93.3281H15.7891V91.6562H14.8703V93.3281Z" fill="white"/>
<path d="M7.21901 104.911H6.30029V106.583H7.21901V104.911Z" fill="white"/>
<path d="M14.8703 106.583H15.7891V104.911H14.8703V106.583Z" fill="white"/>
<path d="M29.866 90.5762H19.1099V107.46H29.866V90.5762Z" fill="#D1E6FA"/>
<path d="M28.8421 107.317C19.383 111.741 20.2728 106.91 20.2728 106.91L28.8421 107.317Z" fill="#D1E6FA"/>
<path d="M21.5189 107.254H20.8062V108.118H21.5189V107.254Z" fill="white"/>
<path d="M21.5189 107.254H20.8062V107.619H21.5189V107.254Z" fill="#F1F5FB"/>
<path d="M28.2128 107.254H27.5V108.118H28.2128V107.254Z" fill="white"/>
<path d="M28.2128 107.254H27.5V107.619H28.2128V107.254Z" fill="#F1F5FB"/>
<path d="M28.7437 91.5674H20.1938V106.57H28.7437V91.5674Z" fill="white"/>
<path d="M28.7437 91.5674H20.1938V91.9362H28.7437V91.5674Z" fill="#F1F5FB"/>
<path d="M28.7472 91.5674H28.1499V93.5017H28.7472V91.5674Z" fill="#F1F5FB"/>
<path d="M20.7912 91.5674H20.1938V93.5017H20.7912V91.5674Z" fill="#F1F5FB"/>
<path d="M28.7437 106.315H20.1938V106.57H28.7437V106.315Z" fill="#F1F5FB"/>
<path d="M28.0566 105.883L28.0566 92.2539H20.8799L20.8799 105.883H28.0566Z" fill="#DDEDFB"/>
<path d="M28.0571 93.3853V92.2539H20.8803V93.3853H28.0571Z" fill="#D1E6FA"/>
<path d="M29.2048 106.573H19.7329V107.466H29.2048V106.573Z" fill="white"/>
<path d="M29.2724 90.5889H19.6655V91.66H29.2724V90.5889Z" fill="white"/>
<path d="M28.9218 91.0596H20.0156V91.3806H28.9218V91.0596Z" fill="#D1E6FA"/>
<path d="M23.4068 92.0127H22.9111V106.125H23.4068V92.0127Z" fill="white"/>
<path d="M26.0517 92.0127H25.5557V106.125H26.0517V92.0127Z" fill="white"/>
<path d="M28.226 95.0381H20.7056V95.5338H28.226V95.0381Z" fill="white"/>
<path d="M28.226 98.7764H20.7056V99.2721H28.226V98.7764Z" fill="white"/>
<path d="M28.226 102.514H20.7056V103.009H28.226V102.514Z" fill="white"/>
<path d="M20.4288 93.1279H19.9429V105.801H20.4288V93.1279Z" fill="#F1F5FB"/>
<path d="M20.4288 93.1279H19.9429V93.5634H20.4288V93.1279Z" fill="#D1E6FA"/>
<path d="M28.963 93.1279H28.4771V105.801H28.963V93.1279Z" fill="#F1F5FB"/>
<path d="M28.963 93.1279H28.4771V93.5634H28.963V93.1279Z" fill="#D1E6FA"/>
<path d="M20.6448 91.6562H19.7261V93.3281H20.6448V91.6562Z" fill="white"/>
<path d="M28.2961 93.3281H29.2148V91.6562H28.2961V93.3281Z" fill="white"/>
<path d="M20.6448 104.911H19.7261V106.583H20.6448V104.911Z" fill="white"/>
<path d="M28.2961 106.583H29.2148V104.911H28.2961V106.583Z" fill="white"/>
<path d="M43.2917 90.5762H32.5356V107.46H43.2917V90.5762Z" fill="#D1E6FA"/>
<path d="M42.2684 107.317C32.8093 111.741 33.6991 106.91 33.6991 106.91L42.2684 107.317Z" fill="#D1E6FA"/>
<path d="M34.9447 107.254H34.2319V108.118H34.9447V107.254Z" fill="white"/>
<path d="M34.9447 107.254H34.2319V107.619H34.9447V107.254Z" fill="#F1F5FB"/>
<path d="M41.6385 107.254H40.9258V108.118H41.6385V107.254Z" fill="white"/>
<path d="M41.6385 107.254H40.9258V107.619H41.6385V107.254Z" fill="#F1F5FB"/>
<path d="M42.1699 91.5674H33.6201V106.57H42.1699V91.5674Z" fill="white"/>
<path d="M42.1699 91.5674H33.6201V91.9362H42.1699V91.5674Z" fill="#F1F5FB"/>
<path d="M42.1735 91.5674H41.5762V93.5017H42.1735V91.5674Z" fill="#F1F5FB"/>
<path d="M34.2175 91.5674H33.6201V93.5017H34.2175V91.5674Z" fill="#F1F5FB"/>
<path d="M42.1699 106.315H33.6201V106.57H42.1699V106.315Z" fill="#F1F5FB"/>
<path d="M41.4829 105.883V92.2539H34.3061V105.883H41.4829Z" fill="#DDEDFB"/>
<path d="M41.4829 93.3853V92.2539H34.3061V93.3853H41.4829Z" fill="#D1E6FA"/>
<path d="M42.6306 106.573H33.1587V107.466H42.6306V106.573Z" fill="white"/>
<path d="M42.6982 90.5889H33.0913V91.66H42.6982V90.5889Z" fill="white"/>
<path d="M42.3476 91.0596H33.4414V91.3806H42.3476V91.0596Z" fill="#D1E6FA"/>
<path d="M36.8334 92.0127H36.3374V106.125H36.8334V92.0127Z" fill="white"/>
<path d="M39.4771 92.0127H38.9814V106.125H39.4771V92.0127Z" fill="white"/>
<path d="M41.6517 95.0381H34.1313V95.5338H41.6517V95.0381Z" fill="white"/>
<path d="M41.6517 98.7764H34.1313V99.2721H41.6517V98.7764Z" fill="white"/>
<path d="M41.6517 102.514H34.1313V103.009H41.6517V102.514Z" fill="white"/>
<path d="M33.8546 93.1279H33.3687V105.801H33.8546V93.1279Z" fill="#F1F5FB"/>
<path d="M33.8546 93.1279H33.3687V93.5634H33.8546V93.1279Z" fill="#D1E6FA"/>
<path d="M42.3888 93.1279H41.9028V105.801H42.3888V93.1279Z" fill="#F1F5FB"/>
<path d="M42.3888 93.1279H41.9028V93.5634H42.3888V93.1279Z" fill="#D1E6FA"/>
<path d="M34.0711 91.6562H33.1523V93.3281H34.0711V91.6562Z" fill="white"/>
<path d="M41.7224 93.3281H42.6411V91.6562H41.7224V93.3281Z" fill="white"/>
<path d="M34.0711 104.911H33.1523V106.583H34.0711V104.911Z" fill="white"/>
<path d="M41.7224 106.583H42.6411V104.911H41.7224V106.583Z" fill="white"/>
<path d="M56.7175 90.5762H45.9614V107.46H56.7175V90.5762Z" fill="#D1E6FA"/>
<path d="M55.6942 107.317C46.2351 111.741 47.1248 106.91 47.1248 106.91L55.6942 107.317Z" fill="#D1E6FA"/>
<path d="M48.371 107.254H47.6582V108.118H48.371V107.254Z" fill="white"/>
<path d="M48.371 107.254H47.6582V107.619H48.371V107.254Z" fill="#F1F5FB"/>
<path d="M55.0648 107.254H54.3521V108.118H55.0648V107.254Z" fill="white"/>
<path d="M55.0648 107.254H54.3521V107.619H55.0648V107.254Z" fill="#F1F5FB"/>
<path d="M55.5957 91.5674H47.0459V106.57H55.5957V91.5674Z" fill="white"/>
<path d="M55.5957 91.5674H47.0459V91.9362H55.5957V91.5674Z" fill="#F1F5FB"/>
<path d="M55.5993 91.5674H55.002V93.5017H55.5993V91.5674Z" fill="#F1F5FB"/>
<path d="M47.6432 91.5674H47.0459V93.5017H47.6432V91.5674Z" fill="#F1F5FB"/>
<path d="M55.5957 106.315H47.0459V106.57H55.5957V106.315Z" fill="#F1F5FB"/>
<path d="M54.9087 105.883V92.2539H47.7319V105.883H54.9087Z" fill="#DDEDFB"/>
<path d="M54.9087 93.3853V92.2539H47.7319V93.3853H54.9087Z" fill="#D1E6FA"/>
<path d="M56.0564 106.573H46.5845V107.466H56.0564V106.573Z" fill="white"/>
<path d="M56.1239 90.5889H46.5171V91.66H56.1239V90.5889Z" fill="white"/>
<path d="M55.7739 91.0596H46.8677V91.3806H55.7739V91.0596Z" fill="#D1E6FA"/>
<path d="M50.2592 92.0127H49.7632V106.125H50.2592V92.0127Z" fill="white"/>
<path d="M52.9029 92.0127H52.4072V106.125H52.9029V92.0127Z" fill="white"/>
<path d="M55.0775 95.0381H47.5571V95.5338H55.0775V95.0381Z" fill="white"/>
<path d="M55.0775 98.7764H47.5571V99.2721H55.0775V98.7764Z" fill="white"/>
<path d="M55.0775 102.514H47.5571V103.009H55.0775V102.514Z" fill="white"/>
<path d="M47.2804 93.1279H46.7944V105.801H47.2804V93.1279Z" fill="#F1F5FB"/>
<path d="M47.2804 93.1279H46.7944V93.5634H47.2804V93.1279Z" fill="#D1E6FA"/>
<path d="M55.815 93.1279H55.3291V105.801H55.815V93.1279Z" fill="#F1F5FB"/>
<path d="M55.815 93.1279H55.3291V93.5634H55.815V93.1279Z" fill="#D1E6FA"/>
<path d="M47.4968 91.6562H46.5781V93.3281H47.4968V91.6562Z" fill="white"/>
<path d="M55.1482 93.3281H56.0669V91.6562H55.1482V93.3281Z" fill="white"/>
<path d="M47.4968 104.911H46.5781V106.583H47.4968V104.911Z" fill="white"/>
<path d="M55.1482 106.583H56.0669V104.911H55.1482V106.583Z" fill="white"/>
<path d="M11.0058 86.627L5.65332 90.5906H16.3583L11.0058 86.627Z" fill="white"/>
<path d="M7.69287 89.9178L11.0056 87.4648L14.3184 89.9178H7.69287Z" fill="#D1E6FA"/>
<path d="M7.69287 89.9178H8.13069L11.2567 87.6506L11.0056 87.4648L7.69287 89.9178Z" fill="#A4CEF5"/>
<path d="M37.8159 86.627L32.4634 90.5906H43.1683L37.8159 86.627Z" fill="white"/>
<path d="M34.5029 89.9178L37.8157 87.4648L41.1285 89.9178H34.5029Z" fill="#D1E6FA"/>
<path d="M34.5029 89.9178H34.9408L38.0668 87.6506L37.8157 87.4648L34.5029 89.9178Z" fill="#A4CEF5"/>
<path d="M24.5104 86.4463H24.4606C21.5005 86.4463 19.1011 88.31 19.1011 90.6091H29.87C29.87 88.3103 27.4705 86.4463 24.5104 86.4463Z" fill="white"/>
<path d="M19.8618 89.9362C20.2842 88.3327 22.1859 87.1191 24.4608 87.1191H24.5109C26.7859 87.1191 28.6876 88.3327 29.1099 89.9362H19.8618Z" fill="#D1E6FA"/>
<path d="M26.9028 87.6108C26.2018 87.2995 25.3844 87.1191 24.5105 87.1191H24.4603C22.1854 87.1191 20.2837 88.3327 19.8613 89.9362H20.3964C20.8941 88.4141 23.1041 86.7813 26.9028 87.6108Z" fill="#A4CEF5"/>
<path d="M51.3644 86.4463H51.3146C48.3545 86.4463 45.9551 88.31 45.9551 90.6091H56.724C56.724 88.3103 54.3245 86.4463 51.3644 86.4463Z" fill="white"/>
<path d="M46.7158 89.9362C47.1382 88.3327 49.0399 87.1191 51.3148 87.1191H51.3646C53.6395 87.1191 55.5413 88.3327 55.9636 89.9362H46.7158Z" fill="#D1E6FA"/>
<path d="M53.757 87.6108C53.056 87.2995 52.2386 87.1191 51.3646 87.1191H51.3148C49.0399 87.1191 47.1382 88.3327 46.7158 89.9362H47.2509C47.7483 88.4141 49.9583 86.7813 53.757 87.6108Z" fill="#A4CEF5"/>
<path d="M13.0251 113.194H8.98682V118.354H13.0251V113.194Z" fill="#D1E6FA"/>
<path d="M26.5984 113.194H22.5601V118.354H26.5984V113.194Z" fill="#D1E6FA"/>
<path d="M40.1716 113.194H36.1333V118.354H40.1716V113.194Z" fill="#D1E6FA"/>
<path d="M53.7449 113.194H49.7065V118.354H53.7449V113.194Z" fill="#D1E6FA"/>
<path d="M129.609 51.6836H68.8208V117.408H129.609V51.6836Z" fill="#D1E6FA"/>
<path d="M105.38 117.408H92.9756V95.9893C92.9756 92.5641 95.7523 89.7871 99.1778 89.7871C102.603 89.7871 105.38 92.5638 105.38 95.9893V117.408Z" fill="#F1F5FB"/>
<path d="M103.788 99.584H94.5674V116.635H103.788V99.584Z" fill="white"/>
<path d="M103.788 98.8605H94.5674V96.2292C94.5674 93.6831 96.6313 91.6191 99.1775 91.6191C101.724 91.6191 103.788 93.6831 103.788 96.2292V98.8605H103.788Z" fill="white"/>
<path d="M95.5767 97.8511V96.2298C95.5767 94.2442 97.192 92.6289 99.1772 92.6289C101.163 92.6289 102.778 94.2442 102.778 96.2298V97.8511H95.5767Z" fill="#DDEDFB"/>
<path d="M102.781 100.631H95.5747V115.924H102.781V100.631Z" fill="#DDEDFB"/>
<path d="M102.781 100.631H95.5747V102.75H102.781V100.631Z" fill="#D1E6FA"/>
<path d="M99.8352 99.9199H98.52V116.784H99.8352V99.9199Z" fill="white"/>
<path d="M103.235 109.01V107.695H95.1208V109.01H103.235Z" fill="white"/>
<path d="M70.6884 62.7207H68.7837V117.408H70.6884V62.7207Z" fill="#A4CEF5"/>
<path d="M129.578 62.7207H127.673V117.408H129.578V62.7207Z" fill="#A4CEF5"/>
<path d="M127.667 63.8625H70.6885L64.3184 56.0352H134.037L127.667 63.8625Z" fill="#D1E6FA"/>
<path d="M135.687 57.7227H62.5566V59.7607H135.687V57.7227Z" fill="white"/>
<path d="M135.687 57.7227H62.5566V58.4522H135.687V57.7227Z" fill="#F1F5FB"/>
<path d="M138.514 116.609H59.8408V120H138.514V116.609Z" fill="white"/>
<path d="M138.514 118.118H59.8408V120H138.514V118.118Z" fill="#F1F5FB"/>
<path d="M138.514 119.364H59.8408V120H138.514V119.364Z" fill="white"/>
<path d="M126.904 65.5488H116.148V82.4331H126.904V65.5488Z" fill="#A4CEF5"/>
<path d="M125.88 82.2897C116.421 86.714 117.311 81.8828 117.311 81.8828L125.88 82.2897Z" fill="#D1E6FA"/>
<path d="M118.557 82.2266H117.844V83.0911H118.557V82.2266Z" fill="white"/>
<path d="M118.557 82.2266H117.844V82.592H118.557V82.2266Z" fill="#F1F5FB"/>
<path d="M125.251 82.2266H124.538V83.0911H125.251V82.2266Z" fill="white"/>
<path d="M125.251 82.2266H124.538V82.592H125.251V82.2266Z" fill="#F1F5FB"/>
<path d="M125.782 66.54H117.232V81.5424H125.782V66.54Z" fill="white"/>
<path d="M125.782 66.54H117.232V66.9089H125.782V66.54Z" fill="#F1F5FB"/>
<path d="M125.785 66.54H125.188V68.4744H125.785V66.54Z" fill="#F1F5FB"/>
<path d="M117.829 66.54H117.232V68.4744H117.829V66.54Z" fill="#F1F5FB"/>
<path d="M125.782 81.2891H117.232V81.5435H125.782V81.2891Z" fill="#F1F5FB"/>
<path d="M125.095 80.8569V67.2275H117.918V80.8569H125.095Z" fill="#DDEDFB"/>
<path d="M125.095 68.3593V67.2275H117.918V68.3593H125.095Z" fill="#D1E6FA"/>
<path d="M126.242 81.5459H116.771V82.439H126.242V81.5459Z" fill="white"/>
<path d="M126.31 65.5615H116.703V66.6327H126.31V65.5615Z" fill="white"/>
<path d="M125.959 66.0322H117.053V66.3533H125.959V66.0322Z" fill="#D1E6FA"/>
<path d="M120.445 66.9854H119.949V81.098H120.445V66.9854Z" fill="white"/>
<path d="M123.089 66.9854H122.594V81.098H123.089V66.9854Z" fill="white"/>
<path d="M125.264 70.0117H117.743V70.5078H125.264V70.0117Z" fill="white"/>
<path d="M125.264 73.749H117.743V74.2451H125.264V73.749Z" fill="white"/>
<path d="M125.264 77.4873H117.743V77.983H125.264V77.4873Z" fill="white"/>
<path d="M117.466 68.1006H116.98V80.7732H117.466V68.1006Z" fill="#F1F5FB"/>
<path d="M117.466 68.1006H116.98V68.5361H117.466V68.1006Z" fill="#D1E6FA"/>
<path d="M126.001 68.1006H125.515V80.7732H126.001V68.1006Z" fill="#F1F5FB"/>
<path d="M126.001 68.1006H125.515V68.5361H126.001V68.1006Z" fill="#D1E6FA"/>
<path d="M117.683 66.6289H116.764V68.3008H117.683V66.6289Z" fill="white"/>
<path d="M125.334 68.3018H126.252V66.6299H125.334V68.3018Z" fill="white"/>
<path d="M117.683 79.8838H116.764V81.5557H117.683V79.8838Z" fill="white"/>
<path d="M125.334 81.5557H126.252V79.8838H125.334V81.5557Z" fill="white"/>
<path d="M104.556 65.5488H93.7998V82.4331H104.556V65.5488Z" fill="#A4CEF5"/>
<path d="M103.533 82.2897C94.0734 86.714 94.9632 81.8828 94.9632 81.8828L103.533 82.2897Z" fill="#D1E6FA"/>
<path d="M96.2089 82.2266H95.4961V83.0911H96.2089V82.2266Z" fill="white"/>
<path d="M96.2089 82.2266H95.4961V82.592H96.2089V82.2266Z" fill="#F1F5FB"/>
<path d="M102.903 82.2266H102.19V83.0911H102.903V82.2266Z" fill="white"/>
<path d="M102.903 82.2266H102.19V82.592H102.903V82.2266Z" fill="#F1F5FB"/>
<path d="M103.434 66.54H94.8838V81.5424H103.434V66.54Z" fill="white"/>
<path d="M103.434 66.54H94.8838V66.9089H103.434V66.54Z" fill="#F1F5FB"/>
<path d="M103.438 66.54H102.84V68.4744H103.438V66.54Z" fill="#F1F5FB"/>
<path d="M95.4811 66.54H94.8838V68.4744H95.4811V66.54Z" fill="#F1F5FB"/>
<path d="M103.434 81.2891H94.8838V81.5435H103.434V81.2891Z" fill="#F1F5FB"/>
<path d="M102.747 80.8559V67.2266H95.5706V80.8559H102.747Z" fill="#DDEDFB"/>
<path d="M102.747 68.3583V67.2266H95.5706V68.3583H102.747Z" fill="#D1E6FA"/>
<path d="M103.895 81.5459H94.4229V82.439H103.895V81.5459Z" fill="white"/>
<path d="M103.962 65.5615H94.3555V66.6327H103.962V65.5615Z" fill="white"/>
<path d="M103.612 66.0322H94.7056V66.3533H103.612V66.0322Z" fill="#D1E6FA"/>
<path d="M98.0971 66.9854H97.6011V81.098H98.0971V66.9854Z" fill="white"/>
<path d="M100.741 66.9854H100.246V81.098H100.741V66.9854Z" fill="white"/>
<path d="M102.915 70.0117H95.395V70.5078H102.915V70.0117Z" fill="white"/>
<path d="M102.915 73.749H95.395V74.2451H102.915V73.749Z" fill="white"/>
<path d="M102.915 77.4873H95.395V77.983H102.915V77.4873Z" fill="white"/>
<path d="M95.1188 68.1006H94.6328V80.7732H95.1188V68.1006Z" fill="#F1F5FB"/>
<path d="M95.1188 68.1006H94.6328V68.5361H95.1188V68.1006Z" fill="#D1E6FA"/>
<path d="M103.653 68.1006H103.167V80.7732H103.653V68.1006Z" fill="#F1F5FB"/>
<path d="M103.653 68.1006H103.167V68.5361H103.653V68.1006Z" fill="#D1E6FA"/>
<path d="M95.3352 66.6289H94.4165V68.3008H95.3352V66.6289Z" fill="white"/>
<path d="M102.986 68.3018H103.905V66.6299H102.986V68.3018Z" fill="white"/>
<path d="M95.3352 79.8838H94.4165V81.5557H95.3352V79.8838Z" fill="white"/>
<path d="M102.986 81.5557H103.905V79.8838H102.986V81.5557Z" fill="white"/>
<path d="M82.2078 65.5488H71.4517V82.4331H82.2078V65.5488Z" fill="#A4CEF5"/>
<path d="M81.1844 82.2897C71.7253 86.714 72.6151 81.8828 72.6151 81.8828L81.1844 82.2897Z" fill="#D1E6FA"/>
<path d="M73.8612 82.2266H73.1484V83.0911H73.8612V82.2266Z" fill="white"/>
<path d="M73.8612 82.2266H73.1484V82.592H73.8612V82.2266Z" fill="#F1F5FB"/>
<path d="M80.555 82.2266H79.8423V83.0911H80.555V82.2266Z" fill="white"/>
<path d="M80.555 82.2266H79.8423V82.592H80.555V82.2266Z" fill="#F1F5FB"/>
<path d="M81.0855 66.54H72.5356V81.5424H81.0855V66.54Z" fill="white"/>
<path d="M81.0855 66.54H72.5356V66.9089H81.0855V66.54Z" fill="#F1F5FB"/>
<path d="M81.089 66.54H80.4917V68.4744H81.089V66.54Z" fill="#F1F5FB"/>
<path d="M73.133 66.54H72.5356V68.4744H73.133V66.54Z" fill="#F1F5FB"/>
<path d="M81.0855 81.2891H72.5356V81.5435H81.0855V81.2891Z" fill="#F1F5FB"/>
<path d="M80.3989 80.8569V67.2275H73.2225V80.8569H80.3989Z" fill="#DDEDFB"/>
<path d="M80.3989 68.3593V67.2275H73.2225V68.3593H80.3989Z" fill="#D1E6FA"/>
<path d="M81.5466 81.5459H72.0747V82.439H81.5466V81.5459Z" fill="white"/>
<path d="M81.6142 65.5615H72.0073V66.6327H81.6142V65.5615Z" fill="white"/>
<path d="M81.2636 66.0322H72.3574V66.3533H81.2636V66.0322Z" fill="#D1E6FA"/>
<path d="M75.7491 66.9854H75.2534V81.098H75.7491V66.9854Z" fill="white"/>
<path d="M78.3932 66.9854H77.8975V81.098H78.3932V66.9854Z" fill="white"/>
<path d="M80.5678 70.0117H73.0474V70.5078H80.5678V70.0117Z" fill="white"/>
<path d="M80.5678 73.749H73.0474V74.2451H80.5678V73.749Z" fill="white"/>
<path d="M80.5678 77.4873H73.0474V77.983H80.5678V77.4873Z" fill="white"/>
<path d="M72.7706 68.1006H72.2847V80.7732H72.7706V68.1006Z" fill="#F1F5FB"/>
<path d="M72.7706 68.1006H72.2847V68.5361H72.7706V68.1006Z" fill="#D1E6FA"/>
<path d="M81.3048 68.1006H80.8188V80.7732H81.3048V68.1006Z" fill="#F1F5FB"/>
<path d="M81.3048 68.1006H80.8188V68.5361H81.3048V68.1006Z" fill="#D1E6FA"/>
<path d="M72.9871 66.6289H72.0684V68.3008H72.9871V66.6289Z" fill="white"/>
<path d="M80.6383 68.3018H81.5566V66.6299H80.6383V68.3018Z" fill="white"/>
<path d="M72.9871 79.8838H72.0684V81.5557H72.9871V79.8838Z" fill="white"/>
<path d="M80.6383 81.5557H81.5566V79.8838H80.6383V81.5557Z" fill="white"/>
<path d="M126.904 92.3213H116.148V109.206H126.904V92.3213Z" fill="#A4CEF5"/>
<path d="M125.88 109.062C116.421 113.486 117.311 108.655 117.311 108.655L125.88 109.062Z" fill="#D1E6FA"/>
<path d="M118.557 108.998H117.844V109.863H118.557V108.998Z" fill="white"/>
<path d="M118.557 108.998H117.844V109.364H118.557V108.998Z" fill="#F1F5FB"/>
<path d="M125.251 108.998H124.538V109.863H125.251V108.998Z" fill="white"/>
<path d="M125.251 108.998H124.538V109.364H125.251V108.998Z" fill="#F1F5FB"/>
<path d="M125.782 93.3125H117.232V108.315H125.782V93.3125Z" fill="white"/>
<path d="M125.782 93.3125H117.232V93.6813H125.782V93.3125Z" fill="#F1F5FB"/>
<path d="M125.785 93.3125H125.188V95.2469H125.785V93.3125Z" fill="#F1F5FB"/>
<path d="M117.829 93.3125H117.232V95.2469H117.829V93.3125Z" fill="#F1F5FB"/>
<path d="M125.782 108.061H117.232V108.315H125.782V108.061Z" fill="#F1F5FB"/>
<path d="M125.095 107.628V93.999H117.918V107.628H125.095Z" fill="#DDEDFB"/>
<path d="M125.095 95.1304V93.999H117.918V95.1304H125.095Z" fill="#D1E6FA"/>
<path d="M126.242 108.318H116.771V109.212H126.242V108.318Z" fill="white"/>
<path d="M126.31 92.334H116.703V93.4052H126.31V92.334Z" fill="white"/>
<path d="M125.959 92.8037H117.053V93.1248H125.959V92.8037Z" fill="#D1E6FA"/>
<path d="M120.445 93.7578H119.949V107.87H120.445V93.7578Z" fill="white"/>
<path d="M123.089 93.7578H122.594V107.87H123.089V93.7578Z" fill="white"/>
<path d="M125.264 96.7832H117.743V97.2789H125.264V96.7832Z" fill="white"/>
<path d="M125.264 100.521H117.743V101.017H125.264V100.521Z" fill="white"/>
<path d="M125.264 104.259H117.743V104.754H125.264V104.259Z" fill="white"/>
<path d="M117.466 94.873H116.98V107.546H117.466V94.873Z" fill="#F1F5FB"/>
<path d="M117.466 94.873H116.98V95.3085H117.466V94.873Z" fill="#D1E6FA"/>
<path d="M126.001 94.873H125.515V107.546H126.001V94.873Z" fill="#F1F5FB"/>
<path d="M126.001 94.873H125.515V95.3085H126.001V94.873Z" fill="#D1E6FA"/>
<path d="M117.683 93.4014H116.764V95.0732H117.683V93.4014Z" fill="white"/>
<path d="M125.334 95.0732H126.252V93.4014H125.334V95.0732Z" fill="white"/>
<path d="M117.683 106.656H116.764V108.328H117.683V106.656Z" fill="white"/>
<path d="M125.334 108.328H126.252V106.656H125.334V108.328Z" fill="white"/>
<path d="M121.573 88.1914H121.523C118.563 88.1914 116.164 90.0551 116.164 92.3543H126.932C126.932 90.0554 124.533 88.1914 121.573 88.1914Z" fill="white"/>
<path d="M116.924 91.6813C117.346 90.0778 119.248 88.8643 121.523 88.8643H121.573C123.848 88.8643 125.749 90.0778 126.172 91.6813H116.924Z" fill="#D1E6FA"/>
<path d="M123.965 89.3559C123.264 89.0446 122.447 88.8643 121.573 88.8643H121.523C119.248 88.8643 117.346 90.0778 116.924 91.6813H117.459C117.957 90.1592 120.166 88.5264 123.965 89.3559Z" fill="#A4CEF5"/>
<path d="M82.2078 92.3213H71.4517V109.206H82.2078V92.3213Z" fill="#A4CEF5"/>
<path d="M81.1844 109.062C71.7253 113.486 72.6151 108.655 72.6151 108.655L81.1844 109.062Z" fill="#D1E6FA"/>
<path d="M73.8612 108.998H73.1484V109.863H73.8612V108.998Z" fill="white"/>
<path d="M73.8612 108.998H73.1484V109.364H73.8612V108.998Z" fill="#F1F5FB"/>
<path d="M80.555 108.998H79.8423V109.863H80.555V108.998Z" fill="white"/>
<path d="M80.555 108.998H79.8423V109.364H80.555V108.998Z" fill="#F1F5FB"/>
<path d="M81.0855 93.3125H72.5356V108.315H81.0855V93.3125Z" fill="white"/>
<path d="M81.0855 93.3125H72.5356V93.6813H81.0855V93.3125Z" fill="#F1F5FB"/>
<path d="M81.089 93.3125H80.4917V95.2469H81.089V93.3125Z" fill="#F1F5FB"/>
<path d="M73.133 93.3125H72.5356V95.2469H73.133V93.3125Z" fill="#F1F5FB"/>
<path d="M81.0855 108.061H72.5356V108.315H81.0855V108.061Z" fill="#F1F5FB"/>
<path d="M80.3989 107.628V93.999H73.2225V107.628H80.3989Z" fill="#DDEDFB"/>
<path d="M80.3989 95.1304V93.999H73.2225V95.1304H80.3989Z" fill="#D1E6FA"/>
<path d="M81.5466 108.318H72.0747V109.212H81.5466V108.318Z" fill="white"/>
<path d="M81.6142 92.334H72.0073V93.4052H81.6142V92.334Z" fill="white"/>
<path d="M81.2636 92.8037H72.3574V93.1248H81.2636V92.8037Z" fill="#D1E6FA"/>
<path d="M75.7491 93.7578H75.2534V107.87H75.7491V93.7578Z" fill="white"/>
<path d="M78.3932 93.7578H77.8975V107.87H78.3932V93.7578Z" fill="white"/>
<path d="M80.5678 96.7832H73.0474V97.2789H80.5678V96.7832Z" fill="white"/>
<path d="M80.5678 100.521H73.0474V101.017H80.5678V100.521Z" fill="white"/>
<path d="M80.5678 104.259H73.0474V104.754H80.5678V104.259Z" fill="white"/>
<path d="M72.7706 94.873H72.2847V107.546H72.7706V94.873Z" fill="#F1F5FB"/>
<path d="M72.7706 94.873H72.2847V95.3085H72.7706V94.873Z" fill="#D1E6FA"/>
<path d="M81.3048 94.873H80.8188V107.546H81.3048V94.873Z" fill="#F1F5FB"/>
<path d="M81.3048 94.873H80.8188V95.3085H81.3048V94.873Z" fill="#D1E6FA"/>
<path d="M72.9871 93.4014H72.0684V95.0732H72.9871V93.4014Z" fill="white"/>
<path d="M80.6383 95.0732H81.5566V93.4014H80.6383V95.0732Z" fill="white"/>
<path d="M72.9871 106.656H72.0684V108.328H72.9871V106.656Z" fill="white"/>
<path d="M80.6383 108.328H81.5566V106.656H80.6383V108.328Z" fill="white"/>
<path d="M76.9269 88.1914H76.8771C73.917 88.1914 71.5176 90.0551 71.5176 92.3543H82.2865C82.2865 90.0554 79.8867 88.1914 76.9269 88.1914Z" fill="white"/>
<path d="M72.2773 91.6813C72.6997 90.0778 74.6014 88.8643 76.8763 88.8643H76.9261C79.2011 88.8643 81.1028 90.0778 81.5251 91.6813H72.2773Z" fill="#D1E6FA"/>
<path d="M79.319 89.3559C78.618 89.0446 77.8006 88.8643 76.9266 88.8643H76.8768C74.6019 88.8643 72.7002 90.0778 72.2778 91.6813H72.8129C73.3103 90.1592 75.5199 88.5264 79.319 89.3559Z" fill="#A4CEF5"/>
<path d="M69.6739 116.859H63.2422L63.9152 61.8184H69.0008L69.6739 116.859Z" fill="white"/>
<path d="M69.5783 109.041C68.1737 109.323 65.5346 109.532 63.3519 107.899L63.2422 116.859H69.6736L69.5783 109.041Z" fill="#F1F5FB"/>
<path d="M71.2148 116.859H61.7012L62.561 110.787C62.6387 110.237 63.1092 109.829 63.6641 109.829H69.2518C69.8068 109.829 70.2769 110.238 70.355 110.787L71.2148 116.859Z" fill="white"/>
<path d="M69.0009 61.8184H63.9156L63.8823 64.5314C63.9103 64.5325 63.9375 64.5355 63.9654 64.5355C65.1039 64.5355 66.0795 63.8308 66.483 62.8353C66.8865 63.8308 67.8624 64.5355 69.0009 64.5355C69.012 64.5355 69.0228 64.5338 69.0339 64.5338L69.0009 61.8184Z" fill="#F1F5FB"/>
<path d="M69.024 59.7749V59.7705H63.9572V59.7739C62.8319 59.7783 61.9209 60.6913 61.9209 61.8176C61.9209 62.9467 62.8359 63.8617 63.965 63.8617C64.9594 63.8617 65.7873 63.1513 65.9707 62.2103H66.9951C67.1781 63.1513 68.006 63.8617 69.0004 63.8617C70.1295 63.8617 71.0445 62.9467 71.0445 61.8176C71.0448 60.697 70.1419 59.7877 69.024 59.7749Z" fill="white"/>
<path d="M65.025 61.8179C65.025 62.4099 64.5451 62.8898 63.9532 62.8898C63.3612 62.8898 62.8813 62.4099 62.8813 61.8179C62.8813 61.226 63.3612 60.7461 63.9532 60.7461C64.5451 60.7461 65.025 61.226 65.025 61.8179Z" fill="#F1F5FB"/>
<path d="M64.5512 61.8181C64.5512 62.1485 64.2833 62.4164 63.9528 62.4164C63.6224 62.4164 63.3545 62.1485 63.3545 61.8181C63.3545 61.4876 63.6224 61.2197 63.9528 61.2197C64.2833 61.2197 64.5512 61.4876 64.5512 61.8181Z" fill="white"/>
<path d="M69.0196 62.8898C69.6116 62.8898 70.0914 62.4099 70.0914 61.8179C70.0914 61.226 69.6116 60.7461 69.0196 60.7461C68.4276 60.7461 67.9478 61.226 67.9478 61.8179C67.9478 62.4099 68.4276 62.8898 69.0196 62.8898Z" fill="#F1F5FB"/>
<path d="M69.0192 62.4164C69.3497 62.4164 69.6176 62.1485 69.6176 61.8181C69.6176 61.4876 69.3497 61.2197 69.0192 61.2197C68.6888 61.2197 68.4209 61.4876 68.4209 61.8181C68.4209 62.1485 68.6888 62.4164 69.0192 62.4164Z" fill="white"/>
<path d="M90.0276 116.859H83.5962L84.2692 61.8184H89.3545L90.0276 116.859Z" fill="white"/>
<path d="M89.9318 109.041C88.5272 109.323 85.8881 109.532 83.7054 107.899L83.5957 116.859H90.0271L89.9318 109.041Z" fill="#F1F5FB"/>
<path d="M91.5688 116.859H82.0552L82.915 110.787C82.9927 110.237 83.4632 109.829 84.0181 109.829H89.6059C90.1608 109.829 90.6312 110.238 90.709 110.787L91.5688 116.859Z" fill="white"/>
<path d="M89.3544 61.8184H84.2692L84.2358 64.5314C84.2638 64.5325 84.291 64.5355 84.319 64.5355C85.4574 64.5355 86.433 63.8308 86.8365 62.8353C87.24 63.8308 88.2159 64.5355 89.3544 64.5355C89.3655 64.5355 89.3763 64.5338 89.3877 64.5338L89.3544 61.8184Z" fill="#F1F5FB"/>
<path d="M89.3775 59.7749V59.7705H84.3107V59.7739C83.1854 59.7783 82.2744 60.6913 82.2744 61.8176C82.2744 62.9467 83.1898 63.8617 84.3185 63.8617C85.3129 63.8617 86.1408 63.1513 86.3242 62.2103H87.3486C87.5317 63.1513 88.3595 63.8617 89.3539 63.8617C90.483 63.8617 91.398 62.9467 91.398 61.8176C91.3983 60.697 90.4958 59.7877 89.3775 59.7749Z" fill="white"/>
<path d="M85.3776 61.8179C85.3776 62.4099 84.8977 62.8898 84.3057 62.8898C83.7138 62.8898 83.2339 62.4099 83.2339 61.8179C83.2339 61.226 83.7138 60.7461 84.3057 60.7461C84.8977 60.7461 85.3776 61.226 85.3776 61.8179Z" fill="#F1F5FB"/>
<path d="M84.9042 61.8181C84.9042 62.1485 84.6363 62.4164 84.3059 62.4164C83.9754 62.4164 83.7075 62.1485 83.7075 61.8181C83.7075 61.4876 83.9754 61.2197 84.3059 61.2197C84.6363 61.2197 84.9042 61.4876 84.9042 61.8181Z" fill="white"/>
<path d="M89.3726 62.8898C89.9646 62.8898 90.4445 62.4099 90.4445 61.8179C90.4445 61.226 89.9646 60.7461 89.3726 60.7461C88.7807 60.7461 88.3008 61.226 88.3008 61.8179C88.3008 62.4099 88.7807 62.8898 89.3726 62.8898Z" fill="#F1F5FB"/>
<path d="M89.3723 62.4164C89.7027 62.4164 89.9706 62.1485 89.9706 61.8181C89.9706 61.4876 89.7027 61.2197 89.3723 61.2197C89.0418 61.2197 88.7739 61.4876 88.7739 61.8181C88.7739 62.1485 89.0418 62.4164 89.3723 62.4164Z" fill="white"/>
<path d="M114.831 116.859H108.399L109.072 61.8184H114.158L114.831 116.859Z" fill="white"/>
<path d="M114.736 109.041C113.331 109.323 110.692 109.532 108.509 107.899L108.399 116.859H114.831L114.736 109.041Z" fill="#F1F5FB"/>
<path d="M116.372 116.859H106.858L107.718 110.787C107.796 110.237 108.266 109.829 108.821 109.829H114.409C114.964 109.829 115.434 110.238 115.512 110.787L116.372 116.859Z" fill="white"/>
<path d="M114.158 61.8184H109.072L109.039 64.5314C109.067 64.5325 109.094 64.5355 109.122 64.5355C110.261 64.5355 111.236 63.8308 111.64 62.8353C112.043 63.8308 113.019 64.5355 114.158 64.5355C114.169 64.5355 114.18 64.5338 114.191 64.5338L114.158 61.8184Z" fill="#F1F5FB"/>
<path d="M114.181 59.7749V59.7705H109.114V59.7739C107.989 59.7783 107.078 60.6913 107.078 61.8176C107.078 62.9467 107.993 63.8617 109.122 63.8617C110.117 63.8617 110.944 63.1513 111.128 62.2103H112.152C112.335 63.1513 113.163 63.8617 114.158 63.8617C115.287 63.8617 116.202 62.9467 116.202 61.8176C116.202 60.697 115.299 59.7877 114.181 59.7749Z" fill="white"/>
<path d="M110.18 61.8179C110.18 62.4099 109.7 62.8898 109.108 62.8898C108.517 62.8898 108.037 62.4099 108.037 61.8179C108.037 61.226 108.517 60.7461 109.108 60.7461C109.7 60.7461 110.18 61.226 110.18 61.8179Z" fill="#F1F5FB"/>
<path d="M109.707 61.8181C109.707 62.1485 109.439 62.4164 109.109 62.4164C108.778 62.4164 108.51 62.1485 108.51 61.8181C108.51 61.4876 108.778 61.2197 109.109 61.2197C109.439 61.2197 109.707 61.4876 109.707 61.8181Z" fill="white"/>
<path d="M114.175 62.8898C114.767 62.8898 115.247 62.4099 115.247 61.8179C115.247 61.226 114.767 60.7461 114.175 60.7461C113.583 60.7461 113.104 61.226 113.104 61.8179C113.104 62.4099 113.583 62.8898 114.175 62.8898Z" fill="#F1F5FB"/>
<path d="M114.175 62.4164C114.506 62.4164 114.774 62.1485 114.774 61.8181C114.774 61.4876 114.506 61.2197 114.175 61.2197C113.845 61.2197 113.577 61.4876 113.577 61.8181C113.577 62.1485 113.845 62.4164 114.175 62.4164Z" fill="white"/>
<path d="M135.185 116.859H128.753L129.426 61.8184H134.512L135.185 116.859Z" fill="white"/>
<path d="M135.089 109.041C133.684 109.323 131.045 109.532 128.863 107.899L128.753 116.859H135.184L135.089 109.041Z" fill="#F1F5FB"/>
<path d="M136.726 116.859H127.212L128.072 110.787C128.15 110.237 128.62 109.829 129.175 109.829H134.763C135.318 109.829 135.788 110.238 135.866 110.787L136.726 116.859Z" fill="white"/>
<path d="M134.512 61.8184H129.426L129.393 64.5314C129.421 64.5325 129.448 64.5355 129.476 64.5355C130.615 64.5355 131.59 63.8308 131.994 62.8353C132.397 63.8308 133.373 64.5355 134.512 64.5355C134.523 64.5355 134.534 64.5338 134.545 64.5338L134.512 61.8184Z" fill="#F1F5FB"/>
<path d="M134.535 59.7749V59.7705H129.468V59.7739C128.343 59.7783 127.432 60.6913 127.432 61.8176C127.432 62.9467 128.347 63.8617 129.476 63.8617C130.471 63.8617 131.298 63.1513 131.482 62.2103H132.506C132.689 63.1513 133.517 63.8617 134.512 63.8617C135.641 63.8617 136.556 62.9467 136.556 61.8176C136.556 60.697 135.653 59.7877 134.535 59.7749Z" fill="white"/>
<path d="M129.454 62.8898C130.046 62.8898 130.526 62.4099 130.526 61.8179C130.526 61.226 130.046 60.7461 129.454 60.7461C128.862 60.7461 128.382 61.226 128.382 61.8179C128.382 62.4099 128.862 62.8898 129.454 62.8898Z" fill="#F1F5FB"/>
<path d="M129.454 62.4164C129.785 62.4164 130.053 62.1485 130.053 61.8181C130.053 61.4876 129.785 61.2197 129.454 61.2197C129.124 61.2197 128.856 61.4876 128.856 61.8181C128.856 62.1485 129.124 62.4164 129.454 62.4164Z" fill="white"/>
<path d="M135.592 61.8179C135.592 62.4099 135.113 62.8898 134.521 62.8898C133.929 62.8898 133.449 62.4099 133.449 61.8179C133.449 61.226 133.929 60.7461 134.521 60.7461C135.113 60.7461 135.592 61.226 135.592 61.8179Z" fill="#F1F5FB"/>
<path d="M135.119 61.8181C135.119 62.1485 134.851 62.4164 134.521 62.4164C134.19 62.4164 133.922 62.1485 133.922 61.8181C133.922 61.4876 134.19 61.2197 134.521 61.2197C134.851 61.2197 135.119 61.4876 135.119 61.8181Z" fill="white"/>
<path d="M136.292 56.6826H61.9521V58.0768H136.292V56.6826Z" fill="white"/>
<path d="M136.292 56.6826H61.9521V57.2312H136.292V56.6826Z" fill="#F1F5FB"/>
<path d="M136.834 52.4453H61.4102V56.7162H136.834V52.4453Z" fill="white"/>
<path d="M136.834 52.4453H61.4102V53.4922H136.834V52.4453Z" fill="#F1F5FB"/>
<path d="M99.178 28.2402L58.687 52.5951H139.669L99.178 28.2402Z" fill="white"/>
<path d="M63.5361 51.249L99.1778 29.8115L134.819 51.249H63.5361Z" fill="#F1F5FB"/>
<path d="M68.2031 51.249L99.413 30.9577L131.52 49.3049L131.383 49.1827L99.1778 29.8115L63.5361 51.249H68.2031Z" fill="#DDEDFB"/>
<path d="M69.5981 49.5666L99.1776 31.7754L128.757 49.5666H69.5981Z" fill="white"/>
<path d="M70.811 49.2299L99.178 32.168L127.545 49.2299H70.811Z" fill="#F1F5FB"/>
<path d="M74.4482 48.2199L99.178 33.3457L123.907 48.2199H74.4482Z" fill="white"/>
<path d="M63.2724 52.5977H61.7954V53.6237H63.2724V52.5977Z" fill="#D1E6FA"/>
<path d="M66.3261 52.5977H64.8491V53.6237H66.3261V52.5977Z" fill="#D1E6FA"/>
<path d="M69.3794 52.5977H67.9023V53.6237H69.3794V52.5977Z" fill="#D1E6FA"/>
<path d="M72.4331 52.5977H70.9561V53.6237H72.4331V52.5977Z" fill="#D1E6FA"/>
<path d="M75.4868 52.5977H74.0098V53.6237H75.4868V52.5977Z" fill="#D1E6FA"/>
<path d="M78.5405 52.5977H77.0635V53.6237H78.5405V52.5977Z" fill="#D1E6FA"/>
<path d="M66.7602 49.2532L65.4951 50.0156L65.785 50.4967L67.0501 49.7342L66.7602 49.2532Z" fill="white"/>
<path d="M68.7397 48.0678L67.4746 48.8301L67.7647 49.3114L69.0297 48.5491L68.7397 48.0678Z" fill="white"/>
<path d="M70.726 46.8735L69.4609 47.6357L69.7508 48.1168L71.0159 47.3545L70.726 46.8735Z" fill="white"/>
<path d="M72.7128 45.682L71.4478 46.4443L71.7376 46.9254L73.0027 46.1631L72.7128 45.682Z" fill="white"/>
<path d="M74.6991 44.4858L73.4341 45.248L73.724 45.7291L74.989 44.9668L74.6991 44.4858Z" fill="white"/>
<path d="M76.6918 43.2932L75.4268 44.0557L75.7167 44.5367L76.9818 43.7743L76.6918 43.2932Z" fill="white"/>
<path d="M78.6718 42.1068L77.4067 42.8691L77.6966 43.3502L78.9617 42.5879L78.6718 42.1068Z" fill="white"/>
<path d="M80.6581 40.9106L79.3931 41.6729L79.6829 42.1539L80.948 41.3916L80.6581 40.9106Z" fill="white"/>
<path d="M82.6508 39.7171L81.3857 40.4795L81.6757 40.9606L82.9407 40.1981L82.6508 39.7171Z" fill="white"/>
<path d="M84.6376 38.5256L83.3726 39.2881L83.6625 39.7691L84.9276 39.0067L84.6376 38.5256Z" fill="white"/>
<path d="M86.6181 37.3422L85.353 38.1045L85.6431 38.5858L86.9081 37.8236L86.6181 37.3422Z" fill="white"/>
<path d="M88.6039 36.1469L87.3389 36.9092L87.6287 37.3902L88.8938 36.628L88.6039 36.1469Z" fill="white"/>
<path d="M90.5903 34.9555L89.3252 35.7178L89.6151 36.1988L90.8801 35.4365L90.5903 34.9555Z" fill="white"/>
<path d="M92.5761 33.7592L91.311 34.5215L91.6009 35.0026L92.866 34.2403L92.5761 33.7592Z" fill="white"/>
<path d="M94.5693 32.5657L93.3042 33.3281L93.5941 33.8092L94.8592 33.0467L94.5693 32.5657Z" fill="white"/>
<path d="M96.5497 31.3803L95.2847 32.1426L95.5745 32.6236L96.8396 31.8614L96.5497 31.3803Z" fill="white"/>
<path d="M98.5366 30.1918L97.2715 30.9541L97.5614 31.4352L98.8264 30.6729L98.5366 30.1918Z" fill="white"/>
<path d="M131.602 49.2611L131.312 49.7422L132.577 50.5046L132.867 50.0236L131.602 49.2611Z" fill="white"/>
<path d="M129.607 48.0746L129.317 48.5557L130.582 49.318L130.872 48.8369L129.607 48.0746Z" fill="white"/>
<path d="M127.618 46.8783L127.329 47.3594L128.594 48.1217L128.884 47.6406L127.618 46.8783Z" fill="white"/>
<path d="M125.642 45.685L125.352 46.166L126.617 46.9285L126.907 46.4474L125.642 45.685Z" fill="white"/>
<path d="M123.648 44.4984L123.358 44.9795L124.623 45.7418L124.913 45.2607L123.648 44.4984Z" fill="white"/>
<path d="M121.659 43.3021L121.369 43.7832L122.634 44.5455L122.924 44.0644L121.659 43.3021Z" fill="white"/>
<path d="M119.683 42.1098L119.393 42.5908L120.658 43.3533L120.948 42.8722L119.683 42.1098Z" fill="white"/>
<path d="M117.683 40.9154L117.394 41.3965L118.659 42.1588L118.949 41.6777L117.683 40.9154Z" fill="white"/>
<path d="M115.699 39.726L115.409 40.207L116.674 40.9693L116.964 40.4883L115.699 39.726Z" fill="white"/>
<path d="M113.723 38.5336L113.433 39.0146L114.698 39.7771L114.988 39.296L113.723 38.5336Z" fill="white"/>
<path d="M111.729 37.3461L111.439 37.8271L112.705 38.5894L112.994 38.1084L111.729 37.3461Z" fill="white"/>
<path d="M109.741 36.1508L109.451 36.6318L110.716 37.3941L111.006 36.9131L109.741 36.1508Z" fill="white"/>
<path d="M107.763 34.9574L107.473 35.4385L108.738 36.2009L109.028 35.7199L107.763 34.9574Z" fill="white"/>
<path d="M105.77 33.7709L105.48 34.252L106.746 35.0142L107.035 34.5332L105.77 33.7709Z" fill="white"/>
<path d="M103.781 32.5746L103.491 33.0557L104.756 33.818L105.046 33.3369L103.781 32.5746Z" fill="white"/>
<path d="M101.804 31.3822L101.514 31.8633L102.779 32.6257L103.069 32.1446L101.804 31.3822Z" fill="white"/>
<path d="M99.807 30.1898L99.5171 30.6709L100.782 31.4332L101.072 30.9521L99.807 30.1898Z" fill="white"/>
<path d="M81.5942 52.5977H80.1172V53.6237H81.5942V52.5977Z" fill="#D1E6FA"/>
<path d="M84.6479 52.5977H83.1709V53.6237H84.6479V52.5977Z" fill="#D1E6FA"/>
<path d="M87.7016 52.5977H86.2246V53.6237H87.7016V52.5977Z" fill="#D1E6FA"/>
<path d="M90.7553 52.5977H89.2783V53.6237H90.7553V52.5977Z" fill="#D1E6FA"/>
<path d="M93.809 52.5977H92.332V53.6237H93.809V52.5977Z" fill="#D1E6FA"/>
<path d="M96.8628 52.5977H95.3857V53.6237H96.8628V52.5977Z" fill="#D1E6FA"/>
<path d="M99.9165 52.5977H98.4395V53.6237H99.9165V52.5977Z" fill="#D1E6FA"/>
<path d="M102.97 52.5977H101.493V53.6237H102.97V52.5977Z" fill="#D1E6FA"/>
<path d="M106.024 52.5977H104.547V53.6237H106.024V52.5977Z" fill="#D1E6FA"/>
<path d="M109.077 52.5977H107.6V53.6237H109.077V52.5977Z" fill="#D1E6FA"/>
<path d="M112.131 52.5977H110.654V53.6237H112.131V52.5977Z" fill="#D1E6FA"/>
<path d="M115.185 52.5977H113.708V53.6237H115.185V52.5977Z" fill="#D1E6FA"/>
<path d="M118.238 52.5977H116.761V53.6237H118.238V52.5977Z" fill="#D1E6FA"/>
<path d="M121.292 52.5977H119.815V53.6237H121.292V52.5977Z" fill="#D1E6FA"/>
<path d="M124.346 52.5977H122.869V53.6237H124.346V52.5977Z" fill="#D1E6FA"/>
<path d="M127.399 52.5977H125.922V53.6237H127.399V52.5977Z" fill="#D1E6FA"/>
<path d="M130.453 52.5977H128.976V53.6237H130.453V52.5977Z" fill="#D1E6FA"/>
<path d="M133.507 52.5977H132.03V53.6237H133.507V52.5977Z" fill="#D1E6FA"/>
<path d="M136.56 52.5977H135.083V53.6237H136.56V52.5977Z" fill="#D1E6FA"/>
<path d="M98.9498 131.932C109.152 131.932 117.423 130.947 117.423 129.73C117.423 128.514 109.152 127.528 98.9498 127.528C88.7473 127.528 80.4766 128.514 80.4766 129.73C80.4766 130.947 88.7473 131.932 98.9498 131.932Z" fill="#D1E6FA"/>
<path d="M100.001 124.1L105.24 121.248C117.008 114.843 124.346 102.424 124.346 88.9144V75.2753C124.346 74.2135 123.513 73.3322 122.464 73.3034C110.083 72.9643 102.402 69.3516 99.8736 67.9533C99.299 67.6354 98.6007 67.6354 98.026 67.9533C95.4978 69.3516 87.817 72.9641 75.436 73.3034C74.3861 73.3322 73.5537 74.2135 73.5537 75.2753V88.9144C73.5537 102.424 80.8919 114.843 92.6593 121.248L97.8984 124.1C98.5547 124.457 99.3448 124.457 100.001 124.1Z" fill="#D1E6FA"/>
<path d="M121.835 76.8813V88.4556C121.835 101.34 114.871 113.132 103.661 119.235L99.9441 121.257C99.6351 121.425 99.2925 121.511 98.9499 121.511C98.6074 121.511 98.2648 121.425 97.9558 121.257L94.2393 119.235C83.0295 113.132 76.0649 101.34 76.0649 88.4556V76.8813C76.0649 76.3338 76.4982 75.8854 77.044 75.8467C87.5905 75.1296 94.8319 72.3351 98.4964 70.5449C98.6425 70.4727 98.7953 70.4375 98.9498 70.4375C99.1043 70.4375 99.2571 70.4727 99.4032 70.5449C103.068 72.3352 110.311 75.1296 120.856 75.8467C121.402 75.8854 121.835 76.3338 121.835 76.8813Z" fill="#76B5F1"/>
<path d="M121.835 76.8813V88.4556C121.835 101.34 114.87 113.132 103.66 119.235L99.9439 121.257C99.6348 121.425 99.2923 121.511 98.9497 121.511V70.4375C99.1042 70.4375 99.257 70.4727 99.4031 70.5449C103.068 72.3352 110.311 75.1296 120.856 75.8467C121.401 75.8854 121.835 76.3338 121.835 76.8813Z" fill="#499DEC"/>
<path d="M107.652 91.3945H90.2472C89.211 91.3945 88.3696 92.2359 88.3696 93.2721V107.151C88.3696 108.187 89.211 109.028 90.2472 109.028H107.652C108.689 109.028 109.53 108.187 109.53 107.151V93.2721C109.53 92.2359 108.688 91.3945 107.652 91.3945ZM100.629 101.091V102.478C100.629 103.405 99.8769 104.158 98.9498 104.158C98.0227 104.158 97.2704 103.406 97.2704 102.478V101.091C96.5566 100.574 96.0947 99.7326 96.0947 98.7838C96.0947 97.2068 97.3728 95.9289 98.9497 95.9289C100.526 95.9289 101.805 97.2068 101.805 98.7838C101.805 99.7327 101.343 100.574 100.629 101.091Z" fill="white"/>
<path d="M105.163 86.1951V88.3716C105.163 89.1136 104.562 89.7152 103.82 89.7152C103.078 89.7152 102.476 89.1136 102.476 88.3716V86.2817C102.476 84.3718 100.994 82.7431 99.0854 82.671C97.0791 82.5953 95.4228 84.2053 95.4228 86.1952V90.0511H92.7358V86.2964C92.7358 82.91 95.404 80.0686 98.7892 79.9835C100.569 79.9387 102.183 80.6418 103.343 81.8019C104.468 82.927 105.163 84.4787 105.163 86.1951Z" fill="white"/>
</svg>
