<svg width="24" height="24" viewBox="0 0 24 24" fill="none" xmlns="http://www.w3.org/2000/svg">
<path d="M12.0576 1.75C14.2479 1.74999 15.9683 1.75012 17.3115 1.93066C18.6882 2.11575 19.7805 2.50313 20.6387 3.36133C21.4969 4.21953 21.8843 5.31182 22.0693 6.68848C22.2499 8.03174 22.25 9.75213 22.25 11.9424V12.0576C22.25 14.2479 22.2499 15.9683 22.0693 17.3115C21.8843 18.6882 21.4969 19.7805 20.6387 20.6387C19.7805 21.4969 18.6882 21.8843 17.3115 22.0693C15.9683 22.2499 14.2479 22.25 12.0576 22.25H11.9424C9.75213 22.25 8.03174 22.2499 6.68848 22.0693C5.31182 21.8843 4.21953 21.4969 3.36133 20.6387C2.50313 19.7805 2.11575 18.6882 1.93066 17.3115C1.75012 15.9683 1.74999 14.2479 1.75 12.0576V11.9424C1.74999 9.75213 1.75012 8.03174 1.93066 6.68848C2.11575 5.31182 2.50313 4.21953 3.36133 3.36133C4.21953 2.50313 5.31182 2.11575 6.68848 1.93066C8.03174 1.75012 9.75213 1.74999 11.9424 1.75H12.0576ZM12 3.25C9.73963 3.25 8.1196 3.25137 6.8877 3.41699C5.67747 3.57972 4.9549 3.88885 4.42188 4.42188C3.88885 4.9549 3.57972 5.67747 3.41699 6.8877C3.25137 8.1196 3.25 9.73963 3.25 12C3.25 14.2604 3.25137 15.8804 3.41699 17.1123C3.57972 18.3225 3.88886 19.0451 4.42188 19.5781C4.9549 20.1111 5.67747 20.4203 6.8877 20.583C8.1196 20.7486 9.73963 20.75 12 20.75C14.2604 20.75 15.8804 20.7486 17.1123 20.583C18.3225 20.4203 19.0451 20.1111 19.5781 19.5781C20.1111 19.0451 20.4203 18.3225 20.583 17.1123C20.7486 15.8804 20.75 14.2604 20.75 12C20.75 9.73963 20.7486 8.1196 20.583 6.8877C20.4203 5.67747 20.1111 4.9549 19.5781 4.42188C19.0451 3.88886 18.3225 3.57972 17.1123 3.41699C15.8804 3.25137 14.2604 3.25 12 3.25ZM12.001 16C12.5533 16 13.001 16.4477 13.001 17C13.001 17.5523 12.5533 18 12.001 18H11.9922C11.4399 18 10.9922 17.5523 10.9922 17C10.9922 16.4477 11.4399 16 11.9922 16H12.001ZM12 6.25C13.5188 6.25 14.75 7.48122 14.75 9C14.75 9.54631 14.5895 10.0573 14.3135 10.4863C14.1406 10.755 13.9384 11.0115 13.752 11.2432C13.7178 11.2855 13.6843 11.3274 13.6514 11.3682C13.4967 11.5596 13.3548 11.7357 13.2236 11.916C12.9002 12.3606 12.75 12.6948 12.75 13V13.5C12.75 13.9142 12.4142 14.25 12 14.25C11.5858 14.25 11.25 13.9142 11.25 13.5V13C11.25 12.2008 11.6422 11.5397 12.0107 11.0332C12.1665 10.8192 12.337 10.6079 12.4922 10.416C12.5232 10.3776 12.5544 10.3405 12.584 10.3037C12.7692 10.0736 12.9268 9.8705 13.0527 9.6748C13.1776 9.48059 13.25 9.24986 13.25 9C13.25 8.30964 12.6904 7.75 12 7.75C11.3096 7.75 10.75 8.30964 10.75 9C10.75 9.41421 10.4142 9.75 10 9.75C9.58579 9.75 9.25 9.41421 9.25 9C9.25 7.48122 10.4812 6.25 12 6.25Z" fill="#70809F"/>
</svg>
