<svg width="24" height="24" viewBox="0 0 24 24" fill="none" xmlns="http://www.w3.org/2000/svg">
<path d="M12 1.25C12.8737 1.25 13.6479 1.54953 14.4737 2.04883C15.2734 2.53243 16.1876 3.24595 17.335 4.1416L18.3731 4.95215C18.4221 4.99039 18.4708 5.02813 18.5186 5.06543C19.8944 6.13861 20.7839 6.8327 21.2676 7.8252C21.7509 8.8172 21.7506 9.9467 21.75 11.6953V14.0273C21.7501 15.8719 21.7498 17.3327 21.5967 18.4756C21.4392 19.6514 21.1073 20.603 20.3594 21.3535C19.6112 22.1043 18.6621 22.4384 17.4893 22.5967C16.3499 22.7504 14.8942 22.75 13.0567 22.75H10.9434C9.1059 22.75 7.65013 22.7504 6.51078 22.5967C5.3379 22.4384 4.38891 22.1044 3.64066 21.3535C2.89277 20.603 2.56088 19.6514 2.40336 18.4756C2.25027 17.3327 2.25002 15.8718 2.25004 14.0273V11.6953C2.24947 9.94674 2.24918 8.81719 2.73246 7.8252C3.21614 6.83273 4.1057 6.13857 5.48148 5.06543C5.52927 5.02816 5.57803 4.99036 5.62699 4.95215L6.66508 4.1416C7.81255 3.24593 8.72662 2.53244 9.52641 2.04883C10.3522 1.54951 11.1264 1.25002 12 1.25ZM12.001 15.75C11.5255 15.75 11.2061 15.7507 10.959 15.7676C10.7188 15.784 10.6015 15.8129 10.5245 15.8447C10.218 15.9715 9.97465 16.2151 9.84769 16.5215C9.81578 16.5985 9.78607 16.7157 9.76957 16.9561C9.75261 17.2032 9.75222 17.5225 9.75199 17.998L9.75004 21.248C10.1384 21.25 10.5541 21.25 11 21.25H13C13.4459 21.25 13.8617 21.25 14.25 21.248V17.999C14.25 17.5234 14.2493 17.2042 14.2325 16.957C14.2161 16.717 14.1871 16.5996 14.1553 16.5225C14.0284 16.2158 13.7842 15.9716 13.4776 15.8447C13.4005 15.8129 13.2831 15.7839 13.043 15.7676C12.7958 15.7507 12.4766 15.75 12.001 15.75ZM12 2.75C11.5014 2.75002 10.9996 2.91073 10.3028 3.33203C9.58855 3.76391 8.74393 4.42148 7.54984 5.35352L6.54984 6.13379C4.97577 7.36243 4.39408 7.83951 4.08109 8.48145C3.76797 9.12395 3.75004 9.87866 3.75004 11.8799V13.9717C3.75004 15.8849 3.75151 17.2447 3.88969 18.2764C4.02506 19.2868 4.27948 19.8697 4.70316 20.2949C5.12642 20.7196 5.70571 20.9737 6.71098 21.1094C7.15631 21.1695 7.66348 21.2021 8.25004 21.2217L8.25199 17.9717C8.2522 17.528 8.25261 17.1576 8.27348 16.8535C8.29521 16.5368 8.34183 16.2373 8.46195 15.9473C8.74126 15.2732 9.277 14.7379 9.95121 14.459C10.2413 14.339 10.5408 14.2921 10.8575 14.2705C11.1616 14.2498 11.532 14.25 11.9756 14.25H12.0264C12.4704 14.25 12.8413 14.2498 13.1455 14.2705C13.4622 14.2921 13.7617 14.339 14.0518 14.459C14.7261 14.7381 15.2619 15.2739 15.5411 15.9482C15.6611 16.2383 15.7079 16.5378 15.7295 16.8545C15.7503 17.1588 15.75 17.5297 15.75 17.9736V21.2217C16.3367 21.2021 16.8437 21.1695 17.2891 21.1094C18.2944 20.9737 18.8736 20.7196 19.2969 20.2949C19.7206 19.8697 19.975 19.2868 20.1104 18.2764C20.2486 17.2447 20.25 15.8849 20.25 13.9717V11.8799C20.25 9.87866 20.2321 9.12395 19.919 8.48145C19.606 7.83954 19.0243 7.36239 17.4502 6.13379L16.4502 5.35352C15.2562 4.42149 14.4115 3.7639 13.6973 3.33203C13.0005 2.91076 12.4987 2.75 12 2.75Z" fill="#1B84E7"/>
</svg>
