<svg width="32" height="32" viewBox="0 0 32 32" fill="none" xmlns="http://www.w3.org/2000/svg">
<path d="M14.9997 5.25003C15.3951 5.24977 15.7888 5.25013 16.0769 5.31643C16.7397 5.46909 17.324 5.8822 17.6501 6.48147C17.7734 6.70815 17.8419 6.96717 17.9089 7.25296C17.9352 7.2504 17.962 7.24979 17.989 7.25003C19.4443 7.26268 20.3686 7.34487 21.0251 7.47757C21.7111 7.61625 22.0886 7.80769 22.4284 7.9844L22.4567 8.00003L22.4841 8.01663C23.821 8.86441 24.0736 10.3083 24.153 11.1699C24.2681 12.1099 24.2618 14.1637 24.2585 15.1582C24.2581 15.2936 24.2575 15.4094 24.2575 15.5C24.2575 15.9142 23.9217 16.25 23.5075 16.25C23.0933 16.25 22.7575 15.9142 22.7575 15.5C22.7575 15.3976 22.7581 15.2725 22.7585 15.1299C22.7613 14.1015 22.7659 12.1675 22.6628 11.3428L22.6618 11.3311L22.6608 11.3184C22.5899 10.5379 22.3922 9.75081 21.7058 9.29983C21.4341 9.15888 21.1982 9.04249 20.7273 8.94729C20.2404 8.84893 19.4934 8.77416 18.2292 8.75491C18.2296 8.75827 18.2308 8.76147 18.2312 8.76467C18.2649 9.04361 18.2669 9.36648 18.1208 9.6885C17.9715 10.0174 17.7236 10.2867 17.4206 10.4707C17.1355 10.6439 16.8256 10.7003 16.5368 10.7256C16.2601 10.7498 15.9192 10.75 15.529 10.75H14.4704C14.0801 10.75 13.7394 10.7499 13.4626 10.7256C13.174 10.7003 12.8648 10.6437 12.5798 10.4707C12.2767 10.2867 12.0279 10.0175 11.8786 9.6885C11.7325 9.36648 11.7346 9.04361 11.7683 8.76467C11.7688 8.76056 11.7697 8.75635 11.7702 8.75198C10.7861 8.75717 9.96009 8.8036 9.29464 8.94827C8.59975 9.09936 8.16558 9.33772 7.90206 9.65725C7.48266 10.2386 7.42465 10.8118 7.37569 11.2979C7.36156 11.4382 7.34802 11.5714 7.32686 11.6953C7.21293 13.1974 7.2526 17.5825 7.27315 19.8711C7.27835 20.4501 7.28292 20.895 7.28292 21.125C7.28292 21.1724 7.28204 21.221 7.28194 21.2705C7.28082 21.8495 7.2803 22.5663 7.4255 23.2403C7.58349 23.9734 7.87819 24.4847 8.36788 24.7295C8.91422 25.0027 9.48727 25.1357 10.5495 25.1953C11.3452 25.24 12.3626 25.2414 13.7917 25.2442C14.3149 25.2452 14.8938 25.2466 15.5368 25.25C15.9508 25.2524 16.285 25.5899 16.2829 26.0039C16.2807 26.418 15.943 26.7519 15.529 26.75C14.9126 26.7468 14.3486 26.7461 13.8327 26.7451C12.382 26.7423 11.3049 26.7396 10.4655 26.6924C9.30288 26.6271 8.50059 26.4731 7.69698 26.0713C6.61169 25.5287 6.15696 24.4766 5.9587 23.5567C5.7774 22.7154 5.78007 21.8407 5.78194 21.2774C5.78212 21.2238 5.78292 21.1727 5.78292 21.125C5.78292 20.9229 5.77904 20.5162 5.77413 19.9776C5.75343 17.7066 5.71088 13.0876 5.83468 11.5401L5.83858 11.5L5.84542 11.46C5.84877 11.4424 5.85197 11.4037 5.85616 11.3477C5.8849 10.9628 5.97508 9.75013 6.70186 8.75686L6.72335 8.72952C7.28587 8.0308 8.0995 7.67305 8.97628 7.48245C9.85027 7.29246 10.8748 7.25003 11.9577 7.25003C12.002 7.25004 12.0454 7.25436 12.0876 7.26175C12.1553 6.97237 12.2247 6.71054 12.3493 6.48147C12.6755 5.88204 13.2605 5.46904 13.9235 5.31643C14.2116 5.25021 14.6045 5.24977 14.9997 5.25003ZM21.4997 17.25C24.123 17.25 26.2497 19.3767 26.2497 22C26.2497 24.6234 24.1231 26.75 21.4997 26.75C18.8765 26.7499 16.7497 24.6233 16.7497 22C16.7498 19.3768 18.8765 17.2501 21.4997 17.25ZM21.4997 18.75C19.7049 18.7501 18.2498 20.2052 18.2497 22C18.2497 23.7949 19.7049 25.2499 21.4997 25.25C23.2946 25.25 24.7497 23.795 24.7497 22C24.7497 20.2052 23.2946 18.75 21.4997 18.75ZM22.447 20.4815C22.7934 20.2543 23.2589 20.3509 23.486 20.6973C23.7128 21.0435 23.6163 21.5082 23.2702 21.7354C22.6784 22.1235 22.3082 22.6542 22.071 23.0762C22.0122 23.1809 21.962 23.2779 21.9177 23.3653C21.9093 23.3818 21.9003 23.3992 21.8913 23.417C21.8581 23.4829 21.8218 23.5549 21.7917 23.6094C21.7726 23.644 21.7418 23.6992 21.7019 23.7539C21.6817 23.7815 21.6478 23.8254 21.6003 23.8711C21.5589 23.9109 21.4643 23.9948 21.3181 24.0469C21.1437 24.1089 20.9148 24.1163 20.698 23.999C20.5136 23.8992 20.4218 23.7533 20.3835 23.6817C20.3668 23.6504 20.3529 23.6186 20.3415 23.5889C20.289 23.516 20.2145 23.4291 20.1267 23.3438C20.0043 23.225 19.902 23.1548 19.8523 23.1309C19.4791 22.9516 19.3217 22.5042 19.5007 22.1309C19.6799 21.7575 20.1282 21.6001 20.5017 21.7793C20.6538 21.8524 20.7998 21.9508 20.9323 22.0567C21.2423 21.5643 21.7205 20.958 22.447 20.4815ZM14.9899 19.751C15.4035 19.7277 15.7577 20.0445 15.781 20.458C15.8042 20.8715 15.4883 21.2256 15.0749 21.249C14.2521 21.2954 13.7066 21.4314 13.2751 21.6309C12.842 21.8312 12.4734 22.1184 12.0232 22.5449C11.7224 22.8296 11.2474 22.8163 10.9626 22.5157C10.6781 22.215 10.6914 21.7408 10.9919 21.4561C11.4916 20.9827 11.9982 20.5692 12.6462 20.2696C13.2958 19.9692 14.0381 19.8047 14.9899 19.751ZM15.0075 13.25C16.5263 13.25 17.7575 14.4813 17.7575 16C17.7575 17.5188 16.5263 18.75 15.0075 18.75C13.4888 18.7499 12.2575 17.5187 12.2575 16C12.2576 14.4814 13.4889 13.2501 15.0075 13.25ZM15.0075 14.75C14.3173 14.7501 13.7576 15.3098 13.7575 16C13.7575 16.6903 14.3173 17.2499 15.0075 17.25C15.6979 17.25 16.2575 16.6904 16.2575 16C16.2575 15.3097 15.6978 14.75 15.0075 14.75ZM14.9997 6.75003C14.4902 6.75003 14.3589 6.7545 14.2595 6.77737C13.9774 6.84229 13.7698 7.00876 13.6667 7.19827C13.6384 7.32074 13.5892 7.52561 13.5339 7.75296C13.4159 8.23832 13.2718 8.82758 13.2575 8.94436V8.94632C13.2595 9.05155 13.2629 9.2025 13.5935 9.23147C13.7968 9.24928 14.0709 9.25003 14.5017 9.25003H15.4978C15.9284 9.25003 16.2027 9.24927 16.406 9.23147C16.7225 9.2184 16.762 9.0345 16.7419 8.94436C16.7276 8.82753 16.5845 8.23827 16.4665 7.75296C16.4112 7.52559 16.3611 7.32075 16.3327 7.19827C16.2296 7.0088 16.022 6.84228 15.7399 6.77737C15.6405 6.75454 15.5089 6.75003 14.9997 6.75003Z" fill="#6B7280"/>
</svg>
