<svg width="24" height="24" viewBox="0 0 24 24" fill="none" xmlns="http://www.w3.org/2000/svg">
<path d="M14.0566 2.75C15.8943 2.74998 17.3501 2.75016 18.4893 2.90332C19.6616 3.06096 20.6101 3.39329 21.3584 4.1416C22.1067 4.88991 22.439 5.83844 22.5967 7.01074C22.7498 8.14991 22.75 9.60571 22.75 11.4434V12.5566C22.75 14.3943 22.7498 15.8501 22.5967 16.9893C22.439 18.1616 22.1067 19.1101 21.3584 19.8584C20.6101 20.6067 19.6616 20.939 18.4893 21.0967C17.3501 21.2498 15.8943 21.25 14.0566 21.25H9.94336C8.10571 21.25 6.64991 21.2498 5.51074 21.0967C4.33844 20.939 3.38991 20.6067 2.6416 19.8584C1.89329 19.1101 1.56096 18.1616 1.40332 16.9893C1.25016 15.8501 1.24998 14.3943 1.25 12.5566V11.4434C1.24998 9.60571 1.25016 8.14991 1.40332 7.01074C1.56096 5.83844 1.89329 4.88991 2.6416 4.1416C3.38991 3.39329 4.33844 3.06096 5.51074 2.90332C6.64991 2.75016 8.10571 2.74998 9.94336 2.75H14.0566ZM10 4.25C8.09324 4.25 6.73859 4.2515 5.71094 4.38965C4.70485 4.52491 4.12536 4.77894 3.70215 5.20215C3.27894 5.62536 3.02491 6.20485 2.88965 7.21094C2.7515 8.23859 2.75 9.59324 2.75 11.5V12.5C2.75 14.4068 2.7515 15.7614 2.88965 16.7891C3.02491 17.7952 3.27894 18.3746 3.70215 18.7979C4.12536 19.2211 4.70485 19.4751 5.71094 19.6104C6.73859 19.7485 8.09324 19.75 10 19.75H14C15.9068 19.75 17.2614 19.7485 18.2891 19.6104C19.2952 19.4751 19.8746 19.2211 20.2979 18.7979C20.7211 18.3746 20.9751 17.7952 21.1104 16.7891C21.2485 15.7614 21.25 14.4068 21.25 12.5V11.5C21.25 9.59324 21.2485 8.23859 21.1104 7.21094C20.9751 6.20485 20.7211 5.62536 20.2979 5.20215C19.8746 4.77894 19.2952 4.52491 18.2891 4.38965C17.2614 4.2515 15.9068 4.25 14 4.25H10ZM4.30371 15.7207C5.57399 12.5553 10.3233 12.2997 11.6963 15.7207C11.8505 16.1051 11.6637 16.542 11.2793 16.6963C10.8949 16.8504 10.4579 16.6637 10.3037 16.2793C9.46867 14.1993 6.49755 14.2832 5.69629 16.2793C5.54204 16.6637 5.10512 16.8505 4.7207 16.6963C4.33641 16.542 4.14948 16.1051 4.30371 15.7207ZM16.5 14.75C16.9142 14.75 17.25 15.0858 17.25 15.5C17.25 15.9142 16.9142 16.25 16.5 16.25H14C13.5858 16.25 13.25 15.9142 13.25 15.5C13.25 15.0858 13.5858 14.75 14 14.75H16.5ZM19 11.25C19.4142 11.25 19.75 11.5858 19.75 12C19.75 12.4142 19.4142 12.75 19 12.75H14C13.5858 12.75 13.25 12.4142 13.25 12C13.25 11.5858 13.5858 11.25 14 11.25H19ZM8 7.25C9.38071 7.25 10.5 8.36929 10.5 9.75C10.5 11.1307 9.38071 12.25 8 12.25C6.61929 12.25 5.5 11.1307 5.5 9.75C5.5 8.36929 6.61929 7.25 8 7.25ZM8 8.75C7.44772 8.75 7 9.19772 7 9.75C7 10.3023 7.44772 10.75 8 10.75C8.55228 10.75 9 10.3023 9 9.75C9 9.19772 8.55228 8.75 8 8.75ZM19 7.75C19.4142 7.75 19.75 8.08579 19.75 8.5C19.75 8.91421 19.4142 9.25 19 9.25H14C13.5858 9.25 13.25 8.91421 13.25 8.5C13.25 8.08579 13.5858 7.75 14 7.75H19Z" fill="#70809F"/>
</svg>
