<svg width="24" height="24" viewBox="0 0 24 24" fill="none" xmlns="http://www.w3.org/2000/svg">
<path d="M12 1.25C17.9371 1.25 22.75 6.06294 22.75 12C22.75 17.9371 17.9371 22.75 12 22.75C6.06294 22.75 1.25 17.9371 1.25 12C1.25 6.06294 6.06294 1.25 12 1.25ZM12 2.75C6.89137 2.75 2.75 6.89137 2.75 12C2.75 17.1086 6.89137 21.25 12 21.25C17.1086 21.25 21.25 17.1086 21.25 12C21.25 6.89137 17.1086 2.75 12 2.75ZM11.2764 10.25C11.4815 10.2499 11.7034 10.2502 11.8906 10.2754C12.1099 10.3049 12.3902 10.3804 12.626 10.6162C12.8618 10.852 12.9373 11.1322 12.9668 11.3516C12.992 11.5388 12.9923 11.7607 12.9922 11.9658V17C12.9922 17.4142 12.6564 17.75 12.2422 17.75C11.828 17.75 11.4922 17.4142 11.4922 17V12C11.4922 11.9009 11.4923 11.8204 11.4912 11.751C11.4218 11.7499 11.3413 11.75 11.2422 11.75C10.828 11.75 10.4922 11.4142 10.4922 11C10.4922 10.5858 10.828 10.25 11.2422 10.25C11.2535 10.25 11.2649 10.25 11.2764 10.25ZM12.001 7C12.5533 7 13.001 7.44772 13.001 8C13.001 8.55228 12.5533 9 12.001 9H11.9922C11.4399 9 10.9922 8.55228 10.9922 8C10.9922 7.44772 11.4399 7 11.9922 7H12.001Z" fill="#1B84E7"/>
</svg>
