<svg width="32" height="32" viewBox="0 0 32 32" fill="none" xmlns="http://www.w3.org/2000/svg">
<path d="M14.0264 5.27194C14.4403 5.28909 14.7612 5.63929 14.7442 6.05319C14.7271 6.46712 14.3779 6.78796 13.963 6.77096C11.572 6.67098 9.69387 6.94277 9.67487 6.94577C9.65696 6.94874 9.63809 6.95063 9.6192 6.95163C8.3152 7.04563 6.75983 7.81928 6.75983 10.9663C6.75983 12.3282 6.75697 13.8002 6.75397 15.2231C6.74897 17.9189 6.74283 20.4648 6.75983 21.7348C6.75983 22.4218 7.19712 24.9789 9.336 25.104C12.403 25.282 17.9281 25.3219 20.4551 25.1049C20.462 25.1049 20.4688 25.104 20.4756 25.103C20.4986 25.102 22.7672 24.9471 23.0274 22.7094C23.2884 20.4649 23.2698 18.8267 23.2628 18.2094C23.2628 18.1285 23.2608 18.0641 23.2608 18.0161C23.2608 17.6022 23.597 17.2663 24.0108 17.2661C24.4248 17.2661 24.7608 17.6021 24.7608 18.0161C24.7608 18.06 24.7608 18.119 24.7628 18.1919C24.7698 18.8349 24.7897 20.5433 24.5167 22.8823C24.1945 25.6549 21.8033 26.525 20.5733 26.5991C19.3393 26.7041 17.4172 26.7505 15.4073 26.7505L15.4083 26.7524C13.1983 26.7524 10.8801 26.696 9.25006 26.601C7.8881 26.521 6.78085 25.8179 6.04987 24.5659C5.46897 23.5699 5.2608 22.4556 5.2608 21.7436C5.24481 20.4725 5.24995 17.9208 5.25494 15.2192C5.25794 13.7973 5.2608 12.3262 5.2608 10.9653C5.2608 6.3033 8.19144 5.55849 9.48444 5.45749C9.74633 5.42037 11.6212 5.17097 14.0264 5.27194ZM18.9805 20.2671C19.3944 20.2672 19.7305 20.6032 19.7305 21.0171C19.7305 21.431 19.3944 21.7669 18.9805 21.7671H10.9805C10.5665 21.7671 10.2305 21.4311 10.2305 21.0171C10.2306 20.6031 10.5666 20.2671 10.9805 20.2671H18.9805ZM14.9805 16.2671C15.3944 16.2672 15.7305 16.6032 15.7305 17.0171C15.7305 17.431 15.3944 17.7669 14.9805 17.7671H10.9805C10.5665 17.7671 10.2305 17.4311 10.2305 17.0171C10.2306 16.6031 10.5666 16.2671 10.9805 16.2671H14.9805ZM20.9952 5.26706C24.1681 5.26706 26.75 7.8461 26.7501 11.0171C26.7501 14.1881 24.1682 16.7671 20.9952 16.7671C17.8223 16.7669 15.2403 14.1879 15.2403 11.0171C15.2403 7.84621 17.8224 5.26724 20.9952 5.26706ZM20.9952 6.76706C18.6494 6.76724 16.7403 8.67421 16.7403 11.0171C16.7403 13.3599 18.6493 15.2669 20.9952 15.2671C23.3412 15.2671 25.2501 13.3601 25.2501 11.0171C25.25 8.6741 23.3411 6.76706 20.9952 6.76706ZM22.7305 8.81003C23.1205 8.67208 23.5496 8.87611 23.6876 9.26608C23.8255 9.65606 23.6215 10.0851 23.2315 10.2231C22.3815 10.5241 21.1743 12.0364 20.6133 12.9184C20.4753 13.1352 20.2364 13.2661 19.9805 13.2661V13.2671H19.9415C19.6715 13.2531 19.4296 13.095 19.3096 12.853C18.8766 11.986 18.4543 11.5523 18.4493 11.5483C18.1563 11.2553 18.1563 10.7798 18.4493 10.4868C18.7423 10.1938 19.2178 10.1938 19.5108 10.4868C19.5469 10.5229 19.7573 10.7402 20.0372 11.1411C20.6882 10.2981 21.7075 9.17303 22.7305 8.81003Z" fill="#6B7280"/>
</svg>
