<svg width="24" height="24" viewBox="0 0 24 24" fill="none" xmlns="http://www.w3.org/2000/svg">
<path d="M16.2705 17.835C16.3616 17.4311 16.7621 17.1767 17.167 17.2676C19.5459 17.8036 20.7519 18.64 20.752 19.7539C20.752 20.7479 19.7792 21.5265 17.8623 22.0645C16.2873 22.5065 14.206 22.75 12.002 22.75H12C8.75 22.75 3.25 22.1189 3.25 19.7539C3.25009 18.641 4.45605 17.8036 6.83496 17.2676C7.23894 17.1766 7.64043 17.431 7.73242 17.835C7.82341 18.239 7.56903 18.6404 7.16504 18.7324C5.44515 19.1204 4.85783 19.5869 4.75879 19.7549C4.99879 20.2039 7.38598 21.25 12.001 21.25C16.616 21.25 19.0022 20.2039 19.2432 19.7549C19.1441 19.5868 18.5568 19.1194 16.8369 18.7324C16.4329 18.6414 16.1795 18.24 16.2705 17.835ZM12 1.25C15.0959 1.25002 17.9741 3.16478 19.1592 6.01562C21.2201 10.9714 17.4901 14.5086 14.4932 17.3506C14.2502 17.5805 14.0103 17.8092 13.7764 18.0342C13.2964 18.4962 12.665 18.749 11.999 18.749C11.3334 18.7488 10.7024 18.4959 10.2227 18.0352C9.97169 17.7922 9.71695 17.5487 9.45898 17.3027C6.48701 14.4738 2.78783 10.9526 4.8418 6.01562C6.02687 3.16478 8.9041 1.25 12 1.25ZM12 2.75C9.50202 2.75 7.18158 4.29383 6.22656 6.5918C4.56856 10.5768 7.58116 13.4438 10.4932 16.2158C10.7551 16.4648 11.0127 16.7111 11.2646 16.9551C11.4616 17.1441 11.724 17.25 12 17.25C12.276 17.25 12.5383 17.1451 12.7373 16.9531C12.9743 16.7252 13.216 16.4947 13.4619 16.2617C16.4009 13.4748 19.4394 10.5928 17.7754 6.59082C16.8194 4.29284 14.498 2.74904 12 2.74902V2.75ZM12 5.75C13.792 5.75 15.25 7.20801 15.25 9C15.25 10.792 13.792 12.25 12 12.25C10.208 12.25 8.75 10.792 8.75 9C8.75002 7.20801 10.208 5.75 12 5.75ZM12 7.25C11.035 7.25 10.25 8.03501 10.25 9C10.25 9.965 11.035 10.75 12 10.75C12.965 10.75 13.75 9.965 13.75 9C13.75 8.03501 12.965 7.25 12 7.25Z" fill="#1B84E7"/>
</svg>
