<svg width="16" height="16" viewBox="0 0 16 16" fill="none" xmlns="http://www.w3.org/2000/svg">
<path d="M11.5269 11.8379C11.6161 11.5768 11.9004 11.4373 12.1616 11.5264C12.6032 11.677 12.9947 11.8628 13.2856 12.0898C13.5698 12.3116 13.8335 12.6357 13.8335 13.0615C13.8334 13.5247 13.5229 13.8666 13.2036 14.0938C12.8717 14.3298 12.4238 14.5218 11.9155 14.6748C10.8919 14.9829 9.50703 15.166 7.99951 15.166C6.49212 15.166 5.10806 14.9828 4.08447 14.6748C3.57585 14.5217 3.12743 14.33 2.79541 14.0938C2.47618 13.8666 2.1666 13.5247 2.1665 13.0615C2.1665 12.6356 2.43014 12.3116 2.71436 12.0898C3.00534 11.8628 3.39668 11.677 3.83838 11.5264C4.09963 11.4373 4.3839 11.5767 4.47314 11.8379C4.56221 12.0991 4.4227 12.3834 4.16162 12.4727C3.77361 12.605 3.49781 12.7467 3.32959 12.8779C3.19508 12.9829 3.17142 13.0466 3.16748 13.0615C3.17203 13.0779 3.20099 13.1541 3.37549 13.2783C3.58321 13.4261 3.91609 13.5804 4.37256 13.7178C5.27912 13.9906 6.56164 14.166 7.99951 14.166C9.43751 14.166 10.7208 13.9906 11.6274 13.7178C12.0838 13.5804 12.4168 13.4261 12.6245 13.2783C12.7991 13.154 12.828 13.0777 12.8325 13.0615C12.8286 13.0466 12.8048 12.9828 12.6704 12.8779C12.5022 12.7467 12.2265 12.605 11.8384 12.4727C11.5771 12.3835 11.4378 12.0992 11.5269 11.8379ZM7.99951 0.833008C10.9846 0.833008 13.4993 3.34522 13.4995 6.39062C13.4995 9.50005 10.9345 11.6072 8.77979 12.9521L8.76416 12.9619C8.5316 13.0958 8.26785 13.166 7.99951 13.166C7.73121 13.166 7.46737 13.0958 7.23486 12.9619L7.22607 12.957L7.21826 12.9512C5.07189 11.5959 2.49951 9.51076 2.49951 6.39062C2.49969 3.34533 5.01459 0.833191 7.99951 0.833008ZM7.99951 1.83301C5.57319 1.83319 3.49969 3.89127 3.49951 6.39062C3.49951 8.91952 5.59256 10.7411 7.7417 12.0996C7.82099 12.1436 7.90971 12.166 7.99951 12.166C8.08979 12.166 8.17964 12.143 8.25928 12.0986C10.4083 10.7558 12.4995 8.91092 12.4995 6.39062C12.4993 3.89116 10.426 1.83301 7.99951 1.83301ZM7.99951 3.83301C9.38022 3.83301 10.4995 4.9523 10.4995 6.33301C10.4995 7.71372 9.38022 8.83301 7.99951 8.83301C6.61895 8.83283 5.49951 7.71361 5.49951 6.33301C5.49951 4.9524 6.61895 3.83318 7.99951 3.83301ZM7.99951 4.83301C7.17123 4.83318 6.49951 5.50469 6.49951 6.33301C6.49951 7.16133 7.17123 7.83283 7.99951 7.83301C8.82794 7.83301 9.49951 7.16143 9.49951 6.33301C9.49951 5.50458 8.82794 4.83301 7.99951 4.83301Z" fill="#1B84E7"/>
</svg>
