<svg width="24" height="24" viewBox="0 0 24 24" fill="none" xmlns="http://www.w3.org/2000/svg">
<path d="M6.5 7.75C8.52 7.75 9.6402 7.75055 10.4502 8.56055C11.2499 9.36052 11.25 10.4703 11.25 12.5V14.5C11.25 15.57 11.2502 16.2205 10.7402 16.7305C10.3503 17.1104 9.89993 17.2102 9.25 17.2402V20C9.25 21.07 9.25023 21.7205 8.74023 22.2305C8.22026 22.7503 7.56991 22.75 6.5 22.75C5.43 22.75 4.77953 22.7502 4.26953 22.2402C3.74964 21.7103 3.75 21.0699 3.75 20V17.2402C3.1 17.2202 2.64953 17.1202 2.26953 16.7402C1.74964 16.2103 1.75 15.5699 1.75 14.5V12.5C1.75 10.4704 1.75003 9.36051 2.55957 8.56055C3.35957 7.75055 4.48 7.75 6.5 7.75ZM17.501 7.75C18.7508 7.75018 19.8502 8.62042 20.3701 10.0303L21.6104 13.3506C22.1502 14.7902 22.4504 15.58 22.1006 16.3398C21.7706 17.0497 21.1108 17.2102 20.251 17.2402V20C20.251 21.07 20.2502 21.7205 19.7402 22.2305C19.2204 22.75 18.5705 22.75 17.501 22.75C16.431 22.75 15.7805 22.7501 15.2705 22.2402C14.7505 21.7102 14.751 21.07 14.751 20V17.2402C13.8911 17.2102 13.2304 17.0503 12.9004 16.3506C12.5504 15.5807 12.8507 14.7903 13.3906 13.3506L14.6309 10.0303C15.1509 8.63027 16.251 7.75 17.501 7.75ZM6.5 9.25C4.75009 9.25 3.97014 9.26017 3.62012 9.62012C3.27012 9.97012 3.25 10.76 3.25 12.5V14.5C3.25 14.99 3.25008 15.6004 3.33008 15.6904C3.43083 15.7503 4.00045 15.75 4.5 15.75C4.91 15.75 5.25 16.09 5.25 16.5V20C5.25 20.49 5.25008 21.1004 5.33008 21.1904C5.53144 21.3202 7.45765 21.3301 7.67969 21.1904C7.74969 21.1204 7.75 20.5098 7.75 20.0098V16.5098C7.75013 16.0999 8.09008 15.7598 8.5 15.7598C8.99933 15.7598 9.56861 15.7601 9.67969 15.6904C9.74969 15.6204 9.75 15.0098 9.75 14.5098V12.5098C9.75 10.7599 9.73963 9.97987 9.38965 9.62988C9.0395 9.27018 8.24951 9.25977 6.5 9.25977V9.25ZM17.501 9.25C16.9011 9.25 16.3311 9.76001 16.041 10.5498L14.8008 13.8701C14.4809 14.7198 14.1808 15.5193 14.2705 15.7197C14.3705 15.7497 15.0007 15.75 15.5107 15.75C15.9207 15.7501 16.2607 16.0901 16.2607 16.5V20C16.2607 20.49 16.2608 21.1004 16.3408 21.1904C16.5428 21.3201 18.469 21.3301 18.6904 21.1904C18.7604 21.1204 18.7607 20.5098 18.7607 20.0098V16.5098C18.7609 16.0999 19.1008 15.7598 19.5107 15.7598C20.0207 15.7598 20.651 15.7597 20.791 15.6797C20.8404 15.5288 20.5404 14.7298 20.2207 13.8906L18.9805 10.5703C18.6905 9.78031 18.1105 9.27051 17.5205 9.27051L17.501 9.25ZM6.5 1.25C8.02 1.25 9.25 2.48 9.25 4C9.25 5.52 8.02 6.75 6.5 6.75C4.98 6.75 3.75 5.52 3.75 4C3.75 2.48 4.98 1.25 6.5 1.25ZM17.5 1.25C19.02 1.25 20.25 2.48 20.25 4C20.25 5.52 19.02 6.75 17.5 6.75C15.98 6.75 14.75 5.52 14.75 4C14.75 2.48 15.98 1.25 17.5 1.25ZM6.5 2.75C5.81 2.75 5.25 3.31 5.25 4C5.25 4.69 5.81 5.25 6.5 5.25C7.19 5.25 7.75 4.69 7.75 4C7.75 3.31 7.19 2.75 6.5 2.75ZM17.5 2.75C16.81 2.75 16.25 3.31 16.25 4C16.25 4.69 16.81 5.25 17.5 5.25C18.19 5.25 18.75 4.69 18.75 4C18.75 3.31 18.19 2.75 17.5 2.75Z" fill="#1B84E7"/>
</svg>
