<svg width="24" height="24" viewBox="0 0 24 24" fill="none" xmlns="http://www.w3.org/2000/svg">
<path d="M12 10.75C14.3472 10.75 16.25 8.84721 16.25 6.5V5.5C16.25 3.15279 14.3472 1.25 12 1.25C9.65279 1.25 7.75 3.15279 7.75 5.5V6.5C7.75 8.84721 9.65279 10.75 12 10.75ZM12 9.25C10.4812 9.25 9.25 8.01878 9.25 6.5V5.5C9.25 3.98122 10.4812 2.75 12 2.75C13.5188 2.75 14.75 3.98122 14.75 5.5V6.5C14.75 8.01878 13.5188 9.25 12 9.25ZM20 22.75C20.4142 22.75 20.75 22.4142 20.75 22V16.9482C20.75 16.0498 20.7499 15.2999 20.6699 14.7051C20.5855 14.0775 20.3997 13.511 19.9443 13.0557C19.489 12.6003 18.9225 12.4145 18.2949 12.3301C17.7001 12.2501 16.9502 12.25 16.0518 12.25H16C15.7036 12.25 15.4348 12.4245 15.3145 12.6953L13.0918 17.6953L12.7725 15.1318L13.6709 13.335C13.7869 13.1026 13.7743 12.8265 13.6377 12.6055C13.501 12.3845 13.2598 12.25 13 12.25H11C10.7402 12.25 10.499 12.3845 10.3623 12.6055C10.2257 12.8265 10.2131 13.1026 10.3291 13.335L11.2275 15.1318L10.9072 17.6953L8.68555 12.6953C8.56517 12.4245 8.29639 12.25 8 12.25H7.94824C7.04976 12.25 6.29986 12.2501 5.70508 12.3301C5.07747 12.4145 4.51102 12.6003 4.05567 13.0557C3.60031 13.511 3.41451 14.0775 3.33008 14.7051C3.25011 15.2999 3.24997 16.0498 3.25 16.9482L3.25 22C3.25 22.4142 3.58579 22.75 4 22.75C4.41421 22.75 4.75 22.4142 4.75 22L4.75 17C4.75 16.036 4.75146 15.3883 4.81641 14.9053C4.87845 14.4439 4.9859 14.2465 5.11621 14.1162C5.24652 13.9859 5.44389 13.8785 5.90527 13.8164C6.302 13.7631 6.80983 13.7531 7.5127 13.751L11.3145 22.3047C11.4348 22.5755 11.7036 22.75 12 22.75C12.2964 22.75 12.5652 22.5755 12.6855 22.3047L16.4873 13.751C17.1902 13.7531 17.698 13.7631 18.0947 13.8164C18.5561 13.8784 18.7535 13.9859 18.8838 14.1162C19.0141 14.2465 19.1216 14.4439 19.1836 14.9053C19.2485 15.3883 19.25 16.036 19.25 17V22C19.25 22.4142 19.5858 22.75 20 22.75Z" fill="#1B84E7"/>
</svg>
