<svg width="24" height="24" viewBox="0 0 24 24" fill="none" xmlns="http://www.w3.org/2000/svg">
<path d="M18.5264 13.377C18.8565 13.2797 19.3014 13.1781 19.8193 13.3203C20.3326 13.4613 20.8039 13.8088 21.293 14.3506C21.5744 14.6096 21.8863 14.9348 22.0742 15.3682C22.2807 15.8445 22.305 16.3689 22.1484 16.9561L22.1367 16.999L22.1201 17.041C21.9359 17.5017 21.5652 17.9039 21.2285 18.2412C21.0783 18.3917 20.9317 18.5313 20.7842 18.6729C20.5535 18.8943 20.3197 19.1197 20.0605 19.3926L20.0518 19.4023L20.042 19.4111C19.5786 19.8665 19.1874 20.2651 18.8486 20.6104C18.696 20.7659 18.5541 20.9107 18.4209 21.0449C18.0263 21.4425 17.6521 21.8094 17.3428 21.9951C16.9169 22.2507 16.3793 22.3899 15.7627 22.501L15.75 22.5029L15.7383 22.5049C15.556 22.5316 15.3562 22.5627 15.1611 22.5938C14.9219 22.6319 14.6888 22.6689 14.5029 22.6943C14.3207 22.7192 14.1387 22.74 13.9746 22.7471C13.829 22.7533 13.6184 22.7541 13.4189 22.6934C12.8759 22.528 12.7857 21.9933 12.7666 21.8535C12.7372 21.6383 12.7518 21.4002 12.7734 21.1973C12.8069 20.8827 12.8762 20.4986 12.9395 20.1475C12.9582 20.0435 12.9765 19.9424 12.9932 19.8467C13.0854 19.1973 13.2785 18.5548 13.5361 18.1309C13.5862 18.0456 13.6468 17.9737 13.6699 17.9463C13.6713 17.9446 13.6727 17.9427 13.6738 17.9414C13.7194 17.8874 13.7759 17.8242 13.8379 17.7568C13.9631 17.6208 14.1302 17.4461 14.3223 17.249C14.7079 16.8534 15.209 16.3524 15.7061 15.8613L15.7334 15.8359C15.9101 15.6783 16.1617 15.4167 16.4561 15.1104C16.6262 14.9333 16.8107 14.741 17.0039 14.5449C17.2519 14.2933 17.5096 14.0406 17.7393 13.8438C17.8535 13.7458 17.9751 13.6494 18.0947 13.5713C18.1806 13.5152 18.3357 13.4202 18.5264 13.377ZM15.9453 1.25C16.3595 1.25 16.6953 1.58579 16.6953 2V2.42676C17.6268 2.59295 18.4298 2.90095 19.0342 3.51465C19.6973 4.18829 19.987 5.02527 20.1221 6.0498C20.2503 7.02196 20.2501 8.262 20.25 9.8252V11.1475C20.2499 11.5616 19.9142 11.8975 19.5 11.8975C19.0858 11.8975 18.7501 11.5616 18.75 11.1475V9.93066C18.75 8.27442 18.7499 7.11926 18.6348 6.24609C18.5222 5.39226 18.3117 4.91879 17.9658 4.56738C17.701 4.29836 17.312 4.09699 16.6953 3.95801V4C16.6953 4.41421 16.3595 4.75 15.9453 4.75C15.5311 4.75 15.1953 4.41421 15.1953 4V3.76758C14.4125 3.71918 13.4754 3.71094 12.3447 3.71094H11.6953V4C11.6953 4.41421 11.3595 4.75 10.9453 4.75C10.5311 4.75 10.1953 4.41421 10.1953 4V3.71094H9.3916C8.29746 3.71094 7.41858 3.71242 6.69531 3.74805V4C6.69531 4.41421 6.35953 4.75 5.94531 4.75C5.5311 4.75 5.19531 4.41421 5.19531 4V3.92578C4.65467 4.05193 4.31007 4.24237 4.04395 4.5127C3.69991 4.86221 3.48553 5.3469 3.37012 6.21875C3.252 7.11119 3.25 8.29014 3.25 9.96094V14.9609C3.25 16.6317 3.252 17.8107 3.37012 18.7031C3.48554 19.575 3.69985 20.0606 4.04395 20.4102C4.38642 20.7578 4.85929 20.9734 5.71191 21.0898C6.58765 21.2094 7.74585 21.2109 9.3916 21.2109H10.2891C10.7033 21.2109 11.0391 21.5467 11.0391 21.9609C11.0391 22.3752 10.7033 22.7109 10.2891 22.7109H9.33496C7.75862 22.711 6.49783 22.7112 5.50879 22.5762C4.48523 22.4364 3.64126 22.1391 2.97461 21.4619C2.30963 20.7863 2.01968 19.9335 1.88281 18.8994C1.75019 17.8971 1.74998 16.6187 1.75 15.0156V9.90625C1.74998 8.3032 1.7502 7.02473 1.88281 6.02246C2.01968 4.98836 2.3096 4.13552 2.97461 3.45996C3.57191 2.85322 4.3117 2.55222 5.19531 2.39551V2C5.19531 1.58579 5.5311 1.25 5.94531 1.25C6.35953 1.25 6.69531 1.58579 6.69531 2V2.24609C7.45458 2.21118 8.3308 2.21093 9.33496 2.21094H10.1953V2C10.1953 1.58579 10.5311 1.25 10.9453 1.25C11.3595 1.25 11.6953 1.58579 11.6953 2V2.21094H12.3447C13.414 2.21094 14.3646 2.21696 15.1953 2.26465V2C15.1953 1.58579 15.5311 1.25 15.9453 1.25ZM19.4219 14.7666C19.3092 14.7357 19.193 14.7432 18.9229 14.8242L18.917 14.8262L18.915 14.8271C18.8722 14.8551 18.8062 14.905 18.7158 14.9824C18.5362 15.1364 18.3146 15.3518 18.0723 15.5977C17.924 15.7481 17.764 15.9143 17.6045 16.0801C17.284 16.4132 16.9652 16.7447 16.7471 16.9414C16.2575 17.4252 15.7695 17.9132 15.3965 18.2959C15.2079 18.4893 15.0522 18.6521 14.9414 18.7725C14.8855 18.8332 14.8456 18.8782 14.8203 18.9082C14.8174 18.9116 14.8148 18.9152 14.8125 18.918C14.7003 19.1074 14.5518 19.5288 14.4766 20.0664L14.4756 20.0791L14.4727 20.0908C14.4507 20.2178 14.4287 20.3416 14.4072 20.4609C14.3578 20.7356 14.312 20.9882 14.2822 21.2109C14.2879 21.2102 14.2941 21.2098 14.2998 21.209C14.49 21.183 14.6808 21.152 14.8916 21.1182C15.0767 21.0884 15.2775 21.0564 15.5078 21.0225C16.0903 20.9169 16.3949 20.8148 16.5713 20.709C16.6845 20.641 16.9141 20.4331 17.3555 19.9883C17.479 19.8638 17.6163 19.7245 17.7656 19.5723C18.1059 19.2254 18.5122 18.8109 18.9814 18.3496C19.2517 18.0657 19.5427 17.7859 19.7939 17.5439C19.9338 17.4092 20.0619 17.286 20.167 17.1807C20.4837 16.8633 20.6438 16.6613 20.7119 16.5195C20.7803 16.2329 20.7456 16.0741 20.6982 15.9648C20.6359 15.8211 20.5094 15.6646 20.2549 15.4326L20.2256 15.4062L20.2002 15.3779C19.7932 14.9219 19.5483 14.8013 19.4219 14.7666ZM11 14.25C11.4142 14.25 11.75 14.5858 11.75 15C11.75 15.4142 11.4142 15.75 11 15.75H7C6.58579 15.75 6.25 15.4142 6.25 15C6.25 14.5858 6.58579 14.25 7 14.25H11ZM15 9.25C15.4142 9.25 15.75 9.58579 15.75 10C15.75 10.4142 15.4142 10.75 15 10.75H7C6.58579 10.75 6.25 10.4142 6.25 10C6.25 9.58579 6.58579 9.25 7 9.25H15Z" fill="#1B84E7"/>
</svg>
