<svg width="24" height="24" viewBox="0 0 24 24" fill="none" xmlns="http://www.w3.org/2000/svg">
<path d="M12 1.25C15.392 1.25 17.2609 1.25012 18.5049 2.49512C18.9796 2.96986 19.2724 3.53535 19.4541 4.24121C20.4196 4.21336 21.8118 4.20807 22.4883 5.36133C22.9432 6.13829 22.741 7.00429 22.373 8.57617L20.4551 16.7773C19.8311 19.4453 19.4869 20.914 18.334 21.834C17.178 22.754 15.6762 22.7539 12.9492 22.7539V22.752C12.9268 22.752 12.9047 22.75 12.8828 22.748C12.6005 22.749 12.3065 22.75 12 22.75H9C5.608 22.75 3.73912 22.7499 2.49512 21.5049C1.25012 20.2599 1.25 18.392 1.25 15L1.25 9C1.25 5.608 1.25012 3.73912 2.49512 2.49512C3.74012 1.25012 5.608 1.25 9 1.25L12 1.25ZM9 2.75C5.911 2.75 4.36069 2.74969 3.55469 3.55469C2.74969 4.35969 2.75 5.911 2.75 9L2.75 15C2.75 18.089 2.74969 19.6393 3.55469 20.4453C4.35969 21.2503 5.911 21.25 9 21.25H12C15.089 21.25 16.6393 21.2503 17.4453 20.4453C18.2503 19.6403 18.25 18.089 18.25 15V9C18.25 5.911 18.2503 4.36069 17.4453 3.55469C16.6403 2.74969 15.089 2.75 12 2.75L9 2.75ZM14 16.25C14.414 16.25 14.75 16.586 14.75 17C14.75 17.414 14.414 17.75 14 17.75L7 17.75C6.586 17.75 6.25 17.414 6.25 17C6.25 16.586 6.586 16.25 7 16.25L14 16.25ZM10.5 5.25C13.119 5.25 15.25 7.381 15.25 10C15.25 12.619 13.119 14.75 10.5 14.75C7.881 14.75 5.75 12.619 5.75 10C5.75 7.381 7.881 5.25 10.5 5.25ZM10.5 6.78223C10.239 7.02945 9.75 8.12029 9.75 10C9.75 11.8797 10.239 12.9705 10.5 13.2178C10.761 12.9705 11.25 11.8797 11.25 10C11.25 8.12029 10.761 7.02945 10.5 6.78223ZM19.6807 5.73828C19.7494 6.63771 19.75 7.70834 19.75 9V13.2021L20.9111 8.23828C21.1731 7.1173 21.3464 6.37914 21.1934 6.11914C20.9774 5.75181 20.3034 5.72566 19.6807 5.73828ZM8.58691 7.37402C7.77695 7.96603 7.25 8.92203 7.25 10C7.25 11.078 7.77695 12.034 8.58691 12.626C8.35992 11.831 8.25 10.902 8.25 10C8.25 9.09801 8.35892 8.16902 8.58691 7.37402ZM12.4131 7.37402C12.6401 8.16902 12.75 9.09801 12.75 10C12.75 10.902 12.6411 11.831 12.4131 12.626C13.223 12.034 13.75 11.078 13.75 10C13.75 8.92203 13.223 7.96603 12.4131 7.37402Z" fill="#1B84E7"/>
</svg>
