<svg width="24" height="24" viewBox="0 0 24 24" fill="none" xmlns="http://www.w3.org/2000/svg">
<path d="M13.2998 6.25C17.1934 6.25 20.3495 9.40625 20.3496 13.2998C20.3496 14.9764 19.7645 16.5165 18.7871 17.7266L21.5303 20.4697C21.8232 20.7626 21.8232 21.2374 21.5303 21.5303C21.2374 21.8232 20.7626 21.8232 20.4697 21.5303L17.7266 18.7871C16.5165 19.7645 14.9764 20.3496 13.2998 20.3496C9.40625 20.3495 6.25 17.1934 6.25 13.2998C6.25011 9.40632 9.40632 6.25011 13.2998 6.25ZM13.2998 7.75C10.2347 7.75011 7.75011 10.2347 7.75 13.2998C7.75 16.3649 10.2347 18.8495 13.2998 18.8496C16.365 18.8496 18.8496 16.365 18.8496 13.2998C18.8495 10.2347 16.3649 7.75 13.2998 7.75ZM18.5381 2.25C19.2076 2.24998 19.7673 2.24967 20.2197 2.2959C20.6934 2.34432 21.1333 2.45007 21.5293 2.71582C21.7248 2.86606 22.1494 3.22868 22.2871 3.47754C22.5511 3.87434 22.656 4.31431 22.7041 4.78906C22.7501 5.24298 22.75 5.80394 22.75 6.47656V6.54395C22.75 7.16318 22.7503 7.68588 22.7158 8.11426C22.6804 8.55337 22.6045 8.96684 22.4102 9.34375C22.2203 9.71187 21.7676 9.85678 21.3994 9.66699C21.0314 9.47714 20.8874 9.02436 21.0771 8.65625C21.1393 8.53567 21.192 8.35001 21.2207 7.99317C21.2498 7.63208 21.25 7.17007 21.25 6.51465C21.25 5.79404 21.2493 5.30974 21.2119 4.94043C21.1758 4.5836 21.111 4.41829 21.0381 4.30859C20.9467 4.17118 20.8298 4.05249 20.6934 3.96094C20.5851 3.88833 20.4208 3.82429 20.0664 3.78809C19.6993 3.75062 19.2176 3.75 18.5 3.75H5.5L3.93359 3.78809C3.57917 3.8243 3.41492 3.88831 3.30664 3.96094C3.17037 4.05237 3.05332 4.17039 2.96191 4.30762C2.88893 4.41732 2.82425 4.58345 2.78809 4.94043C2.75068 5.30974 2.75 5.79405 2.75 6.51465C2.75 7.23512 2.75071 7.71957 2.78809 8.08887C2.82425 8.44585 2.88893 8.61198 2.96191 8.72168C3.05331 8.85897 3.17031 8.97686 3.30664 9.06836C3.42766 9.14957 3.61553 9.21848 4.05664 9.25195C4.46963 9.28329 4.77932 9.64366 4.74805 10.0566C4.71671 10.4696 4.35634 10.7793 3.94336 10.748C3.40607 10.7073 2.91046 10.6086 2.4707 10.3135C2.17068 10.1121 1.91317 9.85366 1.71289 9.55274C1.44882 9.15585 1.344 8.71511 1.2959 8.24024C1.24994 7.78633 1.24998 7.1491 1.25 6.47656C1.24998 5.80393 1.24992 5.24298 1.2959 4.78906C1.344 4.3143 1.44892 3.87435 1.71289 3.47754C1.91322 3.17646 2.17049 2.91731 2.4707 2.71582C2.86677 2.45006 3.3066 2.34432 3.78027 2.2959C4.23276 2.24967 4.79246 2.24998 5.46191 2.25H18.5381Z" fill="#AED7FB"/>
</svg>
