<svg width="24" height="24" viewBox="0 0 24 24" fill="none" xmlns="http://www.w3.org/2000/svg">
<path d="M13.4028 1.25C13.6823 1.28191 13.9763 1.3554 14.2505 1.55273C14.5247 1.75013 14.6877 2.00539 14.8062 2.25977C14.9127 2.48855 15.4487 4.08887 15.4487 4.08887C15.544 4.32801 15.7104 4.53179 15.9253 4.67285C16.5224 5.06443 17.0523 4.9502 17.0523 4.9502C17.3825 4.85674 18.934 4.42095 19.1997 4.37891C19.4952 4.33218 19.8186 4.32546 20.1528 4.46094C20.4868 4.59636 20.7141 4.82567 20.8931 5.06445C20.8931 5.06445 22.229 7.31181 22.3316 7.54688C22.4442 7.80605 22.5273 8.09909 22.4917 8.43652C22.4561 8.77401 22.3142 9.04326 22.1499 9.27344C22.0035 9.47859 20.5657 11.0779 20.5444 11.1016C20.5444 11.1016 20.2837 11.4152 20.2837 12C20.2838 12.4994 20.5444 12.8984 20.5444 12.8984C20.7603 13.1377 22.0025 14.52 22.1499 14.7266C22.3141 14.9567 22.4561 15.226 22.4917 15.5635C22.5272 15.9007 22.4441 16.1931 22.3316 16.4521L20.8931 18.9346C20.7141 19.1734 20.4868 19.4026 20.1528 19.5381C19.8187 19.6736 19.4952 19.6678 19.1997 19.6211C18.9352 19.5792 17.0694 19.0546 17.0523 19.0498C16.7745 18.9897 16.3478 19.049 15.9253 19.3262C15.7121 19.4661 15.4533 19.9035 15.4487 19.9111C15.4487 19.9111 14.9127 21.5115 14.8062 21.7402C14.6877 21.9946 14.5247 22.2499 14.2505 22.4473C13.9763 22.6446 13.6823 22.7181 13.4028 22.75H10.5982C10.3186 22.7181 10.0239 22.6447 9.74953 22.4473C9.47532 22.2499 9.31235 21.9946 9.19386 21.7402C9.08726 21.5112 8.55128 19.9111 8.55128 19.9111C8.54532 19.9011 8.28737 19.4657 8.07472 19.3262C7.65225 19.0491 7.22548 18.9897 6.94777 19.0498C6.9216 19.0572 5.06693 19.5788 4.80128 19.6211C4.50583 19.6679 4.18238 19.6735 3.84816 19.5381C3.51396 19.4026 3.28598 19.1735 3.10695 18.9346L1.66847 16.4521C1.55597 16.1931 1.47281 15.9007 1.50831 15.5635C1.54388 15.2261 1.68592 14.9567 1.85011 14.7266C1.9975 14.52 3.23948 13.1379 3.45558 12.8984C3.45558 12.8984 3.71627 12.4994 3.71632 12C3.71632 11.4152 3.45558 11.1016 3.45558 11.1016C3.43115 11.0744 1.99633 9.47836 1.85011 9.27344C1.6859 9.04328 1.54388 8.77397 1.50831 8.43652C1.47277 8.0991 1.55587 7.80604 1.66847 7.54688C1.77082 7.31215 3.10695 5.06445 3.10695 5.06445C3.28596 4.82561 3.51407 4.59637 3.84816 4.46094C4.1821 4.32572 4.50507 4.33223 4.80031 4.37891C5.06594 4.42094 6.61717 4.85665 6.94777 4.9502C6.94777 4.9502 7.47761 5.06443 8.07472 4.67285C8.28965 4.5318 8.45603 4.32803 8.55128 4.08887C8.55128 4.08887 9.08726 2.48879 9.19386 2.25977C9.31235 2.0054 9.47532 1.75012 9.74953 1.55273C10.0239 1.35526 10.3186 1.28188 10.5982 1.25H13.4028ZM12.02 8.5C10.087 8.5 8.52003 10.067 8.52003 12C8.52003 13.933 10.087 15.5 12.02 15.5C13.9528 15.4998 15.52 13.9329 15.52 12C15.52 10.0671 13.9528 8.50022 12.02 8.5Z" fill="#1B84E7"/>
</svg>
