<svg width="24" height="24" viewBox="0 0 24 24" fill="none" xmlns="http://www.w3.org/2000/svg">
<path d="M14.0596 2.75C15.8946 2.74998 17.3529 2.74992 18.4951 2.91309C19.6762 3.0818 20.6289 3.43771 21.375 4.23047C22.115 5.01674 22.4417 6.00979 22.5977 7.24219C22.7501 8.44659 22.75 9.98835 22.75 11.9463V12.0537C22.75 14.0116 22.7501 15.5534 22.5977 16.7578C22.4417 17.9902 22.115 18.9833 21.375 19.7695C20.6289 20.5623 19.6762 20.9182 18.4951 21.0869C17.3529 21.2501 15.8946 21.25 14.0596 21.25H9.94043C8.10537 21.25 6.64712 21.2501 5.50488 21.0869C4.32384 20.9182 3.37113 20.5623 2.625 19.7695C1.885 18.9833 1.55832 17.9902 1.40234 16.7578C1.24994 15.5534 1.24999 14.0116 1.25 12.0537V11.9463C1.24999 9.98835 1.24994 8.44659 1.40234 7.24219C1.55832 6.00978 1.885 5.01674 2.625 4.23047C3.37113 3.43771 4.32384 3.0818 5.50488 2.91309C6.64712 2.74992 8.10536 2.74998 9.94043 2.75H14.0596ZM10 4.25C8.09189 4.25 6.74073 4.25217 5.7168 4.39844C4.7195 4.54093 4.14318 4.80681 3.71777 5.25879C3.28629 5.71724 3.02756 6.3486 2.89063 7.43066C2.75152 8.52994 2.75 9.97655 2.75 12C2.75 14.0235 2.75152 15.4701 2.89063 16.5693C3.02756 17.6514 3.28629 18.2828 3.71777 18.7412C4.14318 19.1932 4.7195 19.4591 5.7168 19.6016C6.74073 19.7478 8.09189 19.75 10 19.75H14C15.9081 19.75 17.2593 19.7478 18.2832 19.6016C19.2805 19.4591 19.8568 19.1932 20.2822 18.7412C20.7137 18.2828 20.9724 17.6514 21.1094 16.5693C21.2485 15.4701 21.25 14.0235 21.25 12C21.25 9.97655 21.2485 8.52994 21.1094 7.43066C20.9724 6.3486 20.7137 5.71724 20.2822 5.25879C19.8568 4.80681 19.2805 4.54093 18.2832 4.39844C17.2593 4.25217 15.9081 4.25 14 4.25H10ZM8.47754 13.1035C10.0127 13.0868 11.6123 13.6977 12.6055 15.0576C12.8497 15.3921 12.7768 15.8612 12.4424 16.1055C12.1079 16.3497 11.6389 16.2767 11.3945 15.9424C10.7416 15.0484 9.64523 14.591 8.49414 14.6035C7.339 14.6161 6.2391 15.1015 5.59961 15.9512C5.35052 16.2821 4.87977 16.3477 4.54883 16.0986C4.21825 15.8495 4.15155 15.3796 4.40039 15.0488C5.36949 13.7612 6.94647 13.1202 8.47754 13.1035ZM17 12.75C17.4142 12.75 17.75 13.0858 17.75 13.5C17.75 13.9142 17.4142 14.25 17 14.25H15C14.5858 14.25 14.25 13.9142 14.25 13.5C14.25 13.0858 14.5858 12.75 15 12.75H17ZM8.49902 7.75C9.87974 7.75 10.999 8.86929 10.999 10.25C10.999 11.6307 9.87974 12.75 8.49902 12.75C7.11833 12.75 5.99902 11.6307 5.99902 10.25C5.99902 8.8693 7.11833 7.75002 8.49902 7.75ZM8.49902 9.25C7.94676 9.25002 7.49902 9.69773 7.49902 10.25C7.49902 10.8023 7.94676 11.25 8.49902 11.25C9.05131 11.25 9.49902 10.8023 9.49902 10.25C9.49902 9.69772 9.05131 9.25 8.49902 9.25ZM19 8.75C19.4142 8.75 19.75 9.08579 19.75 9.5C19.75 9.91421 19.4142 10.25 19 10.25H15C14.5858 10.25 14.25 9.91421 14.25 9.5C14.25 9.08579 14.5858 8.75 15 8.75H19Z" fill="#1B84E7"/>
</svg>
