<svg width="24" height="24" viewBox="0 0 24 24" fill="none" xmlns="http://www.w3.org/2000/svg">
<path fill-rule="evenodd" clip-rule="evenodd" d="M12.0002 1.25C11.2712 1.25 10.6011 1.43823 9.85974 1.76207C9.14074 2.07612 8.30696 2.54014 7.25824 3.12377L7.25823 3.12378L3.11608 5.42893C2.53967 5.74971 2.05726 6.15261 1.72587 6.69585C1.39281 7.24181 1.25016 7.86731 1.25016 8.56907C1.2497 8.82452 1.24915 9.14972 1.31072 9.38151C1.46568 9.9648 1.83495 10.3408 2.2872 10.5422C2.6946 10.7238 3.1372 10.75 3.46944 10.75H20.5309C20.8631 10.75 21.3057 10.7238 21.7131 10.5422C22.1654 10.3408 22.5346 9.9648 22.6896 9.38151C22.7512 9.14972 22.7506 8.82453 22.7502 8.56907C22.7502 7.86731 22.6075 7.24181 22.2745 6.69585C21.9431 6.15261 21.4607 5.74971 20.8842 5.42893L16.7421 3.12379C15.6934 2.54014 14.8596 2.07612 14.1406 1.76206C13.3992 1.43823 12.7292 1.25 12.0002 1.25ZM5 17.75C2.92893 17.75 1.25 19.4289 1.25 21.5C1.25 22.1904 1.80964 22.75 2.5 22.75H11C11.4142 22.75 11.75 22.4142 11.75 22V18.5C11.75 18.0858 11.4142 17.75 11 17.75H5ZM13.7929 20.7929L20.7929 13.7929C21.1834 13.4024 21.8166 13.4024 22.2071 13.7929C22.5976 14.1834 22.5976 14.8166 22.2071 15.2071L15.2071 22.2071C14.8166 22.5976 14.1834 22.5976 13.7929 22.2071C13.4024 21.8166 13.4024 21.1834 13.7929 20.7929ZM15 13.5C14.1716 13.5 13.5 14.1716 13.5 15C13.5 15.8284 14.1716 16.5 15 16.5C15.8284 16.5 16.5 15.8284 16.5 15C16.5 14.1716 15.8284 13.5 15 13.5ZM19.5 21C19.5 20.1716 20.1716 19.5 21 19.5C21.8284 19.5 22.5 20.1716 22.5 21C22.5 21.8284 21.8284 22.5 21 22.5C20.1716 22.5 19.5 21.8284 19.5 21ZM3.25 11.7461V17.0825C3.79156 16.8678 4.382 16.7498 5 16.7498H8.75V11.7497L3.25 11.7461Z" fill="#1B84E7"/>
</svg>
