<svg width="24" height="24" viewBox="0 0 24 24" fill="none" xmlns="http://www.w3.org/2000/svg">
<path fill-rule="evenodd" clip-rule="evenodd" d="M7.95474 4.45279C9.04376 3.84675 9.81498 3.41847 10.4602 3.13666C11.0905 2.86135 11.5489 2.75 12.0002 2.75C12.4515 2.75 12.9099 2.86135 13.5402 3.13666C14.1853 3.41847 14.9566 3.84675 16.0456 4.45279L20.1548 6.73963C20.5767 6.97439 20.8346 7.2158 20.9939 7.47702C21.1516 7.73553 21.2502 8.07465 21.2502 8.56907C21.2502 8.738 21.25 8.83985 21.2465 8.91671C21.244 8.97224 21.2404 8.9935 21.2396 8.99734C21.2199 9.071 21.1963 9.10321 21.1839 9.11734C21.1707 9.13246 21.1484 9.15172 21.1027 9.17208C20.9929 9.22097 20.8117 9.25 20.5309 9.25H3.46944C3.18867 9.25 3.00739 9.22097 2.89764 9.17208C2.85194 9.15171 2.82961 9.13246 2.81638 9.11734C2.80402 9.10321 2.7804 9.071 2.7607 8.99734C2.75995 8.99351 2.75634 8.97226 2.75382 8.91671C2.75034 8.83986 2.75016 8.738 2.75016 8.56907C2.75016 8.07465 2.8487 7.73553 3.0064 7.47702C3.16575 7.2158 3.42367 6.97439 3.8455 6.73963L7.95474 4.45279ZM12.0002 1.25C11.2712 1.25 10.6011 1.43823 9.85974 1.76207C9.14074 2.07612 8.30696 2.54014 7.25824 3.12377L7.25823 3.12378L3.11608 5.42893C2.53967 5.74971 2.05726 6.15261 1.72587 6.69585C1.39281 7.24181 1.25016 7.86731 1.25016 8.56907L1.25008 8.63515C1.24962 8.89061 1.24915 9.14972 1.31072 9.38151C1.46568 9.9648 1.83495 10.3408 2.2872 10.5422C2.61019 10.6861 2.9553 10.7325 3.25 10.7455V18.1825C2.06055 18.8113 1.25 20.061 1.25 21.5C1.25 22.1904 1.80964 22.75 2.5 22.75H11C11.4142 22.75 11.75 22.4142 11.75 22C11.75 21.5858 11.4142 21.25 11 21.25H2.76373C2.88809 20.125 3.84186 19.25 5 19.25H11C11.4142 19.25 11.75 18.9142 11.75 18.5C11.75 18.0858 11.4142 17.75 11 17.75H8.75V10.75H20.5309C20.8631 10.75 21.3057 10.7238 21.7131 10.5422C22.1654 10.3408 22.5346 9.9648 22.6896 9.38151C22.7512 9.14972 22.7507 8.89061 22.7502 8.63515L22.7502 8.56907C22.7502 7.86731 22.6075 7.24181 22.2745 6.69585C21.9431 6.15261 21.4607 5.74971 20.8842 5.42893L16.7421 3.12379C15.6934 2.54014 14.8596 2.07612 14.1406 1.76206C13.3992 1.43823 12.7292 1.25 12.0002 1.25ZM5 17.75C4.91599 17.75 4.83263 17.7528 4.75 17.7582V10.75H7.25V17.75H5ZM20.9697 13.9697L13.9697 20.9697C13.6768 21.2626 13.6768 21.7374 13.9697 22.0303C14.2626 22.3232 14.7374 22.3232 15.0303 22.0303L22.0303 15.0303C22.3232 14.7374 22.3232 14.2626 22.0303 13.9697C21.7374 13.6768 21.2626 13.6768 20.9697 13.9697ZM13.75 15.25C13.75 14.4216 14.4216 13.75 15.25 13.75C16.0784 13.75 16.75 14.4216 16.75 15.25C16.75 16.0784 16.0784 16.75 15.25 16.75C14.4216 16.75 13.75 16.0784 13.75 15.25ZM20.75 19.25C19.9216 19.25 19.25 19.9216 19.25 20.75C19.25 21.5784 19.9216 22.25 20.75 22.25C21.5784 22.25 22.25 21.5784 22.25 20.75C22.25 19.9216 21.5784 19.25 20.75 19.25Z" fill="#70809F"/>
</svg>
