<svg width="24" height="24" viewBox="0 0 24 24" fill="none" xmlns="http://www.w3.org/2000/svg">
<path d="M12 1.25C17.9371 1.25 22.75 6.06294 22.75 12C22.75 17.9371 17.9371 22.75 12 22.75C6.06294 22.75 1.25 17.9371 1.25 12C1.25 6.06294 6.06294 1.25 12 1.25ZM12 2.75C6.89137 2.75 2.75 6.89137 2.75 12C2.75 17.1086 6.89137 21.25 12 21.25C17.1086 21.25 21.25 17.1086 21.25 12C21.25 6.89137 17.1086 2.75 12 2.75ZM12.0078 6.25C12.422 6.25 12.7578 6.58579 12.7578 7V9.88672C13.6316 10.1956 14.2577 11.0293 14.2578 12.0088C14.2578 12.3574 14.1786 12.6879 14.0371 12.9824L15.5449 14.4902C15.8378 14.7831 15.8377 15.2579 15.5449 15.5508C15.252 15.8437 14.7773 15.8437 14.4844 15.5508L12.9746 14.041C12.6817 14.1806 12.3539 14.2588 12.0078 14.2588C10.7652 14.2588 9.75781 13.2514 9.75781 12.0088C9.75797 11.0293 10.384 10.1956 11.2578 9.88672V7C11.2578 6.58579 11.5936 6.25 12.0078 6.25ZM12.0078 11.2588C11.5937 11.2588 11.258 11.5947 11.2578 12.0088C11.2578 12.423 11.5936 12.7588 12.0078 12.7588C12.2142 12.7588 12.4015 12.6759 12.5371 12.541C12.6736 12.4052 12.7578 12.2165 12.7578 12.0088C12.7576 11.5947 12.4219 11.2588 12.0078 11.2588Z" fill="#9DA4AE"/>
</svg>
