<svg width="24" height="24" viewBox="0 0 24 24" fill="none" xmlns="http://www.w3.org/2000/svg">
<path d="M8.20996 16.3906C10.47 14.8906 13.5303 14.8906 15.7803 16.3906C16.7102 17.0206 17.25 18.1511 17.25 19.501C17.2498 19.9108 16.9099 20.251 16.5 20.251V20.2402C16.09 20.2402 15.75 19.9002 15.75 19.4902C15.75 19.0801 15.6698 18.1208 14.9502 17.6309C13.2002 16.4709 10.8098 16.4609 9.0498 17.6309C8.33025 18.1108 8.25005 19.09 8.25 19.4902C8.25 19.8902 7.91 20.2402 7.5 20.2402C7.09 20.2402 6.75 19.9002 6.75 19.4902C6.7501 18.1504 7.28006 17.0106 8.20996 16.3906ZM6.5 10.2422C6.91 10.2422 7.25 10.5822 7.25 10.9922C7.25 11.4022 6.91 11.7422 6.5 11.7422C5.59003 11.7422 4.71018 12.0423 3.9502 12.6123C3.3402 13.0723 3.25 13.9226 3.25 14.3926C3.2498 14.8024 2.90988 15.1924 2.5 15.1924C2.09 15.1924 1.75 14.9022 1.75 14.4922C1.75 13.1122 2.20985 12.0521 3.0498 11.4121C4.0798 10.6421 5.27 10.2422 6.5 10.2422ZM17.5 10.2422C18.73 10.2422 19.9202 10.6421 20.9502 11.4121C21.7902 12.0521 22.25 13.1126 22.25 14.3926C22.2498 14.8024 21.9099 15.1924 21.5 15.1924C21.09 15.1924 20.75 14.9022 20.75 14.4922C20.75 13.9222 20.66 13.0723 20.04 12.6123C19.28 12.0423 18.4 11.7422 17.5 11.7422C17.09 11.7422 16.75 11.4022 16.75 10.9922C16.75 10.5822 17.09 10.2422 17.5 10.2422ZM12 7.74219C13.79 7.74219 15.25 9.20219 15.25 10.9922C15.25 12.7822 13.79 14.2422 12 14.2422C10.21 14.2422 8.75 12.7822 8.75 10.9922C8.75 9.20219 10.21 7.74219 12 7.74219ZM12 9.24219C11.04 9.24219 10.25 10.0322 10.25 10.9922C10.25 11.9522 11.04 12.7422 12 12.7422C12.96 12.7422 13.75 11.9522 13.75 10.9922C13.75 10.0322 12.96 9.24219 12 9.24219ZM6.5 3.74219C8.02 3.74219 9.25 4.97219 9.25 6.49219C9.25 8.01219 8.02 9.24219 6.5 9.24219C4.98 9.24219 3.75 8.01219 3.75 6.49219C3.75 4.97219 4.98 3.74219 6.5 3.74219ZM17.5 3.74219C19.02 3.74219 20.25 4.97219 20.25 6.49219C20.25 8.01219 19.02 9.24219 17.5 9.24219C15.98 9.24219 14.75 8.01219 14.75 6.49219C14.75 4.97219 15.98 3.74219 17.5 3.74219ZM6.5 5.24219C5.81 5.24219 5.25 5.80219 5.25 6.49219C5.25 7.18219 5.81 7.74219 6.5 7.74219C7.19 7.74219 7.75 7.18219 7.75 6.49219C7.75 5.80219 7.19 5.24219 6.5 5.24219ZM17.5 5.24219C16.81 5.24219 16.25 5.80219 16.25 6.49219C16.25 7.18219 16.81 7.74219 17.5 7.74219C18.19 7.74219 18.75 7.18219 18.75 6.49219C18.75 5.80219 18.19 5.24219 17.5 5.24219Z" fill="#1B84E7"/>
</svg>
