<svg width="24" height="24" viewBox="0 0 24 24" fill="none" xmlns="http://www.w3.org/2000/svg">
<path d="M12.0039 15.25C13.4039 15.25 14.7039 15.6704 15.7939 16.4004C16.8838 17.1304 17.2539 18.4001 17.2539 19.5C17.2539 19.91 16.9139 20.25 16.5039 20.25H7.50391C7.09391 20.25 6.75391 19.91 6.75391 19.5C6.75391 18.4001 7.13401 17.1304 8.21387 16.4004C9.29387 15.6704 10.6039 15.25 12.0039 15.25ZM6.50391 10.25C6.86381 10.25 7.21379 10.2796 7.55371 10.3496H7.54395C7.51395 10.5596 7.49414 10.78 7.49414 11C7.49414 12.4199 8.14392 13.6798 9.17383 14.5098C8.64383 14.6998 8.14359 14.95 7.68359 15.25H2.50391C2.09391 15.25 1.75391 14.91 1.75391 14.5C1.75391 13.43 2.07376 12.1599 3.05371 11.4199C4.03371 10.6899 5.21391 10.25 6.50391 10.25ZM17.4922 10.25C18.7821 10.25 19.9624 10.69 20.9424 11.4199C21.9224 12.1599 22.2422 13.43 22.2422 14.5C22.2422 14.91 21.9022 15.25 21.4922 15.25H16.3125C15.8425 14.95 15.3425 14.6998 14.8125 14.5098C15.8424 13.6798 16.4922 12.4199 16.4922 11C16.4922 10.78 16.4724 10.5596 16.4424 10.3496C16.7823 10.2796 17.1323 10.25 17.4922 10.25ZM12.0039 7.75C13.7939 7.75 15.2539 9.21 15.2539 11C15.2539 12.79 13.7939 14.25 12.0039 14.25C10.2139 14.25 8.75391 12.79 8.75391 11C8.75391 9.21 10.2139 7.75 12.0039 7.75ZM6.50391 3.75C8.02391 3.75 9.25391 4.98 9.25391 6.5C9.25391 8.02 8.02391 9.25 6.50391 9.25C4.98391 9.25 3.75391 8.02 3.75391 6.5C3.75391 4.98 4.98391 3.75 6.50391 3.75ZM17.5039 3.75C19.0239 3.75 20.2539 4.98 20.2539 6.5C20.2539 8.02 19.0239 9.25 17.5039 9.25C15.9839 9.25 14.7539 8.02 14.7539 6.5C14.7539 4.98 15.9839 3.75 17.5039 3.75Z" fill="#1B84E7"/>
</svg>
