<svg width="24" height="24" viewBox="0 0 24 24" fill="none" xmlns="http://www.w3.org/2000/svg">
<path d="M16.7197 3.25C18.4096 3.25 19.3494 3.25027 20.1094 3.87012C20.8794 4.52012 21.0699 5.48008 21.3799 7.08008L21.7393 8.84961C21.7393 8.84961 21.7393 8.86984 21.7393 8.87988C21.8092 8.93986 21.8792 9.00035 21.9492 9.07031C22.7492 9.86028 22.75 10.9799 22.75 13.0098V16C22.75 16.4142 22.4142 16.75 22 16.75H21C20.5858 16.75 20.25 16.4142 20.25 16V14.75H16.6748C16.7489 15.3496 16.75 16.0816 16.75 17V20C16.75 20.4142 16.4142 20.75 16 20.75H15C14.5858 20.75 14.25 20.4142 14.25 20V18.75H3.75V20C3.75 20.4142 3.41421 20.75 3 20.75H2C1.58579 20.75 1.25 20.4142 1.25 20V17C1.25 14.97 1.25055 13.8605 2.06055 13.0605C2.12705 12.9924 2.19605 12.9302 2.26758 12.873C2.26835 12.8688 2.26966 12.8646 2.27051 12.8604L2.62988 11.0801C2.93988 9.49008 3.13063 8.51988 3.89062 7.87988C4.65057 7.2601 5.59049 7.25977 7.28027 7.25977H8.38867L8.42969 7.06055C8.73966 5.47066 8.92959 4.51012 9.68945 3.87012C10.4495 3.25012 11.3901 3.25 13.0801 3.25H16.7197ZM6 13.75C4.26005 13.75 3.47013 13.7601 3.12012 14.1201C2.76012 14.4701 2.74023 15.26 2.74023 17V17.25H5.68945L6.46973 16.4697L6.58398 16.376C6.70628 16.2944 6.85085 16.25 7 16.25H11C11.1989 16.25 11.3896 16.3291 11.5303 16.4697L12.3105 17.25H15.25V17C15.25 15.26 15.2399 14.4701 14.8799 14.1201C14.5299 13.7601 13.74 13.75 12 13.75H6ZM15.0957 9.75C15.1923 10.1394 15.2815 10.582 15.3799 11.0898L15.7402 12.8604C15.7414 12.8661 15.7412 12.8721 15.7422 12.8779C15.8132 12.9341 15.8836 12.9939 15.9502 13.0605C16.0118 13.1214 16.0676 13.185 16.1201 13.25H21.25V13C21.25 11.2602 21.2398 10.4702 20.8799 10.1201C20.5299 9.76013 19.7398 9.75 18 9.75H15.0957ZM7.28027 8.75C5.83041 8.75 5.17061 8.76033 4.85059 9.03027C4.51059 9.31027 4.37059 9.99035 4.10059 11.3604L3.90918 12.3076C4.47808 12.2505 5.16136 12.25 6 12.25H12C12.8441 12.25 13.5291 12.2503 14.0996 12.3086L13.9102 11.3701C13.6402 9.99034 13.5003 9.31036 13.1504 9.03027C12.8304 8.7703 12.1704 8.75 10.7207 8.75H7.28027ZM19.5 10.7598C19.9099 10.7598 20.2499 11.0899 20.25 11.5098C20.25 11.9298 19.91 12.2705 19.5 12.2705V12.2598C19.09 12.2598 18.75 11.9198 18.75 11.5098C18.7501 11.0999 19.0901 10.7598 19.5 10.7598ZM13.0693 4.75C11.6196 4.75 10.9596 4.7603 10.6396 5.03027C10.3082 5.30344 10.1674 5.95701 9.91016 7.25977H10.7207C12.4104 7.25977 13.3504 7.25995 14.1104 7.87988C14.2448 7.99339 14.3611 8.11681 14.4639 8.25098C14.4758 8.2504 14.488 8.25 14.5 8.25H18C18.8399 8.25 19.5199 8.25055 20.0898 8.31055L19.8994 7.37012C19.6294 5.99019 19.4896 5.3103 19.1396 5.03027C18.8197 4.77029 18.1598 4.75 16.71 4.75H13.0693Z" fill="#1B84E7"/>
</svg>
