<svg width="24" height="24" viewBox="0 0 24 24" fill="none" xmlns="http://www.w3.org/2000/svg">
<path d="M12 1.25C12.973 1.25 13.62 1.89634 14.792 3.06934C15.3149 3.59223 15.7643 3.78613 16.4482 3.78613C16.5682 3.78613 16.6952 3.78232 16.8281 3.77832C17.647 3.75432 18.7666 3.72219 19.5186 4.4668C20.2765 5.21974 20.2447 6.34787 20.2207 7.17285C20.2167 7.30474 20.2129 7.43284 20.2129 7.55176C20.2129 8.33269 20.3338 8.61111 20.9297 9.20801C22.1027 10.381 22.749 11.027 22.749 12C22.749 12.973 22.1027 13.62 20.9297 14.792C20.3328 15.3889 20.2129 15.6673 20.2129 16.4482C20.2129 16.5672 20.2167 16.6952 20.2207 16.8271C20.2447 17.6511 20.2765 18.7803 19.5186 19.5322C18.7666 20.2769 17.646 20.2447 16.8271 20.2207C16.6952 20.2167 16.5672 20.2129 16.4482 20.2129C15.6672 20.2129 15.3977 20.325 14.8447 20.877C14.7518 20.9699 14.648 21.0822 14.5381 21.2002C13.9301 21.8542 13.098 22.749 12 22.749C10.902 22.749 10.0699 21.8542 9.46191 21.2002C9.35197 21.0813 9.24824 20.9699 9.15527 20.876C8.60327 20.324 8.33276 20.2129 7.55176 20.2129C7.43283 20.2129 7.30476 20.2167 7.17285 20.2207C6.35398 20.2447 5.2334 20.2769 4.48145 19.5322C3.7225 18.7793 3.75432 17.6502 3.77832 16.8262C3.78232 16.6942 3.78613 16.5662 3.78613 16.4473C3.78613 15.6663 3.66519 15.3879 3.06934 14.791C1.89634 13.618 1.25 12.972 1.25 11.999C1.25 11.026 1.89634 10.379 3.06934 9.20703C3.59221 8.6841 3.78613 8.23471 3.78613 7.55078C3.78613 7.43084 3.78232 7.30383 3.77832 7.1709C3.75432 6.35303 3.72216 5.23242 4.4668 4.48047C5.21975 3.72251 6.34786 3.75432 7.17285 3.77832C7.30476 3.78232 7.43183 3.78613 7.55176 3.78613C8.23569 3.78613 8.68507 3.59223 9.20801 3.06934C10.381 1.89634 11.027 1.25 12 1.25ZM11.999 2.74707C11.646 2.74707 11.1266 3.26598 10.2666 4.12598C9.46665 4.92586 8.6287 5.2832 7.55078 5.2832C7.41784 5.2832 7.27583 5.27939 7.12891 5.27539C6.54795 5.25839 5.82627 5.23825 5.53125 5.53418C5.23825 5.82918 5.25937 6.548 5.27637 7.125C5.28036 7.27292 5.28418 7.41489 5.28418 7.54883C5.28418 8.62775 4.92683 9.4657 4.12695 10.2646C3.26695 11.1246 2.74805 11.6441 2.74805 11.9971C2.74805 12.3501 3.26695 12.8685 4.12695 13.7295C4.98678 14.5904 5.28418 15.2654 5.28418 16.4453C5.28417 16.5782 5.28036 16.7203 5.27637 16.8672C5.25937 17.4481 5.23921 18.1699 5.53516 18.4648C5.83015 18.7568 6.54894 18.7357 7.12793 18.7197C7.27486 18.7157 7.41686 18.7119 7.5498 18.7119L7.55176 18.7129C8.73176 18.7129 9.37884 18.9814 10.2148 19.8154C10.3277 19.9283 10.4407 20.0499 10.5605 20.1777C10.9805 20.6297 11.556 21.248 12 21.248C12.444 21.248 13.0195 20.6287 13.4395 20.1777C13.5593 20.0489 13.6723 19.9273 13.7842 19.8154C14.6202 18.9804 15.2673 18.7119 16.4473 18.7119C16.5802 18.7119 16.7222 18.7157 16.8691 18.7197C17.4471 18.7367 18.1669 18.7578 18.4619 18.4648C18.7578 18.1698 18.7377 17.4481 18.7207 16.8682C18.7167 16.7213 18.7129 16.5792 18.7129 16.4463C18.7129 15.2654 18.9943 14.6054 19.8701 13.7305C20.7461 12.8555 21.249 12.351 21.249 11.998C21.249 11.645 20.7301 11.1266 19.8701 10.2656C19.0102 9.4047 18.7129 8.72974 18.7129 7.5498C18.7129 7.41686 18.7167 7.27486 18.7207 7.12793C18.7377 6.54699 18.7578 5.8253 18.4619 5.53027C18.1669 5.23729 17.4481 5.25839 16.8711 5.27539C16.7232 5.27939 16.5812 5.2832 16.4473 5.2832C15.3684 5.2832 14.5304 4.92584 13.7314 4.12598C12.8714 3.26598 12.352 2.74707 11.999 2.74707ZM14.4258 9.01562C14.6918 8.6987 15.1664 8.65785 15.4834 8.92383C15.8003 9.19084 15.8412 9.66448 15.5752 9.98145L11.375 14.9814C11.2451 15.1362 11.0572 15.232 10.8545 15.2471C10.8365 15.2481 10.8178 15.249 10.7998 15.249C10.6159 15.249 10.4377 15.1816 10.3008 15.0576L8.50098 13.4512C8.19198 13.1752 8.16541 12.7006 8.44141 12.3916C8.71744 12.083 9.19112 12.0562 9.5 12.332L10.7227 13.4238L14.4258 9.01562Z" fill="#B3A4FB"/>
</svg>
