<svg width="16" height="16" viewBox="0 0 16 16" fill="none" xmlns="http://www.w3.org/2000/svg">
<path d="M8.00098 2.83301C9.71441 2.8331 11.1833 3.58704 12.3203 4.47461C13.4583 5.36303 14.2999 6.4124 14.7705 7.07227C14.7821 7.08856 14.7937 7.10547 14.8057 7.12207C14.9744 7.35679 15.167 7.6252 15.167 8C15.1669 8.3746 14.9744 8.64231 14.8057 8.87695C14.7937 8.8936 14.7822 8.91042 14.7705 8.92676C14.2999 9.58661 13.4584 10.6359 12.3203 11.5244C11.1833 12.412 9.71449 13.1659 8.00098 13.166C6.28727 13.166 4.81776 12.4121 3.68066 11.5244C2.54259 10.6359 1.70103 9.58659 1.23047 8.92676C1.21885 8.91047 1.20725 8.89355 1.19531 8.87695C1.02663 8.64235 0.834096 8.37452 0.833984 8C0.833984 7.6252 1.02654 7.35679 1.19531 7.12207C1.20728 7.10542 1.21881 7.08861 1.23047 7.07227C1.70105 6.41241 2.54258 5.3631 3.68066 4.47461C4.81775 3.58691 6.2873 2.83301 8.00098 2.83301ZM8.00098 3.83301C6.58854 3.83301 5.33091 4.45565 4.2959 5.26367C3.26212 6.07083 2.485 7.03623 2.04492 7.65332C1.9363 7.80564 1.88442 7.88017 1.85352 7.93945C1.8339 7.97714 1.83393 7.98793 1.83398 7.99805V8.00098C1.83393 8.0111 1.83388 8.02184 1.85352 8.05957C1.88439 8.11886 1.93624 8.19331 2.04492 8.3457C2.48504 8.96286 3.26196 9.92912 4.2959 10.7363C5.33091 11.5443 6.58854 12.166 8.00098 12.166C9.41324 12.1659 10.6702 11.5442 11.7051 10.7363C12.7391 9.92911 13.5159 8.96288 13.9561 8.3457C14.0647 8.19332 14.1166 8.11886 14.1475 8.05957C14.1671 8.02185 14.167 8.0111 14.167 8.00098V7.99805C14.167 7.98793 14.1671 7.97714 14.1475 7.93945C14.1165 7.88018 14.0646 7.80559 13.9561 7.65332C13.5159 7.03618 12.7389 6.07083 11.7051 5.26367C10.6701 4.45571 9.41328 3.8331 8.00098 3.83301ZM8.00098 5.5C9.38154 5.50018 10.501 6.6194 10.501 8C10.5008 9.38045 9.38143 10.4998 8.00098 10.5C6.62037 10.5 5.50115 9.38056 5.50098 8C5.50098 6.61929 6.62026 5.5 8.00098 5.5ZM8.00098 6.5C7.17255 6.5 6.50098 7.17157 6.50098 8C6.50115 8.82828 7.17266 9.5 8.00098 9.5C8.82915 9.49982 9.5008 8.82817 9.50098 8C9.50098 7.17168 8.82925 6.50018 8.00098 6.5Z" fill="#333333"/>
</svg>
