<svg width="144" height="40" viewBox="0 0 144 40" fill="none" xmlns="http://www.w3.org/2000/svg">
<g clip-path="url(#clip0_710_8027)">
<path d="M64.098 9.66975C68.1571 9.26727 72.3995 11.3868 74.1966 15.1014C74.7232 16.191 75.0517 17.2171 75.2465 18.3065C75.7356 21.1128 75.0825 23.9983 73.432 26.3211C71.8281 28.6098 69.6611 29.851 66.9418 30.328C68.4239 31.7255 69.8334 32.8539 72.0306 32.2381C72.9926 31.9685 73.5857 31.5569 74.2992 30.8739C74.765 31.3268 75.1835 31.7661 75.6283 32.2401C75.4204 32.4424 75.1222 32.6713 74.891 32.8582C71.4387 35.5416 66.8047 34.2531 64.8793 30.4071C62.2944 30.3067 60.2461 29.7163 58.2523 27.9432C53.9823 24.1455 53.4848 16.8237 57.5882 12.7049C59.3949 10.8917 61.4426 9.85236 64.0443 9.68147C64.0622 9.67753 64.0801 9.67369 64.098 9.66975ZM73.4838 19.2127C73.0279 14.5678 68.8877 11.1722 64.2386 11.6317C59.5965 12.0905 56.2042 16.22 56.6586 20.8582C57.113 25.4964 61.2429 28.8903 65.8861 28.4412C70.5358 27.9911 73.9387 23.8577 73.4838 19.2127Z" fill="white"/>
<path d="M64.7981 17.925C66.2262 17.7893 67.4977 18.827 67.6495 20.2521C67.8013 21.6772 66.7769 22.959 65.3521 23.1266C64.4162 23.2365 63.4934 22.8357 62.9357 22.0768C62.3781 21.318 62.2716 20.3183 62.6569 19.4593C63.0423 18.6001 63.86 18.0142 64.7981 17.925Z" fill="white"/>
<path d="M54.888 19.9873C55.161 19.9884 55.3622 20.006 55.5731 20.1787C55.608 20.4064 55.6179 20.3202 55.5184 20.532C55.3365 20.6475 55.1908 20.7675 54.9756 20.7546C54.8477 20.5324 54.8904 20.27 54.888 19.9873Z" fill="white"/>
<path d="M10.6019 9.60451C10.9553 9.53377 12.2217 9.56584 12.6191 9.60903C15.2803 9.89829 17.767 11.1451 19.4614 13.2308C18.6383 14.1539 17.8432 14.9817 16.9778 15.8668C16.9508 15.8321 16.9234 15.7976 16.8955 15.7635C15.7664 14.3792 14.1291 13.5047 12.3498 13.3355C10.5715 13.1553 8.96954 13.5219 7.57449 14.6607C6.23172 15.7398 5.38047 17.3135 5.21284 19.027C4.55174 25.7824 11.3514 29.0359 16.4881 24.792L17.1044 24.2191C17.901 24.9349 18.8136 25.8866 19.5865 26.6528C17.5453 28.818 15.5669 30.1314 12.5078 30.3932C9.561 30.6555 6.83401 29.897 4.57658 27.9352C0.349473 24.2616 -0.2476 17.447 3.40066 13.2047C5.22297 11.0914 7.81636 9.79479 10.6019 9.60451Z" fill="white"/>
<path d="M135.535 15.048C137.681 14.6927 140.329 15.6349 141.672 17.3585C143.156 19.2641 143.412 21.1066 143.455 23.4288L131.268 23.4435C131.286 24.3512 131.517 25.242 131.941 26.045C132.575 27.2131 133.645 28.084 134.918 28.4679C136.626 28.9806 138.192 28.6568 139.723 27.8361C140.39 27.4151 140.742 27.0655 141.26 26.4786C141.737 26.8572 142.167 27.2068 142.623 27.6095C141.3 29.2387 139.966 30.1107 137.851 30.3741C133.236 30.9484 129.673 28.2527 129.175 23.5421C128.935 21.3608 129.574 19.1735 130.95 17.463C132.124 16.0221 133.697 15.2364 135.535 15.048ZM135.951 16.7589C132.954 17.1301 131.595 19.0069 131.216 21.8468L136.782 21.8517C138.322 21.8554 139.926 21.8372 141.46 21.879C140.975 18.6445 139.435 16.6588 135.951 16.7589Z" fill="white"/>
<path d="M101.736 15.049C103.683 14.7808 105.931 15.4224 107.32 16.8371C109.127 18.6758 109.594 20.9359 109.601 23.4181C105.555 23.4461 101.508 23.449 97.4619 23.4269C97.571 26.6124 99.7672 28.7102 102.961 28.6437C104.268 28.6165 104.97 28.3168 106.101 27.6935C106.567 27.3755 107.086 26.7961 107.471 26.382C107.799 26.6834 108.572 27.2277 108.956 27.5158C107.295 29.0993 106.216 30.1405 103.838 30.3752C102.273 30.5295 100.554 30.3855 99.168 29.6427C93.0439 26.3609 94.4531 15.7961 101.736 15.049ZM102.355 16.7619C99.1172 17.0764 97.9325 18.868 97.3623 21.8224L102.586 21.8547L107.565 21.8615C107.243 18.7634 105.616 16.7683 102.355 16.7619Z" fill="white"/>
<path d="M40.5787 15.0138C42.0007 15.0312 43.4464 15.0188 44.8704 15.0201C44.4489 16.2123 44.0934 17.199 43.618 18.385C42.0057 22.3506 40.5713 26.3024 38.9879 30.2253C37.9393 30.2075 35.8469 30.1424 34.8756 30.2609C33.5313 27.2796 32.3205 23.6683 31.1085 20.6032C30.3637 18.7194 29.5563 16.9544 28.9062 15.0137C30.2567 15.0416 31.6666 15.0269 33.022 15.0328C34.402 18.2611 35.435 22.3601 36.8906 25.6183C37.4765 24.3976 38.3328 21.5036 38.8082 20.1478C39.3545 18.5895 40.1424 16.5566 40.5787 15.0138Z" fill="white"/>
<path d="M89.692 15.1685L91.6635 15.1533L91.7118 19.3791L91.7282 30.2844L89.6928 30.2753C89.6896 29.4089 89.6966 28.5424 89.7138 27.6762C89.4606 28.0525 89.1747 28.4053 88.8585 28.7305C87.6636 29.9428 86.2778 30.356 84.6163 30.4115C80.9731 30.533 79.0124 28.038 79.0662 24.5712C79.0786 23.7827 79.0521 22.8343 79.0498 22.0174L79.0537 15.17L81.0611 15.1697L81.0915 21.5072C81.0915 22.7823 80.9902 24.414 81.2091 25.6372C81.8167 29.0349 86.2381 29.4129 88.3498 27.2857C88.9465 26.6773 89.3664 25.918 89.5634 25.0894C89.7714 24.2023 89.6943 22.2593 89.6935 21.2632L89.692 15.1685Z" fill="white"/>
<path d="M112.992 15.189L114.853 15.2415C114.889 17.3619 114.906 19.4826 114.903 21.6033C114.908 22.9508 114.856 24.204 115.056 25.5438C115.579 29.0553 120.164 29.4779 122.325 27.2929C122.874 26.7309 123.254 26.0269 123.423 25.2605C123.624 24.3687 123.534 22.3128 123.533 21.2821L123.548 15.2003C124.071 15.24 124.992 15.2058 125.542 15.2022C125.599 16.4941 125.579 17.8988 125.582 19.1999L125.586 30.2533C124.911 30.206 124.187 30.2301 123.507 30.2397L123.48 27.8539C121.545 30.6299 117.302 31.4346 114.535 29.1346C113.592 28.3508 113.055 26.3315 113.051 25.1013C113.041 21.8108 112.977 18.4949 112.992 15.189Z" fill="white"/>
<path d="M22.5273 15.0218L26.4381 15.0151C26.4622 20.1112 26.5462 25.1132 26.501 30.2339C25.19 30.2237 23.879 30.2207 22.568 30.2249C22.5047 25.1575 22.4911 20.0895 22.5273 15.0218Z" fill="white"/>
<path d="M47.1776 15.044C48.462 15.0289 49.7465 15.029 51.0309 15.0442C51.1664 19.8386 51.0998 25.4201 51.0512 30.2341C49.769 30.2031 48.4865 30.1892 47.204 30.1924C47.0423 25.4655 47.1312 19.8101 47.1776 15.044Z" fill="white"/>
<path d="M23.9982 8.274C24.8113 8.08131 25.6654 8.34085 26.2334 8.95322C26.8014 9.56559 26.9956 10.436 26.7416 11.2314C26.4876 12.0268 25.8247 12.624 25.0066 12.7945C23.7653 13.0534 22.5462 12.2677 22.2703 11.0312C21.9945 9.7947 22.7644 8.56629 23.9982 8.274Z" fill="white"/>
<path d="M48.7587 8.33181C49.9859 8.1722 51.1165 9.01928 51.3069 10.2408C51.4972 11.4625 50.6777 12.6128 49.4601 12.8334C48.645 12.981 47.8138 12.6755 47.2889 12.0352C46.7639 11.3951 46.6278 10.5208 46.933 9.7515C47.2384 8.98216 47.9373 8.43873 48.7587 8.33181Z" fill="white"/>
</g>
<defs>
<clipPath id="clip0_710_8027">
<rect width="144" height="40" fill="white"/>
</clipPath>
</defs>
</svg>
